<?xml version="1.0" encoding="UTF-8" standalone="no"?>
<!-- Created with Inkscape (http://www.inkscape.org/) -->
<!-- icons-mk created by Matthias Kuhnel (2019), reuseIT, https://reuseproject.org -->

<svg
   xmlns:dc="http://purl.org/dc/elements/1.1/"
   xmlns:cc="http://creativecommons.org/ns#"
   xmlns:rdf="http://www.w3.org/1999/02/22-rdf-syntax-ns#"
   xmlns:svg="http://www.w3.org/2000/svg"
   xmlns="http://www.w3.org/2000/svg"
   version="1.1"
   width="25"
   height="25"
   id="svg">
  <defs
     id="defs" />
  <metadata
     id="metadata">
    <rdf:RDF>
      <cc:Work
         rdf:about="">
        <dc:format>image/svg+xml</dc:format>
        <dc:type
           rdf:resource="http://purl.org/dc/dcmitype/StillImage" />
        <dc:title></dc:title>
      </cc:Work>
    </rdf:RDF>
  </metadata>
  <g
     transform="translate(0,-1027.3622)"
     id="icons-mk">
    <path
       d="m 12.5,1027.3622 c -1.734,0 -3.1400002,1.4059 -3.1400002,3.1402 0,1.2763 0.7710002,2.3743 1.8640002,2.8655 l 0,2.8851 -4.2200002,0 0,1.3738 4.2200002,0 0,12.2469 c -2.5220002,-0.341 -4.7480002,-1.495 -5.0240002,-3.0029 l 1.629,0 -2.846,-3.7486 -2.845,3.7486 1.53,0 c 2.553,8.6046 16.9080002,5.9169 17.6240002,0 l 1.57,0 -2.844,-3.7486 -2.846,3.7486 1.59,0 c -0.753,1.9182 -2.778,2.8337 -4.987,3.0422 l 0,-12.2862 4.221,0 0,-1.3738 -4.221,0 0,-2.8851 c 1.094,-0.4916 1.866,-1.59 1.866,-2.8655 0,-1.7343 -1.407,-3.1402 -3.14,-3.1402 z m 0,1.5701 c 0.867,0 1.57,0.703 1.57,1.5701 0,0.8672 -0.703,1.5702 -1.57,1.5702 -0.867,0 -1.57,-0.703 -1.57,-1.5702 0,-0.8671 0.703,-1.5701 1.57,-1.5701 z"
       id="anchor"
       style="fill:#000000;fill-opacity:1;stroke:none" />
  </g>
</svg>
