<?xml version="1.0" encoding="UTF-8" standalone="no"?>
<!-- Created with Inkscape (http://www.inkscape.org/) -->
<!-- icons-mk created by Matthias Kuhnel (2020), reuseIT, https://reuseproject.org -->

<svg
   xmlns:dc="http://purl.org/dc/elements/1.1/"
   xmlns:cc="http://creativecommons.org/ns#"
   xmlns:rdf="http://www.w3.org/1999/02/22-rdf-syntax-ns#"
   xmlns:svg="http://www.w3.org/2000/svg"
   xmlns="http://www.w3.org/2000/svg"
   version="1.1"
   width="25"
   height="25"
   id="svg">
  <defs
     id="defs" />
  <metadata
     id="metadata">
    <rdf:RDF>
      <cc:Work
         rdf:about="">
        <dc:format>image/svg+xml</dc:format>
        <dc:type
           rdf:resource="http://purl.org/dc/dcmitype/StillImage" />
        <dc:title></dc:title>
      </cc:Work>
    </rdf:RDF>
  </metadata>
  <g
     transform="translate(0,-1027.3622)"
     id="icons-mk">
    <path
       d="m 11.578,1027.3624 c -0.629,-0.01 -1.206,0.2176 -1.657,0.5937 -0.449,0.3761 -0.786,0.8963 -1.062,1.4688 -0.552,1.145 -0.873,2.5674 -1.062,4 -0.263,1.9853 -0.295,3.5963 -0.282,4.625 l -1.812,0 0,14.3125 13.594,0 0,-14.3125 -1.813,0 c 0,-1.0203 -0.02,-2.6031 -0.281,-4.5625 -0.189,-1.4251 -0.48,-2.8823 -1.032,-4.0313 -0.55,-1.149 -1.464,-2.0742 -2.718,-2.0937 -0.349,-0.01 -0.673,0.062 -0.969,0.1875 -0.275,-0.1142 -0.582,-0.1825 -0.906,-0.1875 z m -0.313,1.25 c -0.185,0.2578 -0.355,0.5129 -0.5,0.8125 -0.552,1.145 -0.873,2.5674 -1.062,4 -0.262,1.9853 -0.295,3.5963 -0.282,4.625 l -0.687,0 c -0.01,-0.9861 0,-2.5567 0.25,-4.4688 0.18,-1.3657 0.483,-2.7139 0.937,-3.6562 0.228,-0.4712 0.48,-0.8364 0.75,-1.0625 0.19,-0.158 0.383,-0.2105 0.594,-0.25 z m 2.469,0 c 0.552,0.1226 0.984,0.5596 1.375,1.375 0.456,0.9498 0.757,2.2981 0.938,3.6562 0.25,1.8864 0.259,3.4282 0.25,4.4063 l -0.688,0 c 0.01,-1.0204 -0.02,-2.6033 -0.281,-4.5625 -0.189,-1.4251 -0.512,-2.8823 -1.063,-4.0313 -0.15,-0.314 -0.33,-0.577 -0.531,-0.8437 z m -1.25,0.3437 c 0.258,0.2388 0.499,0.5739 0.719,1.0313 0.455,0.9498 0.757,2.2981 0.937,3.6562 0.251,1.8864 0.26,3.4282 0.25,4.4063 l -3.781,0 c -0.02,-0.9861 0,-2.5569 0.25,-4.4688 0.18,-1.3657 0.514,-2.7139 0.969,-3.6562 0.202,-0.4189 0.419,-0.7407 0.656,-0.9688 z"
       id="bag"
       style="fill:#000000;fill-opacity:1" />
  </g>
</svg>
