<?xml version="1.0" encoding="UTF-8" standalone="no"?>
<!-- Created with Inkscape (http://www.inkscape.org/) -->
<!-- icons-mk created by Matthias Kuhnel (2019), reuseIT, https://reuseproject.org -->

<svg
   xmlns:dc="http://purl.org/dc/elements/1.1/"
   xmlns:cc="http://creativecommons.org/ns#"
   xmlns:rdf="http://www.w3.org/1999/02/22-rdf-syntax-ns#"
   xmlns:svg="http://www.w3.org/2000/svg"
   xmlns="http://www.w3.org/2000/svg"
   version="1.1"
   width="25"
   height="25"
   id="svg">
  <defs
     id="defs" />
  <metadata
     id="metadata">
    <rdf:RDF>
      <cc:Work
         rdf:about="">
        <dc:format>image/svg+xml</dc:format>
        <dc:type
           rdf:resource="http://purl.org/dc/dcmitype/StillImage" />
        <dc:title></dc:title>
      </cc:Work>
    </rdf:RDF>
  </metadata>
  <g
     transform="translate(0,-1027.3622)"
     id="icons-mk">
    <path
       d="M 0.71880029,1031.7531 A 0.79373016,0.79373016 0 0 0 2.85e-7,1032.5344 l 0,14.625 a 0.79373016,0.79373016 0 0 0 0.781200005,0.8125 l 23.43759971,0 A 0.79373016,0.79373016 0 0 0 25,1047.1594 l 0,-14.625 a 0.79373016,0.79373016 0 0 0 -0.7812,-0.7813 l -23.43759971,0 a 0.79373016,0.79373016 0 0 0 -0.062,0 z m 0.87500001,1.5938 21.8123997,0 0,3.0625 -21.8123997,0 0,-3.0625 z m 0,6.4062 21.8123997,0 0,6.625 -21.8123997,0 0,-6.625 z M 18,1043.7844 l 0,1.5 4.3438,0 0,-1.5 -4.3438,0 z"
       id="bank-card"
       style="font-size:medium;font-style:normal;font-variant:normal;font-weight:normal;font-stretch:normal;text-indent:0;text-align:start;text-decoration:none;line-height:normal;letter-spacing:normal;word-spacing:normal;text-transform:none;direction:ltr;block-progression:tb;writing-mode:lr-tb;text-anchor:start;baseline-shift:baseline;color:#000000;fill:#000000;fill-opacity:1;stroke:none;stroke-width:1.5;marker:none;visibility:visible;display:inline;overflow:visible;enable-background:accumulate;font-family:Sans;-inkscape-font-specification:Sans" />
  </g>
</svg>
