<?xml version="1.0" encoding="UTF-8" standalone="no"?>
<!-- Created with Inkscape (http://www.inkscape.org/) -->
<!-- icons-mk created by Matthias Kuhnel (2019), reuseIT, https://reuseproject.org -->

<svg
   xmlns:dc="http://purl.org/dc/elements/1.1/"
   xmlns:cc="http://creativecommons.org/ns#"
   xmlns:rdf="http://www.w3.org/1999/02/22-rdf-syntax-ns#"
   xmlns:svg="http://www.w3.org/2000/svg"
   xmlns="http://www.w3.org/2000/svg"
   version="1.1"
   width="25"
   height="25"
   id="svg">
  <defs
     id="defs" />
  <metadata
     id="metadata">
    <rdf:RDF>
      <cc:Work
         rdf:about="">
        <dc:format>image/svg+xml</dc:format>
        <dc:type
           rdf:resource="http://purl.org/dc/dcmitype/StillImage" />
        <dc:title></dc:title>
      </cc:Work>
    </rdf:RDF>
  </metadata>
  <g
     transform="translate(0,-1027.3622)"
     id="icons-mk">
    <path
       d="m 3.7499998,1052.3623 0,-25 -2.5,-10e-5 0,25.0001 z m 20.0000002,0 0,-25 -2.5,-10e-5 0,25.0001 z m -23.7500002,-1.25 25.0000002,0 0,-2.5 -25.0000002,0 z m 0,-20 25.0000002,0 0,-2.5001 -25.0000002,0 z m 13.7500002,21.25 0,-25 -2.5,-10e-5 0,25.0001 z m 5,0 0,-25 -2.5,-10e-5 0,25.0001 z m -10.0000002,0 0,-25 -2.5,-10e-5 0,25.0001 z m -8.75,-11.25 25.0000002,0 0,-2.5 -25.0000002,0 z m 0,5 25.0000002,0 0,-2.5 -25.0000002,0 z m 0,-10 25.0000002,0 0,-2.5 -25.0000002,0 z"
       id="bars"
       style="fill:#000000;fill-opacity:1;fill-rule:nonzero;stroke:none" />
  </g>
</svg>
