<?xml version="1.0" encoding="UTF-8" standalone="no"?>
<!-- Created with Inkscape (http://www.inkscape.org/) -->
<!-- icons-mk created by Matthias Kuhnel (2019), reuseIT, https://reuseproject.org -->

<svg
   xmlns:dc="http://purl.org/dc/elements/1.1/"
   xmlns:cc="http://creativecommons.org/ns#"
   xmlns:rdf="http://www.w3.org/1999/02/22-rdf-syntax-ns#"
   xmlns:svg="http://www.w3.org/2000/svg"
   xmlns="http://www.w3.org/2000/svg"
   version="1.1"
   width="25"
   height="25"
   id="svg">
  <defs
     id="defs" />
  <metadata
     id="metadata">
    <rdf:RDF>
      <cc:Work
         rdf:about="">
        <dc:format>image/svg+xml</dc:format>
        <dc:type
           rdf:resource="http://purl.org/dc/dcmitype/StillImage" />
        <dc:title></dc:title>
      </cc:Work>
    </rdf:RDF>
  </metadata>
  <g
     transform="translate(0,-1027.3622)"
     id="icons-mk">
    <path
       d="m 10.094788,1027.369 c -0.2060003,0.068 -0.3550003,0.283 -0.3440003,0.4999 l 0,1.4996 -3.249,0 c -0.05,-0.01 -0.104,-0.01 -0.156,0 -0.2070005,0.068 -0.3550005,0.283 -0.3440005,0.4999 l 0,21.9947 c 0,0.2617 0.238,0.4999 0.5000005,0.4999 l 11.9970003,0 c 0.262,0 0.5,-0.2382 0.5,-0.4999 l 0,-21.9947 c 0,-0.2616 -0.238,-0.4998 -0.5,-0.4999 l -3.249,0 0,-1.4996 c 0,-0.2616 -0.239,-0.4999 -0.5,-0.4999 l -4.499,0 c -0.05,-0.01 -0.104,-0.01 -0.156,0 z m -1.8440003,4.9988 8.4980003,0 0,2.9993 -8.4980003,0 0,-2.9993 z m 0,6.9983 8.4980003,0 0,2.9993 -8.4980003,0 0,-2.9993 z m 0,6.9983 8.4980003,0 0,2.9993 -8.4980003,0 0,-2.9993 z"
       id="battery-rechargeable"
       style="font-size:medium;font-style:normal;font-variant:normal;font-weight:normal;font-stretch:normal;text-indent:0;text-align:start;text-decoration:none;line-height:normal;letter-spacing:normal;word-spacing:normal;text-transform:none;direction:ltr;block-progression:tb;writing-mode:lr-tb;text-anchor:start;baseline-shift:baseline;color:#000000;fill:#000000;fill-opacity:1;fill-rule:nonzero;stroke:none;stroke-width:1;marker:none;visibility:visible;display:inline;overflow:visible;enable-background:accumulate;font-family:Sans;-inkscape-font-specification:Sans" />
  </g>
</svg>
