<?xml version="1.0" encoding="UTF-8" standalone="no"?>
<!-- Created with Inkscape (http://www.inkscape.org/) -->
<!-- icons-mk created by Matthias Kuhnel (2019), reuseIT, https://reuseproject.org -->

<svg
   xmlns:dc="http://purl.org/dc/elements/1.1/"
   xmlns:cc="http://creativecommons.org/ns#"
   xmlns:rdf="http://www.w3.org/1999/02/22-rdf-syntax-ns#"
   xmlns:svg="http://www.w3.org/2000/svg"
   xmlns="http://www.w3.org/2000/svg"
   version="1.1"
   width="25"
   height="25"
   id="svg">
  <defs
     id="defs" />
  <metadata
     id="metadata">
    <rdf:RDF>
      <cc:Work
         rdf:about="">
        <dc:format>image/svg+xml</dc:format>
        <dc:type
           rdf:resource="http://purl.org/dc/dcmitype/StillImage" />
        <dc:title></dc:title>
      </cc:Work>
    </rdf:RDF>
  </metadata>
  <g
     transform="translate(0,-1027.3622)"
     id="icons-mk">
    <path
       d="m 20.8767,1039.4959 c 0,1.3809 -1.1193,2.5002 -2.5002,2.5002 -1.3809,0 -2.5002,-1.1193 -2.5002,-2.5002 0,-1.3808 1.1193,-2.5002 2.5002,-2.5002 1.3809,0 2.5002,1.1194 2.5002,2.5002 z m -20.09540005,-3.9932 c -0.4341,0 -0.781299999999997,0.2561 -0.781299999999997,0.5938 l 0,6.7818 c 0,0.3379 0.347199999999997,0.625 0.781299999999997,0.625 l 1.21890005,0 0,0.6564 c 0,0.034 0.023,0.062 0.062,0.062 l 2.3752,0 c 0.05,0 0.062,-0.029 0.062,-0.062 l 0,-0.6564 16.0012,0 0,0.6564 c 0,0.034 0.023,0.062 0.062,0.062 l 2.3752,0 c 0.05,0 0.062,-0.029 0.062,-0.062 l 0,-0.6564 1.2189,0 c 0.4341,0 0.7813,-0.2871 0.7813,-0.625 l 0,-6.7818 c 0,-0.3377 -0.3472,-0.5938 -0.7813,-0.5938 l -23.43940005,0 z m 17.59520005,0.5 c 1.9331,0 3.5003,1.5673 3.5003,3.5003 0,1.9332 -1.5672,3.5003 -3.5003,3.5003 -1.9332,0 -3.5003,-1.5671 -3.5003,-3.5003 0,-1.933 1.5671,-3.5003 3.5003,-3.5003 z m -16.3138001,1.0001 c 0.04,-0.013 0.099,0 0.1563,0 l 6.5629,0 c 0.119,0 0.2188,0.02 0.2188,0.063 l 0,0.8438 c 0,0.042 -0.1,0.094 -0.2188,0.094 l -6.5629,0 c -0.119,0 -0.2188,-0.051 -0.2188,-0.094 l 0,-0.8438 c 0,-0.021 0.023,-0.049 0.062,-0.063 z m 0,2.0002 c 0.04,-0.013 0.099,0 0.1563,0 l 6.5629,0 c 0.119,0 0.2188,0.02 0.2188,0.063 l 0,0.8438 c 0,0.042 -0.1,0.094 -0.2188,0.094 l -6.5629,0 c -0.119,0 -0.2188,-0.051 -0.2188,-0.094 l 0,-0.8438 c 0,-0.021 0.023,-0.049 0.062,-0.063 z m 0,2.0001 c 0.04,-0.013 0.099,0 0.1563,0 l 6.5629,0 c 0.119,0 0.2188,0.02 0.2188,0.063 l 0,0.8438 c 0,0.042 -0.1,0.094 -0.2188,0.094 l -6.5629,0 c -0.119,0 -0.2188,-0.051 -0.2188,-0.094 l 0,-0.8438 c 0,-0.021 0.023,-0.049 0.062,-0.063 z"
       id="beamer"
       style="fill:#000000;fill-opacity:1;stroke:none" />
  </g>
</svg>
