<?xml version="1.0" encoding="UTF-8" standalone="no"?>
<!-- Created with Inkscape (http://www.inkscape.org/) -->
<!-- icons-mk created by Matthias Kuhnel (2019), reuseIT, https://reuseproject.org -->

<svg
   xmlns:dc="http://purl.org/dc/elements/1.1/"
   xmlns:cc="http://creativecommons.org/ns#"
   xmlns:rdf="http://www.w3.org/1999/02/22-rdf-syntax-ns#"
   xmlns:svg="http://www.w3.org/2000/svg"
   xmlns="http://www.w3.org/2000/svg"
   version="1.1"
   width="25"
   height="25"
   id="svg">
  <defs
     id="defs" />
  <metadata
     id="metadata">
    <rdf:RDF>
      <cc:Work
         rdf:about="">
        <dc:format>image/svg+xml</dc:format>
        <dc:type
           rdf:resource="http://purl.org/dc/dcmitype/StillImage" />
        <dc:title></dc:title>
      </cc:Work>
    </rdf:RDF>
  </metadata>
  <g
     transform="translate(0,-1027.3622)"
     id="icons-mk">
    <path
       d="m 12.50052,1027.3778 c -1.0631,0 -1.9375,0.8744 -1.9375,1.9375 0,0.1221 0.041,0.228 0.062,0.3438 -0.622,0.1724 -1.2155993,0.4343 -1.7187988,0.7812 -3.2497,2.2407 -2.8152,8.0148 -4.2187,11.0625 -1.4036,3.0478 -6.1885,5.2491 -4.21869997,7.2188 0.4783,0.4784 4.19899997,0.7722 8.56239947,0.875 0.3964,1.5629 1.7825993,2.75 3.4687993,2.75 1.6861,0 3.0724,-1.1871 3.4688,-2.75 4.3553,-0.097 8.0711,-0.3837 8.5624,-0.875 1.9697,-1.9697 -2.8152,-4.171 -4.2187,-7.2188 -1.4035,-3.0477 -0.969,-8.8218 -4.2187,-11.0625 -0.5032,-0.3469 -1.0968,-0.6088 -1.7188,-0.7812 0.022,-0.1158 0.062,-0.2217 0.062,-0.3438 0,-1.0631 -0.8745,-1.9375 -1.9375,-1.9375 z"
       id="bell"
       style="fill:#000000;fill-opacity:1;stroke:none" />
  </g>
</svg>
