<?xml version="1.0" encoding="UTF-8" standalone="no"?>
<!-- Created with Inkscape (http://www.inkscape.org/) -->
<!-- icons-mk created by Matthias Kuhnel (2019), reuseIT, https://reuseproject.org -->

<svg
   xmlns:dc="http://purl.org/dc/elements/1.1/"
   xmlns:cc="http://creativecommons.org/ns#"
   xmlns:rdf="http://www.w3.org/1999/02/22-rdf-syntax-ns#"
   xmlns:svg="http://www.w3.org/2000/svg"
   xmlns="http://www.w3.org/2000/svg"
   version="1.1"
   width="25"
   height="25"
   id="svg">
  <defs
     id="defs" />
  <metadata
     id="metadata">
    <rdf:RDF>
      <cc:Work
         rdf:about="">
        <dc:format>image/svg+xml</dc:format>
        <dc:type
           rdf:resource="http://purl.org/dc/dcmitype/StillImage" />
        <dc:title></dc:title>
      </cc:Work>
    </rdf:RDF>
  </metadata>
  <g
     transform="translate(0,-1027.3622)"
     id="icons-mk">
    <path
       d="m 6.7056907e-4,1037.7716 c -0.0699999991,0.331 4.10400003093,2.383 4.14800003093,3.3097 0.04,0.9267 -3.20800003,3.0288 -3.045,3.442 0.164,0.4132 6.862,-2.6698 7.568,-3.0228 0.706,-0.353 2.2280004,-0.5957 2.4930004,-0.1324 0.223,0.3907 -2.5770004,2.8521 -2.5150004,3.0228 0.06,0.1707 2.6040004,0 2.6040004,0 0,0 -2.9090004,2.4891 -2.7810004,2.7801 0.129,0.2909 4.0600004,-1.1032 4.0600004,-1.1032 0,0 -4.6990004,3.5002 -4.3680004,3.9274 0.33,0.4272 7.9060004,-1.8232 9.9720004,-6.0456 0.9,-1.8371 0.662,-3.8392 0.662,-3.8392 0,0 4.81,-1.2797 4.987,-1.721 0.177,-0.4412 1.184,-0.3412 1.214,-0.6619 0.03,-0.3206 -1.221,-0.044 -2.119,-1.0591 -0.898,-1.0154 -4.167,0.3297 -4.479,-0.2647 -1.424,-2.7195 -3.133,-4.9203 -5.648,-5.3837 -2.099,-0.3867 -6.5740004,-1.6335 -6.7080004,-1.2797 -0.133,0.3538 5.7370004,3.1331 5.7370004,3.1331 0,0 -4.3200004,-0.8754 -4.5010004,-0.5737 -0.181,0.3018 3.7950004,2.6919 3.7950004,2.6919 0,0 -3.6490004,-0.3909 -3.7070004,0.1324 -0.06,0.5232 4.0700004,2.3475 3.4860004,2.8242 -0.584,0.4766 -4.1480004,1.5445 -5.1630004,1.059 -1.015,-0.4854 -5.62600003,-1.5665 -5.69200003093,-1.2356 z"
       id="bird"
       style="fill:#000000;fill-opacity:1;stroke:none" />
  </g>
</svg>
