<?xml version="1.0" encoding="UTF-8" standalone="no"?>
<!-- Created with Inkscape (http://www.inkscape.org/) -->
<!-- icons-mk created by Matthias Kuhnel (2019), reuseIT, https://reuseproject.org -->

<svg
   xmlns:dc="http://purl.org/dc/elements/1.1/"
   xmlns:cc="http://creativecommons.org/ns#"
   xmlns:rdf="http://www.w3.org/1999/02/22-rdf-syntax-ns#"
   xmlns:svg="http://www.w3.org/2000/svg"
   xmlns="http://www.w3.org/2000/svg"
   version="1.1"
   width="25"
   height="25"
   id="svg">
  <defs
     id="defs" />
  <metadata
     id="metadata">
    <rdf:RDF>
      <cc:Work
         rdf:about="">
        <dc:format>image/svg+xml</dc:format>
        <dc:type
           rdf:resource="http://purl.org/dc/dcmitype/StillImage" />
        <dc:title></dc:title>
      </cc:Work>
    </rdf:RDF>
  </metadata>
  <g
     transform="translate(0,-1027.3622)"
     id="icons-mk">
    <path
       d="m 12.5,1027.3622 c -6.9037001,0 -12.50000015,5.606 -12.50000015,12.5 0,6.8939 5.59630005,12.5 12.50000015,12.5 6.9035,0 12.5,-5.6061 12.5,-12.5 0,-6.894 -5.5965,-12.5 -12.5,-12.5 z m 0,3.125 c 1.9892,0 3.8264,0.6301 5.3438,1.6875 L 4.8124999,1045.206 c -1.0642,-1.5211 -1.6875,-3.3497 -1.6875,-5.3438 0,-5.1706 4.1971,-9.375 9.3750001,-9.375 z m 7.5625,3.875 c 1.1254,1.547 1.8125,3.4436 1.8125,5.5 0,5.1702 -4.1971,9.375 -9.375,9.375 -2.0549,0 -3.9551001,-0.6905 -5.5000001,-1.8125 L 20.0625,1034.3622 z"
       id="blocked"
       style="fill:#000000;fill-opacity:1;stroke:none" />
  </g>
</svg>
