<?xml version="1.0" encoding="UTF-8" standalone="no"?>
<!-- Created with Inkscape (http://www.inkscape.org/) -->
<!-- icons-mk created by Matthias Kuhnel (2019), reuseIT, https://reuseproject.org -->

<svg
   xmlns:dc="http://purl.org/dc/elements/1.1/"
   xmlns:cc="http://creativecommons.org/ns#"
   xmlns:rdf="http://www.w3.org/1999/02/22-rdf-syntax-ns#"
   xmlns:svg="http://www.w3.org/2000/svg"
   xmlns="http://www.w3.org/2000/svg"
   version="1.1"
   width="25"
   height="25"
   id="svg">
  <defs
     id="defs" />
  <metadata
     id="metadata">
    <rdf:RDF>
      <cc:Work
         rdf:about="">
        <dc:format>image/svg+xml</dc:format>
        <dc:type
           rdf:resource="http://purl.org/dc/dcmitype/StillImage" />
        <dc:title></dc:title>
      </cc:Work>
    </rdf:RDF>
  </metadata>
  <g
     transform="translate(0,-1027.3622)"
     id="icons-mk">
    <path
       d="m 1.1334999,1033.7348 c -0.62650005,0 -1.13350005,0.507 -1.13350005,1.1335 0,0.6269 0.507,1.1337 1.13350005,1.1337 0.6267,0 1.1337,-0.5068 1.1337,-1.1337 0,-0.6266 -0.507,-1.1335 -1.1337,-1.1335 z m 22.7330001,0 c -0.6267,0 -1.1337,0.5069 -1.1337,1.1335 0,0.6269 0.507,1.1337 1.1337,1.1337 0.6265,0 1.1335,-0.5068 1.1335,-1.1337 0,-0.6265 -0.507,-1.1335 -1.1335,-1.1335 z m -20.2206001,1.1335 c -0.6267,0 -1.1643,0.507 -1.1643,1.1337 0,0.6267 0.5376,1.1336 1.1643,1.1336 0.6266,0 1.1335,-0.5069 1.1335,-1.1336 0,-0.6267 -0.5069,-1.1337 -1.1335,-1.1337 z m 17.7082001,0 c -0.6266,0 -1.1335,0.507 -1.1335,1.1337 0,0.6267 0.5069,1.1336 1.1335,1.1336 0.6267,0 1.1643,-0.5069 1.1643,-1.1336 0,-0.6267 -0.5376,-1.1337 -1.1643,-1.1337 z m -20.2206001,1.3481 c -0.62650005,0 -1.13350005,0.5069 -1.13350005,1.1336 0,0.6268 0.507,1.1336 1.13350005,1.1336 0.6267,0 1.1337,-0.5069 1.1337,-1.1336 0,-0.6267 -0.507,-1.1336 -1.1337,-1.1336 z m 4.994,0 c -0.6267,0 -1.1336,0.5069 -1.1336,1.1336 0,0.6268 0.5069,1.1336 1.1336,1.1336 0.6266,0 1.1335,-0.5069 1.1335,-1.1336 0,-0.6267 -0.5069,-1.1336 -1.1335,-1.1336 z m 12.7450001,0 c -0.6266,0 -1.1335,0.5069 -1.1335,1.1336 0,0.6268 0.5069,1.1336 1.1335,1.1336 0.6267,0 1.1336,-0.5069 1.1336,-1.1336 0,-0.6267 -0.5069,-1.1336 -1.1336,-1.1336 z m 4.994,0 c -0.6267,0 -1.1337,0.5069 -1.1337,1.1336 0,0.6268 0.507,1.1336 1.1337,1.1336 0.6265,0 1.1335,-0.5069 1.1335,-1.1336 0,-0.6267 -0.507,-1.1336 -1.1335,-1.1336 z M 3.6458998,1037.35 c -0.6267,0 -1.1643,0.507 -1.1643,1.1336 0,0.6268 0.5376,1.1335 1.1643,1.1335 0.6266,0 1.1335,-0.5068 1.1335,-1.1335 0,-0.6268 -0.5069,-1.1336 -1.1335,-1.1336 z m 4.9631001,0 c -0.6265001,0 -1.1335001,0.507 -1.1335001,1.1336 0,0.6268 0.507,1.1335 1.1335001,1.1335 0.6267,0 1.1643,-0.5068 1.1643,-1.1335 0,-0.6268 -0.5376,-1.1336 -1.1643,-1.1336 z m 7.7820001,0 c -0.6267,0 -1.1643,0.5069 -1.1643,1.1336 0,0.6268 0.5376,1.1335 1.1643,1.1335 0.6265,0 1.1335,-0.5068 1.1335,-1.1335 0,-0.6267 -0.507,-1.1336 -1.1335,-1.1336 z m 4.9631,0 c -0.6266,0 -1.1335,0.5069 -1.1335,1.1336 0,0.6268 0.5069,1.1335 1.1335,1.1335 0.6267,0 1.1643,-0.5068 1.1643,-1.1335 0,-0.6267 -0.5376,-1.1336 -1.1643,-1.1336 z m -20.2206002,1.3787 c -0.62649995,0 -1.13349995,0.5069 -1.13349995,1.1335 0,0.6268 0.507,1.1335 1.13349995,1.1335 0.6267,0 1.1337001,-0.5068 1.1337001,-1.1335 0,-0.6267 -0.5070001,-1.1335 -1.1337001,-1.1335 z m 4.994,0 c -0.6267,0 -1.1336,0.5069 -1.1336,1.1335 0,0.6268 0.5069,1.1335 1.1336,1.1335 0.6266,0 1.1335,-0.5068 1.1335,-1.1335 0,-0.6267 -0.5069,-1.1335 -1.1335,-1.1335 z m 4.9939002,0 c -0.6267,0 -1.1337002,0.5069 -1.1337002,1.1335 0,0.6268 0.5070002,1.1335 1.1337002,1.1335 0.6265,0 1.1335,-0.5068 1.1335,-1.1335 0,-0.6267 -0.507,-1.1335 -1.1335,-1.1335 z m 2.7572,0 c -0.6265,0 -1.1335,0.5069 -1.1335,1.1335 0,0.6268 0.507,1.1335 1.1335,1.1335 0.6267,0 1.1337,-0.5068 1.1337,-1.1335 0,-0.6267 -0.507,-1.1335 -1.1337,-1.1335 z m 4.9939,0 c -0.6266,0 -1.1335,0.5069 -1.1335,1.1335 0,0.6268 0.5069,1.1335 1.1335,1.1335 0.6267,0 1.1336,-0.5068 1.1336,-1.1335 0,-0.6267 -0.5069,-1.1335 -1.1336,-1.1335 z m 4.994,0 c -0.6267,0 -1.1337,0.5069 -1.1337,1.1335 0,0.6268 0.507,1.1335 1.1337,1.1335 0.6265,0 1.1335,-0.5068 1.1335,-1.1335 0,-0.6267 -0.507,-1.1335 -1.1335,-1.1335 z m -20.2206002,1.1335 c -0.6267,0 -1.1643,0.507 -1.1643,1.1335 0,0.6268 0.5376,1.1336 1.1643,1.1336 0.6266,0 1.1335,-0.5068 1.1335,-1.1336 0,-0.6267 -0.5069,-1.1335 -1.1335,-1.1335 z m 4.9631001,0 c -0.6265001,0 -1.1335001,0.507 -1.1335001,1.1335 0,0.6268 0.507,1.1336 1.1335001,1.1336 0.6267,0 1.1643,-0.5068 1.1643,-1.1336 0,-0.6267 -0.5376,-1.1335 -1.1643,-1.1335 z m 7.7820001,0 c -0.6267,0 -1.1643,0.5069 -1.1643,1.1335 0,0.6268 0.5376,1.1336 1.1643,1.1336 0.6265,0 1.1335,-0.5068 1.1335,-1.1336 0,-0.6266 -0.507,-1.1335 -1.1335,-1.1335 z m 4.9631,0 c -0.6266,0 -1.1335,0.5069 -1.1335,1.1335 0,0.6268 0.5069,1.1336 1.1335,1.1336 0.6267,0 1.1643,-0.5068 1.1643,-1.1336 0,-0.6266 -0.5376,-1.1335 -1.1643,-1.1335 z m -20.2206002,1.348 c -0.62649995,0 -1.13349995,0.507 -1.13349995,1.1335 0,0.6269 0.507,1.1336 1.13349995,1.1336 0.6267,0 1.1337001,-0.5067 1.1337001,-1.1336 0,-0.6266 -0.5070001,-1.1335 -1.1337001,-1.1335 z m 4.994,0 c -0.6267,0 -1.1336,0.507 -1.1336,1.1335 0,0.6269 0.5069,1.1336 1.1336,1.1336 0.6266,0 1.1335,-0.5067 1.1335,-1.1336 0,-0.6266 -0.5069,-1.1335 -1.1335,-1.1335 z m 12.7450002,0 c -0.6266,0 -1.1335,0.507 -1.1335,1.1335 0,0.6269 0.5069,1.1336 1.1335,1.1336 0.6267,0 1.1336,-0.5067 1.1336,-1.1336 0,-0.6266 -0.5069,-1.1335 -1.1336,-1.1335 z m 4.994,0 c -0.6267,0 -1.1337,0.507 -1.1337,1.1335 0,0.6269 0.507,1.1336 1.1337,1.1336 0.6265,0 1.1335,-0.5067 1.1335,-1.1336 0,-0.6266 -0.507,-1.1335 -1.1335,-1.1335 z m -20.2206002,1.1335 c -0.6267,0 -1.1643,0.507 -1.1643,1.1336 0,0.6268 0.5376,1.1337 1.1643,1.1337 0.6266,0 1.1335,-0.5069 1.1335,-1.1337 0,-0.6266 -0.5069,-1.1336 -1.1335,-1.1336 z m 17.7082002,0 c -0.6266,0 -1.1335,0.507 -1.1335,1.1336 0,0.6268 0.5069,1.1337 1.1335,1.1337 0.6267,0 1.1643,-0.5069 1.1643,-1.1337 0,-0.6266 -0.5376,-1.1336 -1.1643,-1.1336 z m -20.2206002,1.3787 c -0.62649995,0 -1.13349995,0.507 -1.13349995,1.1337 0,0.6267 0.507,1.1335 1.13349995,1.1335 0.6267,0 1.1337001,-0.5068 1.1337001,-1.1335 0,-0.6268 -0.5070001,-1.1337 -1.1337001,-1.1337 z m 22.7330002,0 c -0.6267,0 -1.1337,0.5069 -1.1337,1.1337 0,0.6267 0.507,1.1335 1.1337,1.1335 0.6265,0 1.1335,-0.5068 1.1335,-1.1335 0,-0.6267 -0.507,-1.1337 -1.1335,-1.1337 z"
       id="bow-tie-balls"
       style="fill:#000000;fill-opacity:1;fill-rule:evenodd;stroke:none" />
  </g>
</svg>
