<?xml version="1.0" encoding="UTF-8" standalone="no"?>
<!-- Created with Inkscape (http://www.inkscape.org/) -->
<!-- icons-mk created by Matthias Kuhnel (2019), reuseIT, https://reuseproject.org -->

<svg
   xmlns:dc="http://purl.org/dc/elements/1.1/"
   xmlns:cc="http://creativecommons.org/ns#"
   xmlns:rdf="http://www.w3.org/1999/02/22-rdf-syntax-ns#"
   xmlns:svg="http://www.w3.org/2000/svg"
   xmlns="http://www.w3.org/2000/svg"
   version="1.1"
   width="25"
   height="25"
   id="svg">
  <defs
     id="defs" />
  <metadata
     id="metadata">
    <rdf:RDF>
      <cc:Work
         rdf:about="">
        <dc:format>image/svg+xml</dc:format>
        <dc:type
           rdf:resource="http://purl.org/dc/dcmitype/StillImage" />
        <dc:title></dc:title>
      </cc:Work>
    </rdf:RDF>
  </metadata>
  <g
     transform="translate(0,-1027.3622)"
     id="icons-mk">
    <path
       d="m 4.369,1031.7292 c 0,1.2065 -0.978,2.1846 -2.184,2.1846 -1.207,0 -2.185,-0.9781 -2.185,-2.1846 0,-1.2065 0.978,-2.1845 2.185,-2.1845 1.206,0 2.184,0.978 2.184,2.1845 z m 10.423,2.4011 c 0,2.4131 -1.956,4.3691 -4.369,4.3691 -2.413,0 -4.369,-1.956 -4.369,-4.3691 0,-2.4129 1.956,-4.3691 4.369,-4.3691 2.413,0 4.369,1.9562 4.369,4.3691 z m 5.334,3.7778 c 0,1.2065 -0.978,2.1846 -2.185,2.1846 -1.206,0 -2.184,-0.9781 -2.184,-2.1846 0,-1.2065 0.978,-2.1846 2.184,-2.1846 1.207,0 2.185,0.9781 2.185,2.1846 z M 25,1049.4979 c 0,1.2065 -0.978,2.1846 -2.185,2.1846 -1.206,0 -2.184,-0.9781 -2.184,-2.1846 0,-1.2065 0.978,-2.1845 2.184,-2.1845 1.207,0 2.185,0.978 2.185,2.1845 z M 7.199,1040.62 c 0,1.2065 -0.978,2.1846 -2.185,2.1846 -1.207,0 -2.185,-0.9781 -2.185,-2.1846 0,-1.2065 0.978,-2.1845 2.185,-2.1845 1.207,0 2.185,0.978 2.185,2.1845 z m 17.54,-9.3012 c 0,1.8098 -1.467,3.2768 -3.277,3.2768 -1.81,0 -3.277,-1.467 -3.277,-3.2768 0,-1.8098 1.467,-3.2769 3.277,-3.2769 1.81,0 3.277,1.4671 3.277,3.2769 z m -18.136,16.8903 c 0,1.8098 -1.468,3.2769 -3.277,3.2769 -1.81,0 -3.277,-1.4671 -3.277,-3.2769 0,-1.8097 1.467,-3.2769 3.277,-3.2769 1.809,0 3.277,1.4672 3.277,3.2769 z m 12.546,-2.1477 c 0,3.0162 -2.445,5.4612 -5.461,5.4612 -3.017,0 -5.462,-2.445 -5.462,-5.4612 0,-3.0162 2.445,-5.4614 5.462,-5.4614 3.016,0 5.461,2.4452 5.461,5.4614 z"
       id="bubbles"
       style="fill:#000000;fill-opacity:1;fill-rule:evenodd;stroke:none" />
  </g>
</svg>
