<?xml version="1.0" encoding="UTF-8" standalone="no"?>
<!-- Created with Inkscape (http://www.inkscape.org/) -->
<!-- icons-mk created by Matthias Kuhnel (2019), reuseIT, https://reuseproject.org -->

<svg
   xmlns:dc="http://purl.org/dc/elements/1.1/"
   xmlns:cc="http://creativecommons.org/ns#"
   xmlns:rdf="http://www.w3.org/1999/02/22-rdf-syntax-ns#"
   xmlns:svg="http://www.w3.org/2000/svg"
   xmlns="http://www.w3.org/2000/svg"
   version="1.1"
   width="25"
   height="25"
   id="svg">
  <defs
     id="defs" />
  <metadata
     id="metadata">
    <rdf:RDF>
      <cc:Work
         rdf:about="">
        <dc:format>image/svg+xml</dc:format>
        <dc:type
           rdf:resource="http://purl.org/dc/dcmitype/StillImage" />
        <dc:title></dc:title>
      </cc:Work>
    </rdf:RDF>
  </metadata>
  <g
     transform="translate(0,-1027.3622)"
     id="icons-mk">
    <path
       d="m 3.6250001,1027.3622 0,25 17.7499999,0 0,-25 -17.7499999,0 z m 2.5,1.6563 2.75,0 0,2.7812 -2.75,0 0,-2.7812 z m 4.9999999,0 2.75,0 0,2.7812 -2.75,0 0,-2.7812 z m 5,0 2.75,0 0,2.7812 -2.75,0 0,-2.7812 z m -9.9999999,3.5937 2.75,0 0,2.75 -2.75,0 0,-2.75 z m 4.9999999,0 2.75,0 0,2.75 -2.75,0 0,-2.75 z m 5,0 2.75,0 0,2.75 -2.75,0 0,-2.75 z m -9.9999999,3.5625 2.75,0 0,2.7813 -2.75,0 0,-2.7813 z m 4.9999999,0 2.75,0 0,2.7813 -2.75,0 0,-2.7813 z m 5,0 2.75,0 0,2.7813 -2.75,0 0,-2.7813 z m -9.9999999,3.5625 2.75,0 0,2.7813 -2.75,0 0,-2.7813 z m 4.9999999,0 2.75,0 0,2.7813 -2.75,0 0,-2.7813 z m 5,0 2.75,0 0,2.7813 -2.75,0 0,-2.7813 z m -9.9999999,3.5938 2.75,0 0,2.7812 -2.75,0 0,-2.7812 z m 4.9999999,0 2.75,0 0,2.7812 -2.75,0 0,-2.7812 z m 5,0 2.75,0 0,2.7812 -2.75,0 0,-2.7812 z m -5.8437,4.4375 2,0 0,3.9062 -2,0 0,-3.9062 z m 2.4375,0 2,0 0,3.9062 -2,0 0,-3.9062 z"
       id="building"
       style="fill:#000000;fill-opacity:1;fill-rule:nonzero;stroke:none" />
  </g>
</svg>
