<?xml version="1.0" encoding="UTF-8" standalone="no"?>
<!-- Created with Inkscape (http://www.inkscape.org/) -->
<!-- icons-mk created by Matthias Kuhnel (2019), reuseIT, https://reuseproject.org -->

<svg
   xmlns:dc="http://purl.org/dc/elements/1.1/"
   xmlns:cc="http://creativecommons.org/ns#"
   xmlns:rdf="http://www.w3.org/1999/02/22-rdf-syntax-ns#"
   xmlns:svg="http://www.w3.org/2000/svg"
   xmlns="http://www.w3.org/2000/svg"
   version="1.1"
   width="25"
   height="25"
   id="svg">
  <defs
     id="defs" />
  <metadata
     id="metadata">
    <rdf:RDF>
      <cc:Work
         rdf:about="">
        <dc:format>image/svg+xml</dc:format>
        <dc:type
           rdf:resource="http://purl.org/dc/dcmitype/StillImage" />
        <dc:title></dc:title>
      </cc:Work>
    </rdf:RDF>
  </metadata>
  <g
     transform="translate(0,-1027.3622)"
     id="icons-mk">
    <path
       d="m 20.981912,1038.8046 c -1.0365,0.11 -0.8246,1.129 -0.019,1.1722 0.8057,0.043 1.359,0.024 2.6283,0.041 1.27,0.017 1.0359,-1.2207 0.075,-1.2018 -0.9609,0.018 -1.8665,-0.01 -2.6843,-0.011 z m -10.800201,12.3442 c -1.0364997,0.11 -0.8245997,1.129 -0.019,1.1721 0.805001,0.043 3.340201,0.024 4.609501,0.041 1.2694,0.017 1.0359,-1.2207 0.075,-1.2018 -0.9603,0.018 -3.8471,-0.01 -4.665601,-0.011 z m 0,-1.5115 c -1.0364997,0.1099 -0.8245997,1.1289 -0.019,1.1721 0.805001,0.043 3.340201,0.024 4.609501,0.041 1.2694,0.017 1.0359,-1.2207 0.075,-1.2018 -0.961,0.019 -3.8471,-0.01 -4.665601,-0.012 z m -8.9458998,-10.8327 c -1.0365,0.11 -0.8246,1.129 -0.019,1.1722 0.8057,0.043 1.3591,0.024 2.6284,0.041 1.2693,0.017 1.0358,-1.2207 0.075,-1.2018 -0.9609,0.018 -1.8659,-0.01 -2.6844,-0.011 z m 17.7318008,6.1671 c -0.8104,-0.6553 -1.3813,0.2152 -0.8422,0.8151 0.5392,0.6006 0.9441,0.9778 1.8294,1.8875 0.8854,0.9096 1.5953,-0.131 0.9029,-0.797 -0.6923,-0.6653 -1.3152,-1.3226 -1.8901,-1.9056 z M 5.0788112,1030.9891 c -0.8104,-0.6552 -1.3813,0.2153 -0.8421,0.8151 0.5391,0.6006 0.944,0.9785 1.8293,1.8875 0.8861,0.9096 1.5953,-0.1309 0.9029,-0.797 -0.6923,-0.666 -1.3152,-1.3226 -1.8901,-1.9056 z m 1.0689,13.9988 c 0.8104,-0.6553 1.3813,0.2152 0.8422,0.8151 -0.5392,0.6006 -0.9441,0.9785 -1.8294,1.8874 -0.8861,0.9097 -1.5953,-0.1309 -0.9029,-0.7969 0.6923,-0.666 1.3152,-1.3233 1.8901,-1.9056 z m 13.9826008,-13.9671 c 0.8104,-0.6552 1.3813,0.2153 0.8428,0.8152 -0.5392,0.5999 -0.944,0.9784 -1.8301,1.8874 -0.8853,0.9096 -1.5945,-0.1309 -0.9028,-0.7969 0.6916,-0.6661 1.3151,-1.3233 1.8901,-1.9057 z m -8.1604,-2.9603 c 0.1167,-1.0358 1.1343,-0.8165 1.1721,-0.011 0.038,0.8057 0.015,1.359 0.024,2.6283 0.01,1.2693 -1.2274,1.0271 -1.2025,0.067 0.025,-0.9609 0.01,-1.8665 0.01,-2.6843 z m 0.6863,5.3457 c -3.5092007,0 -6.3750008,2.7466 -6.3750008,6.125 0,1.8535 0.8663,3.5033 2.2188001,4.625 0.7633,1.0874 1.9678997,2.991 1.6874997,3.9688 -1.0364997,0.11 -0.8367997,1.1443 -0.031,1.1875 0.805101,0.043 3.355801,0.014 4.625001,0.031 1.2111,0.016 1.0388,-1.1004 0.1876,-1.1876 -0.01,-0.01 0.01,-0.021 0,-0.031 -0.262,-0.9133 0.7389,-2.605 1.5,-3.7188 1.5389,-1.1163 2.5312,-2.877 2.5312,-4.875 0,-3.3784 -2.8345,-6.125 -6.3438,-6.125 z"
       id="bulb"
       style="fill:#000000;fill-opacity:1" />
  </g>
</svg>
