<?xml version="1.0" encoding="UTF-8" standalone="no"?>
<!-- Created with Inkscape (http://www.inkscape.org/) -->
<!-- icons-mk created by Matthias Kuhnel (2020), reuseIT, https://reuseproject.org -->

<svg
   xmlns:dc="http://purl.org/dc/elements/1.1/"
   xmlns:cc="http://creativecommons.org/ns#"
   xmlns:rdf="http://www.w3.org/1999/02/22-rdf-syntax-ns#"
   xmlns:svg="http://www.w3.org/2000/svg"
   xmlns="http://www.w3.org/2000/svg"
   version="1.1"
   width="25"
   height="25"
   id="svg">
  <defs
     id="defs" />
  <metadata
     id="metadata">
    <rdf:RDF>
      <cc:Work
         rdf:about="">
        <dc:format>image/svg+xml</dc:format>
        <dc:type
           rdf:resource="http://purl.org/dc/dcmitype/StillImage" />
        <dc:title></dc:title>
      </cc:Work>
    </rdf:RDF>
  </metadata>
  <g
     transform="translate(0,-1027.3622)"
     id="icons-mk">
    <path
       d="m 3.3279668,1027.3622 c -0.466,0 -0.906,0.4094 -0.906,0.875 l 0,14.1875 c 0,0.1918 0.07,0.3773 0.187,0.5312 l 1.594,3.6875 0,4.8125 c 0,0.4655 0.441,0.9063 0.906,0.9063 l 14.8130002,0 c 0.465,0 0.875,-0.4408 0.875,-0.9063 l 0,-4.8125 1.625,-3.6875 c 0.115,-0.1539 0.158,-0.3394 0.156,-0.5312 l 0,-14.1875 c 0,-0.4656 -0.409,-0.875 -0.875,-0.875 l -18.3750002,0 z m 0.875,1.7812 16.5940002,0 0,12.9688 -1.594,3.6875 c -0.114,0.1539 -0.189,0.3708 -0.188,0.5625 l 0,4.2187 -13.0310002,0 0,-4.2187 c 0,-0.1917 -0.07,-0.4086 -0.187,-0.5625 l -1.594,-3.6875 0,-12.9688 z m 11.5620002,8.6563 c -0.814,0 -1.5,0.6547 -1.5,1.4687 0,0.8139 0.686,1.4688 1.5,1.4688 0.815,0 1.469,-0.6549 1.469,-1.4688 0,-0.814 -0.654,-1.4687 -1.469,-1.4687 z m -7.0310002,0.5625 c -0.673,0.139 -1.156,0.7566 -1.156,1.4687 0,0.8139 0.655,1.4688 1.469,1.4688 0.814,0 1.4680002,-0.6549 1.4680002,-1.4688 0,-0.8139 -0.6540002,-1.4687 -1.4680002,-1.4687 -0.102,0 -0.217,-0.02 -0.313,0 z m 3.6570002,1.125 c -0.815,0 -1.469,0.686 -1.469,1.5 0,0.8139 0.654,1.4687 1.469,1.4687 0.814,0 1.5,-0.6548 1.5,-1.4687 0,-0.814 -0.686,-1.5 -1.5,-1.5 z m 6.406,0.2812 c -0.814,0 -1.469,0.6861 -1.469,1.5 0,0.814 0.655,1.4688 1.469,1.4688 0.814,0 1.5,-0.6548 1.5,-1.4688 0,-0.8139 -0.686,-1.5 -1.5,-1.5 z m -12.4380002,1 c -0.814,0 -1.468,0.6861 -1.468,1.5 0,0.8139 0.654,1.4688 1.468,1.4688 0.814,0 1.469,-0.6549 1.469,-1.4688 0,-0.8139 -0.655,-1.5 -1.469,-1.5 z m 9.4060002,0.75 c -0.814,0 -1.5,0.6861 -1.5,1.5 0,0.814 0.686,1.4688 1.5,1.4688 0.815,0 1.469,-0.6548 1.469,-1.4688 0,-0.8139 -0.654,-1.5 -1.469,-1.5 z m -6.1870002,0.5625 c -0.814,0 -1.5,0.6548 -1.5,1.4688 0,0.8139 0.686,1.5 1.5,1.5 0.8140002,0 1.4690002,-0.6861 1.4690002,-1.5 0,-0.814 -0.655,-1.4688 -1.4690002,-1.4688 z m 3.1870002,1.0625 c -0.814,0 -1.468,0.6548 -1.468,1.4688 0,0.8139 0.654,1.5 1.468,1.5 0.815,0 1.5,-0.6861 1.5,-1.5 0,-0.814 -0.685,-1.4688 -1.5,-1.4688 z m 3,2.375 c -0.814,0 -1.5,0.6548 -1.5,1.4688 0,0.8139 0.686,1.4687 1.5,1.4687 0.815,0 1.469,-0.6548 1.469,-1.4687 0,-0.814 -0.654,-1.4688 -1.469,-1.4688 z m -6.7180002,0.625 c -0.814,0 -1.469,0.6548 -1.469,1.4688 0,0.8139 0.655,1.5 1.469,1.5 0.814,0 1.4680002,-0.6861 1.4680002,-1.5 0,-0.814 -0.6540002,-1.4688 -1.4680002,-1.4688 z m 3.3440002,0.8438 c -0.815,0 -1.469,0.6547 -1.469,1.4687 0,0.8139 0.654,1.4688 1.469,1.4688 0.814,0 1.5,-0.6549 1.5,-1.4688 0,-0.814 -0.686,-1.4687 -1.5,-1.4687 z"
       id="bulk-bin-filled"
       style="font-size:medium;font-style:normal;font-variant:normal;font-weight:normal;font-stretch:normal;text-indent:0;text-align:start;text-decoration:none;line-height:normal;letter-spacing:normal;word-spacing:normal;text-transform:none;direction:ltr;block-progression:tb;writing-mode:lr-tb;text-anchor:start;baseline-shift:baseline;color:#000000;fill:#000000;fill-opacity:1;stroke:none;stroke-width:6;marker:none;visibility:visible;display:inline;overflow:visible;enable-background:accumulate;font-family:Sans;-inkscape-font-specification:Sans" />
  </g>
</svg>
