<?xml version="1.0" encoding="UTF-8" standalone="no"?>
<!-- Created with Inkscape (http://www.inkscape.org/) -->
<!-- icons-mk created by Matthias Kuhnel (2020), reuseIT, https://reuseproject.org -->

<svg
   xmlns:dc="http://purl.org/dc/elements/1.1/"
   xmlns:cc="http://creativecommons.org/ns#"
   xmlns:rdf="http://www.w3.org/1999/02/22-rdf-syntax-ns#"
   xmlns:svg="http://www.w3.org/2000/svg"
   xmlns="http://www.w3.org/2000/svg"
   version="1.1"
   width="25"
   height="25"
   id="svg">
  <defs
     id="defs" />
  <metadata
     id="metadata">
    <rdf:RDF>
      <cc:Work
         rdf:about="">
        <dc:format>image/svg+xml</dc:format>
        <dc:type
           rdf:resource="http://purl.org/dc/dcmitype/StillImage" />
        <dc:title></dc:title>
      </cc:Work>
    </rdf:RDF>
  </metadata>
  <g
     transform="translate(0,-1027.3622)"
     id="icons-mk">
    <path
       d="m 3.3279675,1027.3622 c -0.466,0 -0.906,0.4406 -0.906,0.9062 l 0,14.1563 c 0,0.1918 0.07,0.3773 0.187,0.5312 l 1.594,3.7188 0,4.8125 c 0,0.4656 0.441,0.875 0.906,0.875 l 14.8130005,0 c 0.465,0 0.874,-0.4094 0.874,-0.875 l 0,-4.8125 1.626,-3.7188 c 0.114,-0.1539 0.158,-0.3394 0.156,-0.5312 l 0,-14.1563 c 0,-0.4656 -0.409,-0.9062 -0.875,-0.9062 l -18.3750005,0 z m 0.875,1.7812 16.5930005,0 0,13 -1.593,3.6875 c -0.114,0.1539 -0.189,0.3395 -0.188,0.5313 l 0,4.2187 -13.0310005,0 0,-4.2187 c 0,-0.1918 -0.04,-0.3774 -0.156,-0.5313 l -1.625,-3.6875 0,-13 z"
       id="bulk-bin-empty"
       style="font-size:medium;font-style:normal;font-variant:normal;font-weight:normal;font-stretch:normal;text-indent:0;text-align:start;text-decoration:none;line-height:normal;letter-spacing:normal;word-spacing:normal;text-transform:none;direction:ltr;block-progression:tb;writing-mode:lr-tb;text-anchor:start;baseline-shift:baseline;color:#000000;fill:#000000;fill-opacity:1;stroke:none;stroke-width:6;marker:none;visibility:visible;display:inline;overflow:visible;enable-background:accumulate;font-family:Sans;-inkscape-font-specification:Sans" />
  </g>
</svg>
