<?xml version="1.0" encoding="UTF-8" standalone="no"?>
<!-- Created with Inkscape (http://www.inkscape.org/) -->
<!-- icons-mk created by Matthias Kuhnel (2019), reuseIT, https://reuseproject.org -->

<svg
   xmlns:dc="http://purl.org/dc/elements/1.1/"
   xmlns:cc="http://creativecommons.org/ns#"
   xmlns:rdf="http://www.w3.org/1999/02/22-rdf-syntax-ns#"
   xmlns:svg="http://www.w3.org/2000/svg"
   xmlns="http://www.w3.org/2000/svg"
   version="1.1"
   width="25"
   height="25"
   id="svg">
  <defs
     id="defs" />
  <metadata
     id="metadata">
    <rdf:RDF>
      <cc:Work
         rdf:about="">
        <dc:format>image/svg+xml</dc:format>
        <dc:type
           rdf:resource="http://purl.org/dc/dcmitype/StillImage" />
        <dc:title></dc:title>
      </cc:Work>
    </rdf:RDF>
  </metadata>
  <g
     transform="translate(0,-1027.3622)"
     id="icons-mk">
    <path
       d="m 12.8656,1042.8622 9,0 0,1.5 -9,0 z m 0,-3.75 9,0 0,1.5 -9,0 z m 0,-3.75 9,0 0,1.5 -9,0 z m -3.8463,2.133 c 0,1.178 -0.955,2.1329 -2.133,2.1329 -1.1779,0 -2.1329,-0.9549 -2.1329,-2.1329 0,-1.178 0.955,-2.133 2.1329,-2.133 1.178,0 2.133,0.955 2.133,2.133 z m 1.6191,6.867 c 0,0 -0.5975,-4.3073 -3.752,-4.3073 -3.1545,0 -3.752,4.3073 -3.752,4.3073 z M 0.79370001,1031.7604 A 0.79373016,0.79373016 0 0 0 1.4999998e-8,1032.554 l 0,14.6164 A 0.79373016,0.79373016 0 0 0 0.79370001,1047.9641 l 23.41259999,0 A 0.79373016,0.79373016 0 0 0 25,1047.1704 l 0,-14.6164 a 0.79373016,0.79373016 0 0 0 -0.7937,-0.7936 l -23.41259999,0 z m 0.79359999,1.5873 21.8254,0 0,13.0291 -21.8254,0 0,-13.0291 z"
       id="business-card"
       style="fill:#000000;fill-opacity:1;stroke:none" />
  </g>
</svg>
