<?xml version="1.0" encoding="UTF-8" standalone="no"?>
<!-- Created with Inkscape (http://www.inkscape.org/) -->
<!-- icons-mk created by Matthias Kuhnel (2019), reuseIT, https://reuseproject.org -->

<svg
   xmlns:dc="http://purl.org/dc/elements/1.1/"
   xmlns:cc="http://creativecommons.org/ns#"
   xmlns:rdf="http://www.w3.org/1999/02/22-rdf-syntax-ns#"
   xmlns:svg="http://www.w3.org/2000/svg"
   xmlns="http://www.w3.org/2000/svg"
   version="1.1"
   width="25"
   height="25"
   id="svg">
  <defs
     id="defs" />
  <metadata
     id="metadata">
    <rdf:RDF>
      <cc:Work
         rdf:about="">
        <dc:format>image/svg+xml</dc:format>
        <dc:type
           rdf:resource="http://purl.org/dc/dcmitype/StillImage" />
        <dc:title></dc:title>
      </cc:Work>
    </rdf:RDF>
  </metadata>
  <g
     transform="translate(0,-1027.3622)"
     id="icons-mk">
    <path
       d="m 9.3990001,1027.501 c -0.712,0 -1.264,0.1206 -1.656,0.3731 -0.393,0.2526 -0.606,0.6605 -0.653,1.0495 -0.09,0.7779 0.358,1.5081 1.026,1.8656 0.325,0.1743 0.673,0.2224 0.956,0.1633 0.282,-0.059 0.491,-0.2137 0.653,-0.3731 C 10.049,1030.2606 10.191,1029.8797 10.191,1029.8797 l -0.6989999,-0.2565 c 0,0 -0.124,0.2429 -0.303,0.4197 -0.09,0.089 -0.177,0.1418 -0.281,0.1633 -0.102,0.022 -0.221,0.037 -0.419,-0.07 -0.38,-0.2035 -0.699,-0.7468 -0.653,-1.1193 0.02,-0.1863 0.104,-0.3459 0.326,-0.4898 0.224,-0.1438 0.62,-0.2798 1.237,-0.2798 0.485,0 0.8289999,0.3394 1.1419999,0.9794 0.313,0.64 0.506,1.5541 0.63,2.4721 0.217,1.6112 0.195,3.032 0.186,3.4048 -0.244,0.111 -0.467,0.2456 -0.653,0.4431 C 8.6220001,1032.2215 9.9999998e-8,1030.2529 9.9999998e-8,1030.2529 c 0,0 0.187000000000002,3.8536 0.187000000000002,5.2005 0,0.8281 -0.09,3.4596 1.259,5.667 0.507,0.8308 2.318,1.2301 4.221,1.4225 -3.178,0.7557 -6.251,2.3471 -4.851,5.7836 2.699,6.6223 9.2439999,1.3931 10.4249999,0.3732 0.167,1.6031 0.305,2.7695 0.349,2.9385 0.203,0.7585 1.603,0.7856 2.029,0.047 0.109,-0.189 0.243,-1.2995 0.374,-2.8218 1.708,1.3976 7.638,5.6252 10.167,-0.5829 1.394,-3.4197 -1.642,-5.0168 -4.804,-5.7603 1.891,-0.1808 3.671,-0.5732 4.175,-1.3993 1.347,-2.2074 1.282,-4.8854 1.282,-5.7136 0,-1.3469 0.187,-5.2006 0.187,-5.2006 0,0 -9.129,2.0707 -10.868,5.5738 -0.02,-0.053 -0.04,-0.089 -0.07,-0.1167 -0.166,-0.1718 -0.349,-0.3064 -0.537,-0.4198 -0.01,-0.4202 -0.05,-1.7845 0.164,-3.3582 0.123,-0.918 0.34,-1.832 0.653,-2.472 0.312,-0.64 0.657,-0.9795 1.142,-0.9795 0.616,0 1.013,0.136 1.236,0.2799 0.224,0.1438 0.304,0.2801 0.327,0.4664 0.05,0.3726 -0.273,0.9392 -0.653,1.1427 -0.199,0.1065 -0.317,0.091 -0.42,0.07 -0.103,-0.022 -0.213,-0.075 -0.303,-0.1633 -0.181,-0.1769 -0.28,-0.4197 -0.28,-0.4197 l -0.7,0.2565 c 0,0 0.142,0.3808 0.467,0.6996 0.162,0.1594 0.37,0.3141 0.652,0.3732 0.284,0.059 0.609,0.011 0.933,-0.1633 0.669,-0.3576 1.145,-1.0878 1.05,-1.8657 -0.05,-0.3889 -0.26,-0.7969 -0.653,-1.0494 -0.392,-0.2525 -0.944,-0.3731 -1.656,-0.3731 -0.843,0 -1.443,0.6063 -1.819,1.3759 -0.376,0.7696 -0.593,1.7437 -0.723,2.7053 -0.189,1.395 -0.194,2.5169 -0.186,3.1716 -0.215,-0.043 -0.442,-0.063 -0.653,-0.047 0.02,-0.5746 0.04,-1.8032 -0.164,-3.3115 -0.13,-0.9616 -0.347,-1.9357 -0.723,-2.7053 -0.376,-0.7696 -0.976,-1.3759 -1.8179999,-1.3759 z"
       id="butterfly"
       style="font-size:medium;font-style:normal;font-variant:normal;font-weight:normal;font-stretch:normal;text-indent:0;text-align:start;text-decoration:none;line-height:normal;letter-spacing:normal;word-spacing:normal;text-transform:none;direction:ltr;block-progression:tb;writing-mode:lr-tb;text-anchor:start;baseline-shift:baseline;color:#000000;fill:#000000;fill-opacity:1;stroke:none;stroke-width:1.01608312;marker:none;visibility:visible;display:inline;overflow:visible;enable-background:accumulate;font-family:Sans;-inkscape-font-specification:Sans" />
  </g>
</svg>
