<?xml version="1.0" encoding="UTF-8" standalone="no"?>
<!-- Created with Inkscape (http://www.inkscape.org/) -->
<!-- icons-mk created by Matthias Kuhnel (2019), reuseIT, https://reuseproject.org -->

<svg
   xmlns:dc="http://purl.org/dc/elements/1.1/"
   xmlns:cc="http://creativecommons.org/ns#"
   xmlns:rdf="http://www.w3.org/1999/02/22-rdf-syntax-ns#"
   xmlns:svg="http://www.w3.org/2000/svg"
   xmlns="http://www.w3.org/2000/svg"
   version="1.1"
   width="25"
   height="25"
   id="svg">
  <defs
     id="defs" />
  <metadata
     id="metadata">
    <rdf:RDF>
      <cc:Work
         rdf:about="">
        <dc:format>image/svg+xml</dc:format>
        <dc:type
           rdf:resource="http://purl.org/dc/dcmitype/StillImage" />
        <dc:title></dc:title>
      </cc:Work>
    </rdf:RDF>
  </metadata>
  <g
     transform="translate(0,-1027.3622)"
     id="icons-mk">
    <path
       d="m -2e-7,1036.3622 0,16 25.0000002,0 0,-16 -25.0000002,0 z m 7.781,2.6875 c 1.34,0 2.3650002,0.4567 3.0940002,1.375 0.729,0.9183 1.094,2.2422 1.094,3.9375 0,1.6907 -0.365,2.9879 -1.094,3.9062 -0.729,0.9183 -1.7540002,1.375 -3.0940002,1.375 -1.344,0 -2.364,-0.4567 -3.093,-1.375 -0.73,-0.9183 -1.094,-2.2155 -1.094,-3.9062 0,-1.6953 0.364,-3.0192 1.094,-3.9375 0.729,-0.9183 1.749,-1.375 3.093,-1.375 z m 8.8130002,0.1875 2.5,0 0,8.375 2.312,0 0,1.8437 -7.125,0 0,-1.8437 2.313,0 0,-6.5938 -2.375,0.5 0,-1.7812 2.375,-0.5 z m -8.8130002,1.625 c -0.565,0 -0.977,0.2594 -1.219,0.7812 -0.241,0.5219 -0.343,1.4115 -0.343,2.6875 0,1.2898 0.102,2.1901 0.343,2.7188 0.242,0.5286 0.654,0.8125 1.219,0.8125 0.561,0 0.977,-0.2839 1.219,-0.8125 0.2420004,-0.5287 0.3440004,-1.429 0.3440004,-2.7188 0,-1.276 -0.105,-2.1656 -0.3440004,-2.6875 -0.239,-0.5218 -0.654,-0.7812 -1.219,-0.7812 z m -7.781,-13.5 0,8 25.0000002,0 0,-8 -25.0000002,0 z m 19.3440002,1.6563 1.5,0 0,1.9062 c 0.125,-0.1856 0.277,-0.3242 0.437,-0.4063 0.16,-0.082 0.35,-0.125 0.594,-0.125 0.35,0 0.603,0.1065 0.781,0.3125 0.179,0.2061 0.281,0.5059 0.282,0.9063 l 0,1.625 0.437,0 0,0.3437 -1.844,0 0,-0.3437 0.375,0 0,-1.6563 c 0,-0.2636 -0.03,-0.4599 -0.09,-0.5625 -0.07,-0.1025 -0.208,-0.1562 -0.374,-0.1562 -0.209,0 -0.34,0.097 -0.438,0.25 -0.1,0.1533 -0.156,0.3848 -0.156,0.7187 l 0,1.4063 0.375,0 0,0.3437 -1.844,0 0,-0.3437 0.437,0 0,-3.8437 -0.468,0 0,-0.375 z m -17.7190002,0.1875 1.813,0 1.25,2.8124 1.25,-2.8124 1.781,0 0,0.375 -0.563,0 0,3.6562 0.563,0 0,0.3437 -2.25,0 0,-0.3437 0.562,0 0,-3.3437 -1.343,3.0624 -0.75,0 -1.344,-3.0624 0,3.3437 0.562,0 0,0.3437 -1.531,0 0,-0.3437 0.563,0 0,-3.6562 -0.563,0 0,-0.375 z m 15.3440002,0.3125 1.031,0 0,0.9687 0.875,0 0,0.3437 -0.875,0 0,1.9063 c 0,0.2715 0.02,0.4336 0.06,0.5 0.04,0.066 0.137,0.094 0.25,0.094 0.125,0 0.221,-0.041 0.282,-0.125 0.06,-0.084 0.09,-0.1992 0.09,-0.375 l 0.437,0 c -0.02,0.3125 -0.1,0.5303 -0.25,0.6562 -0.153,0.126 -0.438,0.1875 -0.813,0.1875 -0.427,0 -0.722,-0.085 -0.874,-0.2187 -0.153,-0.1338 -0.219,-0.3613 -0.219,-0.7188 l 0,-1.9062 -0.438,0 0,-0.3438 0.438,0 0,-0.9687 z m -6.938,0.8749 c 0.551,0 0.971,0.1475 1.281,0.4375 0.311,0.2901 0.469,0.6739 0.469,1.1875 0,0.5118 -0.157,0.9268 -0.469,1.2188 -0.311,0.292 -0.732,0.4375 -1.281,0.4375 -0.5489998,0 -1.0010002,-0.1455 -1.3120002,-0.4375 -0.312,-0.292 -0.469,-0.707 -0.469,-1.2188 0,-0.5136 0.157,-0.8974 0.469,-1.1875 0.311,-0.29 0.7630004,-0.4375 1.3120002,-0.4375 z m 4.719,0 c 0.35,0 0.603,0.1065 0.781,0.3125 0.179,0.2061 0.281,0.5059 0.281,0.9063 l 0,1.625 0.438,0 0,0.3437 -1.875,0 0,-0.3437 0.375,0 0,-1.6563 c 0,-0.2636 -0.03,-0.4599 -0.09,-0.5625 -0.07,-0.1025 -0.177,-0.1562 -0.344,-0.1562 -0.208,0 -0.371,0.097 -0.468,0.25 -0.1,0.1533 -0.125,0.3848 -0.125,0.7187 l 0,1.4063 0.375,0 0,0.3437 -1.875,0 0,-0.3437 0.437,0 0,-2.4063 -0.437,0 0,-0.3437 1.5,0 0,0.4375 c 0.125,-0.1856 0.246,-0.3242 0.406,-0.4063 0.16,-0.082 0.381,-0.125 0.625,-0.125 z m -4.719,0.3125 c -0.2199998,0 -0.3789998,0.093 -0.4689998,0.2813 -0.09,0.1885 -0.156,0.5351 -0.156,1.0312 0,0.4961 0.07,0.8418 0.156,1.0313 0.09,0.1894 0.249,0.2812 0.4689998,0.2812 0.219,0 0.349,-0.094 0.438,-0.2812 0.09,-0.1875 0.156,-0.5313 0.156,-1.0313 0,-0.5 -0.07,-0.8447 -0.156,-1.0312 -0.09,-0.1865 -0.217,-0.2813 -0.438,-0.2813 z"
       id="calendar"
       style="fill:#000000;fill-opacity:1" />
  </g>
</svg>
