<?xml version="1.0" encoding="UTF-8" standalone="no"?>
<!-- Created with Inkscape (http://www.inkscape.org/) -->
<!-- icons-mk created by Matthias Kuhnel (2019), reuseIT, https://reuseproject.org -->

<svg
   xmlns:dc="http://purl.org/dc/elements/1.1/"
   xmlns:cc="http://creativecommons.org/ns#"
   xmlns:rdf="http://www.w3.org/1999/02/22-rdf-syntax-ns#"
   xmlns:svg="http://www.w3.org/2000/svg"
   xmlns="http://www.w3.org/2000/svg"
   version="1.1"
   width="25"
   height="25"
   id="svg">
  <defs
     id="defs" />
  <metadata
     id="metadata">
    <rdf:RDF>
      <cc:Work
         rdf:about="">
        <dc:format>image/svg+xml</dc:format>
        <dc:type
           rdf:resource="http://purl.org/dc/dcmitype/StillImage" />
        <dc:title></dc:title>
      </cc:Work>
    </rdf:RDF>
  </metadata>
  <g
     transform="translate(0,-1027.3622)"
     id="icons-mk">
    <path
       d="m 17.755767,1031.6837 c -1.199,-0.6848 -2.307,-1.9277 -3.267,-1.8847 -0.959,0.043 -0.779,0.1334 -1.759,1.068 -0.979,0.9346 -2.225,3.6013 -3.5499991,3.8324 -1.324,0.2312 -1.843,-0.5738 -2.167,-1.3193 -0.325,-0.7456 -1.104,-1.8295 -0.887,-2.1066 0.218,-0.2771 0.412,0.034 0.578,-0.1551 0.167,-0.1891 0.04,-0.4928 -0.131,-0.6598 -0.173,-0.1669 -0.249,0.039 -0.565,-0.094 -0.316,-0.1327 -0.391,-0.9015 -0.974,-0.9109 -0.583,-0.01 -1.521,0.5801 -2.149,0.6761 -0.627,0.096 -1.059,-0.2467 -1.603,-0.074 -0.54599995,0.1727 -1.23599995,0.7782 -1.27699995,1.2197 -0.04,0.4415 0.194,0.3341 0.267,0.608 0.07,0.2739 -0.226,0.5122 0.07,0.7463 0.293,0.2341 0.539,-0.4965 1.11399995,-0.4433 0.575,0.053 1.112,0.8762 1.689,1.2243 0.577,0.3481 0.75,2.4741 1.87,3.5047 1.098,1.0093 3.44,1.3273 3.909,2.1635 0.468,0.8361 0.521,2.9644 0.338,3.568 -0.182,0.6038 -0.474,0.4196 -0.53,0.8076 -0.06,0.3881 0.08,0.2308 0.107,0.7945 0.03,0.5637 -0.205,1.5389 -0.708,2.466 -0.502,0.9269 -1.881,2.1596 -1.932,2.4685 -0.05,0.309 0.06,0.4432 0.06,0.4432 0.295,0.1573 1.05,0.137 1.239,0.018 0.19,-0.1189 0.322,-0.093 0.587,-0.7274 0.265,-0.6343 0.916,-1.4292 1.354,-3.1291 0.438,-1.6997 1.0279991,-1.3115 1.1659991,-1.8238 0.138,-0.5124 -0.1,-0.2981 0.03,-0.9405 0.127,-0.6424 0.9,-2.4895 1.293,-2.4852 0.393,0 0.868,1.8151 0.918,2.4538 0.05,0.6386 -0.183,0.6252 -0.06,0.9347 0.118,0.3096 0.187,0.2937 0.545,0.8006 0.357,0.5069 1.016,2.1575 0.906,2.8792 -0.111,0.7218 -0.857,0.6444 -0.836,0.9881 0.02,0.3438 0,0.074 0.04,0.31 0.05,0.2364 0.755,0.1021 1.064,0.1111 0.309,0.01 0.737,-0.4894 0.833,-1.2803 0.1,-0.7909 -0.688,-2.0551 -0.762,-2.8429 -0.08,-0.7877 0.275,-1.0805 0.154,-1.4753 -0.12,-0.3948 -0.303,-0.2433 -0.507,-0.7079 -0.204,-0.4646 -0.285,-2.031 0.116,-2.2322 0.402,-0.2014 1.817,-0.8596 2.22,-1.0773 0.402,-0.2176 1.937,3.2258 2.148,3.6122 0.212,0.3863 -0.194,0.7115 -0.04,1.1014 0.152,0.3897 0.16,0.07 0.301,0.8728 0.142,0.8027 -0.665,2.9904 -1.306,3.7931 -0.642,0.8027 -0.785,0.7733 -0.804,1.0424 -0.02,0.2691 0.04,0.4019 0.182,0.4153 0.143,0.013 0.862,0.083 1.168,-0.031 0.306,-0.1143 1.067,-1.7422 1.349,-2.6869 0.283,-0.9448 0,-0.9492 0.706,-2.3349 0.459,-0.8257 0.671,-0.7688 0.708,-1.2294 0.04,-0.4605 -0.372,-0.4938 -0.661,-1.2308 -0.29,-0.7369 -0.593,-2.3282 -0.477,-2.7086 0.116,-0.3803 0.396,-0.3617 0.689,-0.3065 0.292,0.055 0.461,0.266 0.464,0.6246 0,0.3587 -0.472,0.4296 -0.39,0.8501 0.08,0.4203 0.548,1.0371 0.695,1.0937 0.148,0.057 0.641,-0.6073 0.689,-1.0607 0.05,-0.4535 -0.383,-0.6031 -0.535,-0.8939 -0.153,-0.2908 -0.468,-0.4488 -0.163,-0.6562 0.306,-0.2074 1.434,0.9367 1.57,1.504 0.136,0.5674 -0.248,0.4425 -0.131,0.8888 0.117,0.4463 0.597,0.644 0.782,1.0262 0.185,0.3821 0.172,1.8612 -0.02,2.7802 -0.189,0.9189 -0.62,1.4221 -0.738,1.7404 -0.118,0.3184 -0.703,0.28 -0.777,0.667 -0.07,0.3868 -0.02,0.2505 0,0.4302 0.02,0.1797 0.857,0.041 1.177,0.03 0.32,-0.011 0.553,-0.529 0.904,-1.3134 0.35,-0.7843 0.821,-2.4351 0.572,-3.5444 -0.249,-1.1095 0.355,-1.6226 0.376,-1.9557 0.02,-0.3331 -0.05,-0.2977 -0.483,-1.016 -0.428,-0.7182 -1.613,-1.7712 -2.098,-2.9694 -0.483,-1.198 -0.07,-2.8621 -0.879,-4.0208 -0.805,-1.1587 -2.57,-1.5454 -3.77,-2.2304 z"
       id="camel"
       style="fill:#000000;fill-opacity:1;stroke:none" />
  </g>
</svg>
