<?xml version="1.0" encoding="UTF-8" standalone="no"?>
<!-- Created with Inkscape (http://www.inkscape.org/) -->
<!-- icons-mk created by Matthias Kuhnel (2019), reuseIT, https://reuseproject.org -->

<svg
   xmlns:dc="http://purl.org/dc/elements/1.1/"
   xmlns:cc="http://creativecommons.org/ns#"
   xmlns:rdf="http://www.w3.org/1999/02/22-rdf-syntax-ns#"
   xmlns:svg="http://www.w3.org/2000/svg"
   xmlns="http://www.w3.org/2000/svg"
   version="1.1"
   width="25"
   height="25"
   id="svg">
  <defs
     id="defs" />
  <metadata
     id="metadata">
    <rdf:RDF>
      <cc:Work
         rdf:about="">
        <dc:format>image/svg+xml</dc:format>
        <dc:type
           rdf:resource="http://purl.org/dc/dcmitype/StillImage" />
        <dc:title></dc:title>
      </cc:Work>
    </rdf:RDF>
  </metadata>
  <g
     transform="translate(0,-1027.3622)"
     id="icons-mk">
    <path
       d="m 12.4999,1027.5346 c -2.8673998,0 -5.6579998,0.2692 -7.4425001,1.1781 -1.9733,1.005 -2.6736,3.2618 -3.1035,5.1438 -0.1237,0.5413 -0.2177,1.05 -0.2874,1.523 -0.082,-0.07 -0.1795,-0.1181 -0.2874,-0.1149 l -0.94830005,0 -0.086,0 c -0.1931,0.045 -0.3431,0.2327 -0.3448,0.4311 l 0,3.1321 c 0.01,0.2236 0.2074,0.4234 0.431,0.4311 l 0.94830005,0 c 0.03,0 0.057,-0.023 0.086,-0.029 l 0,9.368 c 0,0.5414 0.4932,1.0334 1.0346,1.0344 l 0.8046,0 0,1.6093 c 0,0.4958 0.4525,0.9457 0.9483,0.9482 l 2.2414003,0 c 0.4957999,0 0.9457,-0.4524 0.9482,-0.9482 l 0,-1.6093 10.1151998,0 0,1.6093 c 0,0.4958 0.4525,0.9457 0.9483,0.9482 l 2.2414,0 c 0.4958,0 0.9458,-0.4524 0.9482,-0.9482 l 0,-1.6093 0.8046,0 c 0.5415,0 1.0336,-0.493 1.0346,-1.0344 l 0,-9.368 c 0.029,0.01 0.056,0.029 0.086,0.029 l 0.9195,0 c 0.2331,0.01 0.4518,-0.198 0.4598,-0.4311 l 0,-3.1321 c -0.01,-0.2333 -0.2267,-0.4381 -0.4598,-0.4311 l -0.9195,0 c -0.038,-0.01 -0.077,-0.01 -0.1149,0 -0.07,0.016 -0.1191,0.068 -0.1725,0.1149 -0.07,-0.473 -0.1638,-0.9817 -0.2874,-1.523 -0.43,-1.882 -1.1303,-4.1388 -3.1035,-5.1438 -1.7845,-0.9089 -4.5751,-1.1781 -7.4426,-1.1781 z m 0,2.2413 c 2.6795,0 5.4279,0.4203 6.4082,0.9196 0.7919,0.4035 1.5783,2.0345 1.9541,3.6782 0.2376,1.0399 0.2097,1.4018 0.2585,1.9828 l -17.2703001,0 c 0.049,-0.581 0.021,-0.943 0.2585,-1.9828 0.3758,-1.6437 1.1622,-3.2747 1.9541,-3.6782 0.9805003,-0.4993 3.7575003,-0.9196 6.4369001,-0.9196 z m -7.1265001,11.8681 c 1.1427003,0 2.0689003,0.9263 2.0689003,2.0689 0,1.1427 -0.9262,2.069 -2.0689003,2.069 -1.1427,0 -2.069,-0.9263 -2.069,-2.069 0,-1.1426 0.9263,-2.0689 2.069,-2.0689 z m 14.2530001,0 c 1.1428,0 2.069,0.9263 2.069,2.0689 0,1.1427 -0.9262,2.069 -2.069,2.069 -1.1426,0 -2.0689,-0.9263 -2.0689,-2.069 0,-1.1426 0.9263,-2.0689 2.0689,-2.0689 z"
       id="car"
       style="font-size:medium;font-style:normal;font-variant:normal;font-weight:normal;font-stretch:normal;text-indent:0;text-align:start;text-decoration:none;line-height:normal;letter-spacing:normal;word-spacing:normal;text-transform:none;direction:ltr;block-progression:tb;writing-mode:lr-tb;text-anchor:start;baseline-shift:baseline;color:#000000;fill:#000000;fill-opacity:1;fill-rule:nonzero;stroke:none;stroke-width:2.0726192;marker:none;visibility:visible;display:inline;overflow:visible;enable-background:accumulate;font-family:Sans;-inkscape-font-specification:Sans" />
  </g>
</svg>
