<?xml version="1.0" encoding="UTF-8" standalone="no"?>
<!-- Created with Inkscape (http://www.inkscape.org/) -->
<!-- icons-mk created by Matthias Kuhnel (2019), reuseIT, https://reuseproject.org -->

<svg
   xmlns:dc="http://purl.org/dc/elements/1.1/"
   xmlns:cc="http://creativecommons.org/ns#"
   xmlns:rdf="http://www.w3.org/1999/02/22-rdf-syntax-ns#"
   xmlns:svg="http://www.w3.org/2000/svg"
   xmlns="http://www.w3.org/2000/svg"
   version="1.1"
   width="25"
   height="25"
   id="svg">
  <defs
     id="defs" />
  <metadata
     id="metadata">
    <rdf:RDF>
      <cc:Work
         rdf:about="">
        <dc:format>image/svg+xml</dc:format>
        <dc:type
           rdf:resource="http://purl.org/dc/dcmitype/StillImage" />
        <dc:title></dc:title>
      </cc:Work>
    </rdf:RDF>
  </metadata>
  <g
     transform="translate(0,-1027.3622)"
     id="icons-mk">
    <path
       d="m 0.65603999,1028.9731 -0.656099997881,1.0936 C 0.49773999,1030.373 1.03354,1030.4113 1.62474,1030.4729 c 0.5913,0.062 1.2178,0.1034 1.8122,0.2187 0.5944,0.1153 1.1195,0.3102 1.4998,0.5937 0.3803,0.2835 0.6416,0.6282 0.7499,1.281 0.4207,2.2357 -0.7984,5.0145 -1.0312,7.5927 -0.1161,1.2891 0.057,2.6426 0.9999,3.687 0.6555,0.7267 1.639,1.2555 2.9996,1.656 -0.5964,0.5554 -0.9686,1.3392 -0.9686,2.2185 0,1.68 1.3506,3.0308 3.0309,3.0308 1.68,0 3.0308,-1.3508 3.0308,-3.0308 0,-0.6461 -0.1877,-1.2571 -0.5312,-1.7498 l 5.6866,0 c -0.3434,0.4927 -0.5311,1.1037 -0.5311,1.7498 0,1.68 1.3506,3.0308 3.0308,3.0308 1.68,0 3.0309,-1.3508 3.0309,-3.0308 0,-1.6801 -1.3509,-3.0621 -3.0309,-3.0621 -0.031,0 -0.063,-9e-4 -0.094,0 l -10.5298,0 c -0.023,0 -0.04,0 -0.062,0 -2.2137,-0.3706 -3.4344,-1.0228 -4.062,-1.7185 -0.3667,-0.4065 -0.5642,-0.8622 -0.6561,-1.3748 0.7151,0.094 1.6469,0.132 2.7808,0.1874 1.6123,0.079 3.5932,0.1235 5.5305,0.125 1.9373,0 3.8581,-0.047 5.4367,-0.125 1.5785,-0.078 2.7065,-0.1532 3.4057,-0.3749 0.8184,-0.2597 1.2769,-1.0228 1.5311,-1.8435 0.2544,-0.8205 0.3347,-1.7893 0.3125,-2.7496 -0.022,-0.9603 -0.1439,-1.893 -0.4062,-2.6871 -0.2623,-0.7939 -0.6502,-1.5324 -1.4374,-1.781 -0.3563,-0.1125 -0.727,-0.1505 -1.3122,-0.1875 -0.5852,-0.037 -1.3324,-0.049 -2.156,-0.062 -1.647,-0.024 -3.6802,3e-4 -5.6555,0.031 -3.6293,0.061 -6.5248,0.17 -7.0614,0.1874 -0.1693,-0.9107 -0.648,-1.6134 -1.2498,-2.0622 -0.6176,-0.4604 -1.3327,-0.6768 -2.031,-0.8124 -0.6985,-0.1354 -1.3785,-0.1606 -1.9372,-0.2187 -0.5587,-0.058 -1.02200001,-0.1746 -1.09370001,-0.2187 z m 16.46650001,4.3744 c 0.8361,-0.01 1.6481,0.021 2.3747,0.031 l 0,1.8123 -2.3747,0 0,-1.8435 z m -1.0624,0.031 0,1.8123 -2.4059,0 0,-1.781 c 0.2069,0 0.1975,0 0.4062,0 0.6769,-0.011 1.3302,-0.024 1.9997,-0.031 z m 4.4681,0.031 c 0.4217,0.01 0.8984,0.011 1.2186,0.031 0.5504,0.034 0.9714,0.1061 1.0311,0.125 0.045,0.014 0.3252,0.3144 0.5312,0.9374 0.067,0.2019 0.1345,0.4474 0.1875,0.6874 l -2.9684,0 0,-1.781 z m -7.9051,0.031 0,1.7498 -2.3746,0 0,-1.6873 c 0.8848,-0.024 1.2172,-0.037 2.3746,-0.062 z m -3.4057,0.094 0,1.656 -2.2185,0 c 0.076,-0.5338 0.1343,-1.0828 0.125,-1.6248 0.1827,-0.01 1.4754,-0.013 2.0935,-0.031 z m -2.406,2.7183 2.406,0 0,1.4061 -2.7184,0 c 0.1144,-0.4608 0.2112,-0.9232 0.3124,-1.4061 z m 3.4371,0 2.3746,0 0,1.4061 -2.3746,0 0,-1.4061 z m 3.4057,0 2.4059,0 0,1.4061 -2.4059,0 0,-1.4061 z m 3.4683,0 2.3747,0 0,1.4061 -2.3747,0 0,-1.4061 z m 3.4057,0 3.1246,0 c 0.017,0.1874 0.027,0.3714 0.031,0.5624 0.01,0.2869 -0.01,0.563 -0.031,0.8437 l -3.1246,0 0,-1.4061 z m -14.2792,2.4684 2.9684,0 0,1.7185 c -0.1078,0 -0.239,0.01 -0.3437,0 -1.339,-0.066 -2.3681,-0.1528 -2.9371,-0.2499 0.049,-0.4686 0.1915,-0.9456 0.3124,-1.4686 z m 3.9995,0 2.3746,0 0,1.8123 c -0.8316,-0.012 -1.61,0 -2.3746,-0.031 l 0,-1.781 z m 3.4057,0 2.4059,0 0,1.8123 c -0.585,0.01 -1.1524,0.032 -1.7497,0.031 -0.2215,0 -0.4348,0 -0.6562,0 l 0,-1.8435 z m 3.4683,0 2.3747,0 0,1.7185 c -0.729,0.035 -1.53,0.073 -2.3747,0.094 l 0,-1.8123 z m 3.4057,0 2.9684,0 c -0.032,0.1426 -0.055,0.3125 -0.094,0.4375 -0.1931,0.6235 -0.444,0.9112 -0.6249,0.9686 -0.2368,0.075 -1.1498,0.1709 -2.2497,0.2499 l 0,-1.656 z"
       id="cart"
       style="fill:#000000;fill-opacity:1;fill-rule:nonzero;stroke:none" />
  </g>
</svg>
