<?xml version="1.0" encoding="UTF-8" standalone="no"?>
<!-- Created with Inkscape (http://www.inkscape.org/) -->
<!-- icons-mk created by Matthias Kuhnel (2020), reuseIT, https://reuseproject.org -->

<svg
   xmlns:dc="http://purl.org/dc/elements/1.1/"
   xmlns:cc="http://creativecommons.org/ns#"
   xmlns:rdf="http://www.w3.org/1999/02/22-rdf-syntax-ns#"
   xmlns:svg="http://www.w3.org/2000/svg"
   xmlns="http://www.w3.org/2000/svg"
   version="1.1"
   width="25"
   height="25"
   id="svg">
  <defs
     id="defs" />
  <metadata
     id="metadata">
    <rdf:RDF>
      <cc:Work
         rdf:about="">
        <dc:format>image/svg+xml</dc:format>
        <dc:type
           rdf:resource="http://purl.org/dc/dcmitype/StillImage" />
        <dc:title></dc:title>
      </cc:Work>
    </rdf:RDF>
  </metadata>
  <g
     transform="translate(0,-1027.3622)"
     id="icons-mk">
    <path
       d="m 12.466806,1027.3647 a 0.66722392,0.66722392 0 0 0 -0.531,0.6562 l 0,3.9991 a 0.66722392,0.66722392 0 0 0 0.656,0.6874 l 2.812,0 0,2.6869 -11.8730008,0 a 1.2313675,1.2313675 0 0 0 -1.218,1.2185 l 0,5.905 c -0.685,1.4617 -1.51199998,3.3662 -1.96799998,5.0614 -0.228,0.8503 -0.357,1.6444 -0.34399999803,2.312 0.009999998,0.6677 0.18199999803,1.2129 0.59399999803,1.531 0.117,0.091 0.29,0.1529 0.53099998,0.2187 0.24,0.066 0.548,0.1313 0.906,0.1874 0.717,0.1124 1.66,0.204 2.749,0.2812 2.178,0.1545 4.944,0.2424 7.7170008,0.25 2.775,0.01 5.544,-0.069 7.718,-0.2187 1.086,-0.075 2.034,-0.1633 2.749,-0.2812 0.357,-0.059 0.666,-0.1163 0.906,-0.1875 0.239,-0.071 0.416,-0.1487 0.531,-0.2499 0.398,-0.3478 0.568,-0.9238 0.594,-1.5934 0.03,-0.6697 -0.1,-1.4403 -0.312,-2.2808 -0.425,-1.6611 -1.231,-3.5201 -2,-4.999 l 0,-5.9362 a 1.2313675,1.2313675 0 0 0 -1.219,-1.2185 l -3.218,0 0,-2.6869 2.844,0 a 0.66722392,0.66722392 0 0 0 0.655,-0.6874 l 0,-3.9991 a 0.66722392,0.66722392 0 0 0 -0.655,-0.6562 l -8.499,0 a 0.66722392,0.66722392 0 0 0 -0.06,0 0.66722392,0.66722392 0 0 0 -0.06,0 z m 0.781,1.3435 7.155,0 0,2.6557 -7.155,0 0,-2.6557 z m -8.4670008,9.1231 15.4350008,0 0,3.9991 -15.4350008,0 0,-3.9991 z m 8.4670008,5.655 c 0.333,10e-5 0.676,0.06 1.031,0.1563 0.355,0.096 0.758,0.2305 1.188,0.4374 l 0,1.7184 -0.563,0 c -0.124,-0.6051 -0.276,-1.061 -0.5,-1.3435 -0.224,-0.2824 -0.516,-0.4062 -0.875,-0.4062 -0.401,0 -0.741,0.1634 -0.969,0.4999 -0.228,0.3365 -0.366,0.8394 -0.437,1.531 l 2.187,0 -0.25,0.5623 -1.968,0 c -0.01,0.1358 0,0.2368 0,0.3125 l 0,0.1874 0,0.1562 c 0,0.083 0,0.1478 0,0.2187 l 1.562,0 -0.25,0.5624 -1.281,0 c 0.06,0.6854 0.208,1.1914 0.437,1.531 0.23,0.3396 0.562,0.5311 0.969,0.5311 0.346,0 0.62,-0.1391 0.844,-0.4062 0.224,-0.2669 0.386,-0.6778 0.469,-1.1872 l 0.75,0 c -0.117,0.6884 -0.383,1.2353 -0.782,1.5934 -0.398,0.3581 -0.913,0.5311 -1.562,0.5311 -0.784,0 -1.42,-0.2366 -1.937,-0.6873 -0.518,-0.4507 -0.871,-1.0815 -1.031,-1.9059 l -0.8750008,0 0.25,-0.5624 0.5630008,0 0,-0.094 c -0.01,-0.1636 -0.03,-0.2788 -0.03,-0.3437 0,-0.077 0.02,-0.2019 0.03,-0.3749 l 0,-0.062 -0.8130008,0 0.25,-0.5623 0.6250008,0 c 0.16,-0.8243 0.513,-1.4552 1.031,-1.9059 0.517,-0.4507 1.153,-0.6873 1.937,-0.6874 z"
       id="cash-register"
       style="font-size:medium;font-style:normal;font-variant:normal;font-weight:normal;font-stretch:normal;text-indent:0;text-align:start;text-decoration:none;line-height:normal;letter-spacing:normal;word-spacing:normal;text-transform:none;direction:ltr;block-progression:tb;writing-mode:lr-tb;text-anchor:start;baseline-shift:baseline;color:#000000;fill:#000000;fill-opacity:1;fill-rule:nonzero;stroke:none;stroke-width:11.24428177;marker:none;visibility:visible;display:inline;overflow:visible;enable-background:accumulate;font-family:Sans;-inkscape-font-specification:Sans" />
  </g>
</svg>
