<?xml version="1.0" encoding="UTF-8" standalone="no"?>
<!-- Created with Inkscape (http://www.inkscape.org/) -->
<!-- icons-mk created by Matthias Kuhnel (2019), reuseIT, https://reuseproject.org -->

<svg
   xmlns:dc="http://purl.org/dc/elements/1.1/"
   xmlns:cc="http://creativecommons.org/ns#"
   xmlns:rdf="http://www.w3.org/1999/02/22-rdf-syntax-ns#"
   xmlns:svg="http://www.w3.org/2000/svg"
   xmlns="http://www.w3.org/2000/svg"
   version="1.1"
   width="25"
   height="25"
   id="svg">
  <defs
     id="defs" />
  <metadata
     id="metadata">
    <rdf:RDF>
      <cc:Work
         rdf:about="">
        <dc:format>image/svg+xml</dc:format>
        <dc:type
           rdf:resource="http://purl.org/dc/dcmitype/StillImage" />
        <dc:title></dc:title>
      </cc:Work>
    </rdf:RDF>
  </metadata>
  <g
     transform="translate(0,-1027.3622)"
     id="icons-mk">
    <path
       d="m 4.7440001,1027.3622 c 0,0 -1.5360001,11.7539 2.1269999,15.3863 1.0740001,1.0651 2.179,1.8113 3.283,2.2517 l 0,0.4378 0,4.5659 0,0.5942 -2.001,0 a 0.88207943,0.88207943 0 0 0 -0.187,0 0.88244511,0.88244511 0 1 0 0.187,1.7513 l 8.694,0 a 0.88207943,0.88207943 0 1 0 0,-1.7513 l -2.001,0 0,-0.5942 0,-4.5659 0,-0.4378 c 1.103,-0.4404 2.209,-1.1866 3.283,-2.2517 3.663,-3.6324 2.127,-15.3863 2.127,-15.3863 l -15.5119999,0 z"
       id="chalice"
       style="fill:#000000;fill-opacity:1;stroke:none" />
  </g>
</svg>
