<?xml version="1.0" encoding="UTF-8" standalone="no"?>
<!-- Created with Inkscape (http://www.inkscape.org/) -->
<!-- icons-mk created by Matthias Kuhnel (2020), reuseIT, https://reuseproject.org -->

<svg
   xmlns:dc="http://purl.org/dc/elements/1.1/"
   xmlns:cc="http://creativecommons.org/ns#"
   xmlns:rdf="http://www.w3.org/1999/02/22-rdf-syntax-ns#"
   xmlns:svg="http://www.w3.org/2000/svg"
   xmlns="http://www.w3.org/2000/svg"
   version="1.1"
   width="25"
   height="25"
   id="svg">
  <defs
     id="defs" />
  <metadata
     id="metadata">
    <rdf:RDF>
      <cc:Work
         rdf:about="">
        <dc:format>image/svg+xml</dc:format>
        <dc:type
           rdf:resource="http://purl.org/dc/dcmitype/StillImage" />
        <dc:title></dc:title>
      </cc:Work>
    </rdf:RDF>
  </metadata>
  <g
     transform="translate(0,-1027.3622)"
     id="icons-mk">
    <path
       d="m 3.75,1034.753 -3.75,3.75 0.656,0.625 3.718,-3.7187 -0.624,-0.6563 z m 17.531,0 -0.625,0.6563 3.718,3.7187 0.626,-0.625 -3.719,-3.75 z M 5.5,1037.5968 c -0.704,0 -1.256,0.1898 -1.657,0.5937 -0.401,0.404 -0.593,0.9758 -0.593,1.6875 0,0.7098 0.192,1.2524 0.593,1.6563 0.401,0.4039 0.952,0.625 1.657,0.625 0.705,0 1.256,-0.2211 1.656,-0.625 0.4,-0.4039 0.625,-0.9465 0.625,-1.6563 0,-0.7117 -0.225,-1.2835 -0.625,-1.6875 -0.4,-0.4039 -0.951,-0.5937 -1.656,-0.5937 z m 14,0 c -0.706,0 -1.257,0.1898 -1.657,0.5937 -0.4,0.404 -0.593,0.9758 -0.593,1.6875 0,0.7098 0.193,1.2524 0.593,1.6563 0.4,0.4039 0.951,0.625 1.657,0.625 0.704,0 1.255,-0.2211 1.656,-0.625 0.401,-0.4039 0.625,-0.9465 0.625,-1.6563 0,-0.7117 -0.224,-1.2835 -0.625,-1.6875 -0.401,-0.4039 -0.953,-0.5937 -1.656,-0.5937 z m -9.626,0.7812 0,0.875 5.282,0 0,-0.875 -5.282,0 z m -4.374,0.031 c 0.347,0 0.622,0.1513 0.812,0.4062 0.185,0.2549 0.281,0.5998 0.281,1.0625 0,0.4608 -0.09,0.8076 -0.281,1.0625 -0.19,0.255 -0.465,0.4063 -0.812,0.4063 -0.346,0 -0.592,-0.1513 -0.782,-0.4063 -0.185,-0.2549 -0.312,-0.6017 -0.312,-1.0625 0,-0.4627 0.122,-0.8076 0.312,-1.0625 0.19,-0.2549 0.436,-0.4062 0.782,-0.4062 z m 14,0 c 0.345,0 0.622,0.1513 0.812,0.4062 0.19,0.2549 0.281,0.5998 0.281,1.0625 0,0.4608 -0.1,0.8076 -0.281,1.0625 -0.19,0.255 -0.467,0.4063 -0.812,0.4063 -0.348,0 -0.592,-0.1513 -0.782,-0.4063 -0.19,-0.2549 -0.312,-0.6017 -0.312,-1.0625 0,-0.4627 0.127,-0.8076 0.312,-1.0625 0.19,-0.2549 0.434,-0.4062 0.782,-0.4062 z m -9.626,2.0625 0,0.9062 5.282,0 0,-0.9062 -5.282,0 z m -9.218,0.1562 -0.656,0.625 3.75,3.7188 0.624,-0.625 -3.718,-3.7188 z m 23.718,0 -3.718,3.7188 0.625,0.625 3.719,-3.7188 -0.626,-0.625 z"
       id="chemical-structure"
       style="fill:#000000;fill-opacity:1" />
  </g>
</svg>
