<?xml version="1.0" encoding="UTF-8" standalone="no"?>
<!-- Created with Inkscape (http://www.inkscape.org/) -->
<!-- icons-mk created by Matthias Kuhnel (2019), reuseIT, https://reuseproject.org -->

<svg
   xmlns:dc="http://purl.org/dc/elements/1.1/"
   xmlns:cc="http://creativecommons.org/ns#"
   xmlns:rdf="http://www.w3.org/1999/02/22-rdf-syntax-ns#"
   xmlns:svg="http://www.w3.org/2000/svg"
   xmlns="http://www.w3.org/2000/svg"
   version="1.1"
   width="25"
   height="25"
   id="svg">
  <defs
     id="defs" />
  <metadata
     id="metadata">
    <rdf:RDF>
      <cc:Work
         rdf:about="">
        <dc:format>image/svg+xml</dc:format>
        <dc:type
           rdf:resource="http://purl.org/dc/dcmitype/StillImage" />
        <dc:title></dc:title>
      </cc:Work>
    </rdf:RDF>
  </metadata>
  <g
     transform="translate(0,-1027.3622)"
     id="icons-mk">
    <path
       d="m 3.5,1027.3622 0,0.9688 -1.25,0 0,1 1.25,0 0,2.25 -3.500000050000001,6 0,14.7812 2.499999950000001,0 0,-2.7812 c 0,0 -0.1009,-3.2188 1.5,-3.2188 1.6008,0 1.5,3.2188 1.5,3.2188 l 0,2.7812 19.5000001,0 0,-11.75 -17.0000001,0 0,-3.0312 -3.5,-6 0,-2.25 1.25,0 0,-1 -1.25,0 0,-0.9688 -1,0 z m 0.5,8.7188 c 0.8284,0 1.5,0.6716 1.5,1.5 0,0.8284 -0.6716,1.5 -1.5,1.5 -0.8284,0 -1.5,-0.6716 -1.5,-1.5 0,-0.8284 0.6716,-1.5 1.5,-1.5 z m 7.8125,7.4062 c 0.058,-0.016 0.1208,0 0.1875,0 1.0671,0 1,2.125 1,2.125 l 0,1.875 -2,0 0,-1.875 c 0,0 -0.059,-1.8904 0.8125,-2.125 z m 4.5,0 c 0.058,-0.016 0.1209,0 0.1875,0 1.0674,0 1,2.125 1,2.125 l 0,1.875 -2,0 0,-1.875 c 0,0 -0.06,-1.8904 0.8125,-2.125 z m 4.5,0 c 0.058,-0.016 0.1208,0 0.1875,0 1.0671,0 1,2.125 1,2.125 l 0,1.875 -2,0 0,-1.875 c 0,0 -0.059,-1.8904 0.8125,-2.125 z"
       id="church"
       style="fill:#000000;fill-opacity:1;stroke:none" />
  </g>
</svg>
