<?xml version="1.0" encoding="UTF-8" standalone="no"?>
<!-- Created with Inkscape (http://www.inkscape.org/) -->
<!-- icons-mk created by Matthias Kuhnel (2019), reuseIT, https://reuseproject.org -->

<svg
   xmlns:dc="http://purl.org/dc/elements/1.1/"
   xmlns:cc="http://creativecommons.org/ns#"
   xmlns:rdf="http://www.w3.org/1999/02/22-rdf-syntax-ns#"
   xmlns:svg="http://www.w3.org/2000/svg"
   xmlns="http://www.w3.org/2000/svg"
   version="1.1"
   width="25"
   height="25"
   id="svg">
  <defs
     id="defs" />
  <metadata
     id="metadata">
    <rdf:RDF>
      <cc:Work
         rdf:about="">
        <dc:format>image/svg+xml</dc:format>
        <dc:type
           rdf:resource="http://purl.org/dc/dcmitype/StillImage" />
        <dc:title></dc:title>
      </cc:Work>
    </rdf:RDF>
  </metadata>
  <g
     transform="translate(0,-1027.3622)"
     id="icons-mk">
    <path
       d="m 11.7334,1042.4575 1.7831,4.8989 3.0499,-1.11 -1.783,-4.899 4.2638,-0.4111 -9.2590998,-8.5684 -1.5853,12.5153 z m 0.764,-15.0953 c -6.9033998,0 -12.4974002,5.594 -12.4974002,12.4974 0,6.9033 5.5940004,12.5026 12.4974002,12.5026 6.9034,0 12.5026,-5.5993 12.5026,-12.5026 0,-6.9034 -5.5992,-12.4974 -12.5026,-12.4974 z m 0,1.7831 c 5.9172,0 10.7143,4.7971 10.7143,10.7143 0,5.9172 -4.7971,10.7143 -10.7143,10.7143 -5.9171998,0 -10.7090998,-4.7971 -10.7090998,-10.7143 0,-5.9172 4.7919,-10.7143 10.7090998,-10.7143 z"
       id="click"
       style="fill:#000000;fill-opacity:1;fill-rule:evenodd;stroke:none" />
  </g>
</svg>
