<?xml version="1.0" encoding="UTF-8" standalone="no"?>
<!-- Created with Inkscape (http://www.inkscape.org/) -->
<!-- icons-mk created by Matthias Kuhnel (2019), reuseIT, https://reuseproject.org -->

<svg
   xmlns:dc="http://purl.org/dc/elements/1.1/"
   xmlns:cc="http://creativecommons.org/ns#"
   xmlns:rdf="http://www.w3.org/1999/02/22-rdf-syntax-ns#"
   xmlns:svg="http://www.w3.org/2000/svg"
   xmlns="http://www.w3.org/2000/svg"
   version="1.1"
   width="25"
   height="25"
   id="svg">
  <defs
     id="defs" />
  <metadata
     id="metadata">
    <rdf:RDF>
      <cc:Work
         rdf:about="">
        <dc:format>image/svg+xml</dc:format>
        <dc:type
           rdf:resource="http://purl.org/dc/dcmitype/StillImage" />
        <dc:title></dc:title>
      </cc:Work>
    </rdf:RDF>
  </metadata>
  <g
     transform="translate(0,-1027.3622)"
     id="icons-mk">
    <path
       d="m 9.1967999,1033.8075 c -3.3035,0 -5.9683,2.1428 -5.9683,4.786 0,0.048 0,0.096 0,0.1442 -1.8637,0.4739 -3.228599955,1.8405 -3.228599955,3.4885 0,2.0383 2.064799955,3.6905 4.612399955,3.6905 l 16.6072001,0 c 0.03,6e-4 0.06,0 0.09,0 2.0308,0 3.6906,-1.3166 3.6906,-2.9407 0,-1.2779 -1.028,-2.3334 -2.4508,-2.7391 0.01,-0.085 0.03,-0.1729 0.03,-0.2595 0,-1.6242 -1.6598,-2.9408 -3.6906,-2.9408 -0.07,0 -0.131,0.026 -0.2019,0.029 -0.573,-1.0267 -1.8768,-1.7587 -3.3726,-1.7587 -0.5219,0 -0.9929,0.1317 -1.4419,0.2883 -1.0968,-1.08 -2.7956,-1.7875 -4.6703001,-1.7875 z"
       id="cloud"
       style="fill:#000000;fill-opacity:1;stroke:none" />
  </g>
</svg>
