<?xml version="1.0" encoding="UTF-8" standalone="no"?>
<!-- Created with Inkscape (http://www.inkscape.org/) -->
<!-- icons-mk created by Matthias Kuhnel (2019), reuseIT, https://reuseproject.org -->

<svg
   xmlns:dc="http://purl.org/dc/elements/1.1/"
   xmlns:cc="http://creativecommons.org/ns#"
   xmlns:rdf="http://www.w3.org/1999/02/22-rdf-syntax-ns#"
   xmlns:svg="http://www.w3.org/2000/svg"
   xmlns="http://www.w3.org/2000/svg"
   version="1.1"
   width="25"
   height="25"
   id="svg">
  <defs
     id="defs" />
  <metadata
     id="metadata">
    <rdf:RDF>
      <cc:Work
         rdf:about="">
        <dc:format>image/svg+xml</dc:format>
        <dc:type
           rdf:resource="http://purl.org/dc/dcmitype/StillImage" />
        <dc:title></dc:title>
      </cc:Work>
    </rdf:RDF>
  </metadata>
  <g
     transform="translate(0,-1027.3622)"
     id="icons-mk">
    <path
       d="m 15.1842,1027.364 a 0.43996642,0.43996642 0 0 0 -0.3574,0.4399 l 0,10.1182 a 0.43996642,0.43996642 0 0 0 0.4399,0.4399 l 9.2934,0 A 0.43996642,0.43996642 0 0 0 25,1037.9221 l 0,-7.6986 a 0.43996642,0.43996642 0 0 0 -0.11,-0.3025 l -2.1996,-2.4196 a 0.43996642,0.43996642 0 0 0 -0.3299,-0.1374 l -7.0938,0 a 0.43996642,0.43996642 0 0 0 -0.083,0 z m 0.5225,0.8798 6.4613,0 1.9522,2.1446 0,7.0938 -8.4135,0 0,-9.2384 z m 1.1687,3.7713 c -0.1769,0.04 -0.3221,0.1968 -0.3163,0.3574 l 0,3.8904 c 0,0.187 0.1999,0.3575 0.4125,0.3575 l 5.8839,0 c 0.2127,0 0.4125,-0.1705 0.4125,-0.3575 l 0,-3.8904 c 0,-0.187 -0.1998,-0.3574 -0.4125,-0.3574 l -5.8839,0 c -0.033,0 -0.063,0 -0.096,0 z m 0.4377,-3.9374 c -0.1019,0.026 -0.1788,0.1287 -0.1754,0.2339 l 0,1.9738 c 0,0.1226 0.1114,0.234 0.2339,0.234 l 3.3921,0 c 0.1225,0 0.234,-0.1114 0.234,-0.234 l 0,-1.9738 c 0,-0.1225 -0.1115,-0.2339 -0.234,-0.2339 l -3.3921,0 c -0.019,0 -0.039,0 -0.059,0 z m -8.1148998,12.1737 c -3.3045,0 -5.9689,2.1431 -5.9689,4.7866 0,0.048 0,0.096 0,0.1442 -1.8642,0.474 -3.22950004,1.8408 -3.22950004,3.489 0,2.0385 2.06560004,3.6909 4.61360004,3.6909 l 16.6089998,0 c 0.03,6e-4 0.056,0 0.087,0 2.0304,0 3.6908,-1.3168 3.6908,-2.9411 0,-1.278 -1.0276,-2.3336 -2.451,-2.7394 0.01,-0.085 0.029,-0.1729 0.029,-0.2595 0,-1.6244 -1.6605,-2.9412 -3.6909,-2.9412 -0.071,0 -0.1317,0.026 -0.2019,0.029 -0.5736,-1.0268 -1.8769,-1.7589 -3.3737,-1.7589 -0.5216,0 -0.9923,0.1317 -1.4418,0.2884 -1.097,-1.0802 -2.7959,-1.7878 -4.6711998,-1.7878 z"
       id="cloud-storage"
       style="font-size:medium;font-style:normal;font-variant:normal;font-weight:normal;font-stretch:normal;text-indent:0;text-align:start;text-decoration:none;line-height:normal;letter-spacing:normal;word-spacing:normal;text-transform:none;direction:ltr;block-progression:tb;writing-mode:lr-tb;text-anchor:start;baseline-shift:baseline;color:#000000;fill:#000000;fill-opacity:1;stroke:none;stroke-width:2;marker:none;visibility:visible;display:inline;overflow:visible;enable-background:accumulate;font-family:Sans;-inkscape-font-specification:Sans" />
  </g>
</svg>
