<?xml version="1.0" encoding="UTF-8" standalone="no"?>
<!-- Created with Inkscape (http://www.inkscape.org/) -->
<!-- icons-mk created by Matthias Kuhnel (2019), reuseIT, https://reuseproject.org -->

<svg
   xmlns:dc="http://purl.org/dc/elements/1.1/"
   xmlns:cc="http://creativecommons.org/ns#"
   xmlns:rdf="http://www.w3.org/1999/02/22-rdf-syntax-ns#"
   xmlns:svg="http://www.w3.org/2000/svg"
   xmlns="http://www.w3.org/2000/svg"
   version="1.1"
   width="25"
   height="25"
   id="svg">
  <defs
     id="defs" />
  <metadata
     id="metadata">
    <rdf:RDF>
      <cc:Work
         rdf:about="">
        <dc:format>image/svg+xml</dc:format>
        <dc:type
           rdf:resource="http://purl.org/dc/dcmitype/StillImage" />
        <dc:title></dc:title>
      </cc:Work>
    </rdf:RDF>
  </metadata>
  <g
     transform="translate(0,-1027.3622)"
     id="icons-mk">
    <path
       d="m 15.63525,1030.7187 c -1.9583,0 -3.5372,1.27 -3.5372,2.8366 0,0.029 0,0.057 0,0.085 -1.1047,0.2809 -1.9138,1.0909 -1.9138,2.0676 0,1.208 1.2241,2.1873 2.7341,2.1873 l 9.8426,0 c 0.017,3e-4 0.033,0 0.052,0 1.2032,0 2.1873,-0.7804 2.1873,-1.743 0,-0.7573 -0.6091,-1.3829 -1.4526,-1.6233 0.01,-0.05 0.017,-0.1025 0.017,-0.1538 0,-0.9626 -0.9841,-1.743 -2.1873,-1.743 -0.042,0 -0.078,0.015 -0.1196,0.017 -0.3399,-0.6086 -1.1123,-1.0424 -1.9993,-1.0424 -0.3091,0 -0.588,0.078 -0.8544,0.1709 -0.6501,-0.6401 -1.6569,-1.0595 -2.7682,-1.0595 z m -7.6061,7.7156 c -2.8845,0 -5.2103,1.8707 -5.2103,4.1783 0,0.042 0,0.084 0,0.1259 -1.6273,0.4137 -2.8191,1.6068 -2.8191,3.0456 0,1.7794 1.8031,3.2219 4.0273,3.2219 l 14.4983,0 c 0.026,5e-4 0.049,0 0.076,0 1.7724,0 3.2218,-1.1495 3.2218,-2.5675 0,-1.1155 -0.897,-2.037 -2.1395,-2.3912 0.01,-0.074 0.025,-0.1509 0.025,-0.2265 0,-1.4179 -1.4495,-2.5674 -3.2219,-2.5674 -0.062,0 -0.1149,0.022 -0.1762,0.025 -0.5007,-0.8963 -1.6384,-1.5354 -2.945,-1.5354 -0.4553,0 -0.8662,0.115 -1.2586,0.2517 -0.9575,-0.9428 -2.4406,-1.5605 -4.0775,-1.5605 z"
       id="cloudy"
       style="fill:#000000;fill-opacity:1;stroke:none" />
  </g>
</svg>
