<?xml version="1.0" encoding="UTF-8" standalone="no"?>
<!-- Created with Inkscape (http://www.inkscape.org/) -->
<!-- icons-mk created by Matthias Kuhnel (2019), reuseIT, https://reuseproject.org -->

<svg
   xmlns:dc="http://purl.org/dc/elements/1.1/"
   xmlns:cc="http://creativecommons.org/ns#"
   xmlns:rdf="http://www.w3.org/1999/02/22-rdf-syntax-ns#"
   xmlns:svg="http://www.w3.org/2000/svg"
   xmlns="http://www.w3.org/2000/svg"
   version="1.1"
   width="25"
   height="25"
   id="svg">
  <defs
     id="defs" />
  <metadata
     id="metadata">
    <rdf:RDF>
      <cc:Work
         rdf:about="">
        <dc:format>image/svg+xml</dc:format>
        <dc:type
           rdf:resource="http://purl.org/dc/dcmitype/StillImage" />
        <dc:title></dc:title>
      </cc:Work>
    </rdf:RDF>
  </metadata>
  <g
     transform="translate(0,-1027.3622)"
     id="icons-mk">
    <path
       d="m 19.87485,1030.6282 c -0.1125,-0.011 -0.226,0.068 -0.25,0.2813 0,0.336 0.01,0.7302 0,1.125 -0.01,0.3949 0.5,0.4902 0.5,-0.031 0,-0.5216 -0.015,-0.7628 -0.031,-1.0938 -0.01,-0.1677 -0.1063,-0.27 -0.2188,-0.2812 z m -3.3125,1.4063 c -0.196,0 -0.2911,0.2211 -0.125,0.4062 0.2215,0.2467 0.3863,0.4078 0.75,0.7813 0.3641,0.3737 0.6595,-0.039 0.375,-0.3125 -0.2844,-0.2736 -0.545,-0.5418 -0.7813,-0.7813 -0.083,-0.067 -0.1534,-0.093 -0.2187,-0.094 z m 6.625,0 c -0.065,5e-4 -0.1355,0.026 -0.2187,0.094 -0.2363,0.2393 -0.4972,0.5075 -0.7813,0.7812 -0.2842,0.2734 0.011,0.7175 0.375,0.3438 0.3641,-0.3735 0.5285,-0.5348 0.75,-0.7813 0.166,-0.1851 0.071,-0.439 -0.125,-0.4375 z m -3.2813,1.0625 c -1.4417,0 -2.625,1.1431 -2.625,2.5312 0,1.388 1.1833,2.5 2.625,2.5 1.4418,0 2.5938,-1.112 2.5938,-2.5 0,-1.3881 -1.152,-2.5312 -2.5938,-2.5312 z m -4.6874,2.2187 c -0.426,0.045 -0.3601,0.4822 -0.031,0.5 0.331,0.018 0.5723,-0.01 1.0937,0 0.5215,0.01 0.4259,-0.4764 0.031,-0.4687 -0.3948,0.01 -0.7575,0 -1.0937,0 l 0,-0.031 z m 8.0937,0 c -0.4258,0.045 -0.3288,0.4822 0,0.5 0.3311,0.018 0.5723,-0.01 1.0937,0 0.5219,0.01 0.4259,-0.4764 0.031,-0.4687 -0.3948,0.01 -0.789,0 -1.125,0 l 0,-0.031 z m -14.1249998,1.6563 c -3.3045004,0 -5.9687003,2.169 -5.9687003,4.8125 l 0,0.125 c -1.8642,0.474 -3.21880005,1.8518 -3.21880005,3.5 0,2.0385 2.07699995,3.6875 4.62500005,3.6875 l 16.5938001,0 c 0.03,6e-4 0.063,0 0.094,0 2.0304,0 3.6875,-1.3132 3.6875,-2.9375 0,-1.278 -1.0141,-2.3442 -2.4375,-2.75 0.01,-0.085 0.031,-0.1634 0.031,-0.25 0,-1.2837 -1.063,-2.3799 -2.5,-2.7813 0.01,-0.033 0.031,-0.054 0.031,-0.094 0,-0.5215 -0.015,-0.7627 -0.031,-1.0937 -0.016,-0.3355 -0.4208,-0.4256 -0.4688,0 0,0.336 0.01,0.6989 0,1.0937 -0.2397,-0.039 -0.4962,-0.062 -0.75,-0.062 -0.071,0 -0.1173,0.028 -0.1875,0.031 -0.3445,-0.6166 -0.964,-1.1281 -1.7187,-1.4375 0.2337,-0.2366 0.4174,-0.4286 0.5937,-0.625 0.2215,-0.2469 -0.011,-0.5818 -0.3437,-0.3125 -0.2363,0.2392 -0.4968,0.5077 -0.7813,0.7813 -0.3612,-0.096 -0.7262,-0.1875 -1.125,-0.1875 -0.5216,0 -0.988,0.1558 -1.4375,0.3125 -1.097,-1.0802 -2.8122,-1.8125 -4.6874998,-1.8125 z m 13.0936998,0.7812 c -0.196,0 -0.2911,0.2524 -0.125,0.4375 0.2215,0.2468 0.3864,0.4076 0.75,0.7813 0.3639,0.3737 0.6595,-0.07 0.375,-0.3438 -0.2843,-0.2734 -0.545,-0.5417 -0.7812,-0.7812 -0.083,-0.067 -0.1534,-0.093 -0.2188,-0.094 z"
       id="cloudy-sun"
       style="fill:#000000;fill-opacity:1" />
  </g>
</svg>
