<?xml version="1.0" encoding="UTF-8" standalone="no"?>
<!-- Created with Inkscape (http://www.inkscape.org/) -->
<!-- icons-mk created by Matthias Kuhnel (2019), reuseIT, https://reuseproject.org -->

<svg
   xmlns:dc="http://purl.org/dc/elements/1.1/"
   xmlns:cc="http://creativecommons.org/ns#"
   xmlns:rdf="http://www.w3.org/1999/02/22-rdf-syntax-ns#"
   xmlns:svg="http://www.w3.org/2000/svg"
   xmlns="http://www.w3.org/2000/svg"
   version="1.1"
   width="25"
   height="25"
   id="svg">
  <defs
     id="defs" />
  <metadata
     id="metadata">
    <rdf:RDF>
      <cc:Work
         rdf:about="">
        <dc:format>image/svg+xml</dc:format>
        <dc:type
           rdf:resource="http://purl.org/dc/dcmitype/StillImage" />
        <dc:title></dc:title>
      </cc:Work>
    </rdf:RDF>
  </metadata>
  <g
     transform="translate(0,-1027.3622)"
     id="icons-mk">
    <path
       d="m 15.909612,1040.0553 c 0,0 0.756,-0.1592 1.212,-1.805 0.228,-0.8231 0.226,-2.837 0.17,-4.6472 l 2.012,-1.1623 c 0.116,0.1374 0.256,0.2602 0.42,0.3551 0.753,0.4337 1.713,0.1769 2.148,-0.5749 0.432,-0.7518 0.176,-1.7122 -0.577,-2.1474 -0.752,-0.4337 -1.713,-0.1763 -2.147,0.5761 -0.107,0.1871 -0.173,0.3913 -0.201,0.5926 -0.06,0.032 -0.776,0.3852 -1.71,0.8654 -0.05,-1.0487 -0.105,-1.845 -0.111,-1.9171 0.162,-0.1252 0.306,-0.2825 0.412,-0.4703 0.435,-0.7517 0.178,-1.7136 -0.573,-2.1472 -0.753,-0.4344 -1.714,-0.1763 -2.148,0.5752 -0.434,0.7515 -0.177,1.7133 0.576,2.1466 0.163,0.095 0.339,0.1547 0.516,0.1858 l 0,2.3243 c -1.596,0.8567 -3.342,1.861 -3.941,2.4705 -1.197,1.2185 -0.957,1.9522 -0.957,1.9522 l 4.895,-2.826 0,5.6554 z m 4.075,-7.7136 c -0.501,-0.2893 -0.672,-0.9298 -0.383,-1.4309 0.289,-0.5011 0.93,-0.673 1.431,-0.3838 0.502,0.2893 0.674,0.9306 0.385,1.4317 -0.291,0.5011 -0.932,0.6723 -1.433,0.383 z m -4.332,-2.5007 c -0.5,-0.2893 -0.672,-0.93 -0.382,-1.4305 0.289,-0.5016 0.93,-0.6732 1.431,-0.3849 0.501,0.2894 0.673,0.9316 0.383,1.4327 -0.288,0.5011 -0.929,0.6721 -1.432,0.3827 z m -12.7340002,7.5213 0,1 0,13 0,1 1,0 10.5000002,0 1,0 0,-1 0,-13 0,-1 -1,0 -10.5000002,0 -1,0 z m 2,2 8.5000002,0 0,11 -8.5000002,0 0,-11 z"
       id="cut"
       style="fill:#000000;fill-opacity:1;stroke:none" />
  </g>
</svg>
