<?xml version="1.0" encoding="UTF-8" standalone="no"?>
<!-- Created with Inkscape (http://www.inkscape.org/) -->
<!-- icons-mk created by Matthias Kuhnel (2020), reuseIT, https://reuseproject.org -->

<svg
   xmlns:dc="http://purl.org/dc/elements/1.1/"
   xmlns:cc="http://creativecommons.org/ns#"
   xmlns:rdf="http://www.w3.org/1999/02/22-rdf-syntax-ns#"
   xmlns:svg="http://www.w3.org/2000/svg"
   xmlns="http://www.w3.org/2000/svg"
   version="1.1"
   width="25"
   height="25"
   id="svg">
  <defs
     id="defs" />
  <metadata
     id="metadata">
    <rdf:RDF>
      <cc:Work
         rdf:about="">
        <dc:format>image/svg+xml</dc:format>
        <dc:type
           rdf:resource="http://purl.org/dc/dcmitype/StillImage" />
        <dc:title></dc:title>
      </cc:Work>
    </rdf:RDF>
  </metadata>
  <g
     transform="translate(0,-1027.3622)"
     id="icons-mk">
    <path
       d="m 8.547,1027.3622 0.156,1.8438 c -4.149,1.113 -7.187,4.9186 -7.187,9.4062 l 0,0.25 2.031,0 0,-0.25 c 0,-3.459 2.225,-6.3917 5.344,-7.375 l 0.156,1.6875 3.469,-3.0937 -3.969,-2.4688 z m 4.906,1.4688 0,2.0312 c 0.09,0 0.175,-0.031 0.25,-0.031 3.451,0 6.385,2.265 7.376,5.375 l -1.688,0.1562 3.094,3.4688 2.468,-3.9688 -1.843,0.1563 c -1.113,-4.1493 -4.919,-7.1875 -9.407,-7.1875 -0.09,0 -0.17,-10e-4 -0.25,0 z m -0.937,6.875 c -0.356,0 -0.656,0.2693 -0.656,0.625 0,0.1621 0.06,0.3242 0.156,0.4375 -0.04,0.014 -0.06,0.014 -0.09,0.031 -0.01,-0.1516 -0.07,-0.2904 -0.187,-0.4062 -0.252,-0.2515 -0.654,-0.2515 -0.906,0 -0.252,0.2515 -0.252,0.6547 0,0.9062 0.116,0.1159 0.255,0.1784 0.406,0.1875 -0.02,0.037 -0.02,0.086 -0.03,0.125 -0.115,-0.1013 -0.272,-0.1875 -0.437,-0.1875 -0.355,0 -0.656,0.3006 -0.656,0.6563 0,0.3557 0.301,0.625 0.656,0.625 0.163,0 0.293,-0.057 0.406,-0.1563 0.01,0.038 0.04,0.088 0.06,0.125 -0.151,0.01 -0.29,0.072 -0.406,0.1875 -0.252,0.2515 -0.252,0.6548 0,0.9063 0.252,0.2515 0.654,0.2515 0.906,0 0.116,-0.1158 0.178,-0.2547 0.187,-0.4063 0.04,0.017 0.06,0.017 0.09,0.031 -0.1,0.1132 -0.156,0.2753 -0.156,0.4375 0,0.3212 0.224,0.5759 0.531,0.625 l 0,1.5937 0,0.062 0,0.1563 c -0.163,-0.1718 -0.406,-0.4266 -0.719,-0.6875 -0.234,-0.1949 -0.472,-0.3544 -0.687,-0.4375 -0.107,-0.041 -0.21,-0.061 -0.313,-0.031 -0.103,0.03 -0.188,0.1323 -0.219,0.25 -0.06,0.2377 0.07,0.4634 0.25,0.6563 0.185,0.1929 0.43,0.3502 0.688,0.5 0.468,0.2702 0.91,0.4333 1,0.4687 l 0,1.0313 0.219,0 0,-0.9375 0,-0.1563 0,-0.375 c 0.09,-0.034 0.532,-0.1985 1,-0.4687 0.259,-0.1497 0.502,-0.3071 0.687,-0.5 0.184,-0.1929 0.313,-0.4186 0.25,-0.6563 -0.03,-0.1177 -0.117,-0.2203 -0.218,-0.25 -0.103,-0.03 -0.205,-0.01 -0.313,0.031 -0.214,0.083 -0.454,0.2426 -0.687,0.4375 -0.313,0.2609 -0.556,0.5158 -0.719,0.6875 l 0,-1.375 c 0.304,-0.052 0.531,-0.3066 0.531,-0.625 0,-0.1643 -0.06,-0.3237 -0.156,-0.4375 0.04,-0.014 0.09,-0.014 0.125,-0.031 0.01,0.1516 0.04,0.2905 0.156,0.4063 0.251,0.2515 0.685,0.2515 0.937,0 0.252,-0.2515 0.252,-0.6548 0,-0.9063 -0.116,-0.1158 -0.286,-0.1783 -0.437,-0.1875 0.02,-0.036 0.05,-0.087 0.06,-0.125 0.114,0.1012 0.242,0.1563 0.406,0.1563 0.356,0 0.656,-0.2693 0.656,-0.625 0,-0.3557 -0.3,-0.6563 -0.656,-0.6563 -0.164,0 -0.292,0.086 -0.406,0.1875 -0.01,-0.039 -0.04,-0.088 -0.06,-0.125 0.151,-0.01 0.321,-0.071 0.437,-0.1875 0.252,-0.2515 0.252,-0.6547 0,-0.9062 -0.252,-0.2515 -0.686,-0.2515 -0.937,0 -0.116,0.1158 -0.147,0.2546 -0.156,0.4062 -0.04,-0.017 -0.09,-0.017 -0.125,-0.031 0.1,-0.1133 0.156,-0.2754 0.156,-0.4375 0,-0.3557 -0.27,-0.625 -0.625,-0.625 z m 0,1.7187 c 0.356,0 0.625,0.3006 0.625,0.6563 0,0.3557 -0.269,0.625 -0.625,0.625 -0.356,0 -0.656,-0.2693 -0.656,-0.625 0,-0.3557 0.3,-0.6563 0.656,-0.6563 z m -10,2.5 -2.469,3.9375 1.844,-0.1562 c 1.107,4.1593 4.912,7.2187 9.406,7.2187 l 0.282,0 0,-2 -0.282,0 c -3.45,0 -6.384,-2.265 -7.375,-5.375 l 1.719,-0.1562 -3.125,-3.4688 z m 18.969,0.9688 0,0.25 c 0,3.4602 -2.253,6.3898 -5.375,7.375 l -0.157,-1.7188 -3.468,3.0938 3.968,2.4687 -0.156,-1.8125 c 4.162,-1.1053 7.219,-4.9105 7.219,-9.4062 l 0,-0.25 -2.031,0 z"
       id="cycle-bio"
       style="fill:#000000;fill-opacity:1;stroke:none" />
  </g>
</svg>
