<?xml version="1.0" encoding="UTF-8" standalone="no"?>
<!-- Created with Inkscape (http://www.inkscape.org/) -->
<!-- icons-mk created by Matthias Kuhnel (2019), reuseIT, https://reuseproject.org -->

<svg
   xmlns:dc="http://purl.org/dc/elements/1.1/"
   xmlns:cc="http://creativecommons.org/ns#"
   xmlns:rdf="http://www.w3.org/1999/02/22-rdf-syntax-ns#"
   xmlns:svg="http://www.w3.org/2000/svg"
   xmlns="http://www.w3.org/2000/svg"
   version="1.1"
   width="25"
   height="25"
   id="svg">
  <defs
     id="defs" />
  <metadata
     id="metadata">
    <rdf:RDF>
      <cc:Work
         rdf:about="">
        <dc:format>image/svg+xml</dc:format>
        <dc:type
           rdf:resource="http://purl.org/dc/dcmitype/StillImage" />
        <dc:title></dc:title>
      </cc:Work>
    </rdf:RDF>
  </metadata>
  <g
     transform="translate(0,-1027.3622)"
     id="icons-mk">
    <path
       d="m 8.5625999,1027.3622 0.1564,1.8125 c -4.1594,1.1064 -7.2189,4.9116 -7.2189,9.4063 l 0,0.25 2.0313,0 0,-0.25 c 0,-3.4499 2.237,-6.3529 5.3437,-7.3438 l 0.1563,1.6875 3.4687001,-3.125 -3.9375001,-2.4375 z m 4.8750001,1.4375 0.031,2.0313 c 0.089,0 0.1748,-0.031 0.25,-0.031 3.4498,0 6.3529,2.2651 7.3438,5.375 l -1.6875,0.1563 3.125,3.4687 2.4375,-3.9687 -1.8125,0.1562 c -1.1164,-4.1442 -4.9225,-7.1875 -9.4063,-7.1875 -0.105,0 -0.1915,0 -0.2812,0 z m 8.0314,12.0625 0,0.25 c 0,3.4497 -2.2371,6.381 -5.3439,7.375 l -0.1561,-1.7188 -3.4689,3.125 3.9375,2.4688 -0.1562,-1.8438 c 4.1593,-1.1063 7.2187,-4.9116 7.2187,-9.4062 l 0,-0.25 -2.0311,0 z m -18.9689001,-0.9688 -2.43749995,3.9688 1.81249995,-0.1562 c 1.1164,4.1442 4.9225,7.1874 9.4063001,7.1874 l 0.2812,0 0,-2 -0.2812,0 c -3.4497001,0 -6.3529001,-2.2651 -7.3438001,-5.375 l 1.6875,-0.1562 -3.125,-3.4688 z"
       id="cycle"
       style="fill:#000000;fill-opacity:1;stroke:none" />
  </g>
</svg>
