<?xml version="1.0" encoding="UTF-8" standalone="no"?>
<!-- Created with Inkscape (http://www.inkscape.org/) -->
<!-- icons-mk created by Matthias Kuhnel (2020), reuseIT, https://reuseproject.org -->

<svg
   xmlns:dc="http://purl.org/dc/elements/1.1/"
   xmlns:cc="http://creativecommons.org/ns#"
   xmlns:rdf="http://www.w3.org/1999/02/22-rdf-syntax-ns#"
   xmlns:svg="http://www.w3.org/2000/svg"
   xmlns="http://www.w3.org/2000/svg"
   version="1.1"
   width="25"
   height="25"
   id="svg">
  <defs
     id="defs" />
  <metadata
     id="metadata">
    <rdf:RDF>
      <cc:Work
         rdf:about="">
        <dc:format>image/svg+xml</dc:format>
        <dc:type
           rdf:resource="http://purl.org/dc/dcmitype/StillImage" />
        <dc:title></dc:title>
      </cc:Work>
    </rdf:RDF>
  </metadata>
  <g
     transform="translate(0,-1027.3622)"
     id="icons-mk">
    <path
       d="m 8.563,1027.3624 0.156,1.8437 c -4.16,1.1063 -7.219,4.9116 -7.219,9.4062 l 0,0.25 2.032,0 0,-0.25 c 0,-3.4499 2.237,-6.3841 5.344,-7.375 l 0.156,1.6875 3.468,-3.0937 -3.937,-2.4687 z m 4.875,1.4687 0.03,2.0312 c 0.09,0 0.175,-0.031 0.25,-0.031 3.45,0 6.354,2.2651 7.344,5.375 l -1.687,0.1562 3.124,3.4688 2.438,-3.9688 -1.812,0.1563 c -1.113,-4.1493 -4.919,-7.1875 -9.407,-7.1875 -0.105,0 -0.191,0 -0.281,0 z m -4.125,6.875 c -0.356,0 -0.656,0.2692 -0.656,0.625 0,0.1621 0.06,0.3242 0.156,0.4375 -0.04,0.014 -0.06,0.014 -0.09,0.031 -0.01,-0.1516 -0.07,-0.2904 -0.187,-0.4062 -0.252,-0.2515 -0.655,-0.2515 -0.906,0 -0.253,0.2515 -0.253,0.6547 0,0.9062 0.115,0.1158 0.255,0.1784 0.406,0.1875 -0.02,0.037 -0.02,0.086 -0.03,0.125 -0.114,-0.1013 -0.273,-0.1875 -0.437,-0.1875 -0.356,0 -0.625,0.3005 -0.625,0.6563 0,0.3556 0.269,0.625 0.625,0.625 0.162,0 0.324,-0.057 0.437,-0.1563 0.01,0.038 0.02,0.088 0.03,0.125 -0.151,0.01 -0.291,0.072 -0.406,0.1875 -0.253,0.2515 -0.253,0.6548 0,0.9063 0.251,0.2515 0.654,0.2515 0.906,0 0.116,-0.1158 0.178,-0.2547 0.187,-0.4063 0.04,0.017 0.06,0.017 0.09,0.031 -0.1,0.1132 -0.156,0.2753 -0.156,0.4375 0,0.3212 0.224,0.5758 0.531,0.625 l 0,1.5937 0,0.062 0,0.1563 c -0.162,-0.1717 -0.406,-0.4266 -0.719,-0.6875 -0.233,-0.1948 -0.472,-0.3544 -0.687,-0.4375 -0.106,-0.041 -0.21,-0.061 -0.313,-0.031 -0.103,0.03 -0.188,0.1322 -0.219,0.25 -0.06,0.2377 0.07,0.4634 0.25,0.6563 0.185,0.1929 0.429,0.3502 0.688,0.5 0.468,0.2702 0.91,0.4334 1,0.4687 l 0,1.0313 0.219,0 0,-0.9375 0,-0.1563 0,-0.375 c 0.09,-0.034 0.533,-0.1985 1,-0.4687 0.259,-0.1498 0.503,-0.3071 0.687,-0.5 0.184,-0.1929 0.314,-0.4186 0.25,-0.6563 -0.03,-0.1178 -0.116,-0.2204 -0.218,-0.25 -0.103,-0.03 -0.206,-0.01 -0.313,0.031 -0.215,0.083 -0.455,0.2426 -0.687,0.4375 -0.313,0.261 -0.556,0.5158 -0.719,0.6875 l 0,-1.375 c 0.304,-0.053 0.531,-0.3066 0.531,-0.625 0,-0.1643 -0.05,-0.3238 -0.156,-0.4375 0.04,-0.014 0.09,-0.014 0.125,-0.031 0.01,0.1516 0.04,0.2905 0.156,0.4063 0.251,0.2515 0.685,0.2515 0.937,0 0.252,-0.2515 0.252,-0.6548 0,-0.9063 -0.116,-0.1158 -0.286,-0.1784 -0.437,-0.1875 0.02,-0.036 0.05,-0.087 0.06,-0.125 0.115,0.1013 0.241,0.1563 0.406,0.1563 0.355,0 0.656,-0.2694 0.656,-0.625 0,-0.3558 -0.301,-0.6563 -0.656,-0.6563 -0.165,0 -0.292,0.086 -0.406,0.1875 -0.01,-0.039 -0.04,-0.088 -0.06,-0.125 0.151,-0.01 0.321,-0.072 0.437,-0.1875 0.252,-0.2515 0.252,-0.6547 0,-0.9062 -0.252,-0.2515 -0.686,-0.2515 -0.937,0 -0.116,0.1158 -0.148,0.2546 -0.156,0.4062 -0.04,-0.017 -0.09,-0.017 -0.125,-0.031 0.1,-0.1133 0.156,-0.2754 0.156,-0.4375 0,-0.3558 -0.269,-0.625 -0.625,-0.625 z m 6.437,0 c -0.862,0 -1.25,0.6875 -1.25,0.6875 l 0.313,0.1875 c 0,0 0.266,-0.529 0.937,-0.5313 0.672,0 0.938,0.5313 0.938,0.5313 L 17,1036.3936 c 0,0 -0.386,-0.6905 -1.25,-0.6875 z m 0,0.875 c -0.603,0 -0.874,0.4687 -0.874,0.4687 l 0.312,0.125 c 0,0 0.09,-0.2795 0.562,-0.2812 0.471,0 0.563,0.2812 0.563,0.2812 l 0.313,-0.125 c 0,0 -0.271,-0.4707 -0.876,-0.4687 z m -6.437,0.8437 c 0.356,0 0.625,0.3005 0.625,0.6563 0,0.3556 -0.269,0.625 -0.625,0.625 -0.355,0 -0.656,-0.2694 -0.656,-0.625 0,-0.3558 0.301,-0.6563 0.656,-0.6563 z m 4.219,0.2813 c -0.07,0.023 -0.128,0.084 -0.125,0.1562 l 0,6 c 0,0.087 0.1,0.1563 0.187,0.1563 l 4.313,0 c 0.09,0 0.187,-0.069 0.187,-0.1563 l 0,-6 c 0,-0.087 -0.1,-0.1562 -0.187,-0.1562 l -4.313,0 c -0.02,0 -0.04,0 -0.06,0 z m 2.218,0.6562 c 0.552,0 1,0.4477 1,1 0,0.5522 -0.448,1 -1,1 -0.552,0 -1,-0.4478 -1,-1 0,-0.5523 0.448,-1 1,-1 z m 0,0.5 c -0.276,0 -0.5,0.2239 -0.5,0.5 0,0.2761 0.224,0.5 0.5,0.5 0.277,0 0.5,-0.2239 0.5,-0.5 0,-0.2761 -0.223,-0.5 -0.5,-0.5 z m -13.218,1.0625 -2.469,3.9375 1.813,-0.1562 c 1.106,4.1593 4.912,7.2187 9.406,7.2187 l 0.281,0 0,-2 -0.281,0 c -3.45,0 -6.353,-2.2652 -7.344,-5.375 l 1.688,-0.1562 -3.094,-3.4688 z m 12.312,0.9375 c 0.276,0 0.5,0.2238 0.5,0.5 0,0.2761 -0.224,0.5 -0.5,0.5 -0.276,0 -0.5,-0.2239 -0.5,-0.5 0,-0.2762 0.224,-0.5 0.5,-0.5 z m 1.813,0 c 0.276,0 0.5,0.2238 0.5,0.5 0,0.2761 -0.224,0.5 -0.5,0.5 -0.276,0 -0.5,-0.2239 -0.5,-0.5 0,-0.2762 0.224,-0.5 0.5,-0.5 z m 4.812,0.031 0,0.25 c 0,3.4497 -2.236,6.381 -5.343,7.375 l -0.157,-1.7188 -3.469,3.0938 3.938,2.4687 -0.156,-1.8437 c 4.156,-1.1085 7.218,-4.8826 7.218,-9.375 l 0,-0.25 -2.031,0 z m -6.625,1.4687 c 0.276,0 0.5,0.2239 0.5,0.5 0,0.2762 -0.224,0.5 -0.5,0.5 -0.276,0 -0.5,-0.2238 -0.5,-0.5 0,-0.2761 0.224,-0.5 0.5,-0.5 z m 1.813,0 c 0.276,0 0.5,0.2239 0.5,0.5 0,0.2762 -0.224,0.5 -0.5,0.5 -0.276,0 -0.5,-0.2238 -0.5,-0.5 0,-0.2761 0.224,-0.5 0.5,-0.5 z"
       id="cycle-bio-and-tech"
       style="fill:#000000;fill-opacity:1;stroke:none" />
  </g>
</svg>
