<?xml version="1.0" encoding="UTF-8" standalone="no"?>
<!-- Created with Inkscape (http://www.inkscape.org/) -->
<!-- icons-mk created by Matthias Kuhnel (2019), reuseIT, https://reuseproject.org -->

<svg
   xmlns:dc="http://purl.org/dc/elements/1.1/"
   xmlns:cc="http://creativecommons.org/ns#"
   xmlns:rdf="http://www.w3.org/1999/02/22-rdf-syntax-ns#"
   xmlns:svg="http://www.w3.org/2000/svg"
   xmlns="http://www.w3.org/2000/svg"
   version="1.1"
   width="25"
   height="25"
   id="svg">
  <defs
     id="defs" />
  <metadata
     id="metadata">
    <rdf:RDF>
      <cc:Work
         rdf:about="">
        <dc:format>image/svg+xml</dc:format>
        <dc:type
           rdf:resource="http://purl.org/dc/dcmitype/StillImage" />
        <dc:title></dc:title>
      </cc:Work>
    </rdf:RDF>
  </metadata>
  <g
     transform="translate(0,-1027.3622)"
     id="icons-mk">
    <path
       d="m 10.361,1048.2982 0,-1.3309 2.101,0 0,-13.7593 -2.101,0 0,-1.3308 14.639,0 0,3.8715 -1.507,0 0,-2.3647 -6.775,0 0,5.2683 4.169,0 0,-2.0897 1.506,0 0,5.6753 -1.506,0 0,-2.0897 -4.169,0 0,6.8191 2.584,0 0,1.3309 z m -6.6869999,-16.872 c 0.484,0 0.949,0.094 1.396,0.2805 0.448,0.187 0.847,0.4528 1.199,0.7974 0.345,0.352 0.607,0.7479 0.786,1.1878 0.18,0.44 0.27,0.9093 0.27,1.4079 0,0.4912 -0.09,0.9587 -0.27,1.4023 -0.179,0.4436 -0.434,0.8304 -0.764,1.1604 -0.352,0.3519 -0.755,0.6214 -1.209,0.8083 -0.4549999,0.1871 -0.9319999,0.2805 -1.431,0.2805 -1.034,0 -1.9,-0.3501 -2.601,-1.0503 C 0.35000015,1037.0007 1.5e-7,1036.1337 1.5e-7,1035.0998 c 0,-1.0339 0.354,-1.9046 1.06099995,-2.6122 0.708,-0.7076 1.579,-1.0614 2.613,-1.0614 z m 0,1.7818 c -0.528,0 -0.976,0.1833 -1.342,0.5499 -0.367,0.3667 -0.55,0.8139 -0.55,1.3419 0,0.5279 0.181,0.9715 0.544,1.3308 0.363,0.3593 0.8120001,0.539 1.348,0.5389 0.527,10e-5 0.975,-0.1814 1.341,-0.5444 0.367,-0.3629 0.55,-0.8047 0.55,-1.3253 0,-0.528 -0.1849999,-0.9752 -0.555,-1.3419 -0.37,-0.3666 -0.8159999,-0.5499 -1.3359999,-0.5499 z"
       id="degree-fahrenheit"
       style="font-size:40px;font-style:normal;font-variant:normal;font-weight:bold;font-stretch:normal;line-height:125%;letter-spacing:0px;word-spacing:0px;fill:#000000;fill-opacity:1;stroke:none;font-family:DejaVu Serif;-inkscape-font-specification:DejaVu Serif Bold" />
  </g>
</svg>
