<?xml version="1.0" encoding="UTF-8" standalone="no"?>
<!-- Created with Inkscape (http://www.inkscape.org/) -->
<!-- icons-mk created by Matthias Kuhnel (2019), reuseIT, https://reuseproject.org -->

<svg
   xmlns:dc="http://purl.org/dc/elements/1.1/"
   xmlns:cc="http://creativecommons.org/ns#"
   xmlns:rdf="http://www.w3.org/1999/02/22-rdf-syntax-ns#"
   xmlns:svg="http://www.w3.org/2000/svg"
   xmlns="http://www.w3.org/2000/svg"
   version="1.1"
   width="25"
   height="25"
   id="svg">
  <defs
     id="defs" />
  <metadata
     id="metadata">
    <rdf:RDF>
      <cc:Work
         rdf:about="">
        <dc:format>image/svg+xml</dc:format>
        <dc:type
           rdf:resource="http://purl.org/dc/dcmitype/StillImage" />
        <dc:title></dc:title>
      </cc:Work>
    </rdf:RDF>
  </metadata>
  <g
     transform="translate(0,-1027.3622)"
     id="icons-mk">
    <path
       d="m 25,1043.3034 c -0.415,1.6231 -1.16,2.8282 -2.235,3.6151 -1.075,0.787 -2.519,1.1805 -4.332,1.1805 -2.656,0 -4.755,-0.7325 -6.297,-2.1975 -1.542,-1.4651 -2.3140002,-3.4517 -2.3140002,-5.9602 0,-2.5154 0.7720002,-4.5057 2.3140002,-5.9707 1.542,-1.465 3.641,-2.1975 6.297,-2.1975 0.935,0 1.908,0.1124 2.92,0.3373 1.012,0.2247 2.083,0.5655 3.214,1.0223 l 0,3.868 -1.338,0 c -0.274,-1.3209 -0.773,-2.3099 -1.496,-2.9669 -0.725,-0.6569 -1.68,-0.9854 -2.867,-0.9854 -1.532,0 -2.671,0.5639 -3.415,1.6916 -0.745,1.1278 -1.117,2.8615 -1.117,5.2013 0,2.3398 0.372,4.0718 1.117,5.196 0.744,1.1243 1.89,1.6864 3.436,1.6864 1.047,0 1.902,-0.2916 2.566,-0.8748 0.664,-0.5832 1.147,-1.465 1.449,-2.6455 z M 3.5199998,1031.6255 c 0.464,10e-5 0.91,0.09 1.338,0.2688 0.429,0.1792 0.812,0.4339 1.149,0.7641 0.331,0.3373 0.581,0.7167 0.754,1.1383 0.172,0.4216 0.258,0.8713 0.258,1.3491 0,0.4708 -0.09,0.9187 -0.258,1.3438 -0.173,0.4251 -0.416,0.7957 -0.733,1.1119 -0.337,0.3373 -0.723,0.5955 -1.159,0.7746 -0.436,0.1793 -0.892,0.2688 -1.37,0.2688 -0.991,0 -1.822,-0.3355 -2.493,-1.0065 -0.671,-0.671 -1.006,-1.5019 -1.006,-2.4926 0,-0.9907 0.338,-1.8251 1.017,-2.5032 0.678,-0.678 1.512,-1.017 2.503,-1.0171 z m 0,1.7075 c -0.506,0 -0.934,0.1756 -1.286,0.5269 -0.351,0.3514 -0.527,0.78 -0.527,1.2859 0,0.5059 0.174,0.931 0.522,1.2753 0.347,0.3443 0.778,0.5164 1.291,0.5164 0.506,0 0.934,-0.1739 1.286,-0.5217 0.351,-0.3478 0.527,-0.7711 0.527,-1.27 0,-0.5059 -0.178,-0.9345 -0.532,-1.2859 -0.355,-0.3513 -0.782,-0.5269 -1.281,-0.5269 z"
       id="degree-celsius"
       style="font-size:40px;font-style:normal;font-variant:normal;font-weight:bold;font-stretch:normal;line-height:125%;letter-spacing:0px;word-spacing:0px;fill:#000000;fill-opacity:1;stroke:none;font-family:DejaVu Serif;-inkscape-font-specification:DejaVu Serif Bold" />
  </g>
</svg>
