<?xml version="1.0" encoding="UTF-8" standalone="no"?>
<!-- Created with Inkscape (http://www.inkscape.org/) -->
<!-- icons-mk created by Matthias Kuhnel (2019), reuseIT, https://reuseproject.org -->

<svg
   xmlns:dc="http://purl.org/dc/elements/1.1/"
   xmlns:cc="http://creativecommons.org/ns#"
   xmlns:rdf="http://www.w3.org/1999/02/22-rdf-syntax-ns#"
   xmlns:svg="http://www.w3.org/2000/svg"
   xmlns="http://www.w3.org/2000/svg"
   version="1.1"
   width="25"
   height="25"
   id="svg">
  <defs
     id="defs" />
  <metadata
     id="metadata">
    <rdf:RDF>
      <cc:Work
         rdf:about="">
        <dc:format>image/svg+xml</dc:format>
        <dc:type
           rdf:resource="http://purl.org/dc/dcmitype/StillImage" />
        <dc:title></dc:title>
      </cc:Work>
    </rdf:RDF>
  </metadata>
  <g
     transform="translate(0,-1027.3622)"
     id="icons-mk">
    <path
       d="m 1.5000001,1027.3622 -0.75,1 -0.75,1 1,0 0,21.5 0,0.5 0.5,0 21.4999999,0 0,1 1,-0.75 1,-0.75 -1,-0.75 -1,-0.75 0,1 -20.9999999,0 0,-10.5938 4.281,-2.4687 2.657,9.8437 0.437,1.6876 0.531,-1.6876 4.5319999,-15.0312 1.5,4.2812 0.187,0.5313 0.531,-0.25 2.188,-1.1563 1.218,8.2813 0.188,1.3437 0.75,-1.1562 2.812,-4.5 -0.874,-0.5312 -2.063,3.3124 -1.125,-7.625 -0.09,-0.6874 -0.656,0.3124 -2.312,1.25 -1.813,-5.1562 -0.531,-1.4375 -0.438,1.4687 -4.4679999,14.7813 -2.344,-8.7813 -0.156,-0.625 -0.563,0.3438 -4.375,2.5 0,-9.25 1,0 -0.75,-1 -0.75,-1 z"
       id="diagram-line"
       style="font-size:medium;font-style:normal;font-variant:normal;font-weight:normal;font-stretch:normal;text-indent:0;text-align:start;text-decoration:none;line-height:normal;letter-spacing:normal;word-spacing:normal;text-transform:none;direction:ltr;block-progression:tb;writing-mode:lr-tb;text-anchor:start;baseline-shift:baseline;color:#000000;fill:#000000;fill-opacity:1;stroke:none;stroke-width:1;marker:none;visibility:visible;display:inline;overflow:visible;enable-background:accumulate;font-family:Sans;-inkscape-font-specification:Sans" />
  </g>
</svg>
