<?xml version="1.0" encoding="UTF-8" standalone="no"?>
<!-- Created with Inkscape (http://www.inkscape.org/) -->
<!-- icons-mk created by Matthias Kuhnel (2019), reuseIT, https://reuseproject.org -->

<svg
   xmlns:dc="http://purl.org/dc/elements/1.1/"
   xmlns:cc="http://creativecommons.org/ns#"
   xmlns:rdf="http://www.w3.org/1999/02/22-rdf-syntax-ns#"
   xmlns:svg="http://www.w3.org/2000/svg"
   xmlns="http://www.w3.org/2000/svg"
   version="1.1"
   width="25"
   height="25"
   id="svg">
  <defs
     id="defs" />
  <metadata
     id="metadata">
    <rdf:RDF>
      <cc:Work
         rdf:about="">
        <dc:format>image/svg+xml</dc:format>
        <dc:type
           rdf:resource="http://purl.org/dc/dcmitype/StillImage" />
        <dc:title></dc:title>
      </cc:Work>
    </rdf:RDF>
  </metadata>
  <g
     transform="translate(0,-1027.3622)"
     id="icons-mk">
    <path
       d="m 1.5000002,1027.3622 -0.75000004,1 -0.75,1 1.00000004,0 0,21.5 0,0.5 0.5,0 21.4999998,0 0,1 1,-0.75 1,-0.75 -1,-0.75 -1,-0.75 0,1 -20.9999998,0 0,-21 1,0 -0.75,-1 -0.75,-1 z m 17.5939998,4.375 c -1.272,0 -2.313,1.0091 -2.313,2.2812 0,1.2724 1.041,2.3126 2.313,2.3126 1.273,0 2.312,-1.0403 2.312,-2.3126 0,-1.2721 -1.039,-2.2812 -2.312,-2.2812 z m -13.5629998,1.0625 c -0.848,0 -1.531,0.683 -1.531,1.5313 0,0.8482 0.683,1.5312 1.531,1.5312 0.848,0 1.531,-0.683 1.531,-1.5312 0,-0.8483 -0.683,-1.5313 -1.531,-1.5313 z m 5.7809998,0.125 c -1.6969998,0 -3.0619998,1.3975 -3.0619998,3.0937 0,1.6966 1.365,3.0626 3.0619998,3.0626 1.696,0 3.094,-1.366 3.094,-3.0626 0,-1.6963 -1.398,-3.0937 -3.094,-3.0937 z m 5.313,4.2187 c -0.848,0 -1.563,0.6831 -1.563,1.5313 0,0.8482 0.715,1.5313 1.563,1.5313 0.848,0 1.531,-0.6831 1.531,-1.5313 0,-0.8482 -0.683,-1.5313 -1.531,-1.5313 z m -9.0939998,1.9063 c -0.849,0 -1.531,0.683 -1.531,1.5313 0,0.8482 0.682,1.5312 1.531,1.5312 0.848,0 1.531,-0.683 1.531,-1.5312 0,-0.8483 -0.683,-1.5313 -1.531,-1.5313 z m 6.0939998,1.5 c -2.121,0 -3.8439998,1.7233 -3.8439998,3.8437 0,2.1204 1.7229998,3.8438 3.8439998,3.8438 2.12,0 3.844,-1.7233 3.844,-3.8438 0,-2.1204 -1.724,-3.8437 -3.844,-3.8437 z m -7.2809998,3.0625 c -1.272,0 -2.313,1.0091 -2.313,2.2812 0,1.2725 1.041,2.3126 2.313,2.3126 1.272,0 2.312,-1.0402 2.312,-2.3126 0,-1.2721 -1.04,-2.2812 -2.312,-2.2812 z M 20.031,1045.2684 c -0.848,0 -1.531,0.6831 -1.531,1.5313 0,0.8482 0.683,1.5625 1.531,1.5625 0.849,0 1.531,-0.7143 1.531,-1.5625 0,-0.8482 -0.682,-1.5313 -1.531,-1.5313 z"
       id="diagram-circle"
       style="fill:#000000;fill-opacity:1;fill-rule:evenodd;stroke:none" />
  </g>
</svg>
