<?xml version="1.0" encoding="UTF-8" standalone="no"?>
<!-- Created with Inkscape (http://www.inkscape.org/) -->
<!-- icons-mk created by Matthias Kuhnel (2019), reuseIT, https://reuseproject.org -->

<svg
   xmlns:dc="http://purl.org/dc/elements/1.1/"
   xmlns:cc="http://creativecommons.org/ns#"
   xmlns:rdf="http://www.w3.org/1999/02/22-rdf-syntax-ns#"
   xmlns:svg="http://www.w3.org/2000/svg"
   xmlns="http://www.w3.org/2000/svg"
   version="1.1"
   width="25"
   height="25"
   id="svg">
  <defs
     id="defs" />
  <metadata
     id="metadata">
    <rdf:RDF>
      <cc:Work
         rdf:about="">
        <dc:format>image/svg+xml</dc:format>
        <dc:type
           rdf:resource="http://purl.org/dc/dcmitype/StillImage" />
        <dc:title></dc:title>
      </cc:Work>
    </rdf:RDF>
  </metadata>
  <g
     transform="translate(0,-1027.3622)"
     id="icons-mk">
    <path
       d="m 24.0385,1048.516 c 0,2.1242 -1.722,3.8462 -3.846,3.8462 -2.124,0 -3.846,-1.722 -3.846,-3.8462 0,-2.1242 1.722,-3.8461 3.846,-3.8461 2.124,0 3.846,1.7219 3.846,3.8461 z m 0,-17.3076 c 0,2.1242 -1.722,3.8462 -3.846,3.8462 -2.124,0 -3.846,-1.722 -3.846,-3.8462 0,-2.1241 1.722,-3.8461 3.846,-3.8461 2.124,0 3.846,1.722 3.846,3.8461 z m -15.385,0 c 0,2.1242 -1.722,3.8462 -3.846,3.8462 -2.124,0 -3.846,-1.722 -3.846,-3.8462 0,-2.1241 1.722,-3.8461 3.846,-3.8461 2.124,0 3.846,1.722 3.846,3.8461 z m 0,17.3076 c 0,2.1242 -1.722,3.8462 -3.846,3.8462 -2.124,0 -3.846,-1.722 -3.846,-3.8462 0,-2.1242 1.722,-3.8461 3.846,-3.8461 2.124,0 3.846,1.7219 3.846,3.8461 z"
       id="dice-four"
       style="fill:#000000;fill-opacity:1;stroke:none" />
  </g>
</svg>
