<?xml version="1.0" encoding="UTF-8" standalone="no"?>
<!-- Created with Inkscape (http://www.inkscape.org/) -->
<!-- icons-mk created by Matthias Kuhnel (2019), reuseIT, https://reuseproject.org -->

<svg
   xmlns:dc="http://purl.org/dc/elements/1.1/"
   xmlns:cc="http://creativecommons.org/ns#"
   xmlns:rdf="http://www.w3.org/1999/02/22-rdf-syntax-ns#"
   xmlns:svg="http://www.w3.org/2000/svg"
   xmlns="http://www.w3.org/2000/svg"
   version="1.1"
   width="25"
   height="25"
   id="svg">
  <defs
     id="defs" />
  <metadata
     id="metadata">
    <rdf:RDF>
      <cc:Work
         rdf:about="">
        <dc:format>image/svg+xml</dc:format>
        <dc:type
           rdf:resource="http://purl.org/dc/dcmitype/StillImage" />
        <dc:title></dc:title>
      </cc:Work>
    </rdf:RDF>
  </metadata>
  <g
     transform="translate(0,-1027.3622)"
     id="icons-mk">
    <path
       d="m 16.3455,1039.8622 c 0,2.1242 -1.722,3.8461 -3.846,3.8461 -2.125,0 -3.8459999,-1.7219 -3.8459999,-3.8461 0,-2.1242 1.7209999,-3.8462 3.8459999,-3.8462 2.124,0 3.846,1.722 3.846,3.8462 z m 7.693,8.6539 c 0,2.1242 -1.722,3.8461 -3.846,3.8461 -2.125,0 -3.846,-1.7219 -3.846,-3.8461 0,-2.1242 1.721,-3.8462 3.846,-3.8462 2.124,0 3.846,1.722 3.846,3.8462 z m 0,-17.3077 c 0,2.1242 -1.722,3.8461 -3.846,3.8461 -2.125,0 -3.846,-1.7219 -3.846,-3.8461 0,-2.1242 1.721,-3.8462 3.846,-3.8462 2.124,0 3.846,1.722 3.846,3.8462 z m -15.3849999,0 c 0,2.1242 -1.722,3.8461 -3.846,3.8461 -2.125,0 -3.84599995,-1.7219 -3.84599995,-3.8461 0,-2.1242 1.72099995,-3.8462 3.84599995,-3.8462 2.124,0 3.846,1.722 3.846,3.8462 z m 0,17.3077 c 0,2.1242 -1.722,3.8461 -3.846,3.8461 -2.125,0 -3.84599995,-1.7219 -3.84599995,-3.8461 0,-2.1242 1.72099995,-3.8462 3.84599995,-3.8462 2.124,0 3.846,1.722 3.846,3.8462 z"
       id="dice-five"
       style="fill:#000000;fill-opacity:1;stroke:none" />
  </g>
</svg>
