<?xml version="1.0" encoding="UTF-8" standalone="no"?>
<!-- Created with Inkscape (http://www.inkscape.org/) -->
<!-- icons-mk created by Matthias Kuhnel (2019), reuseIT, https://reuseproject.org -->

<svg
   xmlns:dc="http://purl.org/dc/elements/1.1/"
   xmlns:cc="http://creativecommons.org/ns#"
   xmlns:rdf="http://www.w3.org/1999/02/22-rdf-syntax-ns#"
   xmlns:svg="http://www.w3.org/2000/svg"
   xmlns="http://www.w3.org/2000/svg"
   version="1.1"
   width="25"
   height="25"
   id="svg">
  <defs
     id="defs" />
  <metadata
     id="metadata">
    <rdf:RDF>
      <cc:Work
         rdf:about="">
        <dc:format>image/svg+xml</dc:format>
        <dc:type
           rdf:resource="http://purl.org/dc/dcmitype/StillImage" />
        <dc:title></dc:title>
      </cc:Work>
    </rdf:RDF>
  </metadata>
  <g
     transform="translate(0,-1027.3622)"
     id="icons-mk">
    <path
       d="m 15.0003,1039.8622 c 0,1.3807 -1.1198,2.5 -2.5005,2.5 -1.3806,0 -2.4996,-1.1193 -2.4996,-2.5 0,-1.3807 1.119,-2.5 2.4996,-2.5 1.3807,0 2.5005,1.1193 2.5005,2.5 z m -2.5003,-12.5 c -6.904,0 -12.50000005,5.5964 -12.50000005,12.5 0,6.9035 5.595999950000001,12.5 12.50000005,12.5 6.904,0 12.5,-5.5965 12.5,-12.5 0,-6.9036 -5.596,-12.5 -12.5,-12.5 z m 0,7.8125 c 2.589,0 4.688,2.0986 4.688,4.6875 0,2.5888 -2.099,4.6875 -4.688,4.6875 -2.5890001,0 -4.6870001,-2.0987 -4.6870001,-4.6875 0,-2.5889 2.098,-4.6875 4.6870001,-4.6875 z"
       id="disk"
       style="fill:#000000;fill-opacity:1;stroke:none" />
  </g>
</svg>
