<?xml version="1.0" encoding="UTF-8" standalone="no"?>
<!-- Created with Inkscape (http://www.inkscape.org/) -->
<!-- icons-mk created by Matthias Kuhnel (2019), reuseIT, https://reuseproject.org -->

<svg
   xmlns:dc="http://purl.org/dc/elements/1.1/"
   xmlns:cc="http://creativecommons.org/ns#"
   xmlns:rdf="http://www.w3.org/1999/02/22-rdf-syntax-ns#"
   xmlns:svg="http://www.w3.org/2000/svg"
   xmlns="http://www.w3.org/2000/svg"
   version="1.1"
   width="25"
   height="25"
   id="svg">
  <defs
     id="defs" />
  <metadata
     id="metadata">
    <rdf:RDF>
      <cc:Work
         rdf:about="">
        <dc:format>image/svg+xml</dc:format>
        <dc:type
           rdf:resource="http://purl.org/dc/dcmitype/StillImage" />
        <dc:title></dc:title>
      </cc:Work>
    </rdf:RDF>
  </metadata>
  <g
     transform="translate(0,-1027.3622)"
     id="icons-mk">
    <path
       d="m 11.9975,1052.3378 c 0.271,-0.045 0.517,-0.1475 0.719,-0.3126 0.402,-0.3307 0.663,-0.8035 0.906,-1.3127 0.483,-1.0187 0.889,-2.3462 1.5,-3.5007 1.233,-2.3273 3.251,-4.3135 3.251,-4.3135 a 0.58755037,0.58755037 0 0 0 0.157,-0.4063 l 0,-14.5655 a 0.58755037,0.58755037 0 0 0 -0.563,-0.5626 l -12.44,0 a 0.58755037,0.58755037 0 0 0 -0.09,0 c 0,0 -0.882,0.1242 -1.812,0.4376 -0.463,0.1567 -0.94,0.3676 -1.343,0.6564 -0.405,0.2887 -0.814,0.7266 -0.814,1.3127 0,0.5862 0.409,0.9929 0.814,1.2816 0.316,0.2265 0.698,0.3613 1.062,0.5001 -0.369,0.1396 -0.741,0.3021 -1.062,0.5314 -0.405,0.2886 -0.814,0.7265 -0.814,1.3126 0,0.5864 0.409,1.0242 0.814,1.3129 0.316,0.2265 0.698,0.3613 1.062,0.5001 -0.368,0.1394 -0.742,0.2713 -1.062,0.5001 -0.405,0.2886 -0.814,0.7266 -0.814,1.3127 0,0.5863 0.409,1.0242 0.814,1.3128 0.321,0.2292 0.693,0.3917 1.062,0.5314 -0.364,0.1387 -0.746,0.2734 -1.062,0.5001 -0.405,0.2886 -0.814,0.7265 -0.814,1.3127 0,0.5861 0.409,1.024 0.814,1.3128 0.403,0.2887 0.88,0.4685 1.343,0.6251 0.93,0.3135 1.812,0.4689 1.812,0.4689 a 0.58755037,0.58755037 0 0 0 0.09,0 l 5.718,0 c -0.14,0.5615 -0.477,1.8284 -0.781,3.7195 -0.183,1.1361 -0.299,2.3266 -0.282,3.282 0,0.4775 0.03,0.9006 0.157,1.2814 0.123,0.3809 0.366,0.7585 0.812,0.9064 0.28,0.093 0.574,0.1071 0.845,0.063 z m -0.218,-1.1252 c -0.07,0.01 -0.125,0.01 -0.25,-0.031 0.04,0.014 0,0.01 -0.06,-0.1875 -0.06,-0.1965 -0.117,-0.5263 -0.125,-0.9377 -0.02,-0.8227 0.104,-1.9629 0.282,-3.0632 0.353,-2.2005 0.938,-4.3447 0.938,-4.3447 a 0.58755037,0.58755037 0 0 0 -0.594,-0.7501 l -6.346,0 c 0,0 -0.821,-0.104 -1.625,-0.3751 -0.401,-0.1353 -0.816,-0.3249 -1.063,-0.5001 -0.245,-0.1749 -0.281,-0.2776 -0.281,-0.3438 0,-0.066 0.04,-0.1999 0.281,-0.3751 0.246,-0.1751 0.662,-0.3333 1.063,-0.4687 0.804,-0.2711 1.625,-0.4064 1.625,-0.4064 a 0.58755037,0.58755037 0 0 0 0,-1.1566 c 0,0 -0.821,-0.1352 -1.625,-0.4063 -0.401,-0.1355 -0.816,-0.2937 -1.063,-0.4688 -0.245,-0.175 -0.281,-0.3088 -0.281,-0.3751 0,-0.066 0.04,-0.1687 0.281,-0.3438 0.246,-0.1752 0.662,-0.3646 1.063,-0.5001 0.804,-0.2711 1.625,-0.3751 1.625,-0.3751 a 0.58755037,0.58755037 0 0 0 0,-1.1565 c 0,0 -0.821,-0.1352 -1.625,-0.4063 -0.401,-0.1355 -0.816,-0.325 -1.063,-0.5001 -0.245,-0.1752 -0.281,-0.2776 -0.281,-0.3439 0,-0.066 0.04,-0.1686 0.281,-0.3437 0.246,-0.1753 0.662,-0.3646 1.063,-0.5001 0.804,-0.2711 1.625,-0.4064 1.625,-0.4064 a 0.58755037,0.58755037 0 0 0 0,-1.1565 c 0,0 -0.821,-0.1354 -1.625,-0.4062 -0.401,-0.1357 -0.816,-0.2938 -1.063,-0.4689 -0.245,-0.1753 -0.281,-0.2776 -0.281,-0.3439 0,-0.066 0.04,-0.1998 0.281,-0.3751 0.246,-0.1749 0.662,-0.3333 1.063,-0.4688 0.804,-0.271 1.625,-0.4064 1.625,-0.4064 l 11.753,0 0,13.7528 c -0.269,0.2673 -2.031,2.0431 -3.282,4.4073 -0.679,1.2829 -1.111,2.6451 -1.531,3.532 -0.211,0.4433 -0.404,0.7756 -0.563,0.9064 -0.08,0.065 -0.153,0.084 -0.219,0.094 z m 11.752,-8.4393 0,-15.4094 -4.251,0 0,15.4094 4.251,0 z"
       id="dislike"
       style="font-size:medium;font-style:normal;font-variant:normal;font-weight:normal;font-stretch:normal;text-indent:0;text-align:start;text-decoration:none;line-height:normal;letter-spacing:normal;word-spacing:normal;text-transform:none;direction:ltr;block-progression:tb;writing-mode:lr-tb;text-anchor:start;baseline-shift:baseline;color:#000000;fill:#000000;fill-opacity:1;stroke:none;stroke-width:1.17386484;marker:none;visibility:visible;display:inline;overflow:visible;enable-background:accumulate;font-family:Sans;-inkscape-font-specification:Sans" />
  </g>
</svg>
