<?xml version="1.0" encoding="UTF-8" standalone="no"?>
<!-- Created with Inkscape (http://www.inkscape.org/) -->
<!-- icons-mk created by Matthias Kuhnel (2019), reuseIT, https://reuseproject.org -->

<svg
   xmlns:dc="http://purl.org/dc/elements/1.1/"
   xmlns:cc="http://creativecommons.org/ns#"
   xmlns:rdf="http://www.w3.org/1999/02/22-rdf-syntax-ns#"
   xmlns:svg="http://www.w3.org/2000/svg"
   xmlns="http://www.w3.org/2000/svg"
   version="1.1"
   width="25"
   height="25"
   id="svg">
  <defs
     id="defs" />
  <metadata
     id="metadata">
    <rdf:RDF>
      <cc:Work
         rdf:about="">
        <dc:format>image/svg+xml</dc:format>
        <dc:type
           rdf:resource="http://purl.org/dc/dcmitype/StillImage" />
        <dc:title></dc:title>
      </cc:Work>
    </rdf:RDF>
  </metadata>
  <g
     transform="translate(0,-1027.3622)"
     id="icons-mk">
    <path
       d="m 5.4053002,1033.8321 c -2.9853,0 -5.40530005,2.4241 -5.40530005,5.4053 0,2.981 2.42000005,5.4053 5.40530005,5.4053 2.9853,0 5.4053998,-2.4243 5.4053998,-5.4053 0,-2.9812 -2.4200998,-5.4053 -5.4053998,-5.4053 z m 0,1.3513 c 2.2391,0 4.0539997,1.8181 4.0539997,4.054 0,2.2357 -1.8148997,4.0539 -4.0539997,4.0539 -2.239,0 -4.0539001,-1.8182 -4.0539001,-4.0539 0,-2.2359 1.8149,-4.054 4.0539,-4.054 z m 5.4119998,-4.3194 1.2633,1.4974 -3.1989001,3.0249 0.9792,1.1595 3.1844001,-3.0252 1.2142,1.4078 1.8578,-5.1528 z m 5.7743,17.6327 6.006,0 0,-1.5015 -6.006,0 z m 3.7538,1.4521 0,-6.006 -1.5015,0 0,6.006 z m -0.7508,-16.1173 c -2.9854,0 -5.4054,2.4242 -5.4054,5.4054 0,2.9811 2.42,5.4054 5.4054,5.4054 2.9853,0 5.4054,-2.4243 5.4054,-5.4054 0,-2.9812 -2.4201,-5.4054 -5.4054,-5.4054 z m 0,1.3513 c 2.239,0 4.0541,1.8181 4.0541,4.0541 0,2.2358 -1.8151,4.054 -4.0541,4.054 -2.2391,0 -4.0541,-1.8182 -4.0541,-4.054 0,-2.236 1.815,-4.0541 4.0541,-4.0541 z"
       id="diverse"
       style="fill:#000000;fill-opacity:1" />
  </g>
</svg>
