<?xml version="1.0" encoding="UTF-8" standalone="no"?>
<!-- Created with Inkscape (http://www.inkscape.org/) -->
<!-- icons-mk created by Matthias Kuhnel (2019), reuseIT, https://reuseproject.org -->

<svg
   xmlns:dc="http://purl.org/dc/elements/1.1/"
   xmlns:cc="http://creativecommons.org/ns#"
   xmlns:rdf="http://www.w3.org/1999/02/22-rdf-syntax-ns#"
   xmlns:svg="http://www.w3.org/2000/svg"
   xmlns="http://www.w3.org/2000/svg"
   version="1.1"
   width="25"
   height="25"
   id="svg">
  <defs
     id="defs" />
  <metadata
     id="metadata">
    <rdf:RDF>
      <cc:Work
         rdf:about="">
        <dc:format>image/svg+xml</dc:format>
        <dc:type
           rdf:resource="http://purl.org/dc/dcmitype/StillImage" />
        <dc:title></dc:title>
      </cc:Work>
    </rdf:RDF>
  </metadata>
  <g
     transform="translate(0,-1027.3622)"
     id="icons-mk">
    <path
       d="m 12.5,1045.2738 c -1.94924,0 -3.53125,1.5821 -3.53125,3.5313 0,1.9492 1.58201,3.5 3.53125,3.5 1.94924,0 3.53125,-1.5508 3.53125,-3.5 0,-1.9492 -1.58201,-3.5313 -3.53125,-3.5313 z m 0,-17.8544 c -1.94924,0 -3.53125,1.582 -3.53125,3.5312 0,1.9493 1.58201,3.5 3.53125,3.5 1.94924,0 3.53125,-1.5507 3.53125,-3.5 0,-1.9492 -1.58201,-3.5312 -3.53125,-3.5312 z m -12.5,9.9428 25,0 0,5 -25,0 z"
       id="division"
       style="fill:#000000;fill-opacity:1;fill-rule:nonzero;stroke:none" />
  </g>
</svg>
