<?xml version="1.0" encoding="UTF-8" standalone="no"?>
<!-- Created with Inkscape (http://www.inkscape.org/) -->
<!-- icons-mk created by Matthias Kuhnel (2020), reuseIT, https://reuseproject.org -->

<svg
   xmlns:dc="http://purl.org/dc/elements/1.1/"
   xmlns:cc="http://creativecommons.org/ns#"
   xmlns:rdf="http://www.w3.org/1999/02/22-rdf-syntax-ns#"
   xmlns:svg="http://www.w3.org/2000/svg"
   xmlns="http://www.w3.org/2000/svg"
   version="1.1"
   width="25"
   height="25"
   id="svg">
  <defs
     id="defs" />
  <metadata
     id="metadata">
    <rdf:RDF>
      <cc:Work
         rdf:about="">
        <dc:format>image/svg+xml</dc:format>
        <dc:type
           rdf:resource="http://purl.org/dc/dcmitype/StillImage" />
        <dc:title></dc:title>
      </cc:Work>
    </rdf:RDF>
  </metadata>
  <g
     transform="translate(0,-1027.3622)"
     id="icons-mk">
    <path
       d="m 17.126764,1027.3623 c -3.37,0 -6.094,2.7237 -6.094,6.0937 0,3.3701 2.724,6.0938 6.094,6.0938 3.37,0 6.094,-2.7237 6.094,-6.0938 0,-3.37 -2.724,-6.0937 -6.094,-6.0937 z m 0.906,2.2813 c 0.09,0 0.162,-0.01 0.25,0 l -1,1.7812 1.25,0.75 1.032,-1.7813 c 0.419,0.5726 0.503,1.3769 0.125,2.0313 -0.378,0.6547 -1.107,0.9838 -1.813,0.9062 l -2.281,3.9375 -1.281,-0.7187 2.281,-3.9688 c -0.419,-0.5725 -0.472,-1.3765 -0.09,-2.0312 0.33,-0.5725 0.916,-0.8862 1.531,-0.9062 z m -11.2809999,7.7187 c -0.178,0.036 -0.564,0.1759 -1.25,0.5 -2.741,1.2971 -3.147,2.6398 -3.5,3.6562 -0.311,0.8944 0.154,3.1275 0.281,3.7188 -0.162,-0.025 -0.34,-0.027 -0.437,0.031 -0.185,0.1118 0.02,1.3778 0.563,1.5625 0.324,3.121 2.288,5.5313 4.687,5.5313 2.399,0 4.3629999,-2.4099 4.6869999,-5.5313 0.521,-0.2223 0.682,-1.4529 0.5,-1.5625 -0.112,-0.068 -0.319,-0.066 -0.5,-0.031 0.204,-1.0267 0.53,-3.1717 -0.06,-4.3125 -0.796,-1.533 -3.9379999,-2.5313 -3.9379999,-2.5313 0,0 -0.02,-0.685 -0.406,-0.9062 -0.27,-0.1563 -0.731,0.1736 -1.031,0.4062 0.329,-0.2523 0.763,-0.6028 0.406,-0.5312 z"
       id="do-it-yourself"
       style="fill:#000000;fill-opacity:1" />
  </g>
</svg>
