<?xml version="1.0" encoding="UTF-8" standalone="no"?>
<!-- Created with Inkscape (http://www.inkscape.org/) -->
<!-- icons-mk created by Matthias Kuhnel (2019), reuseIT, https://reuseproject.org -->

<svg
   xmlns:dc="http://purl.org/dc/elements/1.1/"
   xmlns:cc="http://creativecommons.org/ns#"
   xmlns:rdf="http://www.w3.org/1999/02/22-rdf-syntax-ns#"
   xmlns:svg="http://www.w3.org/2000/svg"
   xmlns="http://www.w3.org/2000/svg"
   version="1.1"
   width="25"
   height="25"
   id="svg">
  <defs
     id="defs" />
  <metadata
     id="metadata">
    <rdf:RDF>
      <cc:Work
         rdf:about="">
        <dc:format>image/svg+xml</dc:format>
        <dc:type
           rdf:resource="http://purl.org/dc/dcmitype/StillImage" />
        <dc:title></dc:title>
      </cc:Work>
    </rdf:RDF>
  </metadata>
  <g
     transform="translate(0,-1027.3622)"
     id="icons-mk">
    <path
       d="m 13.55685,1029.4 -0.3321,0.1509 -9.8431,5.1026 -1.2983,0.6644 1.3285,0.6038 9.9638,4.5592 0.3019,0.1208 0.302,-0.1208 9.7222,-4.529 1.2983,-0.634 -1.268,-0.6644 -9.8432,-5.1026 z m -10.3865,11.5337 c -0.4331,0 -0.8086,0.1675 -1.0568,0.4229 -0.2482,0.2552 -0.37,0.61 -0.302,0.9963 0.1362,0.7725 0.9455,1.3586 1.8116,1.3586 0.433,0 0.8087,-0.1372 1.0568,-0.3924 0.2481,-0.2553 0.3701,-0.6102 0.302,-0.9964 -0.1363,-0.7726 -0.9457001,-1.389 -1.8116,-1.389 z m 3.1703,-5.7971 c -0.4102001,-0.044 -0.936,0.061 -0.936,0.061 l -0.091,0 0,0.06 0,0.03 c -1.7736999,4.4718 -3.5359999,8.9841 -5.31369995,13.4355 1.17410005,0.5522 1.23820005,0.5737 2.65800005,0.6331 0,0 0.6906,-3.0927 1.5097,-6.3104 0.4095,-1.6089 0.8573,-3.2609 1.2681,-4.5592 0.2054,-0.6492 0.3945,-1.2002 0.5737,-1.6304 0.1792,-0.4303 0.3407,-0.7445 0.4529,-0.8455 0.1433,-0.1289 0.2456,-0.2318 0.3019,-0.332 0.056,-0.1003 0.063,-0.2166 0.03,-0.3021 -0.033,-0.085 -0.099,-0.1162 -0.1811,-0.1509 -0.082,-0.035 -0.1692,-0.079 -0.2717,-0.091 z m 15.6099,4.5291 -0.1811,0.1509 c 0,0 -3.5166,3.1112 -7.6692,3.1402 -1.2606,0.016 -3.2214,-0.5741 -4.8309001,-1.1776 -0.951,-0.4049 -1.7193,-0.7027 -3.0488,-1.4639 0,0 0.114,4.0449 0,6.3558 -0.032,0.6314 0.2334,1.1999 0.6642,1.6606 0.4308,0.4606 1.0374,0.8223 1.7814001,1.1172 1.4881,0.5896 3.4731,0.8807 5.465,0.8755 1.992,-0.01 3.9983,-0.312 5.4953,-0.8755 0.7484,-0.2819 1.3729,-0.6325 1.8116,-1.0569 0.4385,-0.4243 0.685,-0.9104 0.6641,-1.4794 -0.1567,-4.282 -0.1509,-7.0351 -0.1509,-7.0351 l 0,-0.2113 z"
       id="doc-cap"
       style="font-size:medium;font-style:normal;font-variant:normal;font-weight:normal;font-stretch:normal;text-indent:0;text-align:start;text-decoration:none;line-height:normal;letter-spacing:normal;word-spacing:normal;text-transform:none;direction:ltr;block-progression:tb;writing-mode:lr-tb;text-anchor:start;baseline-shift:baseline;color:#000000;fill:#000000;fill-opacity:1;fill-rule:nonzero;stroke:none;stroke-width:1.47377312px;marker:none;visibility:visible;display:inline;overflow:visible;enable-background:accumulate;font-family:Sans;-inkscape-font-specification:Sans" />
  </g>
</svg>
