<?xml version="1.0" encoding="UTF-8" standalone="no"?>
<!-- Created with Inkscape (http://www.inkscape.org/) -->
<!-- icons-mk created by Matthias Kuhnel (2019), reuseIT, https://reuseproject.org -->

<svg
   xmlns:dc="http://purl.org/dc/elements/1.1/"
   xmlns:cc="http://creativecommons.org/ns#"
   xmlns:rdf="http://www.w3.org/1999/02/22-rdf-syntax-ns#"
   xmlns:svg="http://www.w3.org/2000/svg"
   xmlns="http://www.w3.org/2000/svg"
   version="1.1"
   width="25"
   height="25"
   id="svg">
  <defs
     id="defs" />
  <metadata
     id="metadata">
    <rdf:RDF>
      <cc:Work
         rdf:about="">
        <dc:format>image/svg+xml</dc:format>
        <dc:type
           rdf:resource="http://purl.org/dc/dcmitype/StillImage" />
        <dc:title></dc:title>
      </cc:Work>
    </rdf:RDF>
  </metadata>
  <g
     transform="translate(0,-1027.3622)"
     id="icons-mk">
    <path
       d="m 2.5,1027.3622 0,25 20,0 0,-25 -20,0 z m 10,4.75 c 1.153,0 2.134,0.2631 2.875,0.7812 0.742,0.5182 1.21,1.2605 1.5,2.0938 0.404,1.1565 0.487,2.4931 0.5,3.9375 l 0.813,0 c 0.329,-0.01 0.635,0.296 0.625,0.625 l 0,7.4375 c -0.01,0.3185 -0.306,0.6037 -0.625,0.5938 l -11.406,0 c -0.319,0.01 -0.615,-0.2753 -0.625,-0.5938 l 0,-7.4375 c -0.01,-0.329 0.296,-0.635 0.625,-0.625 l 0.843,0 c 0,-1.4427 0.05,-2.7769 0.438,-3.9375 0.282,-0.8363 0.811,-1.5747 1.562,-2.0938 0.752,-0.5189 1.692,-0.7812 2.875,-0.7812 z m 0,1.625 c -0.956,0 -1.584,0.213 -2,0.5 -0.415,0.287 -0.671,0.6766 -0.875,1.2812 -0.275,0.8209 -0.324,2.0522 -0.343,3.4063 l 6.437,0 c -0.03,-1.3717 -0.115,-2.5723 -0.406,-3.4063 -0.212,-0.6077 -0.494,-1.0249 -0.906,-1.3124 -0.412,-0.2878 -0.989,-0.4688 -1.906,-0.4688 z"
       id="document-locked"
       style="fill:#000000;fill-opacity:1;stroke:none" />
  </g>
</svg>
