<?xml version="1.0" encoding="UTF-8" standalone="no"?>
<!-- Created with Inkscape (http://www.inkscape.org/) -->
<!-- icons-mk created by Matthias Kuhnel (2019), reuseIT, https://reuseproject.org -->

<svg
   xmlns:dc="http://purl.org/dc/elements/1.1/"
   xmlns:cc="http://creativecommons.org/ns#"
   xmlns:rdf="http://www.w3.org/1999/02/22-rdf-syntax-ns#"
   xmlns:svg="http://www.w3.org/2000/svg"
   xmlns="http://www.w3.org/2000/svg"
   version="1.1"
   width="25"
   height="25"
   id="svg">
  <defs
     id="defs" />
  <metadata
     id="metadata">
    <rdf:RDF>
      <cc:Work
         rdf:about="">
        <dc:format>image/svg+xml</dc:format>
        <dc:type
           rdf:resource="http://purl.org/dc/dcmitype/StillImage" />
        <dc:title></dc:title>
      </cc:Work>
    </rdf:RDF>
  </metadata>
  <g
     transform="translate(0,-1027.3622)"
     id="icons-mk">
    <path
       d="m 2.4999999,1027.3622 0,25 20.0000001,0 0,-25 -20.0000001,0 z m 10.5940001,6.9687 0,11.0313 -5.4060001,-2.9688 -2.688,0 0,-5.0937 2.688,0 5.4060001,-2.9688 z m 4.5,1.2188 c 0,0 2.396,1.3292 2.406,4.2812 0.01,2.9561 -2.406,4.3125 -2.406,4.3125 L 17,1043.0809 c 0,0 1.781,-0.9209 1.781,-3.2187 0,-2.3019 -1.781,-3.25 -1.781,-3.25 l 0.594,-1.0625 z m -2.25,1.2812 c 0,0 1.687,0.9337 1.687,3 0,2.0692 -1.687,3.0313 -1.687,3.0313 l -0.406,-1.0938 c 0,0 1,-0.2978 1,-1.9062 0,-1.6113 -1,-1.9375 -1,-1.9375 l 0.406,-1.0938 z"
       id="document-audio"
       style="fill:#000000;fill-opacity:1;stroke:none" />
  </g>
</svg>
