<?xml version="1.0" encoding="UTF-8" standalone="no"?>
<!-- Created with Inkscape (http://www.inkscape.org/) -->
<!-- icons-mk created by Matthias Kuhnel (2019), reuseIT, https://reuseproject.org -->

<svg
   xmlns:dc="http://purl.org/dc/elements/1.1/"
   xmlns:cc="http://creativecommons.org/ns#"
   xmlns:rdf="http://www.w3.org/1999/02/22-rdf-syntax-ns#"
   xmlns:svg="http://www.w3.org/2000/svg"
   xmlns="http://www.w3.org/2000/svg"
   version="1.1"
   width="25"
   height="25"
   id="svg">
  <defs
     id="defs" />
  <metadata
     id="metadata">
    <rdf:RDF>
      <cc:Work
         rdf:about="">
        <dc:format>image/svg+xml</dc:format>
        <dc:type
           rdf:resource="http://purl.org/dc/dcmitype/StillImage" />
        <dc:title></dc:title>
      </cc:Work>
    </rdf:RDF>
  </metadata>
  <g
     transform="translate(0,-1027.3622)"
     id="icons-mk">
    <path
       d="m 2.4999998,1027.3622 0,25 20.0000002,0 0,-25 -20.0000002,0 z m 8.3440002,7.2187 3.312,0 c 0.458,0 0.813,0.3549 0.813,0.8125 0,0.068 -0.02,0.1241 -0.03,0.1875 l 3.531,0 c 0.845,0 1.531,0.6865 1.531,1.5313 l 0,6.5 c 0,0.8448 -0.686,1.5312 -1.531,1.5312 l -11.9380002,0 c -0.845,0 -1.531,-0.6864 -1.531,-1.5312 l 0,-6.5 c 0,-0.8448 0.686,-1.5313 1.531,-1.5313 l 3.5000002,0 c -0.02,-0.063 -0.03,-0.1193 -0.03,-0.1875 0,-0.4576 0.387,-0.8125 0.844,-0.8125 z m 1.656,2.1875 c -1.983,0 -3.5940002,1.6107 -3.5940002,3.5938 0,1.9831 1.6110002,3.5937 3.5940002,3.5937 1.983,0 3.594,-1.6106 3.594,-3.5937 0,-1.9831 -1.611,-3.5938 -3.594,-3.5938 z m 0,1.2813 c 1.279,0 2.312,1.0336 2.312,2.3125 0,1.2789 -1.033,2.3125 -2.312,2.3125 -1.279,0 -2.312,-1.0336 -2.312,-2.3125 0,-1.2789 1.033,-2.3125 2.312,-2.3125 z"
       id="document-image"
       style="fill:#000000;fill-opacity:1;stroke:none" />
  </g>
</svg>
