<?xml version="1.0" encoding="UTF-8" standalone="no"?>
<!-- Created with Inkscape (http://www.inkscape.org/) -->
<!-- icons-mk created by Matthias Kuhnel (2020), reuseIT, https://reuseproject.org -->

<svg
   xmlns:dc="http://purl.org/dc/elements/1.1/"
   xmlns:cc="http://creativecommons.org/ns#"
   xmlns:rdf="http://www.w3.org/1999/02/22-rdf-syntax-ns#"
   xmlns:svg="http://www.w3.org/2000/svg"
   xmlns="http://www.w3.org/2000/svg"
   version="1.1"
   width="25"
   height="25"
   id="svg">
  <defs
     id="defs" />
  <metadata
     id="metadata">
    <rdf:RDF>
      <cc:Work
         rdf:about="">
        <dc:format>image/svg+xml</dc:format>
        <dc:type
           rdf:resource="http://purl.org/dc/dcmitype/StillImage" />
        <dc:title></dc:title>
      </cc:Work>
    </rdf:RDF>
  </metadata>
  <g
     transform="translate(0,-1027.3622)"
     id="icons-mk">
    <path
       d="m 7.467,1027.3666 c -0.259,0.083 -0.45,0.352 -0.438,0.6249 l 0,1.406 -4.592,0 -0.06,0 c -0.305,0.032 -0.563,0.3179 -0.563,0.6249 l 0,1.7809 c 0,0.3267 0.298,0.623 0.626,0.6249 l 1.187,0 0,19.3091 c 0,0.3272 0.297,0.6268 0.625,0.6249 l 16.497,0 c 0.328,0 0.623,-0.2977 0.625,-0.6249 l 0,-19.3091 1.186,0 c 0.327,0 0.623,-0.2982 0.626,-0.6249 l 0,-1.7809 c 0,-0.3267 -0.299,-0.623 -0.626,-0.6249 l -4.592,0 0,-1.406 c 0,-0.3267 -0.298,-0.6231 -0.625,-0.6249 l -9.686,0 c -0.03,-0.01 -0.06,0 -0.09,0 -0.03,0 -0.06,-0.01 -0.09,0 z m 5.03,8.3111 c 0.514,0 0.938,0.4228 0.938,0.9373 0,0.2349 -0.107,0.4295 -0.25,0.5936 0.06,0.021 0.102,0.069 0.156,0.094 0.01,-0.2197 0.113,-0.4258 0.281,-0.5937 0.364,-0.3643 0.947,-0.3643 1.313,0 0.364,0.3646 0.364,0.9477 0,1.3123 -0.169,0.1678 -0.375,0.2368 -0.594,0.2499 0.03,0.054 0.04,0.1314 0.06,0.1875 0.165,-0.1467 0.386,-0.2499 0.625,-0.2499 0.515,0 0.906,0.422 0.906,0.9373 0,0.5155 -0.391,0.9061 -0.906,0.9061 -0.239,0 -0.46,-0.072 -0.625,-0.2187 -0.02,0.055 -0.04,0.1032 -0.06,0.1562 0.219,0.013 0.426,0.1133 0.594,0.2812 0.364,0.3645 0.364,0.9476 0,1.3123 -0.366,0.3643 -0.949,0.3643 -1.313,0 -0.168,-0.1679 -0.266,-0.374 -0.281,-0.5937 -0.05,0.024 -0.101,0.043 -0.156,0.062 0.148,0.1649 0.25,0.3867 0.25,0.6249 0,0.4613 -0.342,0.8299 -0.782,0.9061 l 0,1.9996 c 0.236,-0.2487 0.579,-0.6217 1.032,-0.9998 0.338,-0.2825 0.69,-0.5045 1,-0.6249 0.155,-0.06 0.289,-0.1055 0.437,-0.062 0.149,0.043 0.269,0.1731 0.313,0.3437 0.09,0.3445 -0.08,0.6891 -0.344,0.9686 -0.267,0.2795 -0.624,0.533 -1,0.7498 -0.677,0.3916 -1.308,0.6383 -1.438,0.6874 l 0,0.4999 0,0.25 0,1.3747 -0.312,0 0,-1.4997 c -0.13,-0.051 -0.759,-0.2958 -1.438,-0.6874 -0.375,-0.217 -0.763,-0.4703 -1.03,-0.7498 -0.267,-0.2796 -0.436,-0.5929 -0.344,-0.9374 0.04,-0.1705 0.163,-0.3319 0.313,-0.3749 0.148,-0.043 0.282,0 0.436,0.062 0.311,0.1204 0.693,0.3738 1.031,0.6561 0.454,0.3781 0.796,0.7509 1.032,0.9998 l 0,-0.2812 0,-0.062 0,-2.3121 c -0.445,-0.071 -0.782,-0.4407 -0.782,-0.9061 0,-0.2351 0.109,-0.4608 0.25,-0.6249 -0.06,-0.02 -0.134,-0.038 -0.187,-0.062 -0.01,0.2197 -0.08,0.4258 -0.25,0.5937 -0.365,0.3643 -0.948,0.3643 -1.312,0 -0.364,-0.3647 -0.364,-0.9478 0,-1.3123 0.168,-0.1679 0.374,-0.2677 0.593,-0.2812 -0.02,-0.053 -0.07,-0.1002 -0.09,-0.1562 -0.164,0.1432 -0.356,0.2187 -0.592,0.2187 -0.515,0 -0.938,-0.3906 -0.938,-0.9061 0,-0.5153 0.423,-0.9373 0.938,-0.9373 0.238,0 0.458,0.1027 0.624,0.2499 0.02,-0.056 0.04,-0.1339 0.06,-0.1875 -0.219,-0.013 -0.457,-0.082 -0.624,-0.2499 -0.364,-0.3646 -0.364,-0.9477 0,-1.3123 0.364,-0.3643 0.978,-0.3643 1.343,0 0.168,0.1679 0.235,0.374 0.25,0.5937 0.05,-0.025 0.13,-0.074 0.187,-0.094 -0.143,-0.164 -0.25,-0.3587 -0.25,-0.5936 0,-0.5145 0.423,-0.9359 0.938,-0.9373 z m 0,2.5308 c -0.516,0 -0.938,0.4219 -0.938,0.9373 0,0.5155 0.422,0.9061 0.938,0.9061 0.515,0 0.938,-0.3906 0.938,-0.9061 0,-0.5154 -0.423,-0.9373 -0.938,-0.9373 z"
       id="dustbin-bio"
       style="font-size:medium;font-style:normal;font-variant:normal;font-weight:normal;font-stretch:normal;text-indent:0;text-align:start;text-decoration:none;line-height:normal;letter-spacing:normal;word-spacing:normal;text-transform:none;direction:ltr;block-progression:tb;writing-mode:lr-tb;text-anchor:start;baseline-shift:baseline;color:#000000;fill:#000000;fill-opacity:1;fill-rule:nonzero;stroke:none;stroke-width:1.25713694;marker:none;visibility:visible;display:inline;overflow:visible;enable-background:accumulate;font-family:Sans;-inkscape-font-specification:Sans" />
  </g>
</svg>
