<?xml version="1.0" encoding="UTF-8" standalone="no"?>
<!-- Created with Inkscape (http://www.inkscape.org/) -->
<!-- icons-mk created by Matthias Kuhnel (2019), reuseIT, https://reuseproject.org -->

<svg
   xmlns:dc="http://purl.org/dc/elements/1.1/"
   xmlns:cc="http://creativecommons.org/ns#"
   xmlns:rdf="http://www.w3.org/1999/02/22-rdf-syntax-ns#"
   xmlns:svg="http://www.w3.org/2000/svg"
   xmlns="http://www.w3.org/2000/svg"
   version="1.1"
   width="25"
   height="25"
   id="svg">
  <defs
     id="defs" />
  <metadata
     id="metadata">
    <rdf:RDF>
      <cc:Work
         rdf:about="">
        <dc:format>image/svg+xml</dc:format>
        <dc:type
           rdf:resource="http://purl.org/dc/dcmitype/StillImage" />
        <dc:title></dc:title>
      </cc:Work>
    </rdf:RDF>
  </metadata>
  <g
     transform="translate(0,-1027.3622)"
     id="icons-mk">
    <path
       d="m 5.953,1027.3607 0,9.5312 1.937,1.6563 c 0,0.2155 -0.22,9.4529 -0.343,13.4687 0.946,0.5443 1.727,0.376 2.625,0 -0.149,-4.6723 -0.34,-13.2681 -0.344,-13.4687 l 1.938,-1.6563 0,-9.5312 -1,0 0,7.8125 -1.344,0 0,-7.8125 -1.094,0 0,7.8125 -1.374,0 0,-7.8125 -1,0 z m 10.407,0 c -0.159,-0.01 -0.312,0.036 -0.469,0.125 -0.936,0.5183 -0.911,9.0268 -0.875,11.875 -0.02,0.9869 -0.197,8.872 -0.312,12.6562 0.945,0.5446 1.725,0.3762 2.624,0 -0.127,-3.9789 -0.236,-9.4547 -0.281,-11.4375 l 2,-0.8125 c 0,0 0,-9.4053 -1.657,-11.8125 -0.117,-0.1692 -0.556,-0.5646 -1.031,-0.5937 z"
       id="eat"
       style="fill:#000000;fill-opacity:1;stroke:none" />
  </g>
</svg>
