<?xml version="1.0" encoding="UTF-8" standalone="no"?>
<!-- Created with Inkscape (http://www.inkscape.org/) -->
<!-- icons-mk created by Matthias Kuhnel (2019), reuseIT, https://reuseproject.org -->

<svg
   xmlns:dc="http://purl.org/dc/elements/1.1/"
   xmlns:cc="http://creativecommons.org/ns#"
   xmlns:rdf="http://www.w3.org/1999/02/22-rdf-syntax-ns#"
   xmlns:svg="http://www.w3.org/2000/svg"
   xmlns="http://www.w3.org/2000/svg"
   version="1.1"
   width="25"
   height="25"
   id="svg">
  <defs
     id="defs" />
  <metadata
     id="metadata">
    <rdf:RDF>
      <cc:Work
         rdf:about="">
        <dc:format>image/svg+xml</dc:format>
        <dc:type
           rdf:resource="http://purl.org/dc/dcmitype/StillImage" />
        <dc:title></dc:title>
      </cc:Work>
    </rdf:RDF>
  </metadata>
  <g
     transform="translate(0,-1027.3622)"
     id="icons-mk">
    <path
       d="m 12.52425,1041.113 c -1.1621,10e-5 -2.0551,0.3175 -2.6791999,0.9523 -0.6240999,0.6348 -0.9361,1.544 -0.9361,2.7275 0,1.1836 0.312,2.0901 0.9361,2.7195 0.6240999,0.6295 1.5170999,0.9442 2.6791999,0.9442 1.1512,0 2.0335,-0.3147 2.6468,-0.9442 0.6133,-0.6294 0.92,-1.5359 0.92,-2.7195 0,-1.1943 -0.3067,-2.1061 -0.92,-2.7356 -0.6133,-0.6294 -1.4956,-0.9441 -2.6468,-0.9442 z m -4.5352999,-2.0497 c -1.4633003,-0.4411 -2.5661003,-1.119 -3.3085003,-2.0335 -0.7424,-0.9146 -1.1137,-2.0551 -1.1137,-3.4216 0,-2.0335 0.7586,-3.5829 2.2757,-4.6482 1.5171,-1.0652 3.7444004,-1.5978 6.6818002,-1.5978 2.9158,0 5.1323,0.5299 6.6494,1.5897 1.5171,1.0599 2.2756,2.612 2.2757,4.6563 -10e-5,1.3665 -0.3739,2.507 -1.1217,3.4216 -0.7478,0.9145 -1.8534,1.5924 -3.3167,2.0335 1.6355,0.452 2.8701,1.1863 3.704,2.2031 0.8339,1.0168 1.2508,2.2999 1.2508,3.8492 0,2.3887 -0.7935,4.1936 -2.3805,5.4148 -1.5871,1.2212 -3.9408,1.8318 -7.061,1.8318 -3.1310998,0 -5.4956001,-0.6106 -7.0933001,-1.8318 -1.5978,-1.2212 -2.3967,-3.0261 -2.3967,-5.4148 0,-1.5493 0.4169,-2.8324 1.2508,-3.8492 0.8338,-1.0168 2.0685,-1.7511 3.7039003,-2.2031 z m 1.4526001,-4.8257 c 0,0.9577 0.2662999,1.6947 0.7988998,2.2111 0.5326,0.5165 1.2939,0.7748 2.2838,0.7747 0.9683,10e-5 1.7161,-0.2582 2.2433,-0.7747 0.5273,-0.5164 0.7909,-1.2534 0.7909,-2.2111 0,-0.9575 -0.2636,-1.6919 -0.7909,-2.203 -0.5272,-0.5111 -1.275,-0.7666 -2.2433,-0.7666 -0.9899,0 -1.7512,0.2582 -2.2838,0.7747 -0.5325999,0.5165 -0.7988998,1.2481 -0.7988998,2.1949 z"
       id="eight"
       style="font-size:72px;font-style:normal;font-variant:normal;font-weight:bold;font-stretch:normal;line-height:125%;letter-spacing:0px;word-spacing:0px;fill:#000000;fill-opacity:1;stroke:none;font-family:DejaVu Sans;-inkscape-font-specification:DejaVu Sans Bold" />
  </g>
</svg>
