<?xml version="1.0" encoding="UTF-8" standalone="no"?>
<!-- Created with Inkscape (http://www.inkscape.org/) -->
<!-- icons-mk created by Matthias Kuhnel (2019), reuseIT, https://reuseproject.org -->

<svg
   xmlns:dc="http://purl.org/dc/elements/1.1/"
   xmlns:cc="http://creativecommons.org/ns#"
   xmlns:rdf="http://www.w3.org/1999/02/22-rdf-syntax-ns#"
   xmlns:svg="http://www.w3.org/2000/svg"
   xmlns="http://www.w3.org/2000/svg"
   version="1.1"
   width="25"
   height="25"
   id="svg">
  <defs
     id="defs" />
  <metadata
     id="metadata">
    <rdf:RDF>
      <cc:Work
         rdf:about="">
        <dc:format>image/svg+xml</dc:format>
        <dc:type
           rdf:resource="http://purl.org/dc/dcmitype/StillImage" />
        <dc:title></dc:title>
      </cc:Work>
    </rdf:RDF>
  </metadata>
  <g
     transform="translate(0,-1027.3622)"
     id="icons-mk">
    <path
       d="m 10.06013,1031.1649 c -1.0080002,0.01 -1.9220002,0.4958 -3.2800002,0.7498 -1.552,0.2902 -2.576,0.4038 -3.937,3.0618 -0.394,2.4185 -0.673,1.2427 -1.124,3.4992 -0.688,-0.069 -1.695,-0.1658 -1.71899999673,-0.031 -0.0200000033,0.1522 1.11899999673,0.3944 1.62499999673,0.4999 0,0.037 -0.02,0.056 -0.03,0.094 0,0 -1.176,7.9079 -1.156,8.1545 0.02,0.2466 0.43,0.337 0.562,0 0.132,-0.3369 1.123,-8.5378 3.218,-9.1856 1.613,-0.4985 1.815,-0.4691 2,-0.3124 0.185,0.1568 -0.651,0.6531 -0.09,0.7186 0.561,0.066 2.577,-0.2633 2.843,0.3437 0.266,0.6069 -2.156,7.9046 -2.156,7.9046 0,0 -0.856,1.2 -0.937,1.2809 -0.02,0.02 2.436,0.6249 2.436,0.6249 l 0.06,-1.8121 1.8130002,-3.2493 1.406,3.5929 -0.282,0.7811 -0.343,0.6874 2.718,-0.125 -0.657,-1.4372 c 0,0 -1.307,-5.9664 -0.187,-6.4049 1.122,-0.4383 5.56,0.728 6.53,1.5934 0.971,0.8654 0.125,4.5303 0.125,4.5303 l -0.938,1.4373 2.657,0.125 -0.157,-1.2186 0.687,-3.9367 0.875,3.4056 -0.06,1.5934 2.438,-0.4999 -0.75,-1.4684 c 0,0 -1.099,-2.8705 -1.312,-3.9992 -0.216,-1.1285 -0.191,-2.1721 0.03,-2.687 0.344,-0.3499 1.195,4.3939 1.25,4.8428 l 0.281,-0.031 c 0,0 -1.315,-9.0995 -1.812,-10.1229 -1.716,-3.5264 -5.727,-2.105 -7.405,-1.8746 -1.504,0.2064 -3.849,-0.9983 -4.78,-1.1247 -0.149,-0.02 -0.293,0 -0.438,0 z"
       id="elephant"
       style="fill:#000000;fill-opacity:1;stroke:none" />
  </g>
</svg>
