<?xml version="1.0" encoding="UTF-8" standalone="no"?>
<!-- Created with Inkscape (http://www.inkscape.org/) -->
<!-- icons-mk created by Matthias Kuhnel (2019), reuseIT, https://reuseproject.org -->

<svg
   xmlns:dc="http://purl.org/dc/elements/1.1/"
   xmlns:cc="http://creativecommons.org/ns#"
   xmlns:rdf="http://www.w3.org/1999/02/22-rdf-syntax-ns#"
   xmlns:svg="http://www.w3.org/2000/svg"
   xmlns="http://www.w3.org/2000/svg"
   version="1.1"
   width="25"
   height="25"
   id="svg">
  <defs
     id="defs" />
  <metadata
     id="metadata">
    <rdf:RDF>
      <cc:Work
         rdf:about="">
        <dc:format>image/svg+xml</dc:format>
        <dc:type
           rdf:resource="http://purl.org/dc/dcmitype/StillImage" />
        <dc:title></dc:title>
      </cc:Work>
    </rdf:RDF>
  </metadata>
  <g
     transform="translate(0,-1027.3622)"
     id="icons-mk">
    <path
       d="m 12.125171,1027.3653 c -0.1799,-0.03 -0.7925,0.1694 -2.2184997,0.8436 -4.5627,2.159 -5.2542,4.4011 -5.843,6.093 -0.474,1.3617 0.1565,4.8562 0.4374,6.218 -0.2601,-0.037 -0.5337,-0.062 -0.6874,0.031 -0.3008,0.1823 -0.026,2.2545 0.8436,2.6247 2e-4,0 0.031,0 0.031,0 0.5414,5.1936 3.8185,9.1864 7.8115997,9.1864 3.9936,0 7.302,-3.9918 7.8428,-9.1864 0.8697,-0.3702 1.1445,-2.4424 0.8436,-2.6247 -0.191,-0.1157 -0.5412,-0.09 -0.8436,-0.031 0.337,-1.6972 0.8938,-5.2826 -0.094,-7.1866 -1.3236,-2.5515 -6.5617,-4.2182 -6.5617,-4.2182 0,0 -0.05,-1.1004 -0.6874,-1.4686 -0.3188,-0.1841 -0.8714,0.072 -1.3436,0.3749 0.3545,-0.2963 0.6547,-0.6246 0.4687,-0.6561 z m 0.031,5.9367 0.7187,0 0,5.6556 c 0.553,-0.5836 1.3751,-1.4252 2.4372,-2.3122 0.7932,-0.6624 1.615,-1.2486 2.3434,-1.5311 0.3642,-0.1412 0.7128,-0.1943 1.0625,-0.094 0.3497,0.1008 0.6124,0.4122 0.7186,0.8124 0.2147,0.808 -0.1854,1.5629 -0.8124,2.2185 -0.6269,0.6556 -1.4943,1.2722 -2.3747,1.781 -1.5887,0.9185 -3.0681,1.4784 -3.3746,1.5936 l 0,1.2498 0,0.5312 0,3.2184 -0.7187,0 0,-3.4996 c -0.3064,-0.1201 -1.7858,-0.7064 -3.3745997,-1.6248 -0.8804,-0.509 -1.7478,-1.0942 -2.3747,-1.7498 -0.6269,-0.6556 -1.0269,-1.4417 -0.8123,-2.2497 0.1063,-0.4002 0.3687,-0.7116 0.7186,-0.8124 0.3497,-0.1009 0.6981,-0.016 1.0624,0.1249 0.7285,0.2824 1.5502,0.8688 2.3435,1.5311 1.0621997,0.8868 1.8839997,1.7285 2.4370997,2.3122 l 0,-0.5936 0,-0.1563 0,-6.4055 z m 5.5931,3.3434 -4.7182,3.5308 0.094,0.125 4.7182,-3.5308 -0.094,-0.125 z m -10.4986997,1.4998 -0.094,0.125 4.7181997,3.4996 0.094,-0.125 -4.7181997,-3.4996 z"
       id="environment-friendly"
       style="fill:#000000;fill-opacity:1" />
  </g>
</svg>
