<?xml version="1.0" encoding="UTF-8" standalone="no"?>
<!-- Created with Inkscape (http://www.inkscape.org/) -->
<!-- icons-mk created by Matthias Kuhnel (2019), reuseIT, https://reuseproject.org -->

<svg
   xmlns:dc="http://purl.org/dc/elements/1.1/"
   xmlns:cc="http://creativecommons.org/ns#"
   xmlns:rdf="http://www.w3.org/1999/02/22-rdf-syntax-ns#"
   xmlns:svg="http://www.w3.org/2000/svg"
   xmlns="http://www.w3.org/2000/svg"
   version="1.1"
   width="25"
   height="25"
   id="svg">
  <defs
     id="defs" />
  <metadata
     id="metadata">
    <rdf:RDF>
      <cc:Work
         rdf:about="">
        <dc:format>image/svg+xml</dc:format>
        <dc:type
           rdf:resource="http://purl.org/dc/dcmitype/StillImage" />
        <dc:title></dc:title>
      </cc:Work>
    </rdf:RDF>
  </metadata>
  <g
     transform="translate(0,-1027.3622)"
     id="icons-mk">
    <path
       d="m 21.9175,1029.654 0,3.4378 c -0.98,-1.1298 -1.924,-1.9368 -2.833,-2.4209 -0.909,-0.4843 -1.913,-0.7263 -3.01,-0.7264 -1.689,10e-5 -3.077,0.5381 -4.164,1.614 -1.087,1.076 -1.802,2.6199 -2.1460002,4.632 l 9.3120002,0 -0.888,1.9852 -8.6830002,0 c -0.02,0.2582 -0.03,0.5111 -0.04,0.7586 0,0.2474 0,0.5594 0,0.936 0,0.3443 0,0.6402 0,0.8877 0,0.2474 0.02,0.5002 0.04,0.7585 l 7.1980002,0 -0.903,1.9852 -6.0360002,0 c 0.3440002,2.012 1.0590002,3.5614 2.1460002,4.6482 1.087,1.0867 2.475,1.6301 4.164,1.6301 1.097,0 2.101,-0.2422 3.01,-0.7263 0.909,-0.4842 1.853,-1.2912 2.833,-2.4209 l 0,3.4054 c -0.958,0.7747 -1.935,1.3557 -2.93,1.743 -0.995,0.3874 -2.009,0.5811 -3.042,0.5811 -2.55,0 -4.656,-0.7801 -6.3190002,-2.3403 -1.662,-1.5601 -2.708,-3.7336 -3.139,-6.5203 l -3.405,0 0.887,-1.9851 2.244,0 c 0,-0.2475 0,-0.4977 0,-0.7505 0,-0.2529 0,-0.5515 0,-0.8958 0,-0.3767 0,-0.6913 0,-0.9441 0,-0.2529 0,-0.503 0,-0.7505 l -3.131,0 0.887,-1.9853 2.518,0 c 0.431,-2.7652 1.48,-4.9278 3.147,-6.4881 1.6680002,-1.5601 3.7720002,-2.3402 6.3110002,-2.3402 1.054,0 2.079,0.191 3.074,0.573 0.996,0.382 1.961,0.9549 2.898,1.7188 z"
       id="euro"
       style="font-size:72px;font-style:normal;font-variant:normal;font-weight:normal;font-stretch:normal;line-height:125%;letter-spacing:0px;word-spacing:0px;fill:#000000;fill-opacity:1;stroke:none;font-family:DejaVu Sans;-inkscape-font-specification:DejaVu Sans" />
  </g>
</svg>
