<?xml version="1.0" encoding="UTF-8" standalone="no"?>
<!-- Created with Inkscape (http://www.inkscape.org/) -->
<!-- icons-mk created by Matthias Kuhnel (2020), reuseIT, https://reuseproject.org -->

<svg
   xmlns:dc="http://purl.org/dc/elements/1.1/"
   xmlns:cc="http://creativecommons.org/ns#"
   xmlns:rdf="http://www.w3.org/1999/02/22-rdf-syntax-ns#"
   xmlns:svg="http://www.w3.org/2000/svg"
   xmlns="http://www.w3.org/2000/svg"
   version="1.1"
   width="25"
   height="25"
   id="svg">
  <defs
     id="defs" />
  <metadata
     id="metadata">
    <rdf:RDF>
      <cc:Work
         rdf:about="">
        <dc:format>image/svg+xml</dc:format>
        <dc:type
           rdf:resource="http://purl.org/dc/dcmitype/StillImage" />
        <dc:title></dc:title>
      </cc:Work>
    </rdf:RDF>
  </metadata>
  <g
     transform="translate(0,-1027.3622)"
     id="icons-mk">
    <path
       d="m 17.344,1029.5341 -6.5,3.7187 6.5,3.6875 0,-2.125 c 2.461,0.2734 4.375,2.3406 4.375,4.875 0,2.7202 -2.187,4.9375 -4.907,4.9375 l 0,3.2813 c 4.534,0 8.188,-3.6853 8.188,-8.2188 0,-4.3448 -3.385,-7.8989 -7.656,-8.1875 l 0,-1.9687 z m -9.156,2.2812 c -4.533,0 -8.188,3.6854 -8.188,8.2188 0,4.3449 3.385,7.8989 7.656,8.1875 l 0,1.9687 6.5,-3.6875 -6.5,-3.7187 0,2.1562 c -2.461,-0.2734 -4.375,-2.3717 -4.375,-4.9062 0,-2.7201 2.187,-4.9375 4.907,-4.9375 l 0,-3.2813 z"
       id="exchange-2"
       style="fill:#000000;fill-opacity:1;stroke:none" />
  </g>
</svg>
