<?xml version="1.0" encoding="UTF-8" standalone="no"?>
<!-- Created with Inkscape (http://www.inkscape.org/) -->
<!-- icons-mk created by Matthias Kuhnel (2020), reuseIT, https://reuseproject.org -->

<svg
   xmlns:dc="http://purl.org/dc/elements/1.1/"
   xmlns:cc="http://creativecommons.org/ns#"
   xmlns:rdf="http://www.w3.org/1999/02/22-rdf-syntax-ns#"
   xmlns:svg="http://www.w3.org/2000/svg"
   xmlns="http://www.w3.org/2000/svg"
   version="1.1"
   width="25"
   height="25"
   id="svg">
  <defs
     id="defs" />
  <metadata
     id="metadata">
    <rdf:RDF>
      <cc:Work
         rdf:about="">
        <dc:format>image/svg+xml</dc:format>
        <dc:type
           rdf:resource="http://purl.org/dc/dcmitype/StillImage" />
        <dc:title></dc:title>
      </cc:Work>
    </rdf:RDF>
  </metadata>
  <g
     transform="translate(0,-1027.3622)"
     id="icons-mk">
    <path
       d="m 7.656,1029.5341 0,1.9687 c -4.271,0.2886 -7.656,3.8427 -7.656,8.1875 0,4.5334 3.655,8.2188 8.188,8.2188 l 0,-3.2813 c -2.72,0 -4.907,-2.2173 -4.907,-4.9375 0,-2.5344 1.914,-4.6015 4.375,-4.875 l 0,2.125 6.5,-3.6875 -6.5,-3.7187 z m 9.156,2.2812 0,3.2813 c 2.72,0 4.907,2.2173 4.907,4.9375 0,2.5344 -1.914,4.6327 -4.375,4.9062 l 0,-2.1562 -6.5,3.7187 6.5,3.6875 0,-1.9687 c 4.271,-0.2886 7.656,-3.8427 7.656,-8.1875 0,-4.5334 -3.654,-8.2188 -8.188,-8.2188 z"
       id="exchange"
       style="fill:#000000;fill-opacity:1;stroke:none" />
  </g>
</svg>
