<?xml version="1.0" encoding="UTF-8" standalone="no"?>
<!-- Created with Inkscape (http://www.inkscape.org/) -->
<!-- icons-mk created by Matthias Kuhnel (2019), reuseIT, https://reuseproject.org -->

<svg
   xmlns:dc="http://purl.org/dc/elements/1.1/"
   xmlns:cc="http://creativecommons.org/ns#"
   xmlns:rdf="http://www.w3.org/1999/02/22-rdf-syntax-ns#"
   xmlns:svg="http://www.w3.org/2000/svg"
   xmlns="http://www.w3.org/2000/svg"
   version="1.1"
   width="25"
   height="25"
   id="svg">
  <defs
     id="defs" />
  <metadata
     id="metadata">
    <rdf:RDF>
      <cc:Work
         rdf:about="">
        <dc:format>image/svg+xml</dc:format>
        <dc:type
           rdf:resource="http://purl.org/dc/dcmitype/StillImage" />
        <dc:title></dc:title>
      </cc:Work>
    </rdf:RDF>
  </metadata>
  <g
     transform="translate(0,-1027.3622)"
     id="icons-mk">
    <path
       d="m 7.8418999,1050.1099 9.3161001,0 0,-2.3291 -9.3161001,0 z m 5.8226001,2.2523 0,-9.3161 -2.329,0 0,9.3161 z m -1.1645,-25 c -4.6308001,0 -8.3845001,3.7603 -8.3845001,8.3845 0,4.6241 3.7537,8.3844 8.3845001,8.3844 4.6305,0 8.3845,-3.7603 8.3845,-8.3844 0,-4.6242 -3.754,-8.3845 -8.3845,-8.3845 z m 0,2.0961 c 3.473,0 6.2883,2.8201 6.2883,6.2884 0,3.468 -2.8153,6.2883 -6.2883,6.2883 -3.4732001,0 -6.2884001,-2.8203 -6.2884001,-6.2883 0,-3.4683 2.8152,-6.2884 6.2884001,-6.2884 z"
       id="female"
       style="fill:#000000;fill-opacity:1;fill-rule:nonzero;stroke:none" />
  </g>
</svg>
