<?xml version="1.0" encoding="UTF-8" standalone="no"?>
<!-- Created with Inkscape (http://www.inkscape.org/) -->
<!-- icons-mk created by Matthias Kuhnel (2019), reuseIT, https://reuseproject.org -->

<svg
   xmlns:dc="http://purl.org/dc/elements/1.1/"
   xmlns:cc="http://creativecommons.org/ns#"
   xmlns:rdf="http://www.w3.org/1999/02/22-rdf-syntax-ns#"
   xmlns:svg="http://www.w3.org/2000/svg"
   xmlns="http://www.w3.org/2000/svg"
   version="1.1"
   width="25"
   height="25"
   id="svg">
  <defs
     id="defs" />
  <metadata
     id="metadata">
    <rdf:RDF>
      <cc:Work
         rdf:about="">
        <dc:format>image/svg+xml</dc:format>
        <dc:type
           rdf:resource="http://purl.org/dc/dcmitype/StillImage" />
        <dc:title></dc:title>
      </cc:Work>
    </rdf:RDF>
  </metadata>
  <g
     transform="translate(0,-1027.3622)"
     id="icons-mk">
    <path
       d="m 0.29318321,1039.448 c 0.195,-0.8792 2.14899999,-1.3676 3.22399999,-2.0514 0.977,-0.5861 1.758,-1.5629 3.126,-2.0514 1.367,-0.4884 3.224,-0.5861 4.8839998,-0.7815 1.661,-0.1953 2.931,-2.0513 4.005,-1.563 1.173,0.3908 0.391,3.0283 1.075,3.5168 0.684,0.586 0.977,0.1954 1.367,0.293 0.391,0.1953 0.196,0.7814 1.466,0.8791 1.269,0.098 3.809,-3.9074 5.176,-2.9305 1.27,0.9769 -1.074,3.2236 -1.074,4.7866 0.1,1.5629 2.442,3.5166 0.977,4.3958 -1.466,0.7815 -3.224,-3.712 -4.494,-3.8097 -1.269,-0.1954 -1.367,0.3908 -1.464,0.7814 -0.196,0.3908 0.39,-0.1953 0.195,0.8792 -0.293,0.9769 -2.442,3.1259 -3.712,3.8097 -1.27,0.5861 -1.661,-0.3907 -2.247,-0.3907 -0.586,0 -1.172,-0.3907 -1.27,0.098 0,0.5861 1.661,0.3907 1.368,1.2699 -0.391,0.7815 -1.27,-0.6838 -2.736,-1.0746 -1.5629998,-0.3907 -3.8089998,-0.293 -5.9579998,-1.4652 -2.15,-1.1722 -4.20099998883,-2.1491 -4.20099998883,-3.2236 0,-1.0745 0.97699999883,0.1953 1.17199998883,-0.293 0.293,-0.4885 -0.97699999,-0.2931 -0.87899999,-1.0746 z"
       id="fish"
       style="fill:#000000;fill-opacity:1;fill-rule:nonzero;stroke:none" />
  </g>
</svg>
