<?xml version="1.0" encoding="UTF-8" standalone="no"?>
<!-- Created with Inkscape (http://www.inkscape.org/) -->
<!-- icons-mk created by Matthias Kuhnel (2019), reuseIT, https://reuseproject.org -->

<svg
   xmlns:dc="http://purl.org/dc/elements/1.1/"
   xmlns:cc="http://creativecommons.org/ns#"
   xmlns:rdf="http://www.w3.org/1999/02/22-rdf-syntax-ns#"
   xmlns:svg="http://www.w3.org/2000/svg"
   xmlns="http://www.w3.org/2000/svg"
   version="1.1"
   width="25"
   height="25"
   id="svg">
  <defs
     id="defs" />
  <metadata
     id="metadata">
    <rdf:RDF>
      <cc:Work
         rdf:about="">
        <dc:format>image/svg+xml</dc:format>
        <dc:type
           rdf:resource="http://purl.org/dc/dcmitype/StillImage" />
        <dc:title></dc:title>
      </cc:Work>
    </rdf:RDF>
  </metadata>
  <g
     transform="translate(0,-1027.3622)"
     id="icons-mk">
    <path
       d="m 4.2378999,1027.3622 15.7194001,0 0,4.6485 -10.6768001,0 0,3.7943 c 0.4819,-0.1314 0.9664001,-0.2327 1.4537001,-0.3039 0.4873,-0.071 0.9938,-0.1067 1.5194,-0.1067 2.9895,0 5.3165,0.7474 6.9809,2.2421 1.6645,1.4948 2.4967,3.5781 2.4968,6.25 -10e-5,2.65 -0.9062,4.7251 -2.7185,6.2254 -1.8123,1.5002 -4.3282,2.2503 -7.5476,2.2503 -1.3908,0 -2.7678001,-0.1342 -4.1311001,-0.4024 -1.3634,-0.2683 -2.7185,-0.6762 -4.0654,-1.2238 l 0,-4.977 c 1.336,0.7666 2.6035,1.3415 3.8026,1.7247 1.1991,0.3833 2.3297,0.5749 3.3919001,0.5749 1.5331,0 2.7404,-0.375 3.6219,-1.1251 0.8815,-0.7501 1.3222,-1.7658 1.3222,-3.047 0,-1.2922 -0.4407,-2.3105 -1.3222,-3.0552 -0.8815,-0.7446 -2.0888,-1.1169 -3.6219,-1.1169 -0.9089001,0 -1.8780001,0.1177 -2.9074001,0.3531 -1.0293,0.2355 -2.1353,0.5996 -3.3179,1.0923 z"
       id="five"
       style="font-size:72px;font-style:normal;font-variant:normal;font-weight:bold;font-stretch:normal;line-height:125%;letter-spacing:0px;word-spacing:0px;fill:#000000;fill-opacity:1;stroke:none;font-family:DejaVu Sans;-inkscape-font-specification:DejaVu Sans Bold" />
  </g>
</svg>
