<?xml version="1.0" encoding="UTF-8" standalone="no"?>
<!-- Created with Inkscape (http://www.inkscape.org/) -->
<!-- icons-mk created by Matthias Kuhnel (2019), reuseIT, https://reuseproject.org -->

<svg
   xmlns:dc="http://purl.org/dc/elements/1.1/"
   xmlns:cc="http://creativecommons.org/ns#"
   xmlns:rdf="http://www.w3.org/1999/02/22-rdf-syntax-ns#"
   xmlns:svg="http://www.w3.org/2000/svg"
   xmlns="http://www.w3.org/2000/svg"
   version="1.1"
   width="25"
   height="25"
   id="svg">
  <defs
     id="defs" />
  <metadata
     id="metadata">
    <rdf:RDF>
      <cc:Work
         rdf:about="">
        <dc:format>image/svg+xml</dc:format>
        <dc:type
           rdf:resource="http://purl.org/dc/dcmitype/StillImage" />
        <dc:title></dc:title>
      </cc:Work>
    </rdf:RDF>
  </metadata>
  <g
     transform="translate(0,-1027.3622)"
     id="icons-mk">
    <path
       d="m 12.516,1027.3624 c -1.068,0 -1.938,0.8704 -1.938,1.9375 0,0.4864 0.203,0.9103 0.5,1.25 -0.118,0.043 -0.231,0.1038 -0.343,0.1562 -0.03,-0.4548 -0.215,-0.9025 -0.563,-1.25 -0.7550002,-0.7545 -1.9640002,-0.7545 -2.7190002,0 -0.754,0.7545 -0.754,1.9955 0,2.75 0.347,0.3475 0.797,0.5039 1.25,0.5313 -0.05,0.111 -0.08,0.2276 -0.124,0.3437 -0.343,-0.3038 -0.789,-0.5 -1.282,-0.5 -1.067,0 -1.937,0.8705 -1.937,1.9375 0,1.067 0.87,1.9063 1.937,1.9063 0.487,0 0.91,-0.1721 1.25,-0.4688 0.04,0.1151 0.106,0.2024 0.156,0.3125 -0.453,0.028 -0.903,0.215 -1.25,0.5625 -0.754,0.7545 -0.754,1.9955 0,2.75 0.755,0.7545 1.964,0.7545 2.7190002,0 0.348,-0.3475 0.536,-0.7952 0.563,-1.25 0.111,0.051 0.228,0.1147 0.344,0.1563 -0.298,0.3396 -0.5,0.7635 -0.5,1.25 0,0.9637 0.703,1.7275 1.624,1.875 l 0,4.8437 0,0.125 0,0.5313 c -0.487,-0.5153 -1.218,-1.2798 -2.156,-2.0625 -0.7010002,-0.5846 -1.4500002,-1.0946 -2.0940002,-1.3438 -0.32,-0.1243 -0.598,-0.1829 -0.906,-0.094 -0.309,0.089 -0.566,0.3656 -0.656,0.7188 -0.191,0.7131 0.165,1.39 0.718,1.9687 0.553,0.5787 1.317,1.1133 2.093,1.5625 1.4040002,0.8106 2.7300002,1.3003 3.0000002,1.4063 l 0,3.0937 0.626,0 0,-2.8437 0,-0.4688 0,-1.0937 c 0.269,-0.1017 1.567,-0.5956 2.969,-1.4063 0.778,-0.4491 1.541,-0.9838 2.094,-1.5625 0.553,-0.5787 0.908,-1.2555 0.718,-1.9687 -0.09,-0.3532 -0.317,-0.6298 -0.625,-0.7188 -0.308,-0.089 -0.615,-0.031 -0.937,0.094 -0.643,0.2493 -1.363,0.7591 -2.063,1.3438 -0.936,0.7828 -1.668,1.5161 -2.156,2.0312 l 0,-4.1562 c 0.912,-0.1577 1.624,-0.9198 1.624,-1.875 0,-0.4929 -0.195,-0.94 -0.5,-1.2813 0.112,-0.041 0.237,-0.075 0.344,-0.125 0.03,0.4548 0.185,0.9025 0.532,1.25 0.754,0.7545 1.994,0.7545 2.75,0 0.753,-0.7545 0.753,-1.9955 0,-2.75 -0.348,-0.3475 -0.796,-0.5351 -1.25,-0.5625 0.05,-0.109 0.08,-0.1986 0.124,-0.3125 0.343,0.3038 0.788,0.4688 1.282,0.4688 1.066,0 1.906,-0.8393 1.906,-1.9063 0,-1.067 -0.84,-1.9375 -1.906,-1.9375 -0.494,0 -0.94,0.1962 -1.282,0.5 -0.04,-0.1161 -0.07,-0.2327 -0.124,-0.3437 0.454,-0.027 0.902,-0.1838 1.25,-0.5313 0.753,-0.7545 0.753,-1.9955 0,-2.75 -0.756,-0.7545 -1.996,-0.7545 -2.75,0 -0.347,0.3475 -0.506,0.7952 -0.532,1.25 -0.113,-0.052 -0.226,-0.1138 -0.344,-0.1562 0.298,-0.3397 0.5,-0.7636 0.5,-1.25 0,-1.0671 -0.87,-1.9375 -1.937,-1.9375 z m 0,5.2187 c 1.067,0 1.936,0.8705 1.936,1.9375 0,1.067 -0.869,1.9063 -1.936,1.9063 -1.067,0 -1.938,-0.8393 -1.938,-1.9063 0,-1.067 0.871,-1.9375 1.938,-1.9375 z"
       id="flower"
       style="fill:#000000;fill-opacity:1;stroke:none" />
  </g>
</svg>
