<?xml version="1.0" encoding="UTF-8" standalone="no"?>
<!-- Created with Inkscape (http://www.inkscape.org/) -->
<!-- icons-mk created by Matthias Kuhnel (2019), reuseIT, https://reuseproject.org -->

<svg
   xmlns:dc="http://purl.org/dc/elements/1.1/"
   xmlns:cc="http://creativecommons.org/ns#"
   xmlns:rdf="http://www.w3.org/1999/02/22-rdf-syntax-ns#"
   xmlns:svg="http://www.w3.org/2000/svg"
   xmlns="http://www.w3.org/2000/svg"
   version="1.1"
   width="25"
   height="25"
   id="svg">
  <defs
     id="defs" />
  <metadata
     id="metadata">
    <rdf:RDF>
      <cc:Work
         rdf:about="">
        <dc:format>image/svg+xml</dc:format>
        <dc:type
           rdf:resource="http://purl.org/dc/dcmitype/StillImage" />
        <dc:title></dc:title>
      </cc:Work>
    </rdf:RDF>
  </metadata>
  <g
     transform="translate(0,-1027.3622)"
     id="icons-mk">
    <path
       d="m 3.7499999,1039.3622 17.5000001,0 0,2 -17.5000001,0 z m 8.0719001,11.3243 3.8901,0 0,1.6757 -6.4243001,0 0,-1.6757 3.2270001,-2.848 c 0.2881,-0.2605 0.5013,-0.5151 0.6394,-0.7638 0.1382,-0.2487 0.2073,-0.5072 0.2073,-0.7757 0,-0.4144 -0.1392,-0.748 -0.4175,-1.0006 -0.2783,-0.2527 -0.6483,-0.379 -1.1102,-0.379 -0.3552,0 -0.744,0.076 -1.1664,0.228 -0.4224,0.152 -0.8743001,0.3779 -1.3559001,0.6779 l 0,-1.9421 c 0.5131,-0.1697 1.0204001,-0.299 1.5217001,-0.3878 0.5013,-0.089 0.9928,-0.1332 1.4743,-0.1332 1.0579,0 1.8799,0.2329 2.4661,0.6987 0.5862,0.4658 0.8793,1.1151 0.8793,1.948 0,0.4816 -0.1243,0.9306 -0.373,1.347 -0.2487,0.4165 -0.7717,0.9741 -1.5691,1.6727 z m -2.4412001,-15.9278 2.0496001,0 0,-5.8171 -2.1038001,0.434 0,-1.5794 2.0917001,-0.434 2.2063,0 0,7.3965 2.0496,0 0,1.6035 -6.2934001,0 z"
       id="fraction-half"
       style="fill:#000000;fill-opacity:1;stroke:none" />
  </g>
</svg>
