<?xml version="1.0" encoding="UTF-8" standalone="no"?>
<!-- Created with Inkscape (http://www.inkscape.org/) -->
<!-- icons-mk created by Matthias Kuhnel (2019), reuseIT, https://reuseproject.org -->

<svg
   xmlns:dc="http://purl.org/dc/elements/1.1/"
   xmlns:cc="http://creativecommons.org/ns#"
   xmlns:rdf="http://www.w3.org/1999/02/22-rdf-syntax-ns#"
   xmlns:svg="http://www.w3.org/2000/svg"
   xmlns="http://www.w3.org/2000/svg"
   version="1.1"
   width="25"
   height="25"
   id="svg">
  <defs
     id="defs" />
  <metadata
     id="metadata">
    <rdf:RDF>
      <cc:Work
         rdf:about="">
        <dc:format>image/svg+xml</dc:format>
        <dc:type
           rdf:resource="http://purl.org/dc/dcmitype/StillImage" />
        <dc:title></dc:title>
      </cc:Work>
    </rdf:RDF>
  </metadata>
  <g
     transform="translate(0,-1027.3622)"
     id="icons-mk">
    <path
       d="m 16.4561,1047.9058 c -0.3917,0 -0.6857,0.127 -0.8814,0.3811 -0.196,0.2541 -0.294,0.6351 -0.294,1.1432 0,0.5081 0.098,0.8892 0.294,1.1432 0.1957,0.2539 0.4897,0.3811 0.8814,0.3811 0.3956,0 0.6914,-0.1271 0.887,-0.3811 0.196,-0.254 0.2937,-0.6351 0.294,-1.1432 0,-0.5081 -0.098,-0.8892 -0.294,-1.1432 -0.1956,-0.254 -0.4914,-0.3811 -0.887,-0.3811 z m 2.7693,-4.1712 0,1.6057 c -0.3685,-0.1746 -0.7158,-0.3035 -1.0417,-0.3869 -0.3255,-0.083 -0.6437,-0.1251 -0.954,-0.1251 -0.667,0 -1.1867,0.1852 -1.5591,0.5556 -0.3723,0.3704 -0.5895,0.9202 -0.6517,1.6493 0.2562,-0.19 0.5335,-0.3325 0.8319,-0.4276 0.2988,-0.095 0.6247,-0.1425 0.9776,-0.1425 0.888,0 1.6046,0.2599 2.1494,0.7796 0.5451,0.5197 0.8177,1.2004 0.8177,2.042 0,0.9308 -0.3047,1.6765 -0.9136,2.2369 -0.6088,0.5604 -1.4253,0.8406 -2.449,0.8406 -1.1289,0 -2.0023,-0.381 -2.621,-1.1431 -0.6186,-0.7622 -0.9281,-1.8433 -0.9281,-3.2434 0,-1.435 0.3619,-2.5627 1.0851,-3.383 0.7232,-0.8203 1.7151,-1.2304 2.9757,-1.2304 0.3994,0 0.7873,0.031 1.1638,0.093 0.3762,0.062 0.7485,0.1552 1.117,0.2793 z m -13.9685002,6.9113 1.9781,0 0,-5.6141 -2.0305,0.4189 0,-1.5242 2.0189,-0.4189 2.1292004,0 0,7.1383 1.9780998,0 0,1.5475 -6.0738002,0 z m -1.5069,-11.2836 17.5000002,0 0,2 -17.5000002,0 z m 5.6307004,-4.6035 2.0495998,0 0,-5.8172 -2.1037998,0.4341 0,-1.5795 2.0916998,-0.4339 2.2063,0 0,7.3965 2.0496,0 0,1.6035 -6.2933998,0 z"
       id="fraction-sixteenth"
       style="font-size:40px;font-style:normal;font-variant:normal;font-weight:bold;font-stretch:normal;line-height:125%;letter-spacing:0px;word-spacing:0px;fill:#000000;fill-opacity:1;stroke:none;font-family:DejaVu Sans;-inkscape-font-specification:DejaVu Sans Bold" />
  </g>
</svg>
