<?xml version="1.0" encoding="UTF-8" standalone="no"?>
<!-- Created with Inkscape (http://www.inkscape.org/) -->
<!-- icons-mk created by Matthias Kuhnel (2019), reuseIT, https://reuseproject.org -->

<svg
   xmlns:dc="http://purl.org/dc/elements/1.1/"
   xmlns:cc="http://creativecommons.org/ns#"
   xmlns:rdf="http://www.w3.org/1999/02/22-rdf-syntax-ns#"
   xmlns:svg="http://www.w3.org/2000/svg"
   xmlns="http://www.w3.org/2000/svg"
   version="1.1"
   width="25"
   height="25"
   id="svg">
  <defs
     id="defs" />
  <metadata
     id="metadata">
    <rdf:RDF>
      <cc:Work
         rdf:about="">
        <dc:format>image/svg+xml</dc:format>
        <dc:type
           rdf:resource="http://purl.org/dc/dcmitype/StillImage" />
        <dc:title></dc:title>
      </cc:Work>
    </rdf:RDF>
  </metadata>
  <g
     transform="translate(0,-1027.3622)"
     id="icons-mk">
    <path
       d="m 16.0441,1050.5494 3.8173,0 0,1.6443 -6.304,0 0,-1.6443 3.1667,-2.7947 c 0.2826,-0.2557 0.4918,-0.5055 0.6274,-0.7494 0.1357,-0.2441 0.2035,-0.4979 0.2035,-0.7612 0,-0.4067 -0.1366,-0.734 -0.4096,-0.9819 -0.2731,-0.2479 -0.6364,-0.3719 -1.0894,-0.3719 -0.3487,0 -0.7303,0.075 -1.1447,0.2237 -0.4144,0.1492 -0.858,0.3708 -1.3307,0.6652 l 0,-1.9057 c 0.5037,-0.1666 1.0014,-0.2935 1.4934,-0.3806 0.4917,-0.087 0.9739,-0.1306 1.4466,-0.1306 1.0383,0 1.8447,0.2284 2.4201,0.6856 0.575,0.457 0.8627,1.0942 0.8627,1.9114 0,0.4727 -0.122,0.9132 -0.3659,1.3218 -0.2443,0.4087 -0.7574,0.9558 -1.5398,1.6414 z m -6.1587999,-3.033 c 0.5848999,0.1511 1.0295999,0.4136 1.3335999,0.7873 0.304,0.3738 0.4561,0.8493 0.4561,1.4264 0,0.8599 -0.3294,1.5136 -0.9877,1.961 -0.6586,0.4474 -1.6191999,0.6711 -2.8819999,0.6711 -0.4453,0 -0.8918,-0.036 -1.3393,-0.1075 -0.4474,-0.072 -0.8897,-0.1792 -1.3276,-0.3225 l 0,-1.7256 c 0.4185,0.2092 0.8338,0.367 1.2464,0.4736 0.4123,0.1065 0.8181,0.1597 1.2173,0.1597 0.5926,0 1.0466,-0.1026 1.3625,-0.308 0.3156,-0.2052 0.4733,-0.4996 0.4733,-0.8831 0,-0.3951 -0.1615,-0.6943 -0.4849,-0.8977 -0.3237,-0.2032 -0.8011,-0.305 -1.4324,-0.305 l -0.8948,0 0,-1.4409 0.9412,0 c 0.5617,0 0.9802,-0.088 1.2551,-0.2644 0.2752,-0.1763 0.4126,-0.4445 0.4126,-0.8047 0,-0.3331 -0.1336,-0.5907 -0.401,-0.7728 -0.2671,-0.182 -0.6449,-0.2731 -1.1328,-0.2731 -0.3603,0 -0.7244,0.041 -1.0924,0.1221 -0.3679,0.081 -0.7341,0.2014 -1.0983,0.3602 l 0,-1.6385 c 0.4418,-0.1239 0.8794,-0.2168 1.3131,-0.2789 0.434,-0.062 0.86,-0.093 1.2783,-0.093 1.1272,0 1.9707999,0.1849 2.5303999,0.5548 0.5598,0.37 0.8395,0.9268 0.8395,1.6705 0,0.5074 -0.1336,0.9228 -0.4007,1.2463 -0.2675,0.3234 -0.6625,0.551 -1.1854999,0.6826 z m -6.1353,-8.1541 17.4999999,0 0,2 -17.4999999,0 z m 5.6307,-4.6035 2.0495999,0 0,-5.8171 -2.1037999,0.434 0,-1.5795 2.0916999,-0.4339 2.2063,0 0,7.3965 2.0496,0 0,1.6035 -6.2933999,0 z"
       id="fraction-thirty-second"
       style="font-size:40px;font-style:normal;font-variant:normal;font-weight:bold;font-stretch:normal;line-height:125%;letter-spacing:0px;word-spacing:0px;fill:#000000;fill-opacity:1;stroke:none;font-family:DejaVu Sans;-inkscape-font-specification:DejaVu Sans Bold" />
  </g>
</svg>
