<?xml version="1.0" encoding="UTF-8" standalone="no"?>
<!-- Created with Inkscape (http://www.inkscape.org/) -->
<!-- icons-mk created by Matthias Kuhnel (2019), reuseIT, https://reuseproject.org -->

<svg
   xmlns:dc="http://purl.org/dc/elements/1.1/"
   xmlns:cc="http://creativecommons.org/ns#"
   xmlns:rdf="http://www.w3.org/1999/02/22-rdf-syntax-ns#"
   xmlns:svg="http://www.w3.org/2000/svg"
   xmlns="http://www.w3.org/2000/svg"
   version="1.1"
   width="25"
   height="25"
   id="svg">
  <defs
     id="defs" />
  <metadata
     id="metadata">
    <rdf:RDF>
      <cc:Work
         rdf:about="">
        <dc:format>image/svg+xml</dc:format>
        <dc:type
           rdf:resource="http://purl.org/dc/dcmitype/StillImage" />
        <dc:title></dc:title>
      </cc:Work>
    </rdf:RDF>
  </metadata>
  <g
     transform="translate(0,-1027.3622)"
     id="icons-mk">
    <path
       d="m 3.75,1039.3622 17.5,0 0,2 -17.5000001,0 z m 5.6306999,-4.6035 2.0496001,0 0,-5.8171 -2.1038001,0.434 0,-1.5794 2.0917001,-0.434 2.2063,0 0,7.3965 2.0496,0 0,1.6035 -6.2934001,0 z m 3.3755001,10.5144 -2.5439,3.7676 2.5439,0 z m -0.3858,-1.9109 2.58,0 0,5.6785 1.284,0 0,1.6818 -1.284,0 0,1.6397 -2.1942,0 0,-1.6397 -3.9907001,0 0,-1.9893 z"
       id="fraction-fourth"
       style="fill:#000000;fill-opacity:1;stroke:none" />
  </g>
</svg>
