<?xml version="1.0" encoding="UTF-8" standalone="no"?>
<!-- Created with Inkscape (http://www.inkscape.org/) -->
<!-- icons-mk created by Matthias Kuhnel (2019), reuseIT, https://reuseproject.org -->

<svg
   xmlns:dc="http://purl.org/dc/elements/1.1/"
   xmlns:cc="http://creativecommons.org/ns#"
   xmlns:rdf="http://www.w3.org/1999/02/22-rdf-syntax-ns#"
   xmlns:svg="http://www.w3.org/2000/svg"
   xmlns="http://www.w3.org/2000/svg"
   version="1.1"
   width="25"
   height="25"
   id="svg">
  <defs
     id="defs" />
  <metadata
     id="metadata">
    <rdf:RDF>
      <cc:Work
         rdf:about="">
        <dc:format>image/svg+xml</dc:format>
        <dc:type
           rdf:resource="http://purl.org/dc/dcmitype/StillImage" />
        <dc:title></dc:title>
      </cc:Work>
    </rdf:RDF>
  </metadata>
  <g
     transform="translate(0,-1027.3622)"
     id="icons-mk">
    <path
       d="m 3.7499999,1039.3622 17.5000001,0 0,2 -17.5000001,0 z m 5.6307,-4.6035 2.0496001,0 0,-5.8171 -2.1038001,0.434 0,-1.5794 2.0917001,-0.434 2.2063,0 0,7.3965 2.0496,0 0,1.6035 -6.2934001,0 z m 3.1275001,13.5538 c -0.4183,0 -0.7398,0.1142 -0.9645,0.3428 -0.2246,0.2285 -0.337,0.5558 -0.337,0.9819 0,0.4261 0.1124,0.7524 0.337,0.979 0.2247,0.2266 0.5462,0.3399 0.9645,0.3399 0.4145,0 0.7321,-0.1133 0.9529,-0.3399 0.2208,-0.2266 0.3312,-0.5529 0.3312,-0.979 0,-0.43 -0.1104,-0.7582 -0.3312,-0.9848 -0.2208,-0.2266 -0.5384,-0.3399 -0.9529,-0.3399 z m -1.6327,-0.7379 c -0.5267,-0.1588 -0.9238001,-0.4029 -1.1910001,-0.7321 -0.2673,-0.3293 -0.4009,-0.7399 -0.4009,-1.2318 0,-0.7321 0.273,-1.2898 0.8192001,-1.6733 0.5462,-0.3835 1.348,-0.5752 2.4054,-0.5752 1.0497,0 1.8477,0.1907 2.3938,0.5723 0.5462,0.3815 0.8193,0.9403 0.8193,1.6762 0,0.4919 -0.1346,0.9025 -0.4038,1.2318 -0.2692,0.3292 -0.6672,0.5733 -1.194,0.7321 0.5887,0.1626 1.0332,0.427 1.3334,0.7931 0.3002,0.366 0.4503,0.8279 0.4503,1.3857 0,0.8599 -0.2857,1.5097 -0.857,1.9493 -0.5714,0.4396 -1.4187,0.6595 -2.542,0.6595 -1.1272,0 -1.9784,-0.2199 -2.5536001,-0.6595 -0.5752,-0.4396 -0.8628,-1.0894 -0.8628,-1.9493 0,-0.5578 0.1501,-1.0197 0.4503,-1.3857 0.3002,-0.3661 0.7447001,-0.6305 1.3334001,-0.7931 z m 0.523,-1.7373 c 0,0.3448 0.096,0.6101 0.2876,0.796 0.1917,0.1859 0.4658,0.2789 0.8221,0.2789 0.3486,0 0.6178,-0.093 0.8076,-0.2789 0.1898,-0.1859 0.2847,-0.4512 0.2847,-0.796 0,-0.3447 -0.095,-0.6091 -0.2847,-0.7931 -0.1898,-0.184 -0.459,-0.276 -0.8076,-0.276 -0.3563,0 -0.6304,0.093 -0.8221,0.2789 -0.1918,0.186 -0.2876,0.4494 -0.2876,0.7902 z"
       id="fraction-eighth"
       style="fill:#000000;fill-opacity:1;stroke:none" />
  </g>
</svg>
