<?xml version="1.0" encoding="UTF-8" standalone="no"?>
<!-- Created with Inkscape (http://www.inkscape.org/) -->
<!-- icons-mk created by Matthias Kuhnel (2019), reuseIT, https://reuseproject.org -->

<svg
   xmlns:dc="http://purl.org/dc/elements/1.1/"
   xmlns:cc="http://creativecommons.org/ns#"
   xmlns:rdf="http://www.w3.org/1999/02/22-rdf-syntax-ns#"
   xmlns:svg="http://www.w3.org/2000/svg"
   xmlns="http://www.w3.org/2000/svg"
   version="1.1"
   width="25"
   height="25"
   id="svg">
  <defs
     id="defs" />
  <metadata
     id="metadata">
    <rdf:RDF>
      <cc:Work
         rdf:about="">
        <dc:format>image/svg+xml</dc:format>
        <dc:type
           rdf:resource="http://purl.org/dc/dcmitype/StillImage" />
        <dc:title></dc:title>
      </cc:Work>
    </rdf:RDF>
  </metadata>
  <g
     transform="translate(0,-1027.3622)"
     id="icons-mk">
    <path
       d="m 19.432187,1031.3955 a 1.0819723,1.0819723 0 0 0 -0.9049,0.6552 l -1.9656,4.4617 a 1.0819723,1.0819723 0 1 0 1.9656,0.8735 l 1.9967,-4.4616 a 1.0819723,1.0819723 0 0 0 -1.0918,-1.5288 z m -1.8721,4.4615 a 1.0938492,1.0938492 0 1 0 -0.1248,2.1841 l 4.836,0.4994 a 1.08371,1.08371 0 1 0 0.2496,-2.153 l -4.8673,-0.4993 a 1.0819723,1.0819723 0 0 0 -0.094,-0.031 z m -15.1634,5.3354 a 1.0819723,1.0819723 0 0 0 0.094,2.1528 l 4.8674,0.4993 a 1.0819723,1.0819723 0 1 0 0.2183,-2.1529 l -4.836,-0.4992 a 1.0819723,1.0819723 0 0 0 -0.3432999,0 z m 4.8674,0.4992 a 1.0819723,1.0819723 0 0 0 -0.78,0.6553 l -1.9969,4.4616 a 1.0898716,1.0898716 0 1 0 1.9969,0.8737 l 1.9656,-4.4619 a 1.0819723,1.0819723 0 0 0 -1.1856,-1.5287 z m 14.9449,-8.6113 a 1.0819723,1.0819723 0 0 0 -0.3744,0.1561 l -19.7497,11.388 a 1.0836473,1.0836473 0 0 0 1.0918,1.8721 l 19.7499,-11.3882 a 1.0819723,1.0819723 0 0 0 -0.7176,-2.028 z m 0.062,8.1121 -4.836,0.4992 a 1.0819723,1.0819723 0 1 0 0.2183,2.1529 l 4.8673,-0.4993 a 1.0836351,1.0836351 0 0 0 -0.2496,-2.1528 z m -4.8672,0.4992 a 1.0819723,1.0819723 0 0 0 -0.8424,1.5287 l 1.9656,4.4619 a 1.0897808,1.0897808 0 1 0 1.9967,-0.8737 l -1.9967,-4.4616 a 1.0819723,1.0819723 0 0 0 -1.1232,-0.6553 z m -12.0745,-10.2961 a 1.0819723,1.0819723 0 0 0 -0.8424,1.5288 l 1.9969,4.4616 a 1.0819723,1.0819723 0 1 0 1.9656,-0.8735 l -1.9656,-4.4617 a 1.0819723,1.0819723 0 0 0 -1.1545,-0.6552 z m 2.0281,4.4927 -4.8674,0.4993 a 1.0837157,1.0837157 0 1 0 0.2497,2.153 l 4.836,-0.4994 a 1.0819943,1.0819943 0 0 0 -0.2183,-2.1529 z m -4.8986,-2.8079 a 1.0819723,1.0819723 0 0 0 -0.3742,2.028 l 19.7497,11.3882 a 1.0836834,1.0836834 0 1 0 1.092,-1.8721 l -19.7499,-11.388 a 1.0819723,1.0819723 0 0 0 -0.7176,-0.1561 z m 9.9841,11.5129 a 1.0819723,1.0819723 0 0 0 -0.8113,1.7473 l 2.8705,3.9312 a 1.0827522,1.0827522 0 0 0 1.7473,-1.2791 l -2.8703,-3.9314 a 1.0819723,1.0819723 0 0 0 -0.9362,-0.468 z m -0.031,0 a 1.0819723,1.0819723 0 0 0 -0.7801,0.468 l -2.8703,3.9314 a 1.0827823,1.0827823 0 1 0 1.7474,1.2791 l 2.8704,-3.9312 a 1.0819723,1.0819723 0 0 0 -0.9674,-1.7473 z m 2.7768,-15.5689 a 1.0819723,1.0819723 0 0 0 -0.6864,0.4368 l -2.8705,3.9313 a 1.0828034,1.0828034 0 0 0 1.7475,1.2791 l 2.8703,-3.9312 a 1.0819723,1.0819723 0 0 0 -1.0609,-1.716 z m -5.7095,0 a 1.0819723,1.0819723 0 0 0 -0.7177,1.716 l 2.8703,3.9312 a 1.0828034,1.0828034 0 0 0 1.7475,-1.2791 l -2.8704,-3.9313 a 1.0819723,1.0819723 0 0 0 -1.0297,-0.4368 z m 2.9016,-1.6536 a 1.0819723,1.0819723 0 0 0 -0.9674,1.092 l 0,22.8074 a 1.09215,1.09215 0 0 0 2.1843,0 l 0,-22.8074 a 1.0819723,1.0819723 0 0 0 -1.2169,-1.092 z"
       id="frost"
       style="font-size:medium;font-style:normal;font-variant:normal;font-weight:normal;font-stretch:normal;text-indent:0;text-align:start;text-decoration:none;line-height:normal;letter-spacing:normal;word-spacing:normal;text-transform:none;direction:ltr;block-progression:tb;writing-mode:lr-tb;text-anchor:start;baseline-shift:baseline;color:#000000;fill:#000000;fill-opacity:1;stroke:none;stroke-width:2.16717267;marker:none;visibility:visible;display:inline;overflow:visible;enable-background:accumulate;font-family:Sans;-inkscape-font-specification:Sans" />
  </g>
</svg>
