<?xml version="1.0" encoding="UTF-8" standalone="no"?>
<!-- Created with Inkscape (http://www.inkscape.org/) -->
<!-- icons-mk created by Matthias Kuhnel (2019), reuseIT, https://reuseproject.org -->

<svg
   xmlns:dc="http://purl.org/dc/elements/1.1/"
   xmlns:cc="http://creativecommons.org/ns#"
   xmlns:rdf="http://www.w3.org/1999/02/22-rdf-syntax-ns#"
   xmlns:svg="http://www.w3.org/2000/svg"
   xmlns="http://www.w3.org/2000/svg"
   version="1.1"
   width="25"
   height="25"
   id="svg">
  <defs
     id="defs" />
  <metadata
     id="metadata">
    <rdf:RDF>
      <cc:Work
         rdf:about="">
        <dc:format>image/svg+xml</dc:format>
        <dc:type
           rdf:resource="http://purl.org/dc/dcmitype/StillImage" />
        <dc:title></dc:title>
      </cc:Work>
    </rdf:RDF>
  </metadata>
  <g
     transform="translate(0,-1027.3622)"
     id="icons-mk">
    <path
       d="m 12.239925,1029.3046 c -3.66363,0.082 -7.19614,2.0241 -9.16236,5.4296 -2.99597997,5.1893 -1.21698,11.8252 3.97234,14.8213 5.18932,2.9961 11.82532,1.2169 14.8214,-3.9724 2.99599,-5.1893 1.21698,-11.8252 -3.97234,-14.8213 -1.78381,-1.0299 -3.74003,-1.5002 -5.65904,-1.4572 z m 0.37922,5.4296 c 0.70064,0.018 1.40469,0.1744 2.07403,0.4766 0.16601,0.075 0.32982,0.1589 0.49103,0.2519 0.39882,0.2303 0.75734,0.5034 1.07316,0.8103 1.73851,1.6893 2.18073,4.3996 0.91296,6.5955 -1.49799,2.5946 -4.821,3.4841 -7.41565,1.9861 -2.59466,-1.498 -3.47422,-4.821 -1.97612,-7.4157 1.02986,-1.7838 2.91677,-2.7547 4.84059,-2.7047 z m -7.02233,12.586 a 1.0851749,1.0851749 0 0 0 -0.84385,0.5626 l -0.37502,0.625 a 1.0851749,1.0851749 0 0 0 0.40622,1.4689 l 3.03149,1.7501 a 1.0851749,1.0851749 0 0 0 1.46879,-0.4063 l 0.37502,-0.6251 a 1.0851749,1.0851749 0 0 0 -0.40622,-1.4687 l -3.03139,-1.7502 a 1.0851749,1.0851749 0 0 0 -0.62504,-0.1563 z m 10.90687,-18.9386 a 1.0851749,1.0851749 0 0 0 -0.75005,0.5313 l -0.34382,0.625 a 1.0851749,1.0851749 0 0 0 0.37502,1.5 l 3.03149,1.7502 a 1.0851749,1.0851749 0 0 0 1.50009,-0.4063 l 0.34372,-0.625 a 1.0851749,1.0851749 0 0 0 -0.37502,-1.4689 l -3.03139,-1.7501 a 1.0851749,1.0851749 0 0 0 -0.75004,-0.1562 z m -5.21912,-1.0001 a 1.0851749,1.0851749 0 0 0 -0.094,0.031 l -3.3752,0.9063 a 1.0851749,1.0851749 0 0 0 -0.78135,1.3126 l 0.18761,0.7188 a 1.0851749,1.0851749 0 0 0 1.34378,0.7501 l 3.37521,-0.9063 a 1.0851749,1.0851749 0 0 0 0.78135,-1.3127 l -0.18762,-0.7188 a 1.0851749,1.0851749 0 0 0 -1.25007,-0.7813 z m 5.21912,21.2201 a 1.0851749,1.0851749 0 0 0 -0.062,0.031 l -3.3752,0.9063 a 1.0851749,1.0851749 0 0 0 -0.78135,1.3127 l 0.18761,0.7187 a 1.0851749,1.0851749 0 0 0 1.34378,0.75 l 3.37521,-0.9063 a 1.0851749,1.0851749 0 0 0 0.78135,-1.3125 l -0.18762,-0.7188 a 1.0851749,1.0851749 0 0 0 -1.28177,-0.7811 z m -14.81341,-8.5631 a 1.0851749,1.0851749 0 0 0 -0.062,0.031 l -0.71883997,0.1875 a 1.0851749,1.0851749 0 0 0 -0.75005,1.3439 l 0.90635997,3.3752 a 1.0851749,1.0851749 0 0 0 1.31258,0.75 l 0.71884,-0.1876 a 1.0851749,1.0851749 0 0 0 0.75005,-1.3124 l -0.90636,-3.3753 a 1.0851749,1.0851749 0 0 0 -1.25008,-0.8126 z m 2.03143,-8.1255 a 1.0851749,1.0851749 0 0 0 -0.84385,0.5626 l -1.75011,3.0314 a 1.0851749,1.0851749 0 0 0 0.40623,1.4689 l 0.62503,0.375 a 1.0851749,1.0851749 0 0 0 1.46889,-0.4063 l 1.75011,-3.0315 a 1.0851749,1.0851749 0 0 0 -0.40623,-1.5001 l -0.62503,-0.3437 a 1.0851749,1.0851749 0 0 0 -0.62504,-0.1563 z m 18.96985,2.0627 a 1.0851749,1.0851749 0 0 0 -0.062,0.031 l -0.71884,0.1875 a 1.0851749,1.0851749 0 0 0 -0.75005,1.3126 l 0.90636,3.4064 a 1.0851749,1.0851749 0 0 0 1.31258,0.7501 l 0.71884,-0.1874 a 1.0851749,1.0851749 0 0 0 0.75004,-1.3127 l -0.90635,-3.4064 a 1.0851749,1.0851749 0 0 0 -1.25008,-0.7813 z m -0.125,8.9693 a 1.0851749,1.0851749 0 0 0 -0.75005,0.5313 l -1.75011,3.0314 a 1.0851749,1.0851749 0 0 0 0.40633,1.4689 l 0.62504,0.375 a 1.0851749,1.0851749 0 0 0 1.46879,-0.4063 l 1.7501,-3.0315 a 1.0851749,1.0851749 0 0 0 -0.37502,-1.4688 l -0.62504,-0.375 a 1.0851749,1.0851749 0 0 0 -0.75004,-0.125 z"
       id="gear"
       style="fill:#000000;fill-opacity:1;stroke:none" />
  </g>
</svg>
