<?xml version="1.0" encoding="UTF-8" standalone="no"?>
<!-- Created with Inkscape (http://www.inkscape.org/) -->
<!-- icons-mk created by Matthias Kuhnel (2019), reuseIT, https://reuseproject.org -->

<svg
   xmlns:dc="http://purl.org/dc/elements/1.1/"
   xmlns:cc="http://creativecommons.org/ns#"
   xmlns:rdf="http://www.w3.org/1999/02/22-rdf-syntax-ns#"
   xmlns:svg="http://www.w3.org/2000/svg"
   xmlns="http://www.w3.org/2000/svg"
   version="1.1"
   width="25"
   height="25"
   id="svg">
  <defs
     id="defs" />
  <metadata
     id="metadata">
    <rdf:RDF>
      <cc:Work
         rdf:about="">
        <dc:format>image/svg+xml</dc:format>
        <dc:type
           rdf:resource="http://purl.org/dc/dcmitype/StillImage" />
        <dc:title></dc:title>
      </cc:Work>
    </rdf:RDF>
  </metadata>
  <g
     transform="translate(0,-1027.3622)"
     id="icons-mk">
    <path
       d="m 12.499877,1036.3366 c -0.481,-0.2988 -0.789,-1.6529 -0.657,-2.2411 0.132,-0.5882 1.131,-1.5301 0.816,-1.7471 -0.315,-0.2169 -0.972,0.9795 -1.242,0.9322 -0.27,-0.047 -0.02,-1.4294 -0.448,-1.4739 -0.426,-0.044 -0.135,1.4419 -0.266,1.6405 -0.13,0.1986 -1.0949997,-0.8034 -1.3739997,-0.5252 -0.279,0.2782 1.1399997,0.8924 1.2439997,1.405 0.105,0.5125 0.69,1.8949 0.705,2.3429 0.01,0.4481 -5.6769997,1.6368 -7.9739997,2.8328 -2.297,1.1961 -3.15999997,1.8591 -3.29599997,3.6496 -0.137,1.7906 1.59599997,4.2554 3.15599997,4.667 1.562,0.4116 2.804,-0.526 3.212,-1.5183 0.409,-0.9924 0.132,-2.295 -0.5,-2.2984 -0.632,0 -0.312,1.7927 -0.83,2.3724 -0.519,0.5798 -1.21,0.6092 -2.075,0.1112 -0.865,-0.4981 -2.07499997,-2.0804 -1.713,-3.4821 0.363,-1.4016 2.307,-2.1693 3.899,-2.6671 1.59,-0.4976 3.791,-0.4596 5.2219997,-0.074 1.432,0.3858 2.587,1.2306 3.123,1.9941 0.536,0.7634 0.561,1.1877 0.397,1.7844 -0.165,0.5967 -1.582,0.8854 -1.297,1.3705 0.286,0.4852 1.017,-0.6409 1.445,-0.3704 0.428,0.2705 -0.236,1.4787 0.296,1.5188 0.532,0.04 0.07,-1.4213 0.556,-1.5558 0.489,-0.1345 0.654,1.2226 1.074,0.8889 0.419,-0.3334 -0.613,-0.8136 -0.815,-1.6298 -0.203,-0.8162 -0.362,-2.2404 0.08,-2.9476 0.445,-0.7072 2.085,-0.5941 2.863,-0.1811 0.777,0.4129 2.038,1.787 2.351,2.6842 0.313,0.8973 -0.929,1.451 -0.481,1.741 0.447,0.2899 0.601,-0.8595 1.074,-0.889 0.473,-0.03 0.874,1.1207 1.222,0.7779 0.347,-0.343 -0.857,-1.0295 -0.673,-1.3381 0.184,-0.3086 1.38,0.2337 1.414,-0.2548 0.03,-0.4884 -0.634,-0.045 -1.297,-0.4815 -0.663,-0.4364 -2.092,-1.8027 -1.809,-2.9949 0.283,-1.192 2.599,-0.5568 3.466,-0.8751 0.866,-0.3181 1.662,-0.6949 1.631,-1.6276 -0.03,-0.9328 -1.31,-1.3649 -2.117,-1.6489 -0.807,-0.2842 -2.479,-0.2767 -2.437,-0.6547 0.04,-0.3781 0.613,-0.8833 1.19,-1.1408 0.578,-0.2574 1.161,0.011 1.116,-0.4593 -0.05,-0.4702 -1.176,0.1577 -1.494,-0.1681 -0.318,-0.3257 0.959,-1.1264 0.582,-1.3658 -0.378,-0.2392 -0.803,0.8573 -1.145,0.8163 -0.341,-0.041 -0.713,-1.2076 -1.05,-1.0325 -0.337,0.1752 -0.08,0.2209 0.417,1.446 0.495,1.2252 -1.187,2.3517 -1.588,2.3906 -0.401,0.039 -5.495,0.5754 -5.976,0.2768 z"
       id="gecko"
       style="fill:#000000;fill-opacity:1;stroke:none" />
  </g>
</svg>
