<?xml version="1.0" encoding="UTF-8" standalone="no"?>
<!-- Created with Inkscape (http://www.inkscape.org/) -->
<!-- icons-mk created by Matthias Kuhnel (2019), reuseIT, https://reuseproject.org -->

<svg
   xmlns:dc="http://purl.org/dc/elements/1.1/"
   xmlns:cc="http://creativecommons.org/ns#"
   xmlns:rdf="http://www.w3.org/1999/02/22-rdf-syntax-ns#"
   xmlns:svg="http://www.w3.org/2000/svg"
   xmlns="http://www.w3.org/2000/svg"
   version="1.1"
   width="25"
   height="25"
   id="svg">
  <defs
     id="defs" />
  <metadata
     id="metadata">
    <rdf:RDF>
      <cc:Work
         rdf:about="">
        <dc:format>image/svg+xml</dc:format>
        <dc:type
           rdf:resource="http://purl.org/dc/dcmitype/StillImage" />
        <dc:title></dc:title>
      </cc:Work>
    </rdf:RDF>
  </metadata>
  <g
     transform="translate(0,-1027.3622)"
     id="icons-mk">
    <path
       d="m 8.3479998,1027.3651 c -0.322,-0.02 -0.67,0.062 -0.959,0.2478 -0.349,0.2233 -0.604,0.5931 -0.713,0.9603 -0.109,0.3672 -0.102,0.7134 -0.03,1.0531 0.138,0.6796 0.486,1.3291 0.868,1.9205 0.232,0.3623 0.472,0.6886 0.712,0.9912 l -5.886,0 -0.744,0 0,0.7434 0,4.9561 0,0.7434 0.744,0 0.247,0 0,12.638 0,0.7434 0.745,0 18.3360002,0 0.744,0 0,-0.7434 0,-12.638 0.247,0 0.745,0 0,-0.7434 0,-4.9561 0,-0.7434 -0.745,0 -5.886,0 c 0.24,-0.3026 0.48,-0.6289 0.713,-0.9912 0.381,-0.5914 0.729,-1.2409 0.867,-1.9205 0.07,-0.3397 0.08,-0.6859 -0.03,-1.0531 -0.109,-0.3672 -0.364,-0.737 -0.713,-0.9603 -0.386,-0.2475 -0.871,-0.2843 -1.27,-0.1858 -0.398,0.099 -0.738,0.3093 -1.053,0.5575 -0.626,0.4966 -1.169,1.2019 -1.673,1.9205 -0.627,0.8966 -0.802,1.2785 -1.115,1.8585 -0.312,-0.58 -0.487,-0.9619 -1.115,-1.8585 -0.503,-0.7186 -1.046,-1.4239 -1.6720002,-1.9205 -0.314,-0.2482 -0.655,-0.459 -1.054,-0.5575 -0.1,-0.025 -0.202,-0.055 -0.31,-0.062 z m -0.154,1.5178 c 0.04,-0.026 0.03,-0.023 0.123,0 0.09,0.023 0.257,0.083 0.465,0.2478 0.417,0.3301 0.934,0.9534 1.3940002,1.6107 0.436,0.6222 0.825,1.2764 1.115,1.7966 l -1.115,0 c -0.174,-0.1924 -0.8190002,-0.9032 -1.3940002,-1.7966 -0.329,-0.5107 -0.608,-1.0415 -0.682,-1.3938 -0.04,-0.1762 -0.02,-0.3182 0,-0.3717 0.02,-0.053 0.01,-0.043 0.09,-0.093 z m 8.4870002,0 c 0.09,-0.023 0.08,-0.026 0.124,0 0.08,0.05 0.08,0.039 0.09,0.093 0.02,0.053 0.04,0.1955 0,0.3717 -0.07,0.3524 -0.353,0.8832 -0.683,1.3939 -0.573,0.8899 -1.216,1.5999 -1.393,1.7966 l -1.115,0 c 0.291,-0.5202 0.68,-1.1745 1.115,-1.7966 0.46,-0.6573 0.978,-1.2806 1.393,-1.6107 0.21,-0.165 0.373,-0.225 0.465,-0.2478 z m -13.5980002,5.1419 8.6730002,0 0,3.4693 -8.4250002,0 -0.248,0 0,-3.4693 z m 10.1600002,0 8.673,0 0,3.4693 -8.673,0 0,-3.4693 z m -9.1690002,4.9561 7.6820002,0 0,11.8946 -7.6820002,0 0,-11.8946 z m 9.1690002,0 7.682,0 0,11.8946 -7.682,0 0,-11.8946 z"
       id="gift"
       style="font-size:medium;font-style:normal;font-variant:normal;font-weight:normal;font-stretch:normal;text-indent:0;text-align:start;text-decoration:none;line-height:normal;letter-spacing:normal;word-spacing:normal;text-transform:none;direction:ltr;block-progression:tb;writing-mode:lr-tb;text-anchor:start;baseline-shift:baseline;color:#000000;fill:#000000;fill-opacity:1;stroke:none;stroke-width:1.5;marker:none;visibility:visible;display:inline;overflow:visible;enable-background:accumulate;font-family:Sans;-inkscape-font-specification:Sans" />
  </g>
</svg>
