<?xml version="1.0" encoding="UTF-8" standalone="no"?>
<!-- Created with Inkscape (http://www.inkscape.org/) -->
<!-- icons-mk created by Matthias Kuhnel (2019), reuseIT, https://reuseproject.org -->

<svg
   xmlns:dc="http://purl.org/dc/elements/1.1/"
   xmlns:cc="http://creativecommons.org/ns#"
   xmlns:rdf="http://www.w3.org/1999/02/22-rdf-syntax-ns#"
   xmlns:svg="http://www.w3.org/2000/svg"
   xmlns="http://www.w3.org/2000/svg"
   version="1.1"
   width="25"
   height="25"
   id="svg">
  <defs
     id="defs" />
  <metadata
     id="metadata">
    <rdf:RDF>
      <cc:Work
         rdf:about="">
        <dc:format>image/svg+xml</dc:format>
        <dc:type
           rdf:resource="http://purl.org/dc/dcmitype/StillImage" />
        <dc:title></dc:title>
      </cc:Work>
    </rdf:RDF>
  </metadata>
  <g
     transform="translate(0,-1027.3622)"
     id="icons-mk">
    <path
       d="m 25,1038.6848 -1.747,0.9328 -2.57,-4.8134 1.746,-0.9329 z m -22.372,-4.9453 1.746,1.0769 -2.629,4.7158 L 1.4999998e-8,1038.4553 z m 17.359,8.1983 2.533,-1.881 -2.608,-4.8153 c 0,0 -0.728,0.6018 -1.556,0.4764 -0.827,-0.1252 -3.436,-1.8558 -4.012,-1.8558 -0.578,0 -3.035,0.9279 -3.035,0.9279 0,0 -3.863,2.1317 -3.035,3.1851 0.828,1.0533 4.013,-1.7054 4.765,-1.4545 0.753,0.2508 6.948,5.4172 6.948,5.4172 z m -7.935,3.6585 0.536,-1.3732 c 0,0 1.326,1.0345 0.809,1.5612 -0.518,0.5266 -1.345,-0.188 -1.345,-0.188 z m -9.583,-5.6148 2.445,1.5047 c 0,0 1.166,-1.4294 2.144,-0.075 1.843,-0.5266 1.411,0.1318 1.994,0.3385 1.806,-0.5454 1.768,0.5268 2.031,0.7525 0.264,0.2257 1.467,-0.4327 1.618,1.1662 2.295,1.8432 2.709,1.3166 2.709,1.3166 0,0 0.997,-0.7522 -1.731,-2.4076 -2.52,-1.8558 -1.781,-1.8684 -1.781,-1.8684 0,0 0.1,-0.2007 2.12,1.4923 2.849,2.5957 3.461,1.9562 3.461,1.9562 0,0 1.203,-0.5894 -2.258,-2.8589 -2.728,-1.975 -2.182,-2.0315 -2.182,-2.0315 0,0 -0.245,-0.5642 2.445,1.7306 3.395,2.8495 3.95,2.1819 3.95,2.1819 0,0 1.029,-0.6896 -2.896,-3.3479 -3.085,-2.2761 -2.825,-2.3795 -3.386,-2.6709 -0.502,-0.1253 -4.062,2.163 -5.115,1.2038 -1.261,-1.1475 0.413,-1.8056 1.165,-2.5957 0.904,-0.602 2.295,-1.6175 -0.489,-0.677 -1.392,0.652 -1.956,0.602 -1.956,0.602 l -1.617,-0.4514 -2.671,4.7392 z m 14.54,0.9165 m -10.504,1.7312 c -0.09,0.3098 -0.442,0.4795 -0.778,0.3779 l 0,0 c -0.335,-0.1014 -0.531,-0.4348 -0.438,-0.7448 l 0.24,-0.7957 c 0.09,-0.3102 0.441,-0.4796 0.777,-0.3779 l 0,0 c 0.336,0.101 0.532,0.4346 0.439,0.7449 l -0.24,0.7956 z m 1.699,0.8076 c -0.118,0.3901 -0.485,0.6248 -0.822,0.5234 l 0,0 c -0.335,-0.1014 -0.512,-0.5 -0.394,-0.8903 l 0.301,-1.0017 c 0.118,-0.3903 0.486,-0.6251 0.822,-0.5233 l 0,0 c 0.337,0.1011 0.514,0.4998 0.396,0.8903 l -0.303,1.0016 z m 3.523,1.8017 c -0.152,0.5031 -0.547,0.8294 -0.883,0.728 l 0,0 c -0.336,-0.1014 -0.486,-0.5916 -0.333,-1.0949 l 0.388,-1.2914 c 0.152,-0.5034 0.548,-0.8297 0.883,-0.7281 l 0,0 c 0.337,0.1011 0.486,0.5912 0.335,1.0947 l -0.39,1.2917 z m -1.755,-0.9531 c -0.152,0.5031 -0.548,0.8294 -0.884,0.728 l 0,0 c -0.336,-0.1015 -0.484,-0.5916 -0.333,-1.0949 l 0.389,-1.2915 c 0.152,-0.5033 0.547,-0.8296 0.884,-0.728 l 0,0 c 0.335,0.1011 0.485,0.5912 0.333,1.0947 l -0.389,1.2917 z"
       id="handshake"
       style="fill:#000000;fill-opacity:1" />
  </g>
</svg>
