<?xml version="1.0" encoding="UTF-8" standalone="no"?>
<!-- Created with Inkscape (http://www.inkscape.org/) -->
<!-- icons-mk created by Matthias Kuhnel (2019), reuseIT, https://reuseproject.org -->

<svg
   xmlns:dc="http://purl.org/dc/elements/1.1/"
   xmlns:cc="http://creativecommons.org/ns#"
   xmlns:rdf="http://www.w3.org/1999/02/22-rdf-syntax-ns#"
   xmlns:svg="http://www.w3.org/2000/svg"
   xmlns="http://www.w3.org/2000/svg"
   version="1.1"
   width="25"
   height="25"
   id="svg">
  <defs
     id="defs" />
  <metadata
     id="metadata">
    <rdf:RDF>
      <cc:Work
         rdf:about="">
        <dc:format>image/svg+xml</dc:format>
        <dc:type
           rdf:resource="http://purl.org/dc/dcmitype/StillImage" />
        <dc:title></dc:title>
      </cc:Work>
    </rdf:RDF>
  </metadata>
  <g
     transform="translate(0,-1027.3622)"
     id="icons-mk">
    <path
       d="m 11.968533,1027.3782 c -0.2967,0.06 -0.9209,0.3041 -2.0613005,0.8432 -4.5611997,2.1582 -5.2513997,4.3987 -5.8399997,6.09 -0.4933,1.4173 0.2164,5.0246 0.4684,6.2148 -0.2686,-0.041 -0.5586,-0.065 -0.7183,0.031 -0.3007,0.1823 -0.026,2.222 0.8432,2.5921 2e-4,0 0.031,0 0.031,0 0.5396,5.1951 3.8159,9.213 7.8076002,9.213 3.991799,0 7.294599,-4.018 7.838899,-9.213 1e-4,0 0.031,0 0.031,0 0.852,-0.395 1.1102,-2.4113 0.812,-2.5921 -0.1815,-0.11 -0.5178,-0.085 -0.812,-0.031 0,-0.031 0,-0.063 0,-0.094 0.3383,-1.7345 0.8467,-5.2479 -0.1249,-7.1206 -1.3232,-2.5506 -6.558399,-4.2161 -6.558399,-4.2161 0,0 -0.05,-1.0998 -0.6871,-1.4678 -0.3802,-0.2196 -1.0801,0.1653 -1.5928,0.5309 0.5173,-0.4075 1.1043,-0.8897 0.5622,-0.7808 z"
       id="head"
       style="fill:#000000;fill-opacity:1" />
  </g>
</svg>
