<?xml version="1.0" encoding="UTF-8" standalone="no"?>
<!-- Created with Inkscape (http://www.inkscape.org/) -->
<!-- icons-mk created by Matthias Kuhnel (2019), reuseIT, https://reuseproject.org -->

<svg
   xmlns:dc="http://purl.org/dc/elements/1.1/"
   xmlns:cc="http://creativecommons.org/ns#"
   xmlns:rdf="http://www.w3.org/1999/02/22-rdf-syntax-ns#"
   xmlns:svg="http://www.w3.org/2000/svg"
   xmlns="http://www.w3.org/2000/svg"
   version="1.1"
   width="25"
   height="25"
   id="svg">
  <defs
     id="defs" />
  <metadata
     id="metadata">
    <rdf:RDF>
      <cc:Work
         rdf:about="">
        <dc:format>image/svg+xml</dc:format>
        <dc:type
           rdf:resource="http://purl.org/dc/dcmitype/StillImage" />
        <dc:title></dc:title>
      </cc:Work>
    </rdf:RDF>
  </metadata>
  <g
     transform="translate(0,-1027.3622)"
     id="icons-mk">
    <path
       d="m 6.2738198,1027.3622 c -4.6067,0 -8.349,3.1301 -3.625,11.3125 4.7243,8.1824 9.8438002,13.6875 9.8438002,13.6875 0,0 5.2176,-5.6206 9.875,-13.6875 4.6575,-8.0669 1.0422,-11.3125 -3.625,-11.3125 -4.6671,0 -6.25,5.5938 -6.25,5.5938 0,0 -1.612,-5.5938 -6.2188002,-5.5938 z m 1.3126,2.2188 c 2.6070002,0 3.9252002,2.1328 4.5000002,3.5 -0.4461,0.1626 -0.75,0.5601 -0.75,1.0624 0,0.6424 0.5138,1.1563 1.1562,1.1563 0.6423,0 1.1562,-0.5139 1.1562,-1.1563 0,-0.4926 -0.3173,-0.893 -0.75,-1.0624 0.6479,-1.3675 2.0814,-3.5 4.7188,-3.5 3.8546,0 6.2841,2.6812 2.4375,9.3437 -3.8466,6.6625 -7.5937,11.1875 -7.5937,11.1875 0,0 -3.6921002,-4.4296 -7.5938002,-11.1875 -3.90169999,-6.7579 -1.086,-9.3437 2.7188,-9.3437 z m -0.2188,3.4062 c -0.6424,0 -1.1562,0.514 -1.1562,1.1562 0,0.6424 0.5138,1.1563 1.1562,1.1563 0.6423,0 1.1562,-0.5139 1.1562,-1.1563 0,-0.6422 -0.5139,-1.1562 -1.1562,-1.1562 z m 2.5625,0 c -0.6424,0 -1.1563,0.514 -1.1563,1.1562 0,0.6424 0.5139,1.1563 1.1563,1.1563 0.6423002,0 1.1563002,-0.5139 1.1563002,-1.1563 0,-0.6422 -0.514,-1.1562 -1.1563002,-1.1562 z m 5.1250002,0 c -0.6424,0 -1.1875,0.514 -1.1875,1.1562 0,0.6424 0.5451,1.1563 1.1875,1.1563 0.6423,0 1.1563,-0.5139 1.1563,-1.1563 0,-0.6422 -0.514,-1.1562 -1.1563,-1.1562 z m 2.5625,0 c -0.6424,0 -1.1875,0.514 -1.1875,1.1562 0,0.6424 0.5451,1.1563 1.1875,1.1563 0.6423,0 1.1562,-0.5139 1.1562,-1.1563 0,-0.6422 -0.5139,-1.1562 -1.1562,-1.1562 z m -8.8438002,2.5625 c -0.6424,0 -1.1874,0.514 -1.1874,1.1563 0,0.6423 0.545,1.1562 1.1874,1.1562 0.6424,0 1.1563,-0.5139 1.1563,-1.1562 0,-0.6423 -0.514,-1.1563 -1.1563,-1.1563 z m 2.5626002,0 c -0.6425,0 -1.1876,0.514 -1.1876,1.1563 0,0.6423 0.5451,1.1562 1.1876,1.1562 0.6423,0 1.1562,-0.5139 1.1562,-1.1562 0,-0.6423 -0.514,-1.1563 -1.1562,-1.1563 z m 2.5312,0 c -0.6424,0 -1.1562,0.514 -1.1562,1.1563 0,0.6423 0.5138,1.1562 1.1562,1.1562 0.6423,0 1.1875,-0.5139 1.1875,-1.1562 0,-0.6423 -0.5452,-1.1563 -1.1875,-1.1563 z m 2.5625,0 c -0.6424,0 -1.1563,0.514 -1.1563,1.1563 0,0.6423 0.5139,1.1562 1.1563,1.1562 0.6423,0 1.1875,-0.5139 1.1875,-1.1562 0,-0.6423 -0.5452,-1.1563 -1.1875,-1.1563 z m -6.5000002,2.5625 c -0.6424,0 -1.1563,0.514 -1.1563,1.1562 0,0.6424 0.5139,1.1563 1.1563,1.1563 0.6423002,0 1.1563002,-0.5139 1.1563002,-1.1563 0,-0.6422 -0.514,-1.1562 -1.1563002,-1.1562 z m 2.5625002,0 c -0.6424,0 -1.1562,0.514 -1.1562,1.1562 0,0.6424 0.5138,1.1563 1.1562,1.1563 0.6423,0 1.1562,-0.5139 1.1562,-1.1563 0,-0.6422 -0.5139,-1.1562 -1.1562,-1.1562 z m 2.5625,0 c -0.6424,0 -1.1875,0.514 -1.1875,1.1562 0,0.6424 0.5451,1.1563 1.1875,1.1563 0.6423,0 1.1563,-0.5139 1.1563,-1.1563 0,-0.6422 -0.514,-1.1562 -1.1563,-1.1562 z m -3.7187,2.5312 c -0.6425,0 -1.1876,0.5453 -1.1876,1.1876 0,0.6423 0.5451,1.1562 1.1876,1.1562 0.6423,0 1.1562,-0.5139 1.1562,-1.1562 0,-0.6423 -0.514,-1.1876 -1.1562,-1.1876 z m 2.5312,0 c -0.6424,0 -1.1562,0.5453 -1.1562,1.1876 0,0.6423 0.5138,1.1562 1.1562,1.1562 0.6423,0 1.1875,-0.5139 1.1875,-1.1562 0,-0.6423 -0.5452,-1.1876 -1.1875,-1.1876 z m -1.375,2.5626 c -0.6424,0 -1.1562,0.5452 -1.1562,1.1874 0,0.6424 0.5138,1.1563 1.1562,1.1563 0.6423,0 1.1562,-0.5139 1.1562,-1.1563 0,-0.6422 -0.5139,-1.1874 -1.1562,-1.1874 z"
       id="heart-grapes"
       style="fill:#000000;fill-opacity:1;stroke:none" />
  </g>
</svg>
