<?xml version="1.0" encoding="UTF-8" standalone="no"?>
<!-- Created with Inkscape (http://www.inkscape.org/) -->
<!-- icons-mk created by Matthias Kuhnel (2019), reuseIT, https://reuseproject.org -->

<svg
   xmlns:dc="http://purl.org/dc/elements/1.1/"
   xmlns:cc="http://creativecommons.org/ns#"
   xmlns:rdf="http://www.w3.org/1999/02/22-rdf-syntax-ns#"
   xmlns:svg="http://www.w3.org/2000/svg"
   xmlns="http://www.w3.org/2000/svg"
   version="1.1"
   width="25"
   height="25"
   id="svg">
  <defs
     id="defs" />
  <metadata
     id="metadata">
    <rdf:RDF>
      <cc:Work
         rdf:about="">
        <dc:format>image/svg+xml</dc:format>
        <dc:type
           rdf:resource="http://purl.org/dc/dcmitype/StillImage" />
        <dc:title></dc:title>
      </cc:Work>
    </rdf:RDF>
  </metadata>
  <g
     transform="translate(0,-1027.3622)"
     id="icons-mk">
    <path
       d="m 12.509144,1027.6278 c -4.2379102,3.7889 -8.5020622,7.5574 -12.5091442,11.5948 l 1.755669,0.018 0,12.6737 c 0,0.1 0.05255,0.1829 0.128018,0.1829 l 8.2479882,0 c 0.07548,0 0.146306,-0.083 0.146306,-0.1829 l 0,-5.4499 4.462327,0 0,5.4499 c 0,0.1 0.05255,0.1829 0.128017,0.1829 l 8.247988,0 c 0.07548,0 0.128017,-0.083 0.128017,-0.1829 l 0,-12.4909 1.75567,0.018 c -1.498223,-1.5 -2.985925,-2.9988 -4.498904,-4.4806 l 0,-4.1148 c 0,-0.033 -0.0088,-0.055 -0.03657,-0.055 l -3.054133,0 c -0.02784,0 -0.03657,0.022 -0.03657,0.055 l 0,1.1338 c -1.587946,-1.4871 -3.19074,-2.9538 -4.864667,-4.3525 z"
       id="home"
       style="fill:#000000;fill-opacity:1;fill-rule:nonzero;stroke:none" />
  </g>
</svg>
