<?xml version="1.0" encoding="UTF-8" standalone="no"?>
<!-- Created with Inkscape (http://www.inkscape.org/) -->
<!-- icons-mk created by Matthias Kuhnel (2019), reuseIT, https://reuseproject.org -->

<svg
   xmlns:dc="http://purl.org/dc/elements/1.1/"
   xmlns:cc="http://creativecommons.org/ns#"
   xmlns:rdf="http://www.w3.org/1999/02/22-rdf-syntax-ns#"
   xmlns:svg="http://www.w3.org/2000/svg"
   xmlns="http://www.w3.org/2000/svg"
   version="1.1"
   width="25"
   height="25"
   id="svg">
  <defs
     id="defs" />
  <metadata
     id="metadata">
    <rdf:RDF>
      <cc:Work
         rdf:about="">
        <dc:format>image/svg+xml</dc:format>
        <dc:type
           rdf:resource="http://purl.org/dc/dcmitype/StillImage" />
        <dc:title></dc:title>
      </cc:Work>
    </rdf:RDF>
  </metadata>
  <g
     transform="translate(0,-1027.3622)"
     id="icons-mk">
    <path
       d="m 7.5061,1027.3622 c -0.6267,0 -1.1335,0.5069 -1.1335,1.1336 0,0.6267 0.5068,1.1336 1.1335,1.1336 0.6267,0 1.1337,-0.5069 1.1337,-1.1336 0,-0.6267 -0.507,-1.1336 -1.1337,-1.1336 z m 2.5124,0 c -0.6269,0 -1.1643,0.5069 -1.1643,1.1336 0,0.6267 0.5374,1.1336 1.1643,1.1336 0.6266,0 1.1335,-0.5069 1.1335,-1.1336 0,-0.6267 -0.5069,-1.1336 -1.1335,-1.1336 z m 2.4816,0 c -0.6268,0 -1.1336,0.5069 -1.1336,1.1336 0,0.6267 0.5068,1.1336 1.1336,1.1336 0.6266,0 1.1335,-0.5069 1.1335,-1.1336 0,-0.6267 -0.5069,-1.1336 -1.1335,-1.1336 z m 2.4815,0 c -0.6267,0 -1.1335,0.5069 -1.1335,1.1336 0,0.6267 0.5068,1.1336 1.1335,1.1336 0.6267,0 1.1643,-0.5069 1.1643,-1.1336 0,-0.6267 -0.5376,-1.1336 -1.1643,-1.1336 z m 2.5124,0 c -0.6269,0 -1.1337,0.5069 -1.1337,1.1336 0,0.6267 0.5068,1.1336 1.1337,1.1336 0.6265,0 1.1335,-0.5069 1.1335,-1.1336 0,-0.6267 -0.507,-1.1336 -1.1335,-1.1336 z m -8.6398,2.4816 c -0.6268,0 -1.1336,0.5069 -1.1336,1.1336 0,0.6267 0.5068,1.1336 1.1336,1.1336 0.6266,0 1.1643,-0.5069 1.1643,-1.1336 0,-0.6267 -0.5377,-1.1336 -1.1643,-1.1336 z m 2.5123,0 c -0.6268,0 -1.1336,0.5069 -1.1336,1.1336 0,0.6267 0.5068,1.1336 1.1336,1.1336 0.6266,0 1.1336,-0.5069 1.1336,-1.1336 0,-0.6267 -0.507,-1.1336 -1.1336,-1.1336 z m 2.4816,0 c -0.6268,0 -1.1335,0.5069 -1.1335,1.1336 0,0.6267 0.5067,1.1336 1.1335,1.1336 0.6267,0 1.1335,-0.5069 1.1335,-1.1336 0,-0.6267 -0.5068,-1.1336 -1.1335,-1.1336 z m 2.5122,0 c -0.6268,0 -1.1336,0.5069 -1.1336,1.1336 0,0.6267 0.5069,1.1336 1.1336,1.1336 0.6267,0 1.1337,-0.5069 1.1337,-1.1336 0,-0.6267 -0.507,-1.1336 -1.1337,-1.1336 z m -6.3418,2.5123 c -0.6269,0 -1.1643,0.5069 -1.1643,1.1336 0,0.6266 0.5373,1.1335 1.1643,1.1335 0.6266,0 1.1335,-0.5069 1.1335,-1.1335 0,-0.6267 -0.5069,-1.1336 -1.1335,-1.1336 z m 2.4816,0 c -0.6269,0 -1.1336,0.5069 -1.1336,1.1336 0,0.6266 0.5067,1.1335 1.1336,1.1335 0.6266,0 1.1335,-0.5069 1.1335,-1.1335 0,-0.6267 -0.5069,-1.1336 -1.1335,-1.1336 z m 2.4814,0 c -0.6267,0 -1.1335,0.5069 -1.1335,1.1336 0,0.6266 0.5068,1.1335 1.1335,1.1335 0.6268,0 1.1643,-0.5069 1.1643,-1.1335 0,-0.6267 -0.5375,-1.1336 -1.1643,-1.1336 z m -3.615,2.4816 c -0.6269,0 -1.1337,0.507 -1.1337,1.1335 0,0.6268 0.5068,1.1336 1.1337,1.1336 0.6266,0 1.1335,-0.5069 1.1335,-1.1336 0,-0.6266 -0.5069,-1.1335 -1.1335,-1.1335 z m 2.4815,0 c -0.6268,0 -1.1335,0.507 -1.1335,1.1335 0,0.6268 0.5067,1.1336 1.1335,1.1336 0.6268,0 1.1335,-0.5069 1.1335,-1.1336 0,-0.6266 -0.5067,-1.1335 -1.1335,-1.1335 z m -1.348,2.5122 c -0.6268,0 -1.1335,0.507 -1.1335,1.1337 0,0.6266 0.5067,1.1335 1.1335,1.1335 0.6266,0 1.1335,-0.507 1.1335,-1.1335 0,-0.6268 -0.5069,-1.1337 -1.1335,-1.1337 z m 0,2.7574 c -0.6268,0 -1.1335,0.5069 -1.1335,1.1335 0,0.6267 0.5067,1.1337 1.1335,1.1337 0.6266,0 1.1335,-0.5069 1.1335,-1.1337 0,-0.6265 -0.5069,-1.1335 -1.1335,-1.1335 z m -1.1335,2.4816 c -0.6269,0 -1.1337,0.5069 -1.1337,1.1336 0,0.6267 0.5068,1.1336 1.1337,1.1336 0.6266,0 1.1335,-0.5069 1.1335,-1.1336 0,-0.6267 -0.5069,-1.1336 -1.1335,-1.1336 z m 2.4815,0 c -0.6268,0 -1.1335,0.5069 -1.1335,1.1336 0,0.6267 0.5067,1.1336 1.1335,1.1336 0.6268,0 1.1335,-0.5069 1.1335,-1.1336 0,-0.6267 -0.5067,-1.1336 -1.1335,-1.1336 z m -3.8296,2.5123 c -0.6269,0 -1.1643,0.5069 -1.1643,1.1335 0,0.6267 0.5374,1.1336 1.1643,1.1336 0.6266,0 1.1335,-0.5069 1.1335,-1.1336 0,-0.6266 -0.5069,-1.1335 -1.1335,-1.1335 z m 2.4816,0 c -0.6268,0 -1.1335,0.5069 -1.1335,1.1335 0,0.6267 0.5067,1.1336 1.1335,1.1336 0.6266,0 1.1335,-0.5069 1.1335,-1.1336 0,-0.6266 -0.5069,-1.1335 -1.1335,-1.1335 z m 2.4815,0 c -0.6267,0 -1.1335,0.5069 -1.1335,1.1335 0,0.6267 0.5068,1.1336 1.1335,1.1336 0.6268,0 1.1643,-0.5069 1.1643,-1.1336 0,-0.6266 -0.5375,-1.1335 -1.1643,-1.1335 z m -6.1274,2.4816 c -0.6267,0 -1.1335,0.5069 -1.1335,1.1335 0,0.6267 0.5068,1.1336 1.1335,1.1336 0.6266,0 1.1643,-0.5068 1.1643,-1.1336 0,-0.6266 -0.5377,-1.1335 -1.1643,-1.1335 z m 2.5124,0 c -0.6269,0 -1.1337,0.5069 -1.1337,1.1335 0,0.6267 0.5068,1.1336 1.1337,1.1336 0.6266,0 1.1335,-0.5068 1.1335,-1.1336 0,-0.6266 -0.5069,-1.1335 -1.1335,-1.1335 z m 2.4815,0 c -0.6268,0 -1.1335,0.5069 -1.1335,1.1335 0,0.6267 0.5067,1.1336 1.1335,1.1336 0.6268,0 1.1335,-0.5068 1.1335,-1.1336 0,-0.6266 -0.5067,-1.1335 -1.1335,-1.1335 z m 2.5122,0 c -0.6267,0 -1.1336,0.5069 -1.1336,1.1335 0,0.6267 0.5069,1.1336 1.1336,1.1336 0.6267,0 1.1337,-0.5068 1.1337,-1.1336 0,-0.6266 -0.507,-1.1335 -1.1337,-1.1335 z m -8.8542,2.5122 c -0.6267,0 -1.1335,0.5069 -1.1335,1.1337 0,0.6265 0.5068,1.1335 1.1335,1.1335 0.6267,0 1.1337,-0.5069 1.1337,-1.1335 0,-0.6267 -0.507,-1.1337 -1.1337,-1.1337 z m 2.5124,0 c -0.6269,0 -1.1643,0.5069 -1.1643,1.1337 0,0.6265 0.5374,1.1335 1.1643,1.1335 0.6266,0 1.1335,-0.5069 1.1335,-1.1335 0,-0.6267 -0.5069,-1.1337 -1.1335,-1.1337 z m 2.4816,0 c -0.6268,0 -1.1336,0.5069 -1.1336,1.1337 0,0.6265 0.5068,1.1335 1.1336,1.1335 0.6266,0 1.1335,-0.5069 1.1335,-1.1335 0,-0.6267 -0.5069,-1.1337 -1.1335,-1.1337 z m 2.4815,0 c -0.6267,0 -1.1335,0.5069 -1.1335,1.1337 0,0.6265 0.5068,1.1335 1.1335,1.1335 0.6267,0 1.1643,-0.5069 1.1643,-1.1335 0,-0.6267 -0.5376,-1.1337 -1.1643,-1.1337 z m 2.5124,0 c -0.6269,0 -1.1337,0.5069 -1.1337,1.1337 0,0.6265 0.5068,1.1335 1.1337,1.1335 0.6265,0 1.1335,-0.5069 1.1335,-1.1335 0,-0.6267 -0.507,-1.1337 -1.1335,-1.1337 z"
       id="hourglass-balls"
       style="fill:#000000;fill-opacity:1;fill-rule:evenodd;stroke:none" />
  </g>
</svg>
