<?xml version="1.0" encoding="UTF-8" standalone="no"?>
<!-- Created with Inkscape (http://www.inkscape.org/) -->
<!-- icons-mk created by Matthias Kuhnel (2019), reuseIT, https://reuseproject.org -->

<svg
   xmlns:dc="http://purl.org/dc/elements/1.1/"
   xmlns:cc="http://creativecommons.org/ns#"
   xmlns:rdf="http://www.w3.org/1999/02/22-rdf-syntax-ns#"
   xmlns:svg="http://www.w3.org/2000/svg"
   xmlns="http://www.w3.org/2000/svg"
   version="1.1"
   width="25"
   height="25"
   id="svg">
  <defs
     id="defs" />
  <metadata
     id="metadata">
    <rdf:RDF>
      <cc:Work
         rdf:about="">
        <dc:format>image/svg+xml</dc:format>
        <dc:type
           rdf:resource="http://purl.org/dc/dcmitype/StillImage" />
        <dc:title></dc:title>
      </cc:Work>
    </rdf:RDF>
  </metadata>
  <g
     transform="translate(0,-1027.3622)"
     id="icons-mk">
    <path
       d="m 12.188327,1027.3698 c -0.1508,0.03 -0.4821,0.1631 -1.0622,0.4374 -2.3201997,1.0979 -2.6684997,2.2325 -2.9680997,3.0929 -0.2636,0.7578 0.143,2.6577 0.25,3.1555 -0.1366,-0.021 -0.2937,-0.018 -0.3749,0.031 -0.153,0.093 0,1.124 0.4375,1.3122 0.2729,2.6448 1.9664997,4.6864 3.9989997,4.6864 2.0324,0 3.6946,-2.0419 3.9677,-4.6864 0.4424,-0.1882 0.5903,-1.2194 0.4374,-1.3122 -0.098,-0.059 -0.2833,-0.062 -0.4374,-0.031 0.1721,-0.8704 0.469,-2.691 -0.031,-3.6554 -0.6731,-1.2974 -3.3429,-2.1556 -3.3429,-2.1556 0,0 -0.051,-0.5626 -0.3749,-0.7498 -0.23,-0.1329 -0.5905,0.1469 -0.8435,0.3436 0.2783,-0.2136 0.6455,-0.5292 0.3436,-0.4686 z m 3.0306,12.1532 c -0.25,2.0457 -1.8347,3.1773 -2.8119,3.1555 -0.817,-0.019 -2.376,-0.997 -3.1241997,-2.8431 -2.4789,0.1331 -4.5926,2.2495 -4.5926,2.2495 0,0 -2.8210999,3.1239 -1.9057999,8.5291 1.1055999,2.2446 17.7067006,2.3274 19.1202006,0.2499 1.4136,-2.0788 -0.5741,-7.4169 -1.4058,-8.4979 -0.831001,-1.0808 -2.037301,-2.2944 -5.279901,-2.843 z m -0.3437,4.2177 c 1.1922,0 1.6246,1.4372 1.6246,1.4372 0,0 0.3874,-1.4372 1.5934,-1.4372 1.2059,0 2.143101,0.8225 0.9371,2.9055 -1.1923,2.083 -2.5305,3.5617 -2.5305,3.5617 0,0 -1.311,-1.4513 -2.5306,-3.5617 -1.2198,-2.1104 -0.2726,-2.9055 0.906,-2.9055 z"
       id="humanity"
       style="fill:#000000;fill-opacity:1" />
  </g>
</svg>
