<?xml version="1.0" encoding="UTF-8" standalone="no"?>
<!-- Created with Inkscape (http://www.inkscape.org/) -->
<!-- icons-mk created by Matthias Kuhnel (2019), reuseIT, https://reuseproject.org -->

<svg
   xmlns:dc="http://purl.org/dc/elements/1.1/"
   xmlns:cc="http://creativecommons.org/ns#"
   xmlns:rdf="http://www.w3.org/1999/02/22-rdf-syntax-ns#"
   xmlns:svg="http://www.w3.org/2000/svg"
   xmlns="http://www.w3.org/2000/svg"
   version="1.1"
   width="25"
   height="25"
   id="svg">
  <defs
     id="defs" />
  <metadata
     id="metadata">
    <rdf:RDF>
      <cc:Work
         rdf:about="">
        <dc:format>image/svg+xml</dc:format>
        <dc:type
           rdf:resource="http://purl.org/dc/dcmitype/StillImage" />
        <dc:title></dc:title>
      </cc:Work>
    </rdf:RDF>
  </metadata>
  <g
     transform="translate(0,-1027.3622)"
     id="icons-mk">
    <path
       d="m 17.868598,1027.3638 c -0.1643,-0.016 -0.3402,0.096 -0.3752,0.4064 0,0.4909 0.015,1.0488 0,1.6256 -0.015,0.5763 0.7291,0.7305 0.7191,-0.031 0,-0.7619 0.023,-1.1107 0,-1.5943 -0.011,-0.242 -0.1797,-0.3907 -0.3439,-0.4064 z m -4.8455,2.032 c -0.2864,0 -0.399,0.3551 -0.1562,0.6252 0.3235,0.3604 0.5628,0.6111 1.0942,1.1566 0.5317,0.546 0.9469,-0.1009 0.5313,-0.5001 -0.4155,-0.3999 -0.7802,-0.7755 -1.1253,-1.1254 -0.1216,-0.098 -0.2484,-0.1556 -0.344,-0.1563 z m 9.6909,0.031 c -0.096,7e-4 -0.1911,0.027 -0.3127,0.125 -0.3451,0.3495 -0.7415,0.7569 -1.1566,1.1566 -0.4152,0.3993 0.031,1.0148 0.5627,0.4689 0.5318,-0.5456 0.7704,-0.7653 1.094,-1.1254 0.2425,-0.27 0.099,-0.6272 -0.1874,-0.6251 z m -4.8142,1.563 c -2.1061,0 -3.8137,1.661 -3.8137,3.6887 0,1.1006 0.5161,2.078 1.3128,2.7509 0.4574,0.6493 1.2013,1.8153 1.0317,2.4071 -0.6221,0.066 -0.5152,0.6618 -0.031,0.6877 0.4832,0.026 2.0204,0.021 2.7822,0.031 0.7352,0.01 0.6203,-0.6807 0.094,-0.7189 -0.1599,-0.558 0.4795,-1.616 0.9379,-2.2821 0.8992,-0.6716 1.5005,-1.6954 1.5005,-2.8759 0,-2.0277 -1.7076,-3.6887 -3.8138,-3.6887 z m -6.846,3.251 c -0.6221,0.066 -0.4839,0.6619 0,0.6878 0.4835,0.026 0.8012,0.021 1.563,0.031 0.7618,0.01 0.6391,-0.7303 0.062,-0.719 -0.5768,0.011 -1.1343,0.01 -1.6255,0 z m 11.8476,0 c -0.6221,0.066 -0.4838,0.6619 0,0.6878 0.4837,0.026 0.8014,0.021 1.5632,0.031 0.7621,0.01 0.6393,-0.7303 0.062,-0.719 -0.5767,0.011 -1.1347,0.01 -1.6256,0 z m -17.1618989,3.1261 c -0.091,0.018 -0.2768,0.085 -0.6252,0.2501 -1.3936,0.6593 -1.602,1.3589 -1.7818,1.8756 -0.1599,0.4594 0.095,1.6243 0.1563,1.9069 -0.087,-0.015 -0.1664,-0.032 -0.2189,0 -0.092,0.056 -0.015,0.6685 0.2501,0.7815 0.1597,1.5946 1.1832,2.8134 2.4071,2.8134 1.2239,0 2.216,-1.2188 2.3758,-2.8134 0.2655,-0.113 0.3419,-0.7255 0.2501,-0.7815 -0.063,-0.038 -0.1554,-0.02 -0.2501,0 -8e-4,-0.01 9e-4,-0.021 0,-0.031 0.09,-0.4049 0.3077,-1.5349 -0.031,-2.1882 -0.4042,-0.7793 -2.0007,-1.2817 -2.0007,-1.2817 0,0 -0.024,-0.3252 -0.2188,-0.4376 -0.091,-0.053 -0.2372,0.01 -0.3751,0.094 0.1291,-0.1079 0.2022,-0.2156 0.062,-0.1875 z m 8.5966989,0.4376 c -0.096,7e-4 -0.2224,0.027 -0.3439,0.1251 -0.3452,0.3495 -0.7099,0.7569 -1.1254,1.1566 -0.4155,0.3993 -4e-4,1.0149 0.5314,0.4689 0.5314,-0.5456 0.7705,-0.7648 1.0941,-1.1254 0.2426,-0.27 0.1301,-0.6272 -0.1562,-0.6252 z m 6.9085,0 c -0.1907,0.089 -0.2648,0.4002 -0.062,0.6252 0.3236,0.3606 0.5626,0.5794 1.094,1.1254 0.5315,0.5459 0.9785,-0.07 0.5628,-0.4689 -0.4154,-0.3993 -0.8117,-0.8067 -1.1567,-1.1566 -0.1824,-0.1475 -0.3232,-0.1783 -0.4376,-0.1251 z m -4.8141,2.9385 c -0.6221,0.066 -0.5152,0.6618 -0.031,0.6877 0.4832,0.026 2.0204,0.021 2.7822,0.031 0.7619,0.01 0.6081,-0.7304 0.031,-0.719 -0.5769,0.011 -2.291,0.01 -2.7822,0 z m 0,0.9066 c -0.6221,0.066 -0.5152,0.6618 -0.031,0.6877 0.4832,0.026 2.0204,0.021 2.7822,0.031 0.7619,0.01 0.6081,-0.7302 0.031,-0.7189 -0.5764,0.011 -2.291,0.01 -2.7822,0 z m -8.8466989,3.0322 c -0.1501,1.2285 -1.1324,1.8886 -1.7193,1.8756 -0.4907,-0.012 -1.3952,-0.6107 -1.8445,-1.7193 -1.4887,0.08 -2.7821,1.3755 -2.7821,1.3755 0,0 -1.67499999,1.8494 -1.12539999,5.0954 0.664,1.348 10.65499889,1.4038 11.50389889,0.1563 0.8489,-1.2485 -0.3758,-4.4463 -0.8753,-5.0954 -0.499,-0.6491 -1.2098989,-1.3587 -3.1572989,-1.6881 z"
       id="idea"
       style="fill:#000000;fill-opacity:1" />
  </g>
</svg>
