<?xml version="1.0" encoding="UTF-8" standalone="no"?>
<!-- Created with Inkscape (http://www.inkscape.org/) -->
<!-- icons-mk created by Matthias Kuhnel (2019), reuseIT, https://reuseproject.org -->

<svg
   xmlns:dc="http://purl.org/dc/elements/1.1/"
   xmlns:cc="http://creativecommons.org/ns#"
   xmlns:rdf="http://www.w3.org/1999/02/22-rdf-syntax-ns#"
   xmlns:svg="http://www.w3.org/2000/svg"
   xmlns="http://www.w3.org/2000/svg"
   version="1.1"
   width="25"
   height="25"
   id="svg">
  <defs
     id="defs" />
  <metadata
     id="metadata">
    <rdf:RDF>
      <cc:Work
         rdf:about="">
        <dc:format>image/svg+xml</dc:format>
        <dc:type
           rdf:resource="http://purl.org/dc/dcmitype/StillImage" />
        <dc:title></dc:title>
      </cc:Work>
    </rdf:RDF>
  </metadata>
  <g
     transform="translate(0,-1027.3622)"
     id="icons-mk">
    <path
       d="m 25,1039.1029 c 0,4.8819 -3.9577,8.8395 -8.8396,8.8395 -4.8819,0 -8.8396001,-3.9576 -8.8396001,-8.8395 l 3.5359001,0 c 0,2.9292 2.3745,5.3037 5.3037,5.3037 2.9292,0 5.3038,-2.3745 5.3038,-5.3037 l 3.5358,0 z m -7.3208,1.5187 c 0,-4.8819 -3.9578,-8.8395 -8.8397,-8.8395 -4.8818,0 -8.839500049999996,3.9576 -8.839500049999996,8.8395 l 3.535899949999997,0 c 0,-2.9292 2.3745,-5.3037 5.3036,-5.3037 2.9292001,0 5.3039001,2.3745 5.3039001,5.3037 l 3.5358,0 z"
       id="intertwine"
       style="fill:#000000;fill-opacity:1;stroke:none" />
  </g>
</svg>
