<?xml version="1.0" encoding="UTF-8" standalone="no"?>
<!-- Created with Inkscape (http://www.inkscape.org/) -->
<!-- icons-mk created by Matthias Kuhnel (2020), reuseIT, https://reuseproject.org -->

<svg
   xmlns:dc="http://purl.org/dc/elements/1.1/"
   xmlns:cc="http://creativecommons.org/ns#"
   xmlns:rdf="http://www.w3.org/1999/02/22-rdf-syntax-ns#"
   xmlns:svg="http://www.w3.org/2000/svg"
   xmlns="http://www.w3.org/2000/svg"
   version="1.1"
   width="25"
   height="25"
   id="svg">
  <defs
     id="defs" />
  <metadata
     id="metadata">
    <rdf:RDF>
      <cc:Work
         rdf:about="">
        <dc:format>image/svg+xml</dc:format>
        <dc:type
           rdf:resource="http://purl.org/dc/dcmitype/StillImage" />
        <dc:title></dc:title>
      </cc:Work>
    </rdf:RDF>
  </metadata>
  <g
     transform="translate(0,-1027.3622)"
     id="icons-mk">
    <path
       d="m 11.779721,1027.3604 c -0.913,0.01 -2.3260005,0.044 -3.6870005,0.3125 -0.908,0.1791 -1.832,0.4509 -2.594,0.9688 -0.7629999,0.5178 -1.3749999,1.4036 -1.3749999,2.4687 0,0.3905 0.08,0.7568 0.219,1.0937 a 0.99859083,0.99859083 0 0 0 -0.25,0.5938 c 0,0 -0.253,3.4791 -0.282,7.2812 -0.01,1.9012 0.03,3.8758 0.188,5.5625 0.162,1.6866 0.296,3.034 1.0619999,4.0313 1.015,1.3227 2.311,2.0489 3.594,2.375 1.283,0.326 2.5420005,0.3125 3.8120005,0.3125 1.254,0 2.531999,0.06 3.812999,-0.25 1.28,-0.3098 2.535,-1.0573 3.594,-2.4375 0.773,-1.0078 0.958,-2.3667 1.125,-4.0625 0.166,-1.6957 0.208,-3.6684 0.187,-5.5625 -0.04,-3.7883 -0.312,-7.25 -0.312,-7.25 a 0.99859083,0.99859083 0 0 0 -0.219,-0.5625 c 0.146,-0.3449 0.219,-0.7224 0.219,-1.125 0,-1.0574 -0.614,-1.9563 -1.375,-2.4687 -0.76,-0.5125 -1.656,-0.7554 -2.563,-0.9375 -1.813,-0.3644 -3.731999,-0.3469 -4.436999,-0.3438 -0.17,0 -0.414,0 -0.719,0 z m -0.03,2 0.03,0 c 0.279,0 0.539,0 0.719,0 0.727,0 2.510999,-0.024 4.030999,0.2813 0.76,0.1526 1.444,0.3866 1.844,0.6562 0.4,0.2697 0.5,0.4551 0.5,0.8125 0,0.4262 -0.106,0.603 -0.5,0.875 -0.326,0.2259 -0.839,0.4491 -1.438,0.5937 l -0.03,0 c -1.087,0.1693 -2.548,0.3114 -4.405999,0.3125 l -0.03,0 c -1.806,0 -3.2020005,-0.1504 -4.2810005,-0.3125 -0.638,-0.1455 -1.219,-0.3569 -1.562,-0.5937 -0.394,-0.2713 -0.5,-0.4517 -0.5,-0.875 0,-0.3795 0.102,-0.5425 0.5,-0.8125 0.397,-0.2701 1.084,-0.5066 1.843,-0.6562 1.127,-0.2223 2.3980005,-0.2713 3.2820005,-0.2813 z m -5.7190005,4.8125 c 0.287,0.083 0.215,0.1006 0.625,0.1875 0.318,0.068 0.694,0.1251 1.094,0.1875 0.02,0 0.01,0 0.03,0 0.101,0.022 0.212,0.043 0.313,0.062 1.809,0.3416 3.7030005,0.2524 4.3740005,0.25 l 0.03,0 c 0.653,0 2.582999,0.095 4.405999,-0.25 0.08,-0.015 0.17,-0.046 0.25,-0.062 0.02,-0.01 0.04,0 0.06,0 0.4,-0.062 0.775,-0.1512 1.094,-0.2188 0.415,-0.088 0.336,-0.072 0.625,-0.1562 0.08,1.1999 0.221,3.2081 0.25,5.875 0.02,1.8517 -0.03,3.7713 -0.187,5.3437 -0.154,1.5725 -0.553,2.8468 -0.719,3.0625 -0.818,1.0668 -1.582,1.4654 -2.5,1.6875 -0.918,0.2221 -2.016999,0.2188 -3.312999,0.2188 -1.277,0 -2.402,-0.011 -3.3430005,-0.25 -0.941,-0.2392 -1.708,-0.6649 -2.469,-1.6563 -0.122,-0.1597 -0.505,-1.4309 -0.656,-3 -0.15,-1.5692 -0.202,-3.4823 -0.188,-5.3437 0.02,-2.6818 0.146,-4.7268 0.219,-5.9375 z m 9.5939995,2 c -0.814,0 -1.5,0.6547 -1.5,1.4687 0,0.8139 0.686,1.5 1.5,1.5 0.814,0 1.469,-0.6861 1.469,-1.5 0,-0.814 -0.655,-1.4687 -1.469,-1.4687 z m -7.5629995,0.7187 c -0.814,0 -1.468,0.6548 -1.468,1.4688 0,0.8139 0.654,1.5 1.468,1.5 0.814,0 1.5,-0.6861 1.5,-1.5 0,-0.814 -0.686,-1.4688 -1.5,-1.4688 z m 3.7820005,0.9375 c -0.815,0 -1.469,0.6549 -1.469,1.4688 0,0.8139 0.654,1.5 1.469,1.5 0.814,0 1.468,-0.6861 1.468,-1.5 0,-0.8139 -0.654,-1.4688 -1.468,-1.4688 z m 4.592999,2.3438 c -0.814,0 -1.469,0.6861 -1.469,1.5 0,0.8139 0.655,1.4687 1.469,1.4687 0.814,0 1.5,-0.6548 1.5,-1.4687 0,-0.8139 -0.686,-1.5 -1.5,-1.5 z m -7.5309995,1.3125 c -0.814,0 -1.5,0.6548 -1.5,1.4687 0,0.814 0.686,1.5 1.5,1.5 0.814,0 1.4690005,-0.686 1.4690005,-1.5 0,-0.8139 -0.6550005,-1.4687 -1.4690005,-1.4687 z m 3.8750005,0.3437 c -0.814,0 -1.469,0.6861 -1.469,1.5 0,0.814 0.655,1.4688 1.469,1.4688 0.814,0 1.499999,-0.6548 1.499999,-1.4688 0,-0.8139 -0.685999,-1.5 -1.499999,-1.5 z m 3.530999,2.4688 c -0.814,0 -1.468,0.6861 -1.468,1.5 0,0.814 0.654,1.4687 1.468,1.4687 0.814,0 1.5,-0.6547 1.5,-1.4687 0,-0.8139 -0.686,-1.5 -1.5,-1.5 z m -7.4679995,1.4062 c -0.815,0 -1.469,0.6549 -1.469,1.4688 0,0.814 0.654,1.4687 1.469,1.4687 0.814,0 1.5000005,-0.6547 1.5000005,-1.4687 0,-0.8139 -0.6860005,-1.4688 -1.5000005,-1.4688 z m 3.9370005,0.7188 c -0.814,0 -1.469,0.6861 -1.469,1.5 0,0.814 0.655,1.4687 1.469,1.4687 0.814,0 1.499999,-0.6547 1.499999,-1.4687 0,-0.8139 -0.685999,-1.5 -1.499999,-1.5 z"
       id="jar-filled"
       style="font-size:medium;font-style:normal;font-variant:normal;font-weight:normal;font-stretch:normal;text-indent:0;text-align:start;text-decoration:none;line-height:normal;letter-spacing:normal;word-spacing:normal;text-transform:none;direction:ltr;block-progression:tb;writing-mode:lr-tb;text-anchor:start;baseline-shift:baseline;color:#000000;fill:#000000;fill-opacity:1;stroke:none;stroke-width:6;marker:none;visibility:visible;display:inline;overflow:visible;enable-background:accumulate;font-family:Sans;-inkscape-font-specification:Sans" />
  </g>
</svg>
