<?xml version="1.0" encoding="UTF-8" standalone="no"?>
<!-- Created with Inkscape (http://www.inkscape.org/) -->
<!-- icons-mk created by Matthias Kuhnel (2020), reuseIT, https://reuseproject.org -->

<svg
   xmlns:dc="http://purl.org/dc/elements/1.1/"
   xmlns:cc="http://creativecommons.org/ns#"
   xmlns:rdf="http://www.w3.org/1999/02/22-rdf-syntax-ns#"
   xmlns:svg="http://www.w3.org/2000/svg"
   xmlns="http://www.w3.org/2000/svg"
   version="1.1"
   width="25"
   height="25"
   id="svg">
  <defs
     id="defs" />
  <metadata
     id="metadata">
    <rdf:RDF>
      <cc:Work
         rdf:about="">
        <dc:format>image/svg+xml</dc:format>
        <dc:type
           rdf:resource="http://purl.org/dc/dcmitype/StillImage" />
        <dc:title></dc:title>
      </cc:Work>
    </rdf:RDF>
  </metadata>
  <g
     transform="translate(0,-1027.3622)"
     id="icons-mk">
    <path
       d="m 11.808328,1027.3633 c -0.906,0.01 -2.3320004,0.077 -3.6860004,0.3437 -0.902,0.178 -1.805,0.4228 -2.563,0.9375 -0.7580011,0.5146 -1.3750011,1.4099 -1.3750011,2.4686 0,0.388 0.08,0.7588 0.219,1.0936 -0.137,0.1583 -0.202,0.3539 -0.219,0.5625 0,0 -0.284,3.4704 -0.312,7.2495 -0.01,1.8895 0.03,3.8544 0.187,5.5309 0.16,1.6763 0.334,3.0084 1.0940011,3.9997 1.009,1.3147 2.256,2.0507 3.531,2.3748 3.0110004,0.5701 5.0320004,0.5876 7.5930004,0.031 1.273,-0.308 2.541,-1.0343 3.594,-2.4061 0.768,-1.0018 0.929,-2.3455 1.093,-4.031 0.166,-1.6855 0.178,-3.6483 0.157,-5.5309 -0.04,-3.7651 -0.281,-7.2182 -0.281,-7.2182 -0.02,-0.1957 -0.09,-0.3786 -0.219,-0.5312 0.146,-0.3428 0.219,-0.7248 0.219,-1.1249 0,-1.051 -0.619,-1.928 -1.376,-2.4374 -0.755,-0.5093 -1.661,-0.7876 -2.562,-0.9687 -1.803,-0.3621 -3.674,-0.3468 -4.375,-0.3437 l -0.719,0 z m -0.03,1.9999 0.75,0 c 0.722,0 2.489,-0.023 4,0.2812 0.755,0.1517 1.446,0.3882 1.844,0.6562 0.397,0.2681 0.5,0.4572 0.5,0.8125 0,0.4235 -0.141,0.6044 -0.531,0.8749 -0.326,0.2245 -0.843,0.4187 -1.438,0.5625 -1.08,0.1682 -2.529,0.3114 -4.375,0.3124 0,10e-5 -0.02,0 -0.03,0 -1.793,0 -3.2080004,-0.12 -4.2810004,-0.2812 -0.634,-0.1445 -1.19,-0.3584 -1.531,-0.5937 -0.392,-0.2697 -0.5,-0.4542 -0.5,-0.8749 0,-0.3772 0.104,-0.5441 0.5,-0.8125 0.395,-0.2685 1.059,-0.5074 1.813,-0.6562 1.131,-0.2231 2.4010004,-0.2719 3.2800004,-0.2812 z m -5.6860004,4.7809 c 0.283,0.083 0.218,0.1011 0.624,0.1875 0.317,0.067 0.665,0.1255 1.063,0.1875 0.02,0 0.04,0 0.06,0 0.1,0.021 0.18,0.044 0.281,0.062 1.798,0.3394 3.7060004,0.2523 4.3740004,0.2499 l 0.03,0 c 0.649,0 2.564,0.093 4.375,-0.2499 0.08,-0.015 0.139,-0.045 0.219,-0.062 0.02,-0.01 0.07,0 0.09,0 0.398,-0.062 0.746,-0.1203 1.063,-0.1875 0.413,-0.088 0.369,-0.1037 0.656,-0.1875 0.08,1.1926 0.189,3.1927 0.219,5.8433 0.02,1.8406 0,3.7493 -0.156,5.3122 -0.154,1.5629 -0.555,2.8166 -0.719,3.031 -0.814,1.0603 -1.588,1.4666 -2.5,1.6874 -0.913,0.2207 -1.994,0.2187 -3.281,0.2187 -1.27,0 -2.408,-0.012 -3.3430004,-0.25 -0.935,-0.2376 -1.682,-0.6708 -2.438,-1.6561 -0.121,-0.1588 -0.507,-1.4089 -0.656,-2.9685 -0.149,-1.5596 -0.201,-3.4621 -0.187,-5.3122 0.02,-2.6654 0.144,-4.7025 0.219,-5.9058 z"
       id="jar-empty"
       style="fill:#000000;fill-opacity:1;stroke:none" />
  </g>
</svg>
