<?xml version="1.0" encoding="UTF-8" standalone="no"?>
<!-- Created with Inkscape (http://www.inkscape.org/) -->
<!-- icons-mk created by Matthias Kuhnel (2019), reuseIT, https://reuseproject.org -->

<svg
   xmlns:dc="http://purl.org/dc/elements/1.1/"
   xmlns:cc="http://creativecommons.org/ns#"
   xmlns:rdf="http://www.w3.org/1999/02/22-rdf-syntax-ns#"
   xmlns:svg="http://www.w3.org/2000/svg"
   xmlns="http://www.w3.org/2000/svg"
   xmlns:sodipodi="http://sodipodi.sourceforge.net/DTD/sodipodi-0.dtd"
   xmlns:inkscape="http://www.inkscape.org/namespaces/inkscape"
   width="25"
   height="25"
   id="svg"
   version="1.1"
   inkscape:version="0.48.5 r10040"
   sodipodi:docname="phone.svg">
  <defs
     id="defs" />
  <sodipodi:namedview
     id="base"
     pagecolor="#ffffff"
     bordercolor="#666666"
     borderopacity="1.0"
     inkscape:pageopacity="0.0"
     inkscape:pageshadow="2"
     inkscape:zoom="11.2"
     inkscape:cx="2.7457419"
     inkscape:cy="9.7459996"
     inkscape:document-units="px"
     inkscape:current-layer="icons-mk"
     showgrid="false"
     inkscape:window-width="962"
     inkscape:window-height="1001"
     inkscape:window-x="943"
     inkscape:window-y="0"
     inkscape:window-maximized="0" />
  <metadata
     id="metadata">
    <rdf:RDF>
      <cc:Work
         rdf:about="">
        <dc:format>image/svg+xml</dc:format>
        <dc:type
           rdf:resource="http://purl.org/dc/dcmitype/StillImage" />
        <dc:title></dc:title>
      </cc:Work>
    </rdf:RDF>
  </metadata>
  <g
     inkscape:label="Ebene icons-mk"
     inkscape:groupmode="layer"
     id="icons-mk"
     transform="translate(0,-1027.3622)">
    <path
       id="key"
       style="font-size:medium;font-style:normal;font-variant:normal;font-weight:normal;font-stretch:normal;text-indent:0;text-align:start;text-decoration:none;line-height:normal;letter-spacing:normal;word-spacing:normal;text-transform:none;direction:ltr;block-progression:tb;writing-mode:lr-tb;text-anchor:start;baseline-shift:baseline;color:#000000;fill:#000000;fill-opacity:1;stroke:none;stroke-width:0.84414941;marker:none;visibility:visible;display:inline;overflow:visible;enable-background:accumulate;font-family:Sans;-inkscape-font-specification:Sans"
       d="m 22.7812,1032.1961 c -0.3995,0.06 -0.8193,0.2097 -1.25,0.4375 -1.7227,0.9114 -3.0937,2.7674 -3.0937,4.4375 0,0.8351 0.4164,1.5335 1.0937,1.7812 0.6774,0.2478 1.5137,0.1119 2.375,-0.3437 1.7228,-0.9114 3.0938,-2.7984 3.0938,-4.4687 0,-0.8351 -0.4476,-1.5023 -1.125,-1.75 -0.3387,-0.1239 -0.6942,-0.1538 -1.0938,-0.094 z m 0.8126,0.875 c 0.3591,0.1314 0.5624,0.3886 0.5624,0.9688 0,1.1604 -1.1841,2.9565 -2.625,3.7187 -0.7204,0.3811 -1.3283,0.4439 -1.6874,0.3125 -0.3592,-0.1314 -0.5626,-0.4198 -0.5626,-1 0,-1.1603 1.1842,-2.9253 2.625,-3.6875 0.7205,-0.381 1.3284,-0.4439 1.6876,-0.3125 z m -10.7159,6.1166 -0.4906,0.2147 -10.6090002,4.5072 -0.2759,0.1227 -0.1533,0.2452 -0.7359,1.1652 -0.6132,0.9812 1.1038,0.3985 1.3797,0.5213 0.5519,0.2146 0.4293,-0.4599 0.5519,-0.5519 0.276,0.092 0.5825,0.1533 0.3987,-0.46 0.7052,-0.8278 1.0425,0.3066 0.5826,0.184 0.3985,-0.4599 0.7665,-0.8279 0.8892004,0.03 0.092,0 0.062,0.03 0.6437998,0.1227 0.3374,-0.5825 0.4291,-0.7053 3.4648,-1.2878 1.6864,-0.6439 -1.4411,-1.0424 -1.6251,-1.1346 -0.4292,-0.3066 z m 4.0779,-4.2679 c -2.2095,0.06 -4.1392,1.6632 -4.5379,3.9247 -0.4558,2.5847 1.2787,5.0327 3.8633,5.4885 2.5846,0.4557 5.0328,-1.2788 5.4884,-3.8634 0.4558,-2.5846 -1.2786,-5.0327 -3.8632,-5.4884 -0.3231,-0.057 -0.635,-0.07 -0.9506,-0.061 z m 2.4835,2.2384 c 0.095,0 0.1791,0.014 0.276,0.03 0.7755,0.1367 1.3019,0.8497 1.1652,1.625 -0.1367,0.7754 -0.8803,1.3019 -1.6557,1.1651 -0.7755,-0.1366 -1.3019,-0.8803 -1.1652,-1.6557 0.1196,-0.6784 0.717,-1.147 1.3797,-1.1651 z"
       inkscape:connector-curvature="0" />
  </g>
</svg>
