<?xml version="1.0" encoding="UTF-8" standalone="no"?>
<!-- Created with Inkscape (http://www.inkscape.org/) -->
<!-- icons-mk created by Matthias Kuhnel (2019), reuseIT, https://reuseproject.org -->

<svg
   xmlns:dc="http://purl.org/dc/elements/1.1/"
   xmlns:cc="http://creativecommons.org/ns#"
   xmlns:rdf="http://www.w3.org/1999/02/22-rdf-syntax-ns#"
   xmlns:svg="http://www.w3.org/2000/svg"
   xmlns="http://www.w3.org/2000/svg"
   version="1.1"
   width="25"
   height="25"
   id="svg">
  <defs
     id="defs" />
  <metadata
     id="metadata">
    <rdf:RDF>
      <cc:Work
         rdf:about="">
        <dc:format>image/svg+xml</dc:format>
        <dc:type
           rdf:resource="http://purl.org/dc/dcmitype/StillImage" />
        <dc:title></dc:title>
      </cc:Work>
    </rdf:RDF>
  </metadata>
  <g
     transform="translate(0,-1027.3622)"
     id="icons-mk">
    <path
       d="m 12.5,1028.0966 -0.594,0.4063 -10.6249998,7.1562 -1.28100005,0.9063 1.28100005,0.8437 3.625,2.4376 -3.625,2.4374 -1.28100005,0.9063 1.28100005,0.875 10.6249998,7.1563 0.594,0.4062 0.594,-0.4062 10.625,-7.1563 1.281,-0.875 -1.281,-0.9063 -3.625,-2.4374 3.625,-2.4376 1.281,-0.8437 -1.281,-0.9063 -10.625,-7.1562 -0.594,-0.4063 z m -5.6879999,13.0625 5.0939999,3.4376 0.594,0.375 0.594,-0.375 5.094,-3.4376 3.031,2.0313 -8.719,5.875 -8.7189998,-5.875 3.031,-2.0313 z"
       id="layer-above"
       style="font-size:medium;font-style:normal;font-variant:normal;font-weight:normal;font-stretch:normal;text-indent:0;text-align:start;text-decoration:none;line-height:normal;letter-spacing:normal;word-spacing:normal;text-transform:none;direction:ltr;block-progression:tb;writing-mode:lr-tb;text-anchor:start;baseline-shift:baseline;color:#000000;fill:#000000;fill-opacity:1;stroke:none;stroke-width:2;marker:none;visibility:visible;display:inline;overflow:visible;enable-background:accumulate;font-family:Sans;-inkscape-font-specification:Sans" />
  </g>
</svg>
