<?xml version="1.0" encoding="UTF-8" standalone="no"?>
<!-- Created with Inkscape (http://www.inkscape.org/) -->
<!-- icons-mk created by Matthias Kuhnel (2020), reuseIT, https://reuseproject.org -->

<svg
   xmlns:dc="http://purl.org/dc/elements/1.1/"
   xmlns:cc="http://creativecommons.org/ns#"
   xmlns:rdf="http://www.w3.org/1999/02/22-rdf-syntax-ns#"
   xmlns:svg="http://www.w3.org/2000/svg"
   xmlns="http://www.w3.org/2000/svg"
   version="1.1"
   width="25"
   height="25"
   id="svg">
  <defs
     id="defs" />
  <metadata
     id="metadata">
    <rdf:RDF>
      <cc:Work
         rdf:about="">
        <dc:format>image/svg+xml</dc:format>
        <dc:type
           rdf:resource="http://purl.org/dc/dcmitype/StillImage" />
        <dc:title></dc:title>
      </cc:Work>
    </rdf:RDF>
  </metadata>
  <g
     transform="translate(0,-1027.3622)"
     id="icons-mk">
    <path
       d="m 9.3002456,1027.3622 c 0,0 1.8460004,14.5625 7.2810004,14.5625 5.435,0 7.280995,-14.5625 7.280995,-14.5625 0,0 -2.265995,1.8125 -3.624995,1.8125 -1.36,0 -2.297,-1.8125 -3.656,-1.8125 -1.36,0 -2.297,1.8125 -3.657,1.8125 -1.359,0 -3.6240004,-1.8125 -3.6240004,-1.8125 z m 7.2810004,1.8438 c 0.238,0 0.437,0.168 0.437,0.4062 0,0.1086 -0.05,0.2054 -0.125,0.2813 0.03,0.01 0.06,0.02 0.09,0.031 0,-0.1016 0.05,-0.1725 0.125,-0.25 0.168,-0.1685 0.425,-0.1685 0.594,0 0.168,0.1685 0.168,0.4252 0,0.5937 -0.08,0.077 -0.181,0.1191 -0.282,0.125 0.01,0.025 0.02,0.037 0.03,0.062 0.08,-0.067 0.202,-0.094 0.312,-0.094 0.238,0 0.406,0.1992 0.406,0.4375 0,0.2382 -0.168,0.4062 -0.406,0.4062 -0.11,0 -0.235,-0.026 -0.312,-0.094 -0.01,0.026 -0.02,0.038 -0.03,0.062 0.101,0.01 0.204,0.047 0.282,0.125 0.168,0.1685 0.168,0.4565 0,0.625 -0.169,0.1685 -0.426,0.1685 -0.594,0 -0.08,-0.077 -0.119,-0.1798 -0.125,-0.2813 -0.02,0.011 -0.06,0.022 -0.09,0.031 0.07,0.076 0.125,0.1712 0.125,0.2812 0,0.2133 -0.172,0.3711 -0.375,0.4063 l 0,0.9375 c 0.109,-0.115 0.291,-0.2627 0.5,-0.4375 0.156,-0.1305 0.295,-0.2568 0.438,-0.3125 0.07,-0.028 0.15,-0.051 0.219,-0.031 0.07,0.02 0.136,0.078 0.156,0.1563 0.04,0.1593 -0.07,0.3396 -0.188,0.4687 -0.124,0.1293 -0.295,0.2436 -0.468,0.3438 -0.313,0.181 -0.597,0.2898 -0.657,0.3125 l 0,0.25 0,0.094 0,0.625 -0.125,0 0,-0.6875 c -0.06,-0.023 -0.374,-0.1313 -0.687,-0.3125 -0.173,-0.1001 -0.346,-0.2145 -0.469,-0.3437 -0.124,-0.1292 -0.198,-0.2781 -0.156,-0.4375 0.02,-0.079 0.09,-0.1364 0.156,-0.1563 0.07,-0.02 0.115,-0.03 0.188,0 0.144,0.056 0.311,0.1821 0.468,0.3125 0.209,0.1749 0.391,0.3537 0.5,0.4688 l 0,-0.125 0,-0.031 0,-1.0937 c -0.206,-0.033 -0.375,-0.1911 -0.375,-0.4063 0,-0.1086 0.05,-0.2055 0.125,-0.2812 -0.03,-0.01 -0.06,-0.02 -0.09,-0.031 0,0.1015 -0.05,0.2037 -0.124,0.2813 -0.169,0.1685 -0.426,0.1685 -0.594,0 -0.169,-0.1685 -0.169,-0.4565 0,-0.625 0.08,-0.077 0.18,-0.1187 0.281,-0.125 -0.01,-0.024 -0.03,-0.037 -0.03,-0.062 -0.08,0.067 -0.173,0.094 -0.282,0.094 -0.239,0 -0.437,-0.168 -0.437,-0.4062 0,-0.2383 0.198,-0.4375 0.437,-0.4375 0.111,0 0.205,0.026 0.282,0.094 0.01,-0.026 0.02,-0.038 0.03,-0.062 -0.101,-0.01 -0.204,-0.047 -0.281,-0.125 -0.169,-0.1685 -0.169,-0.4252 0,-0.5937 0.168,-0.1685 0.425,-0.1685 0.594,0 0.08,0.077 0.118,0.1484 0.124,0.25 0.03,-0.012 0.06,-0.021 0.09,-0.031 -0.07,-0.076 -0.125,-0.1727 -0.125,-0.2813 0,-0.2382 0.199,-0.4062 0.438,-0.4062 z m 0,1.1562 c -0.239,0 -0.438,0.1992 -0.438,0.4375 0,0.2382 0.199,0.4062 0.438,0.4062 0.238,0 0.437,-0.168 0.437,-0.4062 0,-0.2383 -0.199,-0.4375 -0.437,-0.4375 z m 0.562,5.2812 0.03,0 c 0.03,0 0.06,-0.017 0.09,0 0.262,0.087 0.07,0.7035 0.219,0.8125 0.153,0.1309 0.225,0.04 0.313,0.062 0.09,0.043 0.03,0.1657 0.312,0.1875 0.284,0.022 0.851,-0.8743 1.156,-0.6562 0.284,0.2182 -0.218,0.7136 -0.218,1.0625 0.02,0.349 0.545,0.8037 0.218,1 -0.327,0.1745 -0.717,-0.8532 -1,-0.875 -0.284,-0.043 -0.321,0.1003 -0.344,0.1875 -0.04,0.087 0.08,-0.053 0.03,0.1875 -0.07,0.2182 -0.53,0.7223 -0.813,0.875 -0.284,0.1308 -0.37,-0.094 -0.5,-0.094 -0.131,0 -0.26,-0.109 -0.281,0 0,0.1309 0.377,0.085 0.312,0.2813 -0.09,0.1745 -0.297,-0.1315 -0.624,-0.2188 -0.349,-0.087 -0.864,-0.082 -1.344,-0.3437 -0.48,-0.2617 -0.938,-0.4788 -0.938,-0.7188 0,-0.2399 0.239,0.046 0.282,-0.062 0.06,-0.109 -0.24,-0.045 -0.219,-0.2187 0.04,-0.1962 0.509,-0.3161 0.75,-0.4688 0.218,-0.1308 0.381,-0.3596 0.687,-0.4687 0.305,-0.109 0.723,-0.1125 1.094,-0.1563 0.324,-0.038 0.561,-0.3681 0.781,-0.375 z m -11.0930004,1.9063 c -0.176,0.035 -0.543,0.1805 -1.219,0.5 -2.703,1.2789 -3.12,2.6229 -3.469,3.625 -0.31,0.8892 0.161,3.1319 0.281,3.6875 -0.16,-0.025 -0.342,-0.058 -0.437,0 -0.182,0.11 0,1.3761 0.531,1.5625 0.327,3.0672 2.265,5.4375 4.625,5.4375 2.361,0 4.2980004,-2.3703 4.6250004,-5.4375 0.535,-0.1864 0.713,-1.4525 0.531,-1.5625 -0.111,-0.068 -0.322,-0.034 -0.5,0 0.201,-1.0026 0.526,-3.1477 -0.06,-4.2813 -0.784,-1.5114 -3.9060004,-2.5 -3.9060004,-2.5 0,0 -0.03,-0.6569 -0.407,-0.875 -0.189,-0.109 -0.501,0.039 -0.781,0.2188 0.249,-0.2087 0.457,-0.4292 0.188,-0.375 z"
       id="live-together"
       style="fill:#000000;fill-opacity:1" />
  </g>
</svg>
