<?xml version="1.0" encoding="UTF-8" standalone="no"?>
<!-- Created with Inkscape (http://www.inkscape.org/) -->
<!-- icons-mk created by Matthias Kuhnel (2019), reuseIT, https://reuseproject.org -->

<svg
   xmlns:dc="http://purl.org/dc/elements/1.1/"
   xmlns:cc="http://creativecommons.org/ns#"
   xmlns:rdf="http://www.w3.org/1999/02/22-rdf-syntax-ns#"
   xmlns:svg="http://www.w3.org/2000/svg"
   xmlns="http://www.w3.org/2000/svg"
   version="1.1"
   width="25"
   height="25"
   id="svg">
  <defs
     id="defs" />
  <metadata
     id="metadata">
    <rdf:RDF>
      <cc:Work
         rdf:about="">
        <dc:format>image/svg+xml</dc:format>
        <dc:type
           rdf:resource="http://purl.org/dc/dcmitype/StillImage" />
        <dc:title></dc:title>
      </cc:Work>
    </rdf:RDF>
  </metadata>
  <g
     transform="translate(0,-1027.3622)"
     id="icons-mk">
    <path
       d="m 12.500317,1027.3622 c -1.9111,0 -3.4741,0.3803 -4.6875,1.2188 -1.2133,0.8384 -1.9824,2.0865 -2.4375003,3.4374 -0.6308,1.8728 -0.7597,4.0271 -0.7812,6.3438 l -1.3126,0 -0.094,0 c -0.4931,0.042 -0.9127,0.5051 -0.9063,1 l 0,12 c 0,0.525 0.475,1.005 1,1 l 18.4688003,0 c 0.5145,-0.011 0.9737,-0.4854 0.9688,-1 l 0,-12 c 0,-0.5146 -0.4543,-0.9887 -0.9688,-1 l -1.3438,0 c -0.032,-2.3409 -0.1899,-4.5005 -0.8437,-6.375 -0.4697,-1.3463 -1.2708,-2.5379 -2.4687,-3.375 -1.1981,-0.8371 -2.7322,-1.25 -4.5938,-1.25 z m 0,2.625 c 1.483,0 2.4285,0.3165 3.0938,0.7812 0.6652,0.4651 1.1262,1.1119 1.4687,2.0938 0.4726,1.3549 0.632,3.2745 0.6875,5.5 l -10.5,0 c 0.043,-2.2281 0.172,-4.1517 0.625,-5.5 0.3291,-0.9771 0.7667,-1.63 1.4375,-2.0938 0.6708,-0.4634 1.6427,-0.7812 3.1875,-0.7812 z"
       id="locked"
       style="font-size:medium;font-style:normal;font-variant:normal;font-weight:normal;font-stretch:normal;text-indent:0;text-align:start;text-decoration:none;line-height:normal;letter-spacing:normal;word-spacing:normal;text-transform:none;direction:ltr;block-progression:tb;writing-mode:lr-tb;text-anchor:start;baseline-shift:baseline;color:#000000;fill:#000000;fill-opacity:1;stroke:none;stroke-width:2.63691521;marker:none;visibility:visible;display:inline;overflow:visible;enable-background:accumulate;font-family:Sans;-inkscape-font-specification:Sans" />
  </g>
</svg>
