<?xml version="1.0" encoding="UTF-8" standalone="no"?>
<!-- Created with Inkscape (http://www.inkscape.org/) -->
<!-- icons-mk created by Matthias Kuhnel (2019), reuseIT, https://reuseproject.org -->

<svg
   xmlns:dc="http://purl.org/dc/elements/1.1/"
   xmlns:cc="http://creativecommons.org/ns#"
   xmlns:rdf="http://www.w3.org/1999/02/22-rdf-syntax-ns#"
   xmlns:svg="http://www.w3.org/2000/svg"
   xmlns="http://www.w3.org/2000/svg"
   version="1.1"
   width="25"
   height="25"
   id="svg">
  <defs
     id="defs" />
  <metadata
     id="metadata">
    <rdf:RDF>
      <cc:Work
         rdf:about="">
        <dc:format>image/svg+xml</dc:format>
        <dc:type
           rdf:resource="http://purl.org/dc/dcmitype/StillImage" />
        <dc:title></dc:title>
      </cc:Work>
    </rdf:RDF>
  </metadata>
  <g
     transform="translate(0,-1027.3622)"
     id="icons-mk">
    <path
       d="m 19.187465,1035.2356 0,2.3125 -11.5936998,0 0,4.75 11.5936998,0 0,2.1562 2.9063,-2.3124 2.9062,-2.2813 -2.9062,-2.3125 -2.9063,-2.3125 z m -17.5935998,-4.0441 a 1.7806781,1.7806781 0 0 0 -1.593800022324,1.7813 l 0,13.7813 A 1.7806781,1.7806781 0 0 0 1.7812652,1048.5353 l 14.4687998,0 a 1.7806781,1.7806781 0 0 0 1.7812,-1.7812 l 0,-1.5 0,-1.7813 -3.5624,0 0,1.5 -10.9062998,0 0,-10.2187 10.9062998,0 0,1.6874 3.5624,0 0,-1.7812 0,-1.6875 a 1.7806781,1.7806781 0 0 0 -1.7812,-1.7813 l -14.4687998,0 a 1.7806781,1.7806781 0 0 0 -0.1874,0 z"
       id="logout"
       style="fill:#000000;fill-opacity:1;stroke:none" />
  </g>
</svg>
