<?xml version="1.0" encoding="UTF-8" standalone="no"?>
<!-- Created with Inkscape (http://www.inkscape.org/) -->
<!-- icons-mk created by Matthias Kuhnel (2019), reuseIT, https://reuseproject.org -->

<svg
   xmlns:dc="http://purl.org/dc/elements/1.1/"
   xmlns:cc="http://creativecommons.org/ns#"
   xmlns:rdf="http://www.w3.org/1999/02/22-rdf-syntax-ns#"
   xmlns:svg="http://www.w3.org/2000/svg"
   xmlns="http://www.w3.org/2000/svg"
   version="1.1"
   width="25"
   height="25"
   id="svg">
  <defs
     id="defs" />
  <metadata
     id="metadata">
    <rdf:RDF>
      <cc:Work
         rdf:about="">
        <dc:format>image/svg+xml</dc:format>
        <dc:type
           rdf:resource="http://purl.org/dc/dcmitype/StillImage" />
        <dc:title></dc:title>
      </cc:Work>
    </rdf:RDF>
  </metadata>
  <g
     transform="translate(0,-1027.3622)"
     id="icons-mk">
    <path
       d="m 9.9019998,1027.3622 c -2.5319997,0 -5.0679997,0.9432 -6.9999997,2.875 -3.86399995,3.8635 -3.86399995,10.1365 0,14 3.329,3.3292 8.4279999,3.7831 12.2499999,1.375 l 6.719,6.75 3.125,-3.125 -6.719,-6.75 c 2.398,-3.8207 1.919,-8.9248 -1.406,-12.25 -1.932,-1.9318 -4.437,-2.875 -6.9690002,-2.875 z m 0,3.6875 c 1.5830002,0 3.1680002,0.6051 4.3750002,1.8125 2.414,2.4147 2.414,6.3352 0,8.75 -2.415,2.4147 -6.3349999,2.4147 -8.7499999,0 -2.415,-2.4147 -2.415,-6.3353 0,-8.75 1.208,-1.2074 2.7929997,-1.8125 4.3749997,-1.8125 z"
       id="magnifier"
       style="fill:#000000;fill-opacity:1;stroke:none" />
  </g>
</svg>
