<?xml version="1.0" encoding="UTF-8" standalone="no"?>
<!-- Created with Inkscape (http://www.inkscape.org/) -->
<!-- icons-mk created by Matthias Kuhnel (2019), reuseIT, https://reuseproject.org -->

<svg
   xmlns:dc="http://purl.org/dc/elements/1.1/"
   xmlns:cc="http://creativecommons.org/ns#"
   xmlns:rdf="http://www.w3.org/1999/02/22-rdf-syntax-ns#"
   xmlns:svg="http://www.w3.org/2000/svg"
   xmlns="http://www.w3.org/2000/svg"
   version="1.1"
   width="25"
   height="25"
   id="svg">
  <defs
     id="defs" />
  <metadata
     id="metadata">
    <rdf:RDF>
      <cc:Work
         rdf:about="">
        <dc:format>image/svg+xml</dc:format>
        <dc:type
           rdf:resource="http://purl.org/dc/dcmitype/StillImage" />
        <dc:title></dc:title>
      </cc:Work>
    </rdf:RDF>
  </metadata>
  <g
     transform="translate(0,-1027.3622)"
     id="icons-mk">
    <path
       d="m 8.3842999,1034.6238 c -4.6306,0 -8.38429995,3.7602 -8.38429995,8.3843 0,4.6241 3.753699950000001,8.3843 8.38429995,8.3843 4.6305001,0 8.3844001,-3.7602 8.3844001,-8.3843 0,-4.6241 -3.7539,-8.3843 -8.3844001,-8.3843 z m 0,2.0961 c 3.4731001,0 6.2883001,2.82 6.2883001,6.2882 0,3.468 -2.8152,6.2882 -6.2883001,6.2882 -3.473,0 -6.2881,-2.8203 -6.2881,-6.2882 0,-3.4682 2.8151,-6.2882 6.2881,-6.2882 z M 16.779,1030.02 l 1.9595,2.3226 -4.9619,4.692 1.5189,1.7984 4.9394,-4.6924 1.8834,2.1836 L 25,1028.332 z"
       id="male"
       style="fill:#000000;fill-opacity:1" />
  </g>
</svg>
