<?xml version="1.0" encoding="UTF-8" standalone="no"?>
<!-- Created with Inkscape (http://www.inkscape.org/) -->
<!-- icons-mk created by Matthias Kuhnel (2019), reuseIT, https://reuseproject.org -->

<svg
   xmlns:dc="http://purl.org/dc/elements/1.1/"
   xmlns:cc="http://creativecommons.org/ns#"
   xmlns:rdf="http://www.w3.org/1999/02/22-rdf-syntax-ns#"
   xmlns:svg="http://www.w3.org/2000/svg"
   xmlns="http://www.w3.org/2000/svg"
   version="1.1"
   width="25"
   height="25"
   id="svg">
  <defs
     id="defs" />
  <metadata
     id="metadata">
    <rdf:RDF>
      <cc:Work
         rdf:about="">
        <dc:format>image/svg+xml</dc:format>
        <dc:type
           rdf:resource="http://purl.org/dc/dcmitype/StillImage" />
        <dc:title></dc:title>
      </cc:Work>
    </rdf:RDF>
  </metadata>
  <g
     transform="translate(0,-1027.3622)"
     id="icons-mk">
    <path
       d="m 1e-7,1036.3622 0,16 24.9999999,0 0,-16 -24.9999999,0 z m 10.4999999,3.5 0,1.4062 -3.4379999,1.5313 -3.437,1.5625 3.437,1.5312 3.4379999,1.5313 0,1.4375 -8.9999999,-4.0313 0,-0.9687 8.9999999,-4 z m 4,0 9,4 0,0.9687 -9,4.0313 0,-1.4375 3.438,-1.5313 3.437,-1.5312 -3.437,-1.5625 -3.438,-1.5313 0,-1.4062 z M 1e-7,1027.3622 l 0,8 24.9999999,0 0,-8 -24.9999999,0 z m 13.0619999,1.5625 1.25,0 0,2.4375 1.032,-0.9375 -0.313,0 0,-0.2813 1.188,0 0,0.2813 -0.469,0 -0.656,0.5937 1.094,1.4063 0.281,0 0,0.3125 -1.5,0 0,-0.3125 0.312,0 -0.719,-0.9063 -0.25,0.2188 0,0.6875 0.313,0 0,0.3125 -1.563,0 0,-0.3125 0.376,0 0,-3.1875 -0.376,0 0,-0.3125 z m -11.3739999,0.1563 1.531,0 1.031,2.3437 1.031,-2.3437 1.5,0 0,0.3125 -0.469,0 0,3.0312 0.469,0 0,0.3125 -1.875,0 0,-0.3125 0.469,0 0,-2.7812 -1.125,2.5624 -0.625,0 -1.125,-2.5624 0,2.7812 0.469,0 0,0.3125 -1.281,0 0,-0.3125 0.468,0 0,-3.0312 -0.468,0 0,-0.3125 z m 6.75,0.9687 c 0.463,0 0.815,0.1087 1.031,0.2812 0.215,0.1726 0.312,0.4431 0.312,0.8125 l 0,1.2813 0.3749999,0 0,0.3125 -1.2499999,0 0,-0.3438 c -0.114,0.1368 -0.235,0.2474 -0.375,0.3125 -0.14,0.065 -0.289,0.094 -0.469,0.094 -0.265,0 -0.482,-0.076 -0.624,-0.2187 -0.143,-0.1424 -0.219,-0.3285 -0.219,-0.5938 0,-0.2913 0.108,-0.5114 0.312,-0.6562 0.205,-0.1449 0.526,-0.2188 0.938,-0.2188 l 0.437,0 0,-0.1562 c 0,-0.21 -0.03,-0.3687 -0.125,-0.4688 -0.1,-0.1001 -0.26,-0.1562 -0.469,-0.1562 -0.172,0 -0.312,0.023 -0.406,0.094 -0.09,0.071 -0.148,0.2139 -0.187,0.375 l -0.281,0 0,-0.5625 c 0.154,-0.055 0.302,-0.097 0.468,-0.125 0.166,-0.028 0.348,-0.062 0.532,-0.062 z m 4.0929999,0 c 0.05,0 0.115,0.024 0.188,0.031 0.07,0.01 0.155,0.018 0.25,0.031 l 0,0.7812 -0.281,0 c -0.01,-0.1383 -0.06,-0.2449 -0.126,-0.3125 -0.07,-0.067 -0.157,-0.125 -0.281,-0.125 -0.189,0 -0.328,0.084 -0.437,0.25 -0.109,0.1661 -0.157,0.3929 -0.156,0.6875 l 0,1.0313 0.468,0 0,0.3125 -1.718,0 0,-0.3125 0.374,0 0,-2 -0.406,0 0,-0.2813 1.282,0 0,0.4375 c 0.08,-0.1806 0.173,-0.2879 0.312,-0.375 0.139,-0.087 0.329,-0.1562 0.531,-0.1562 z m 9.594,0 c 0.369,0 0.631,0.1317 0.844,0.375 0.212,0.2433 0.343,0.5752 0.343,1 0,0.4248 -0.131,0.7558 -0.343,1 -0.213,0.2441 -0.475,0.375 -0.844,0.375 -0.182,0 -0.345,-0.028 -0.469,-0.094 -0.123,-0.066 -0.239,-0.1774 -0.312,-0.3125 l 0,1.0937 0.406,0 0,0.2813 -1.625,0 0,-0.2813 0.375,0 0,-3.0625 -0.375,0 0,-0.2812 1.219,0 0,0.3125 c 0.07,-0.1351 0.189,-0.2153 0.312,-0.2813 0.124,-0.066 0.287,-0.125 0.469,-0.125 z m -5.625,0.094 1.219,0 0,1.5 c 0,0.3223 0.04,0.5379 0.09,0.625 0.05,0.087 0.139,0.125 0.282,0.125 0.174,0 0.294,-0.059 0.375,-0.1875 0.08,-0.1286 0.125,-0.3451 0.125,-0.625 l 0,-1.1563 -0.313,0 0,-0.2812 1.188,0 0,2.2812 0.375,0 0,0.3125 -1.25,0 0,-0.375 c -0.103,0.1547 -0.211,0.2754 -0.344,0.3438 -0.133,0.068 -0.297,0.094 -0.5,0.094 -0.291,0 -0.507,-0.078 -0.656,-0.25 -0.149,-0.1717 -0.25,-0.4476 -0.25,-0.7813 l 0,-1.3437 -0.344,0 0,-0.2813 z m 5.344,0.3125 c -0.173,0 -0.298,0.052 -0.375,0.1875 -0.08,0.1351 -0.125,0.3535 -0.125,0.6562 l 0,0.25 c 0,0.3028 0.05,0.5212 0.125,0.6563 0.08,0.1351 0.202,0.2187 0.375,0.2187 0.177,0 0.302,-0.076 0.375,-0.2187 0.07,-0.1432 0.125,-0.4085 0.125,-0.7813 0,-0.3727 -0.05,-0.6388 -0.125,-0.7812 -0.07,-0.1424 -0.198,-0.1875 -0.375,-0.1875 z m -13.2499999,0.9375 c -0.161,0 -0.289,0.037 -0.375,0.125 -0.09,0.088 -0.125,0.2106 -0.125,0.375 0,0.1644 0.03,0.2936 0.09,0.375 0.06,0.081 0.152,0.125 0.281,0.125 0.133,0 0.231,-0.037 0.312,-0.125 0.08,-0.088 0.125,-0.1989 0.125,-0.3438 l 0,-0.5312 -0.312,0 z"
       id="markup-language"
       style="fill:#000000;fill-opacity:1" />
  </g>
</svg>
