<?xml version="1.0" encoding="UTF-8" standalone="no"?>
<!-- Created with Inkscape (http://www.inkscape.org/) -->
<!-- icons-mk created by Matthias Kuhnel (2019), reuseIT, https://reuseproject.org -->

<svg
   xmlns:dc="http://purl.org/dc/elements/1.1/"
   xmlns:cc="http://creativecommons.org/ns#"
   xmlns:rdf="http://www.w3.org/1999/02/22-rdf-syntax-ns#"
   xmlns:svg="http://www.w3.org/2000/svg"
   xmlns="http://www.w3.org/2000/svg"
   version="1.1"
   width="25"
   height="25"
   id="svg">
  <defs
     id="defs" />
  <metadata
     id="metadata">
    <rdf:RDF>
      <cc:Work
         rdf:about="">
        <dc:format>image/svg+xml</dc:format>
        <dc:type
           rdf:resource="http://purl.org/dc/dcmitype/StillImage" />
        <dc:title></dc:title>
      </cc:Work>
    </rdf:RDF>
  </metadata>
  <g
     transform="translate(0,-1027.3622)"
     id="icons-mk">
    <path
       d="m 16.6154,1031.4777 c -4.6307,0 -8.3844998,3.7603 -8.3844998,8.3845 0,4.6241 3.7537998,8.3845 8.3844998,8.3845 4.6306,0 8.3845,-3.7604 8.3845,-8.3845 0,-4.6242 -3.7539,-8.3845 -8.3845,-8.3845 z m 0,2.0961 c 3.4731,0 6.2884,2.8202 6.2884,6.2884 0,3.468 -2.8153,6.2884 -6.2884,6.2884 -3.4731,0 -6.2883,-2.8204 -6.2883,-6.2884 0,-3.4682 2.8152,-6.2884 6.2883,-6.2884 z m -8.2307998,-2.0961 c -4.6307,0 -8.3845,3.7603 -8.3845,8.3845 0,4.6241 3.7538,8.3845 8.3845,8.3845 4.6305998,0 8.3844998,-3.7604 8.3844998,-8.3845 0,-4.6242 -3.7539,-8.3845 -8.3844998,-8.3845 z m 0,2.0961 c 3.4730998,0 6.2883998,2.8202 6.2883998,6.2884 0,3.468 -2.8153,6.2884 -6.2883998,6.2884 -3.4731,0 -6.2883,-2.8204 -6.2883,-6.2884 0,-3.4682 2.8152,-6.2884 6.2883,-6.2884 z"
       id="marriage"
       style="fill:#000000;fill-opacity:1" />
  </g>
</svg>
