<?xml version="1.0" encoding="UTF-8" standalone="no"?>
<!-- Created with Inkscape (http://www.inkscape.org/) -->
<!-- icons-mk created by Matthias Kuhnel (2019), reuseIT, https://reuseproject.org -->

<svg
   xmlns:dc="http://purl.org/dc/elements/1.1/"
   xmlns:cc="http://creativecommons.org/ns#"
   xmlns:rdf="http://www.w3.org/1999/02/22-rdf-syntax-ns#"
   xmlns:svg="http://www.w3.org/2000/svg"
   xmlns="http://www.w3.org/2000/svg"
   version="1.1"
   width="25"
   height="25"
   id="svg">
  <defs
     id="defs" />
  <metadata
     id="metadata">
    <rdf:RDF>
      <cc:Work
         rdf:about="">
        <dc:format>image/svg+xml</dc:format>
        <dc:type
           rdf:resource="http://purl.org/dc/dcmitype/StillImage" />
        <dc:title></dc:title>
      </cc:Work>
    </rdf:RDF>
  </metadata>
  <g
     transform="translate(0,-1027.3622)"
     id="icons-mk">
    <path
       d="m 7.5061,1027.3625 c -0.6268,0 -1.1337,0.5069 -1.1337,1.1336 0,0.6267 0.5069,1.1336 1.1337,1.1336 0.6266,0 1.1336,-0.5069 1.1336,-1.1336 0,-0.6267 -0.507,-1.1336 -1.1336,-1.1336 z m 2.5123,0 c -0.6268,0 -1.1643,0.5069 -1.1643,1.1336 0,0.6267 0.5375,1.1336 1.1643,1.1336 0.6265,0 1.1336,-0.5069 1.1336,-1.1336 0,-0.6267 -0.5071,-1.1336 -1.1336,-1.1336 z m 2.4816,0 c -0.6268,0 -1.1335,0.5069 -1.1335,1.1336 0,0.6267 0.5067,1.1336 1.1335,1.1336 0.6267,0 1.1335,-0.5069 1.1335,-1.1336 0,-0.6267 -0.5068,-1.1336 -1.1335,-1.1336 z m 2.4815,0 c -0.6267,0 -1.1335,0.5069 -1.1335,1.1336 0,0.6267 0.5068,1.1336 1.1335,1.1336 0.6267,0 1.1644,-0.5069 1.1644,-1.1336 0,-0.6267 -0.5377,-1.1336 -1.1644,-1.1336 z m 2.5124,0 c -0.6268,0 -1.1336,0.5069 -1.1336,1.1336 0,0.6267 0.5068,1.1336 1.1336,1.1336 0.6266,0 1.1336,-0.5069 1.1336,-1.1336 0,-0.6267 -0.507,-1.1336 -1.1336,-1.1336 z m -8.6398,2.4816 c -0.6267,0 -1.1335,0.5069 -1.1335,1.1336 0,0.6267 0.5068,1.1336 1.1335,1.1336 0.6267,0 1.1643,-0.5069 1.1643,-1.1336 0,-0.6267 -0.5376,-1.1336 -1.1643,-1.1336 z m 2.5124,0 c -0.627,0 -1.1337,0.5069 -1.1337,1.1336 0,0.6267 0.5067,1.1336 1.1337,1.1336 0.6265,0 1.1335,-0.5069 1.1335,-1.1336 0,-0.6267 -0.507,-1.1336 -1.1335,-1.1336 z m 2.4815,0 c -0.6267,0 -1.1335,0.5069 -1.1335,1.1336 0,0.6267 0.5068,1.1336 1.1335,1.1336 0.6267,0 1.1335,-0.5069 1.1335,-1.1336 0,-0.6267 -0.5068,-1.1336 -1.1335,-1.1336 z m 2.5123,0 c -0.6268,0 -1.1336,0.5069 -1.1336,1.1336 0,0.6267 0.5068,1.1336 1.1336,1.1336 0.6267,0 1.1336,-0.5069 1.1336,-1.1336 0,-0.6267 -0.5069,-1.1336 -1.1336,-1.1336 z m -6.3419,2.5123 c -0.6268,0 -1.1643,0.5069 -1.1643,1.1336 0,0.6266 0.5375,1.1335 1.1643,1.1335 0.6265,0 1.1336,-0.5069 1.1336,-1.1335 0,-0.6267 -0.5071,-1.1336 -1.1336,-1.1336 z m 2.4816,0 c -0.6268,0 -1.1335,0.5069 -1.1335,1.1336 0,0.6266 0.5067,1.1335 1.1335,1.1335 0.6267,0 1.1335,-0.5069 1.1335,-1.1335 0,-0.6267 -0.5068,-1.1336 -1.1335,-1.1336 z m 2.4815,0 c -0.6267,0 -1.1335,0.5069 -1.1335,1.1336 0,0.6266 0.5068,1.1335 1.1335,1.1335 0.6267,0 1.1644,-0.5069 1.1644,-1.1335 0,-0.6267 -0.5377,-1.1336 -1.1644,-1.1336 z m -13.848,1.3786 c -0.6265,0 -1.1335,0.507 -1.1335,1.1336 0,0.6267 0.507,1.1336 1.1335,1.1336 0.6267,0 1.1337,-0.507 1.1337,-1.1336 0,-0.6267 -0.507,-1.1336 -1.1337,-1.1336 z m 22.733,0 c -0.6268,0 -1.1337,0.5069 -1.1337,1.1336 0,0.6266 0.5069,1.1336 1.1337,1.1336 0.6265,0 1.1335,-0.5069 1.1335,-1.1336 0,-0.6266 -0.507,-1.1336 -1.1335,-1.1336 z m -12.5,1.103 c -0.627,0 -1.1337,0.5069 -1.1337,1.1335 0,0.6268 0.5067,1.1336 1.1337,1.1336 0.6265,0 1.1335,-0.5069 1.1335,-1.1336 0,-0.6267 -0.507,-1.1335 -1.1335,-1.1335 z m 2.4815,0 c -0.6267,0 -1.1335,0.5069 -1.1335,1.1335 0,0.6268 0.5068,1.1336 1.1335,1.1336 0.6267,0 1.1335,-0.5069 1.1335,-1.1336 0,-0.6267 -0.5068,-1.1335 -1.1335,-1.1335 z m -10.2021,0.03 c -0.6267,0 -1.1643,0.5069 -1.1643,1.1336 0,0.6268 0.5376,1.1336 1.1643,1.1336 0.6266,0 1.1335,-0.5068 1.1335,-1.1336 0,-0.6267 -0.5069,-1.1336 -1.1335,-1.1336 z m 17.7082,0 c -0.6266,0 -1.1335,0.5069 -1.1335,1.1336 0,0.6268 0.5069,1.1336 1.1335,1.1336 0.6267,0 1.1643,-0.5068 1.1643,-1.1336 0,-0.6267 -0.5376,-1.1336 -1.1643,-1.1336 z m -20.2206,1.348 c -0.6265,0 -1.1335,0.507 -1.1335,1.1337 0,0.6267 0.507,1.1336 1.1335,1.1336 0.6267,0 1.1337,-0.5069 1.1337,-1.1336 0,-0.6267 -0.507,-1.1337 -1.1337,-1.1337 z m 4.994,0 c -0.6267,0 -1.1336,0.507 -1.1336,1.1337 0,0.6267 0.5069,1.1336 1.1336,1.1336 0.6266,0 1.1335,-0.5069 1.1335,-1.1336 0,-0.6267 -0.5069,-1.1337 -1.1335,-1.1337 z m 12.7449,0 c -0.6265,0 -1.1334,0.507 -1.1334,1.1337 0,0.6267 0.5069,1.1336 1.1334,1.1336 0.6268,0 1.1337,-0.5069 1.1337,-1.1336 0,-0.6267 -0.5069,-1.1337 -1.1337,-1.1337 z m 4.9941,0 c -0.6268,0 -1.1337,0.507 -1.1337,1.1337 0,0.6267 0.5069,1.1336 1.1337,1.1336 0.6265,0 1.1335,-0.5069 1.1335,-1.1336 0,-0.6267 -0.507,-1.1337 -1.1335,-1.1337 z m -20.2206,1.1337 c -0.6267,0 -1.1643,0.5069 -1.1643,1.1336 0,0.6267 0.5376,1.1335 1.1643,1.1335 0.6266,0 1.1335,-0.5068 1.1335,-1.1335 0,-0.6268 -0.5069,-1.1336 -1.1335,-1.1336 z m 4.9631,0 c -0.6265,0 -1.1335,0.5069 -1.1335,1.1336 0,0.6267 0.507,1.1335 1.1335,1.1335 0.6267,0 1.1643,-0.5068 1.1643,-1.1335 0,-0.6268 -0.5376,-1.1336 -1.1643,-1.1336 z m 3.891,0 c -0.6268,0 -1.1335,0.5069 -1.1335,1.1336 0,0.1008 0.036,0.1825 0.061,0.2757 -0.1016,-0.03 -0.1951,-0.03 -0.3063,-0.03 -0.6268,0 -1.1336,0.5068 -1.1336,1.1335 0,0.6268 0.5068,1.1335 1.1336,1.1335 0.1115,0 0.2045,-0.031 0.3063,-0.061 -0.026,0.096 -0.061,0.2019 -0.061,0.3063 0,0.6268 0.5067,1.1336 1.1335,1.1336 0.6267,0 1.1335,-0.5067 1.1335,-1.1336 0,-0.1044 -0.034,-0.2103 -0.061,-0.3063 0.1018,0.03 0.1948,0.061 0.3063,0.061 0.6267,0 1.1335,-0.5067 1.1335,-1.1335 0,-0.6267 -0.5068,-1.1335 -1.1335,-1.1335 -0.1112,0 -0.2047,8e-4 -0.3063,0.03 0.025,-0.093 0.061,-0.1749 0.061,-0.2757 0,-0.6268 -0.5068,-1.1336 -1.1335,-1.1336 z m 3.891,0 c -0.6267,0 -1.1643,0.5068 -1.1643,1.1336 0,0.6267 0.5376,1.1335 1.1643,1.1335 0.6265,0 1.1335,-0.5068 1.1335,-1.1335 0,-0.6267 -0.507,-1.1336 -1.1335,-1.1336 z m 4.9631,0 c -0.6266,0 -1.1335,0.5068 -1.1335,1.1336 0,0.6267 0.5069,1.1335 1.1335,1.1335 0.6267,0 1.1643,-0.5068 1.1643,-1.1335 0,-0.6267 -0.5376,-1.1336 -1.1643,-1.1336 z m -20.2206,1.3787 c -0.6265,0 -1.1335,0.5068 -1.1335,1.1335 0,0.6268 0.507,1.1335 1.1335,1.1335 0.6267,0 1.1337,-0.5067 1.1337,-1.1335 0,-0.6267 -0.507,-1.1335 -1.1337,-1.1335 z m 4.994,0 c -0.6267,0 -1.1336,0.5068 -1.1336,1.1335 0,0.6268 0.5069,1.1335 1.1336,1.1335 0.6266,0 1.1335,-0.5067 1.1335,-1.1335 0,-0.6267 -0.5069,-1.1335 -1.1335,-1.1335 z m 12.7449,0 c -0.6265,0 -1.1334,0.5068 -1.1334,1.1335 0,0.6268 0.5069,1.1335 1.1334,1.1335 0.6268,0 1.1337,-0.5067 1.1337,-1.1335 0,-0.6267 -0.5069,-1.1335 -1.1337,-1.1335 z m 4.9941,0 c -0.6268,0 -1.1337,0.5068 -1.1337,1.1335 0,0.6268 0.5069,1.1335 1.1337,1.1335 0.6265,0 1.1335,-0.5067 1.1335,-1.1335 0,-0.6267 -0.507,-1.1335 -1.1335,-1.1335 z m -11.6729,0.8271 c 0.1019,0.03 0.1948,0.061 0.3064,0.061 0.1116,0 0.2045,-0.031 0.3064,-0.061 -0.026,0.096 -0.061,0.202 -0.061,0.3064 0,0.1116 0.031,0.2045 0.061,0.3064 -0.1019,-0.03 -0.1948,-0.061 -0.3064,-0.061 -0.1116,0 -0.2045,0.031 -0.3064,0.061 0.03,-0.1019 0.061,-0.1948 0.061,-0.3064 0,-0.1044 -0.035,-0.2103 -0.061,-0.3064 z m -8.5477,0.3064 c -0.6267,0 -1.1643,0.507 -1.1643,1.1335 0,0.627 0.5376,1.1337 1.1643,1.1337 0.6266,0 1.1335,-0.5067 1.1335,-1.1337 0,-0.6266 -0.5069,-1.1335 -1.1335,-1.1335 z m 4.9631,0 c -0.6265,0 -1.1335,0.507 -1.1335,1.1335 0,0.627 0.507,1.1337 1.1335,1.1337 0.6267,0 1.1643,-0.5067 1.1643,-1.1337 0,-0.6266 -0.5376,-1.1335 -1.1643,-1.1335 z m 7.782,0 c -0.6267,0 -1.1643,0.5069 -1.1643,1.1335 0,0.627 0.5376,1.1337 1.1643,1.1337 0.6265,0 1.1335,-0.5067 1.1335,-1.1337 0,-0.6265 -0.507,-1.1335 -1.1335,-1.1335 z m 4.9631,0 c -0.6266,0 -1.1335,0.5069 -1.1335,1.1335 0,0.627 0.5069,1.1337 1.1335,1.1337 0.6267,0 1.1643,-0.5067 1.1643,-1.1337 0,-0.6265 -0.5376,-1.1335 -1.1643,-1.1335 z m -20.2206,1.348 c -0.6265,0 -1.1335,0.5071 -1.1335,1.1336 0,0.6268 0.507,1.1336 1.1335,1.1336 0.6267,0 1.1337,-0.5068 1.1337,-1.1336 0,-0.6266 -0.507,-1.1336 -1.1337,-1.1336 z m 4.994,0 c -0.6267,0 -1.1336,0.5071 -1.1336,1.1336 0,0.6268 0.5069,1.1336 1.1336,1.1336 0.6266,0 1.1335,-0.5068 1.1335,-1.1336 0,-0.6266 -0.5069,-1.1336 -1.1335,-1.1336 z m 12.7449,0 c -0.6265,0 -1.1334,0.507 -1.1334,1.1336 0,0.6268 0.5069,1.1336 1.1334,1.1336 0.6268,0 1.1337,-0.5068 1.1337,-1.1336 0,-0.6265 -0.5069,-1.1336 -1.1337,-1.1336 z m 4.9941,0 c -0.6268,0 -1.1337,0.507 -1.1337,1.1336 0,0.6268 0.5069,1.1336 1.1337,1.1336 0.6265,0 1.1335,-0.5068 1.1335,-1.1336 0,-0.6265 -0.507,-1.1336 -1.1335,-1.1336 z m -20.2206,1.1336 c -0.6267,0 -1.1643,0.5069 -1.1643,1.1336 0,0.6268 0.5376,1.1336 1.1643,1.1336 0.6266,0 1.1335,-0.5068 1.1335,-1.1336 0,-0.6267 -0.5069,-1.1336 -1.1335,-1.1336 z m 17.7082,0 c -0.6266,0 -1.1335,0.5069 -1.1335,1.1336 0,0.6268 0.5069,1.1336 1.1335,1.1336 0.6267,0 1.1643,-0.5068 1.1643,-1.1336 0,-0.6267 -0.5376,-1.1336 -1.1643,-1.1336 z m -9.9876,0.2451 c -0.627,0 -1.1337,0.5069 -1.1337,1.1336 0,0.6267 0.5067,1.1336 1.1337,1.1336 0.6265,0 1.1335,-0.5069 1.1335,-1.1336 0,-0.6267 -0.507,-1.1336 -1.1335,-1.1336 z m 2.4815,0 c -0.6267,0 -1.1335,0.5069 -1.1335,1.1336 0,0.6267 0.5068,1.1336 1.1335,1.1336 0.6267,0 1.1335,-0.5069 1.1335,-1.1336 0,-0.6267 -0.5068,-1.1336 -1.1335,-1.1336 z m -12.7145,1.1336 c -0.6265,0 -1.1335,0.507 -1.1335,1.1336 0,0.6268 0.507,1.1337 1.1335,1.1337 0.6267,0 1.1337,-0.5069 1.1337,-1.1337 0,-0.6267 -0.507,-1.1336 -1.1337,-1.1336 z m 22.733,0 c -0.6268,0 -1.1337,0.5069 -1.1337,1.1336 0,0.6268 0.5069,1.1337 1.1337,1.1337 0.6265,0 1.1335,-0.5069 1.1335,-1.1337 0,-0.6266 -0.507,-1.1336 -1.1335,-1.1336 z m -13.8481,1.3787 c -0.6268,0 -1.1643,0.5069 -1.1643,1.1335 0,0.6267 0.5375,1.1336 1.1643,1.1336 0.6265,0 1.1336,-0.5069 1.1336,-1.1336 0,-0.6266 -0.5071,-1.1335 -1.1336,-1.1335 z m 2.4816,0 c -0.6268,0 -1.1335,0.5069 -1.1335,1.1335 0,0.6267 0.5067,1.1336 1.1335,1.1336 0.6267,0 1.1335,-0.5069 1.1335,-1.1336 0,-0.6266 -0.5068,-1.1335 -1.1335,-1.1335 z m 2.4815,0 c -0.6267,0 -1.1335,0.5069 -1.1335,1.1335 0,0.6267 0.5068,1.1336 1.1335,1.1336 0.6267,0 1.1644,-0.5069 1.1644,-1.1336 0,-0.6266 -0.5377,-1.1335 -1.1644,-1.1335 z m -6.1274,2.4816 c -0.6267,0 -1.1335,0.5069 -1.1335,1.1335 0,0.6267 0.5068,1.1336 1.1335,1.1336 0.6267,0 1.1643,-0.5068 1.1643,-1.1336 0,-0.6266 -0.5376,-1.1335 -1.1643,-1.1335 z m 2.5124,0 c -0.627,0 -1.1337,0.5069 -1.1337,1.1335 0,0.6267 0.5067,1.1336 1.1337,1.1336 0.6265,0 1.1335,-0.5068 1.1335,-1.1336 0,-0.6266 -0.507,-1.1335 -1.1335,-1.1335 z m 2.4815,0 c -0.6267,0 -1.1335,0.5069 -1.1335,1.1335 0,0.6267 0.5068,1.1336 1.1335,1.1336 0.6267,0 1.1335,-0.5068 1.1335,-1.1336 0,-0.6266 -0.5068,-1.1335 -1.1335,-1.1335 z m 2.5123,0 c -0.6268,0 -1.1336,0.5069 -1.1336,1.1335 0,0.6267 0.5068,1.1336 1.1336,1.1336 0.6267,0 1.1336,-0.5068 1.1336,-1.1336 0,-0.6266 -0.5069,-1.1335 -1.1336,-1.1335 z m -8.8542,2.5122 c -0.6268,0 -1.1337,0.5069 -1.1337,1.1337 0,0.6265 0.5069,1.1335 1.1337,1.1335 0.6266,0 1.1336,-0.5069 1.1336,-1.1335 0,-0.6267 -0.507,-1.1337 -1.1336,-1.1337 z m 2.5123,0 c -0.6268,0 -1.1643,0.5069 -1.1643,1.1337 0,0.6265 0.5375,1.1335 1.1643,1.1335 0.6265,0 1.1336,-0.5069 1.1336,-1.1335 0,-0.6267 -0.5071,-1.1337 -1.1336,-1.1337 z m 2.4816,0 c -0.6268,0 -1.1335,0.5069 -1.1335,1.1337 0,0.6265 0.5067,1.1335 1.1335,1.1335 0.6267,0 1.1335,-0.5069 1.1335,-1.1335 0,-0.6267 -0.5068,-1.1337 -1.1335,-1.1337 z m 2.4815,0 c -0.6267,0 -1.1335,0.5069 -1.1335,1.1337 0,0.6265 0.5068,1.1335 1.1335,1.1335 0.6267,0 1.1644,-0.5069 1.1644,-1.1335 0,-0.6267 -0.5377,-1.1337 -1.1644,-1.1337 z m 2.5124,0 c -0.6268,0 -1.1336,0.5069 -1.1336,1.1337 0,0.6265 0.5068,1.1335 1.1336,1.1335 0.6266,0 1.1336,-0.5069 1.1336,-1.1335 0,-0.6267 -0.507,-1.1337 -1.1336,-1.1337 z"
       id="medal-balls"
       style="fill:#000000;fill-opacity:1;fill-rule:evenodd;stroke:none" />
  </g>
</svg>
