<?xml version="1.0" encoding="UTF-8" standalone="no"?>
<!-- Created with Inkscape (http://www.inkscape.org/) -->
<!-- icons-mk created by Matthias Kuhnel (2019), reuseIT, https://reuseproject.org -->

<svg
   xmlns:dc="http://purl.org/dc/elements/1.1/"
   xmlns:cc="http://creativecommons.org/ns#"
   xmlns:rdf="http://www.w3.org/1999/02/22-rdf-syntax-ns#"
   xmlns:svg="http://www.w3.org/2000/svg"
   xmlns="http://www.w3.org/2000/svg"
   version="1.1"
   width="25"
   height="25"
   id="svg">
  <defs
     id="defs" />
  <metadata
     id="metadata">
    <rdf:RDF>
      <cc:Work
         rdf:about="">
        <dc:format>image/svg+xml</dc:format>
        <dc:type
           rdf:resource="http://purl.org/dc/dcmitype/StillImage" />
        <dc:title></dc:title>
      </cc:Work>
    </rdf:RDF>
  </metadata>
  <g
     transform="translate(0,-1027.3622)"
     id="icons-mk">
    <path
       d="m 12.4266,1027.3631 a 2.9747586,2.9747586 0 0 0 -2.9010998,3.0117 l 0,5.7258 a 2.9747586,2.9747586 0 1 0 5.9493998,0 l 0,-5.7258 a 2.9747586,2.9747586 0 0 0 -3.0483,-3.0117 z m -6.7668998,10.1005 c 0,2.5949 2.0414,4.6568 4.7475998,5.3723 l 0,7.7147 -4.7475998,0 0,1.8116 13.6805998,0 0,-1.8116 -4.7476,0 0,-7.7147 c 2.7062,-0.7155 4.7476,-2.7774 4.7476,-5.3723 l -1.7804,0 c 0,2.0255 -2.1609,3.8731 -5.0599,3.8731 -2.8989998,0 -5.0598998,-1.8477 -5.0598998,-3.8731 l -1.7804,0 z"
       id="microphone"
       style="font-size:medium;font-style:normal;font-variant:normal;font-weight:normal;font-stretch:normal;text-indent:0;text-align:start;text-decoration:none;line-height:normal;letter-spacing:normal;word-spacing:normal;text-transform:none;direction:ltr;block-progression:tb;writing-mode:lr-tb;text-anchor:start;baseline-shift:baseline;color:#000000;fill:#000000;fill-opacity:1;stroke:none;stroke-width:5;marker:none;visibility:visible;display:inline;overflow:visible;enable-background:accumulate;font-family:Sans;-inkscape-font-specification:Sans" />
  </g>
</svg>
