<?xml version="1.0" encoding="UTF-8" standalone="no"?>
<!-- Created with Inkscape (http://www.inkscape.org/) -->
<!-- icons-mk created by Matthias Kuhnel (2019), reuseIT, https://reuseproject.org -->

<svg
   xmlns:dc="http://purl.org/dc/elements/1.1/"
   xmlns:cc="http://creativecommons.org/ns#"
   xmlns:rdf="http://www.w3.org/1999/02/22-rdf-syntax-ns#"
   xmlns:svg="http://www.w3.org/2000/svg"
   xmlns="http://www.w3.org/2000/svg"
   version="1.1"
   width="25"
   height="25"
   id="svg">
  <defs
     id="defs" />
  <metadata
     id="metadata">
    <rdf:RDF>
      <cc:Work
         rdf:about="">
        <dc:format>image/svg+xml</dc:format>
        <dc:type
           rdf:resource="http://purl.org/dc/dcmitype/StillImage" />
        <dc:title></dc:title>
      </cc:Work>
    </rdf:RDF>
  </metadata>
  <g
     transform="translate(0,-1027.3622)"
     id="icons-mk">
    <path
       d="m 2.3749998,1030.5185 c -1.308,0 -2.375,1.0359 -2.375,2.3437 l 0,10.2813 c 0,1.3078 1.067,2.3437 2.375,2.3437 l 9.1250002,0 0,1.875 -4.3440002,0 -1.187,1.5938 0,0.25 13.0620002,0 0,-0.2188 -1.093,-1.625 -4.438,0 0,-1.875 9.125,0 c 1.307,0 2.375,-1.036 2.375,-2.3437 l 0,-10.2813 c 0,-1.3079 -1.067,-2.3437 -2.375,-2.3437 l -20.2500002,0 z m 5.5,1.375 0.313,1.1875 2.2500002,8.4375 1.468,-5.5 0.219,-0.7813 0.406,0.7188 0.75,1.2812 1.281,-2.2812 0.313,-0.5 0.313,0.5 1.031,1.8125 5.281,0 0,0.6563 -5.5,0 -0.188,0 -0.09,-0.1876 -0.844,-1.4062 -1.313,2.25 -0.281,0.5312 -0.281,-0.5312 -0.625,-1.0625 -1.594,5.9063 -0.343,1.1874 -0.313,-1.1874 -2.2500002,-8.4376 -1,3.6876 -0.06,0.25 -0.25,0 -3.062,0 0,-0.6563 2.812,0 1.219,-4.6875 0.344,-1.1875 z"
       id="monitoring"
       style="fill:#000000;fill-opacity:1;stroke:none" />
  </g>
</svg>
