<?xml version="1.0" encoding="UTF-8" standalone="no"?>
<!-- Created with Inkscape (http://www.inkscape.org/) -->
<!-- icons-mk created by Matthias Kuhnel (2019), reuseIT, https://reuseproject.org -->

<svg
   xmlns:dc="http://purl.org/dc/elements/1.1/"
   xmlns:cc="http://creativecommons.org/ns#"
   xmlns:rdf="http://www.w3.org/1999/02/22-rdf-syntax-ns#"
   xmlns:svg="http://www.w3.org/2000/svg"
   xmlns="http://www.w3.org/2000/svg"
   version="1.1"
   width="25"
   height="25"
   id="svg">
  <defs
     id="defs" />
  <metadata
     id="metadata">
    <rdf:RDF>
      <cc:Work
         rdf:about="">
        <dc:format>image/svg+xml</dc:format>
        <dc:type
           rdf:resource="http://purl.org/dc/dcmitype/StillImage" />
        <dc:title></dc:title>
      </cc:Work>
    </rdf:RDF>
  </metadata>
  <g
     transform="translate(0,-1027.3622)"
     id="icons-mk">
    <path
       d="m 12.5,1027.3622 c -6.904,0 -12.5,5.5964 -12.5,12.5 0,6.9035 5.596,12.5 12.5,12.5 6.904,0 12.5,-5.5965 12.5,-12.5 0,-6.9036 -5.596,-12.5 -12.5,-12.5 z m 0,2.5 c 1.1,0 2.167,0.1722 3.156,0.5 -3.981,1.3188 -6.843,5.0766 -6.843,9.5 0,4.4209 2.866,8.148 6.843,9.4687 -0.991,0.3292 -2.054,0.5313 -3.156,0.5313 -5.523,0 -10,-4.4772 -10,-10 0,-5.5229 4.477,-10 10,-10 z"
       id="moon"
       style="fill:#000000;fill-opacity:1;stroke:none" />
  </g>
</svg>
