<?xml version="1.0" encoding="UTF-8" standalone="no"?>
<!-- Created with Inkscape (http://www.inkscape.org/) -->
<!-- icons-mk created by Matthias Kuhnel (2019), reuseIT, https://reuseproject.org -->

<svg
   xmlns:dc="http://purl.org/dc/elements/1.1/"
   xmlns:cc="http://creativecommons.org/ns#"
   xmlns:rdf="http://www.w3.org/1999/02/22-rdf-syntax-ns#"
   xmlns:svg="http://www.w3.org/2000/svg"
   xmlns="http://www.w3.org/2000/svg"
   version="1.1"
   width="25"
   height="25"
   id="svg">
  <defs
     id="defs" />
  <metadata
     id="metadata">
    <rdf:RDF>
      <cc:Work
         rdf:about="">
        <dc:format>image/svg+xml</dc:format>
        <dc:type
           rdf:resource="http://purl.org/dc/dcmitype/StillImage" />
        <dc:title></dc:title>
      </cc:Work>
    </rdf:RDF>
  </metadata>
  <g
     transform="translate(0,-1027.3622)"
     id="icons-mk">
    <path
       d="m 12.4063,1033.7212 3.9687,6.875 2.375,-4.125 6.25,10.8125 -4.75,0 -7.7187,0 -7.9375,0 -4.593800050000001,0 L 5.6875999,1037.4399 l 2.2812,3.9688 4.4375001,-7.6875 z m 7.4593,7.2858 c 0.048,-0.4256 0.4661,-0.3355 0.4816,0 0.016,0.331 0.01,0.5584 0.01,1.0799 0,0.5215 -0.5043,0.422 -0.4941,0.027 0.01,-0.3948 0,-0.7669 0,-1.1029 z m 3.7027,-3.8655 c -0.4258,0.045 -0.3388,0.4638 -0.01,0.4816 0.3311,0.018 0.5584,0.01 1.0799,0.017 0.5218,0.01 0.4256,-0.5015 0.031,-0.4938 -0.3948,0.01 -0.7669,0 -1.1029,0 z m -8.1129,0 c -0.4259,0.045 -0.3388,0.4638 -0.01,0.4816 0.331,0.018 0.5584,0.01 1.0799,0.017 0.5215,0.01 0.4256,-0.5015 0.031,-0.4938 -0.3948,0.01 -0.7666,0 -1.1029,0 z m 7.2853,2.5338 c -0.3329,-0.2692 -0.5675,0.088 -0.346,0.3349 0.2215,0.2468 0.3879,0.4018 0.7516,0.7755 0.3638,0.3737 0.6555,-0.054 0.371,-0.3274 -0.2844,-0.2734 -0.5404,-0.5435 -0.7766,-0.783 z m -5.7064,-5.7449 c -0.3329,-0.2692 -0.5675,0.088 -0.346,0.3349 0.2215,0.2467 0.3879,0.402 0.7516,0.7755 0.3641,0.3737 0.6555,-0.054 0.371,-0.3275 -0.2844,-0.2736 -0.5404,-0.5434 -0.7766,-0.7829 z m 0.4392,5.7516 c 0.333,-0.2693 0.5675,0.088 0.346,0.3349 -0.2215,0.2467 -0.3879,0.402 -0.7516,0.7754 -0.3641,0.3738 -0.6555,-0.054 -0.371,-0.3274 0.2845,-0.2736 0.5404,-0.5437 0.7766,-0.7829 z m 5.7449,-5.7386 c 0.333,-0.2692 0.5676,0.088 0.3463,0.3349 -0.2215,0.2465 -0.3878,0.402 -0.7519,0.7755 -0.3637,0.3737 -0.6551,-0.054 -0.3709,-0.3274 0.2841,-0.2737 0.5403,-0.5437 0.7765,-0.783 z m -3.3528,-1.2163 c 0.048,-0.4256 0.4661,-0.3355 0.4816,0 0.016,0.331 0.01,0.5583 0.01,1.0799 0,0.5215 -0.5043,0.4219 -0.4941,0.027 0.01,-0.3948 0,-0.7669 0,-1.1029 z m 2.8904,4.713 c 0,1.388 -1.1688,2.5133 -2.6106,2.5133 -1.4418,0 -2.6106,-1.1253 -2.6106,-2.5133 0,-1.3881 1.1688,-2.5133 2.6106,-2.5133 1.4418,0 2.6106,1.1252 2.6106,2.5133 z"
       id="mountain-sun-right"
       style="fill:#000000;fill-opacity:1;stroke:none" />
  </g>
</svg>
