<?xml version="1.0" encoding="UTF-8" standalone="no"?>
<!-- Created with Inkscape (http://www.inkscape.org/) -->
<!-- icons-mk created by Matthias Kuhnel (2019), reuseIT, https://reuseproject.org -->

<svg
   xmlns:dc="http://purl.org/dc/elements/1.1/"
   xmlns:cc="http://creativecommons.org/ns#"
   xmlns:rdf="http://www.w3.org/1999/02/22-rdf-syntax-ns#"
   xmlns:svg="http://www.w3.org/2000/svg"
   xmlns="http://www.w3.org/2000/svg"
   version="1.1"
   width="25"
   height="25"
   id="svg">
  <defs
     id="defs" />
  <metadata
     id="metadata">
    <rdf:RDF>
      <cc:Work
         rdf:about="">
        <dc:format>image/svg+xml</dc:format>
        <dc:type
           rdf:resource="http://purl.org/dc/dcmitype/StillImage" />
        <dc:title></dc:title>
      </cc:Work>
    </rdf:RDF>
  </metadata>
  <g
     transform="translate(0,-1027.3622)"
     id="icons-mk">
    <path
       d="m 4.5006501,1051.3602 0,-4.4602 c 0.9912,0.4633 1.9392,0.8107 2.8442,1.0423 0.905,0.2317 1.7992,0.3475 2.6825999,0.3475 1.8531,0 3.2968,-0.5145 4.331,-1.5433 1.0343,-1.0289 1.643,-2.556 1.8261,-4.5815 -0.7326,0.5387 -1.5136,0.9427 -2.3432,1.212 -0.8296,0.2694 -1.7292,0.4041 -2.6988,0.4041 -2.4670998,0 -4.4575999,-0.7192 -5.9711998,-2.1575 -1.5137,-1.4382 -2.2706,-3.3317 -2.2706,-5.6803 0,-2.5964 0.8431,-4.6757 2.5291999,-6.2379 1.686,-1.5621 3.9457001,-2.3432 6.7791999,-2.3432 3.1458,0 5.5807,1.0612 7.3044,3.1836 1.7238,2.1224 2.5857,5.1228 2.5857,9.0012 0,3.9863 -1.0073,7.1187 -3.022,9.3973 -2.0146,2.2786 -4.778,3.4179 -8.2902,3.4179 -1.1311999,0 -2.2139999,-0.083 -3.2481999,-0.2505 -1.0343,-0.167 -2.047,-0.4175 -3.0382,-0.7515 z M 12.17685,1039.741 c 1.0881,0 1.9069,-0.3528 2.4563,-1.0585 0.5495,-0.7057 0.8242,-1.7642 0.8242,-3.1755 0,-1.4006 -0.2747,-2.4564 -0.8242,-3.1674 -0.5494,-0.7111 -1.3682,-1.0666 -2.4563,-1.0666 -1.0882,0 -1.907,0.3555 -2.4563999,1.0666 -0.5495,0.711 -0.8242,1.7668 -0.8242,3.1674 0,1.4113 0.2747,2.4698 0.8242,3.1755 0.5493999,0.7057 1.3681999,1.0585 2.4563999,1.0585 z"
       id="nine"
       style="font-size:72px;font-style:normal;font-variant:normal;font-weight:bold;font-stretch:normal;line-height:125%;letter-spacing:0px;word-spacing:0px;fill:#000000;fill-opacity:1;stroke:none;font-family:DejaVu Sans;-inkscape-font-specification:DejaVu Sans Bold" />
  </g>
</svg>
