<?xml version="1.0" encoding="UTF-8" standalone="no"?>
<!-- Created with Inkscape (http://www.inkscape.org/) -->
<!-- icons-mk created by Matthias Kuhnel (2020), reuseIT, https://reuseproject.org -->

<svg
   xmlns:dc="http://purl.org/dc/elements/1.1/"
   xmlns:cc="http://creativecommons.org/ns#"
   xmlns:rdf="http://www.w3.org/1999/02/22-rdf-syntax-ns#"
   xmlns:svg="http://www.w3.org/2000/svg"
   xmlns="http://www.w3.org/2000/svg"
   version="1.1"
   width="25"
   height="25"
   id="svg">
  <defs
     id="defs" />
  <metadata
     id="metadata">
    <rdf:RDF>
      <cc:Work
         rdf:about="">
        <dc:format>image/svg+xml</dc:format>
        <dc:type
           rdf:resource="http://purl.org/dc/dcmitype/StillImage" />
        <dc:title></dc:title>
      </cc:Work>
    </rdf:RDF>
  </metadata>
  <g
     transform="translate(0,-1027.3622)"
     id="icons-mk">
    <path
       d="m 12.5,1027.3622 c -6.904,0 -12.5,5.6059 -12.5,12.5 0,6.8939 5.596,12.5 12.5,12.5 6.903,0 12.5,-5.6061 12.5,-12.5 0,-6.8941 -5.597,-12.5 -12.5,-12.5 z m 0,3.125 c 1.989,0 3.826,0.6301 5.344,1.6875 l -2.094,2.0937 -0.344,0 0,-0.75 c 0,-0.1747 -0.169,-0.3116 -0.343,-0.3125 l -5.157,0 c -0.03,-0.01 -0.09,-0.01 -0.124,0 -0.139,0.044 -0.225,0.1665 -0.219,0.3125 l 0,0.75 -2.469,0 -0.03,0 c -0.164,0.017 -0.281,0.1797 -0.281,0.3438 l 0,0.9375 c 0,0.1746 0.137,0.3427 0.312,0.3437 l 0.656,0 0,6.375 -2.937,2.9375 c -1.064,-1.5211 -1.688,-3.3496 -1.688,-5.3437 0,-5.1707 4.197,-9.375 9.375,-9.375 z m 7.563,3.875 c 1.126,1.547 1.812,3.4436 1.812,5.5 0,5.1702 -4.197,9.375 -9.375,9.375 -2.055,0 -3.955,-0.6905 -5.5,-1.8125 l 0.938,-0.9375 c 0.05,0.029 0.1,0.063 0.156,0.062 l 8.812,0 c 0.175,0 0.312,-0.1688 0.313,-0.3438 l 0,-9 2.844,-2.8437 z m -10.375,2.9375 0.03,0 0.969,0 c 0.12,0 0.217,0.1294 0.218,0.25 l 0,1.5625 -1.406,1.4062 0,-2.9687 c 0,-0.112 0.07,-0.238 0.188,-0.25 z m 2.281,0 0.03,0 0.719,0 -0.937,0.9375 0,-0.6875 c 0,-0.112 0.07,-0.238 0.187,-0.25 z m 3.5,1.6562 0,5.4375 c 0,0.1205 -0.1,0.2494 -0.219,0.25 l -0.968,0 c -0.122,0 -0.22,-0.1283 -0.219,-0.25 l 0,-4.0312 1.406,-1.4063 z m -2.281,2.2813 0,3.1562 c 0,0.1205 -0.1,0.2494 -0.219,0.25 l -0.969,0 c -0.121,0 -0.22,-0.1295 -0.218,-0.25 l 0,-1.75 1.406,-1.4062 z m -2.282,2.2812 0,0.875 c 0,0.1217 -0.1,0.2512 -0.218,0.25 l -0.906,0 1.124,-1.125 z"
       id="no-trash"
       style="font-size:medium;font-style:normal;font-variant:normal;font-weight:normal;font-stretch:normal;text-indent:0;text-align:start;text-decoration:none;line-height:normal;letter-spacing:normal;word-spacing:normal;text-transform:none;direction:ltr;block-progression:tb;writing-mode:lr-tb;text-anchor:start;baseline-shift:baseline;color:#000000;fill:#000000;fill-opacity:1;fill-rule:nonzero;stroke:none;stroke-width:1.25713694;marker:none;visibility:visible;display:inline;overflow:visible;enable-background:accumulate;font-family:Sans;-inkscape-font-specification:Sans" />
  </g>
</svg>
