<?xml version="1.0" encoding="UTF-8" standalone="no"?>
<!-- Created with Inkscape (http://www.inkscape.org/) -->
<!-- icons-mk created by Matthias Kuhnel (2019), reuseIT, https://reuseproject.org -->

<svg
   xmlns:dc="http://purl.org/dc/elements/1.1/"
   xmlns:cc="http://creativecommons.org/ns#"
   xmlns:rdf="http://www.w3.org/1999/02/22-rdf-syntax-ns#"
   xmlns:svg="http://www.w3.org/2000/svg"
   xmlns="http://www.w3.org/2000/svg"
   version="1.1"
   width="25"
   height="25"
   id="svg">
  <defs
     id="defs" />
  <metadata
     id="metadata">
    <rdf:RDF>
      <cc:Work
         rdf:about="">
        <dc:format>image/svg+xml</dc:format>
        <dc:type
           rdf:resource="http://purl.org/dc/dcmitype/StillImage" />
        <dc:title></dc:title>
      </cc:Work>
    </rdf:RDF>
  </metadata>
  <g
     transform="translate(0,-1027.3622)"
     id="icons-mk">
    <path
       d="m 6.3059297,1028.5503 0,0.4377 0,2.97 0,1.9697 0,3.4077 0,7.3471 c -1.058,-0.2914 -2.452,-0.062 -3.752,0.6878 -2.05899997,1.1889 -3.08099997,3.2746 -2.28199997,4.6584 0.79799997,1.3836 3.09999997,1.5328 5.15899997,0.3438 1.706,-0.9854 2.697,-2.5696 2.533,-3.8767 l 0.03,0 0,-9.1604 15.3180003,0 0,7.3471 c -1.057,-0.2914 -2.452,-0.062 -3.751,0.6878 -2.059,1.1889 -3.082,3.2746 -2.282,4.6584 0.798,1.3836 3.099,1.5328 5.159,0.3438 1.706,-0.9854 2.696,-2.5696 2.532,-3.8767 l 0.03,0 0,-14.5378 0,-2.97 0,-0.4377 -18.6960003,0 z m 1.689,3.4077 15.3180003,0 0,1.9697 -15.3180003,0 0,-1.9697 z"
       id="note-2"
       style="fill:#000000;fill-opacity:1;stroke:none" />
  </g>
</svg>
