<?xml version="1.0" encoding="UTF-8" standalone="no"?>
<!-- Created with Inkscape (http://www.inkscape.org/) -->
<!-- icons-mk created by Matthias Kuhnel (2019), reuseIT, https://reuseproject.org -->

<svg
   xmlns:dc="http://purl.org/dc/elements/1.1/"
   xmlns:cc="http://creativecommons.org/ns#"
   xmlns:rdf="http://www.w3.org/1999/02/22-rdf-syntax-ns#"
   xmlns:svg="http://www.w3.org/2000/svg"
   xmlns="http://www.w3.org/2000/svg"
   version="1.1"
   width="25"
   height="25"
   id="svg">
  <defs
     id="defs" />
  <metadata
     id="metadata">
    <rdf:RDF>
      <cc:Work
         rdf:about="">
        <dc:format>image/svg+xml</dc:format>
        <dc:type
           rdf:resource="http://purl.org/dc/dcmitype/StillImage" />
        <dc:title></dc:title>
      </cc:Work>
    </rdf:RDF>
  </metadata>
  <g
     transform="translate(0,-1027.3622)"
     id="icons-mk">
    <path
       d="m 12.5,1027.3622 c -2.03045,0 -3.67838,1.6479 -3.67838,3.6784 0,2.0305 1.64793,3.6458 3.67838,3.6458 2.03046,0 3.67838,-1.6153 3.67838,-3.6458 0,-2.0305 -1.64792,-3.6784 -3.67838,-3.6784 z m 0,8.8216 c -2.03045,0 -3.67838,1.6479 -3.67838,3.6784 0,2.0304 1.64793,3.6783 3.67838,3.6783 2.03046,0 3.67838,-1.6479 3.67838,-3.6783 0,-2.0305 -1.64792,-3.6784 -3.67838,-3.6784 z m 0,8.8216 c -2.03045,0 -3.67838,1.648 -3.67838,3.6784 0,2.0305 1.64793,3.6784 3.67838,3.6784 2.03046,0 3.67838,-1.6479 3.67838,-3.6784 0,-2.0304 -1.64792,-3.6784 -3.67838,-3.6784 z"
       id="options-vertical"
       style="fill:#000000;fill-opacity:1;fill-rule:nonzero;stroke:none" />
  </g>
</svg>
