<?xml version="1.0" encoding="UTF-8" standalone="no"?>
<!-- Created with Inkscape (http://www.inkscape.org/) -->
<!-- icons-mk created by Matthias Kuhnel (2019), reuseIT, https://reuseproject.org -->

<svg
   xmlns:dc="http://purl.org/dc/elements/1.1/"
   xmlns:cc="http://creativecommons.org/ns#"
   xmlns:rdf="http://www.w3.org/1999/02/22-rdf-syntax-ns#"
   xmlns:svg="http://www.w3.org/2000/svg"
   xmlns="http://www.w3.org/2000/svg"
   version="1.1"
   width="25"
   height="25"
   id="svg">
  <defs
     id="defs" />
  <metadata
     id="metadata">
    <rdf:RDF>
      <cc:Work
         rdf:about="">
        <dc:format>image/svg+xml</dc:format>
        <dc:type
           rdf:resource="http://purl.org/dc/dcmitype/StillImage" />
        <dc:title></dc:title>
      </cc:Work>
    </rdf:RDF>
  </metadata>
  <g
     transform="translate(0,-1027.3622)"
     id="icons-mk">
    <path
       d="m 18.686444,1027.3667 c -0.9515,0.052 -1.5647,0.5946 -1.5647,0.5946 l -0.031,0.031 -14.2385992,14.2072 0,0.031 c 0,0 -1.0229,1.0079 -1.5333,2.566 -0.51050004,1.5582 -0.43180004,3.8243 1.5333,5.7894 1.9651,1.965 4.1998,2.0126 5.758,1.5021 1.5582002,-0.5105 2.5974002,-1.5021 2.5974002,-1.5021 l 11.390799,-11.3908 -1.2517,-1.2518 -11.3595992,11.3595 c 0,0 -0.031,0.031 -0.031,0.031 -0.029,0.028 -0.7792,0.7355 -1.8776,1.0952 -1.1202,0.367 -2.4295,0.4496 -3.9744,-1.0952 -1.5448,-1.5449 -1.4622,-2.8542 -1.0953,-3.9742 0.367,-1.1201 1.0953,-1.909 1.0953,-1.909 l 14.2072992,-14.1759 c 0,0 0.072,-0.1348 0.4693,-0.1564 0.3972,-0.022 1.1294,0.097 2.2219,1.1891 1.0925,1.0925 1.2109,1.7934 1.1891,2.1906 -0.022,0.3971 -0.1565,0.5007 -0.1565,0.5007 l -11.672399,11.6724 -0.031,0.031 c -0.021,0.016 -0.104,0.062 -0.2817,0.094 -0.2022002,0.037 -0.4496002,0.082 -0.9701002,-0.438 -0.5205,-0.5205 -0.4747,-0.7992 -0.4382,-1.0013 0.032,-0.1752 0.076,-0.2274 0.094,-0.2504 l 0.031,-0.031 8.0110992,-8.0425 -1.2517,-1.2204 -8.0423992,8.0425 -0.031,0.031 c 0,0 -0.4364,0.4568 -0.5634,1.1578 -0.1269,0.7011 0.094,1.6902 0.9389,2.5348 0.8447,0.8446 1.8337,1.0657 2.5347002,0.9388 0.7011,-0.1268 1.1578,-0.5319 1.1578,-0.5319 l 0.031,-0.031 0.031,0 11.734999,-11.735 0,-0.031 c 0,0 0.5739,-0.6444 0.6259,-1.5959 0.052,-0.9516 -0.3857,-2.2007 -1.7211,-3.5362 -1.3356,-1.3355 -2.5847,-1.7418 -3.5362,-1.6899 z"
       id="paper-clip"
       style="font-size:medium;font-style:normal;font-variant:normal;font-weight:normal;font-stretch:normal;text-indent:0;text-align:start;text-decoration:none;line-height:normal;letter-spacing:normal;word-spacing:normal;text-transform:none;direction:ltr;block-progression:tb;writing-mode:lr-tb;text-anchor:start;baseline-shift:baseline;color:#000000;fill:#000000;fill-opacity:1;stroke:none;stroke-width:1.75755787;marker:none;visibility:visible;display:inline;overflow:visible;enable-background:accumulate;font-family:Sans;-inkscape-font-specification:Sans" />
  </g>
</svg>
