<?xml version="1.0" encoding="UTF-8" standalone="no"?>
<!-- Created with Inkscape (http://www.inkscape.org/) -->
<!-- icons-mk created by Matthias Kuhnel (2019), reuseIT, https://reuseproject.org -->

<svg
   xmlns:dc="http://purl.org/dc/elements/1.1/"
   xmlns:cc="http://creativecommons.org/ns#"
   xmlns:rdf="http://www.w3.org/1999/02/22-rdf-syntax-ns#"
   xmlns:svg="http://www.w3.org/2000/svg"
   xmlns="http://www.w3.org/2000/svg"
   version="1.1"
   width="25"
   height="25"
   id="svg">
  <defs
     id="defs" />
  <metadata
     id="metadata">
    <rdf:RDF>
      <cc:Work
         rdf:about="">
        <dc:format>image/svg+xml</dc:format>
        <dc:type
           rdf:resource="http://purl.org/dc/dcmitype/StillImage" />
        <dc:title></dc:title>
      </cc:Work>
    </rdf:RDF>
  </metadata>
  <g
     transform="translate(0,-1027.3622)"
     id="icons-mk">
    <path
       d="m 5.6651881,1032.5016 c -0.089,0.018 -0.2826,0.088 -0.6244,0.2498 -1.3669,0.6467 -1.5722,1.3351 -1.7485,1.8422 -0.1537,0.4417 0.09,1.5319 0.1561,1.8421 -0.085,-0.015 -0.1671,-3e-4 -0.2185,0.031 -0.09,0.054 -0.011,0.6695 0.2498,0.7805 0.1664,1.5499 1.1485,2.7477 2.3417,2.7477 1.1927,0 2.1749,-1.1986 2.3417,-2.7477 0.2608,-0.111 0.3711,-0.7263 0.2811,-0.7805 -0.06,-0.037 -0.1885,-0.051 -0.2811,-0.031 0.086,-0.3839 0.3048,-1.5074 -0.031,-2.1544 -0.3966,-0.7643 -1.9671,-1.2489 -1.9671,-1.2489 0,0 0,-0.3271 -0.1872,-0.4371 -0.09,-0.052 -0.2394,0.01 -0.3747,0.094 0.1267,-0.106 0.1993,-0.215 0.062,-0.1874 z m 13.3012999,0 c -0.089,0.018 -0.2828,0.088 -0.6245,0.2498 -1.367,0.6467 -1.5723,1.3351 -1.7485,1.8422 -0.1538,0.4417 0.09,1.5319 0.1561,1.8421 -0.085,-0.015 -0.1672,-3e-4 -0.2187,0.031 -0.09,0.054 -0.011,0.6695 0.2498,0.7805 0.1665,1.5499 1.1487,2.7477 2.3418,2.7477 1.1931,0 2.1754,-1.1978 2.3418,-2.7477 0.2607,-0.111 0.3398,-0.7263 0.2498,-0.7805 -0.06,-0.037 -0.1573,-0.051 -0.2498,-0.031 0.086,-0.3874 0.304,-1.5089 -0.031,-2.1544 -0.3966,-0.7643 -1.967,-1.2489 -1.967,-1.2489 0,0 0,-0.3271 -0.1874,-0.4371 -0.096,-0.055 -0.2644,0 -0.4059,0.094 0.1348,-0.1108 0.2368,-0.2163 0.094,-0.1874 z m -11.5214999,7.1814 c -0.147,1.2054 -1.0791,1.8552 -1.6549,1.8421 -0.4812,-0.011 -1.4011,-0.5983 -1.8421,-1.686 -1.4601,0.078 -2.7164,1.3426 -2.7164,1.3426 0,0 -1.66320011,1.8421 -1.12400001,5.027 0.6514,1.3226 10.46999991,1.3498 11.30269991,0.1249 0.8328,-1.2251 -0.353,-4.3588 -0.8429,-4.9958 -0.4899,-0.6371 -1.2112999,-1.3313 -3.1223999,-1.6548 z m 13.3010999,0 c -0.147,1.2054 -1.1102,1.8552 -1.686,1.8421 -0.4813,-0.011 -1.3699,-0.5983 -1.811,-1.686 -1.46,0.078 -2.7164,1.3426 -2.7164,1.3426 0,0 -1.6632,1.8421 -1.1241,5.027 0.6516,1.3226 10.4702,1.3498 11.3029,0.1249 0.8327,-1.2251 -0.3531,-4.3588 -0.843,-4.9958 -0.4899,-0.6371 -1.2114,-1.3313 -3.1224,-1.6548 z"
       id="person-two"
       style="fill:#000000;fill-opacity:1" />
  </g>
</svg>
