<?xml version="1.0" encoding="UTF-8" standalone="no"?>
<!-- Created with Inkscape (http://www.inkscape.org/) -->
<!-- icons-mk created by Matthias Kuhnel (2019), reuseIT, https://reuseproject.org -->

<svg
   xmlns:dc="http://purl.org/dc/elements/1.1/"
   xmlns:cc="http://creativecommons.org/ns#"
   xmlns:rdf="http://www.w3.org/1999/02/22-rdf-syntax-ns#"
   xmlns:svg="http://www.w3.org/2000/svg"
   xmlns="http://www.w3.org/2000/svg"
   version="1.1"
   width="25"
   height="25"
   id="svg">
  <defs
     id="defs" />
  <metadata
     id="metadata">
    <rdf:RDF>
      <cc:Work
         rdf:about="">
        <dc:format>image/svg+xml</dc:format>
        <dc:type
           rdf:resource="http://purl.org/dc/dcmitype/StillImage" />
        <dc:title></dc:title>
      </cc:Work>
    </rdf:RDF>
  </metadata>
  <g
     transform="translate(0,-1027.3622)"
     id="icons-mk">
    <path
       d="m 12.190594,1027.3695 c -0.1509,0.03 -0.4819,0.163 -1.0622,0.4374 -2.3211001,1.0982 -2.6684001,2.2322 -2.9680001,3.0929 -0.2661,0.7646 0.1165,2.6823 0.2187,3.1555 -0.1278,-0.017 -0.2684,-0.045 -0.3437,0 -0.1531,0.093 0,1.155 0.4375,1.3433 0.276,2.641 1.9682001,4.6864 3.9990001,4.6864 2.0307,0 3.6916,-2.0454 3.9677,-4.6864 0.4425,-0.1883 0.5903,-1.2506 0.4374,-1.3433 -0.097,-0.058 -0.284,-0.03 -0.4374,0 0.1718,-0.861 0.4425,-2.6819 -0.062,-3.6554 -0.6734,-1.2979 -3.343,-2.1556 -3.343,-2.1556 0,0 -0.019,-0.5626 -0.3436,-0.7498 -0.1567,-0.091 -0.4214,0.04 -0.6561,0.1874 0.2109,-0.1773 0.3858,-0.3585 0.1562,-0.3124 z m 3.0306,12.1531 c -0.25,2.0465 -1.8655,3.1775 -2.8431,3.1555 -0.8173,-0.019 -2.3446,-0.9965 -3.0930001,-2.843 -2.4797,0.133 -4.6238,2.2181 -4.6238,2.2181 0,0 -2.8213,3.1535 -1.9057,8.5603 1.106,2.2454 17.7685001,2.3281 19.1826001,0.25 1.414,-2.0797 -0.6052,-7.4166 -1.4372,-8.4979 -0.8312,-1.0812 -2.0362,-2.2942 -5.2798,-2.843 z"
       id="person"
       style="fill:#000000;fill-opacity:1" />
  </g>
</svg>
