<?xml version="1.0" encoding="UTF-8" standalone="no"?>
<!-- Created with Inkscape (http://www.inkscape.org/) -->
<!-- icons-mk created by Matthias Kuhnel (2019), reuseIT, https://reuseproject.org -->

<svg
   xmlns:dc="http://purl.org/dc/elements/1.1/"
   xmlns:cc="http://creativecommons.org/ns#"
   xmlns:rdf="http://www.w3.org/1999/02/22-rdf-syntax-ns#"
   xmlns:svg="http://www.w3.org/2000/svg"
   xmlns="http://www.w3.org/2000/svg"
   version="1.1"
   width="25"
   height="25"
   id="svg">
  <defs
     id="defs" />
  <metadata
     id="metadata">
    <rdf:RDF>
      <cc:Work
         rdf:about="">
        <dc:format>image/svg+xml</dc:format>
        <dc:type
           rdf:resource="http://purl.org/dc/dcmitype/StillImage" />
        <dc:title></dc:title>
      </cc:Work>
    </rdf:RDF>
  </metadata>
  <g
     transform="translate(0,-1027.3622)"
     id="icons-mk">
    <path
       d="m 7.0051146,1027.3661 c -0.071,0.014 -0.2256,0.089 -0.4999,0.2187 -1.097,0.5189 -1.2331,1.0302 -1.3746,1.4371 -0.1247,0.3584 0.043,1.2643 0.094,1.4997 -0.059,-0.01 -0.1216,0.01 -0.1562,0.031 -0.076,0.046 -0.015,0.5739 0.2186,0.6249 0.1327,1.2451 0.9164,2.1869 1.8746,2.1869 0.9581,0 1.7107,-0.9418 1.8433,-2.1869 0.2333,-0.051 0.2948,-0.5791 0.2188,-0.6249 -0.041,-0.025 -0.1192,-0.043 -0.1876,-0.031 0.072,-0.3274 0.2338,-1.2081 -0.031,-1.7184 -0.3183,-0.6133 -1.5621,-1.031 -1.5621,-1.031 0,0 -0.034,-0.2553 -0.1874,-0.3437 -0.077,-0.044 -0.1989,0.021 -0.3125,0.094 0.1124,-0.091 0.1808,-0.18 0.062,-0.1562 z m 10.6849004,0 c -0.071,0.014 -0.2256,0.089 -0.4998,0.2187 -1.0971,0.5189 -1.2644,1.0302 -1.406,1.4371 -0.1246,0.3581 0.043,1.2632 0.094,1.4997 -0.059,-0.01 -0.1216,0.01 -0.1562,0.031 -0.072,0.044 0.01,0.5358 0.2187,0.6249 0.1325,1.2451 0.9163,2.1869 1.8745,2.1869 0.9582,0 1.742,-0.9418 1.8746,-2.1869 0.209,-0.089 0.2913,-0.5811 0.2186,-0.6249 -0.051,-0.031 -0.1435,-0.048 -0.2186,-0.031 -8e-4,-0.01 9e-4,-0.021 0,-0.031 0.075,-0.3485 0.2593,-1.1876 0,-1.6871 -0.3184,-0.6133 -1.5934,-1.031 -1.5934,-1.031 0,0 0,-0.2553 -0.1562,-0.3437 -0.077,-0.044 -0.2302,0.021 -0.3436,0.094 0.1159,-0.093 0.2151,-0.1807 0.094,-0.1562 z m -9.2477004,5.7486 c -0.118,0.9674 -0.8814,1.5096 -1.3434,1.4996 -0.3863,-0.01 -1.0832,-0.4705 -1.4373,-1.3434 -1.1716,0.063 -2.1868,1.0623 -2.1868,1.0623 0,0 -1.3388,1.4745 -0.9061,4.0302 0.5229,1.0616 8.3921004,1.0768 9.0603004,0.094 0.668299,-0.9832 -0.2941,-3.4879 -0.6873,-3.9991 -0.3932,-0.5112 -0.9658004,-1.0838 -2.4994004,-1.3434 z m 10.6849004,0 c -0.118,0.9674 -0.8814,1.5096 -1.3435,1.4996 -0.3862,-0.01 -1.1144,-0.4705 -1.4683,-1.3434 -1.1717,0.063 -2.187,1.0623 -2.187,1.0623 0,0 -1.3387,1.4745 -0.906,4.0302 0.5229,1.0616 8.392,1.0768 9.0602,0.094 0.6684,-0.9832 -0.2628,-3.4879 -0.656,-3.9991 -0.3932,-0.5112 -0.9658,-1.0838 -2.4994,-1.3434 z m -12.1221004,7.4357 c -0.071,0.014 -0.2256,0.058 -0.4999,0.1875 -1.097,0.5189 -1.2331,1.0615 -1.3746,1.4684 -0.1247,0.3583 0.043,1.2642 0.094,1.4996 -0.059,-0.01 -0.1217,-0.021 -0.1562,0 -0.076,0.046 -0.012,0.5697 0.2186,0.6249 0.1297,1.2496 0.9141,2.2182 1.8746,2.2182 0.9605,0 1.7137,-0.9686 1.8433,-2.2182 0.2309,-0.055 0.2945,-0.5793 0.2188,-0.6249 -0.051,-0.031 -0.1436,-0.016 -0.2188,0 0.066,-0.2945 0.2727,-1.1932 0,-1.7183 -0.3183,-0.6134 -1.5621,-1.031 -1.5621,-1.031 0,0 -0.034,-0.2557 -0.1874,-0.3437 -0.077,-0.044 -0.1989,0.021 -0.3125,0.094 0.1124,-0.091 0.1808,-0.18 0.062,-0.1562 z m 10.6849004,0 c -0.071,0.014 -0.2256,0.058 -0.4998,0.1875 -1.0971,0.5189 -1.2644,1.0615 -1.406,1.4684 -0.1246,0.358 0.043,1.2631 0.094,1.4996 -0.059,-0.01 -0.1218,-0.021 -0.1562,0 -0.072,0.044 0.01,0.5358 0.2187,0.6249 0.1296,1.2496 0.9139,2.2182 1.8745,2.2182 0.9606,0 1.7449,-0.9686 1.8746,-2.2182 0.209,-0.089 0.2913,-0.5812 0.2186,-0.6249 -0.051,-0.031 -0.1435,-0.016 -0.2186,0 -8e-4,-0.01 9e-4,-0.021 0,-0.031 0.072,-0.3241 0.2658,-1.1752 0,-1.6871 -0.3184,-0.6134 -1.5934,-1.031 -1.5934,-1.031 0,0 0,-0.2557 -0.1562,-0.3437 -0.077,-0.044 -0.2302,0.021 -0.3436,0.094 0.1159,-0.093 0.2151,-0.1807 0.094,-0.1562 z m -9.2477004,5.7486 c -0.118,0.9674 -0.8814,1.4784 -1.3434,1.4684 -0.3863,-0.01 -1.0832,-0.4705 -1.4373,-1.3434 -1.1716,0.063 -2.1868,1.0623 -2.1868,1.0623 0,0 -1.3388,1.5057 -0.9061,4.0615 0.5229,1.0615 8.3921004,1.0768 9.0603004,0.094 0.668299,-0.9832 -0.2941,-3.4879 -0.6873,-3.999 -0.3932,-0.5112 -0.9658004,-1.0838 -2.4994004,-1.3435 z m 10.6849004,0 c -0.118,0.9674 -0.8814,1.4784 -1.3435,1.4684 -0.3862,-0.01 -1.1144,-0.4705 -1.4683,-1.3434 -1.1717,0.063 -2.187,1.0623 -2.187,1.0623 0,0 -1.3387,1.5057 -0.906,4.0615 0.5229,1.0615 8.392,1.0768 9.0602,0.094 0.6684,-0.9832 -0.2628,-3.4879 -0.656,-3.999 -0.3932,-0.5112 -0.9658,-1.0838 -2.4994,-1.3435 z"
       id="person-four"
       style="fill:#000000;fill-opacity:1" />
  </g>
</svg>
