<?xml version="1.0" encoding="UTF-8" standalone="no"?>
<!-- Created with Inkscape (http://www.inkscape.org/) -->
<!-- icons-mk created by Matthias Kuhnel (2020), reuseIT, https://reuseproject.org -->

<svg
   xmlns:dc="http://purl.org/dc/elements/1.1/"
   xmlns:cc="http://creativecommons.org/ns#"
   xmlns:rdf="http://www.w3.org/1999/02/22-rdf-syntax-ns#"
   xmlns:svg="http://www.w3.org/2000/svg"
   xmlns="http://www.w3.org/2000/svg"
   version="1.1"
   width="25"
   height="25"
   id="svg">
  <defs
     id="defs" />
  <metadata
     id="metadata">
    <rdf:RDF>
      <cc:Work
         rdf:about="">
        <dc:format>image/svg+xml</dc:format>
        <dc:type
           rdf:resource="http://purl.org/dc/dcmitype/StillImage" />
        <dc:title></dc:title>
      </cc:Work>
    </rdf:RDF>
  </metadata>
  <g
     transform="translate(0,-1027.3622)"
     id="icons-mk">
    <path
       d="m 21.809885,1029.6969 c -0.686,0.042 -1.341,0.2811 -1.936,0.531 -0.911,0.3815 -1.628,0.8457 -2.155,1.2181 -1.469,-0.8751 -3.164,-1.3743 -4.997,-1.3743 -5.4149984,0 -9.8079984,4.3927 -9.8079984,9.8076 0,0.7204 0.07,1.4164 0.218,2.0927 -0.514,0.3998 -1.227,1.0514 -1.968,2.0302 -0.54900004,0.7243 -1.07500004,1.579 -1.15500004,2.5924 -0.08,1.0133 0.391,2.1368 1.40500004,2.936 0.794,0.6248 1.79,0.5715 2.781,0.3436 0.986,-0.2278 2.079,-0.6946 3.279,-1.3118 0.12,-0.061 0.221,-0.1542 0.343,-0.2187 1.443,0.8354 3.1169984,1.3431 4.9049984,1.3431 5.416,0 9.807,-4.3927 9.807,-9.8075 0,-0.9361 -0.13,-1.829 -0.375,-2.6862 0.05,-0.051 0.08,-0.1054 0.125,-0.1562 0.897,-0.9951 1.612,-1.8937 2.093,-2.7486 0.482,-0.8546 0.853,-1.7224 0.468,-2.6549 -0.449,-1.0868 -1.401,-1.7784 -2.342,-1.9053 -0.177,-0.024 -0.355,-0.032 -0.531,-0.031 -0.06,0 -0.1,-0.01 -0.157,0 z m 0.126,1.999 c 0.06,0 0.106,0 0.156,0 0.05,0 0.08,-0.01 0.125,0 0.372,0.05 0.578,0.099 0.811,0.6559 -0.03,-0.041 -0.03,0.3329 -0.374,0.937 -0.283,0.5017 -0.762,1.175 -1.344,1.8741 -0.507,-0.9261 -1.168,-1.723 -1.936,-2.4363 0.384,-0.234 0.794,-0.4963 1.25,-0.6871 0.463,-0.1944 0.956,-0.3167 1.312,-0.3436 z m -9.214,0.3436 c 3.2,0 5.963,1.9068 7.183,4.6539 -1.598,1.6313 -3.621,3.4394 -5.778,5.1224 -2.084,1.627 -4.2829984,3.0942 -6.2159984,4.2166 -1.84,-1.4354 -3.029,-3.6385 -3.029,-6.1531 0,-4.332 3.51,-7.8398 7.8399984,-7.8398 z m -3.0929984,1.8116 c -0.08,0.026 -0.159,0.1025 -0.156,0.1874 l 0,0.4372 -1.406,0 -0.03,0 c -0.1,0.01 -0.187,0.092 -0.187,0.1874 l 0,0.5623 c 0,0.1015 0.114,0.1868 0.218,0.1874 l 0.344,0 0,5.9969 c 0,0.1018 0.114,0.188 0.219,0.1874 l 5.1219984,0 c 0.102,0 0.188,-0.086 0.188,-0.1874 l 0,-5.9969 0.374,0 c 0.103,0 0.187,-0.086 0.188,-0.1874 l 0,-0.5623 c 0,-0.1015 -0.09,-0.1868 -0.188,-0.1874 l -1.437,0 0,-0.4372 c 0,-0.1016 -0.09,-0.1868 -0.186,-0.1874 l -3.0309984,0 -0.03,0 z m -0.06,2.3738 0.5629984,0 c 0.07,0 0.125,0.055 0.125,0.1249 l 0,3.998 c 0,0.071 -0.05,0.1568 -0.125,0.1561 l -0.5629984,0 c -0.07,0 -0.126,-0.086 -0.124,-0.1561 l 0,-3.998 c 0,-0.065 0.05,-0.1179 0.124,-0.1249 z m 1.3129984,0 0.03,0 0.532,0 c 0.07,0 0.156,0.055 0.156,0.1249 l 0,3.998 c 0,0.07 -0.08,0.1557 -0.156,0.1561 l -0.532,0 c -0.07,0 -0.125,-0.086 -0.124,-0.1561 l 0,-3.998 c 0,-0.065 0.03,-0.1179 0.09,-0.1249 z m 1.343,0 0.562,0 c 0.07,0 0.124,0.055 0.124,0.1249 l 0,3.998 c 0,0.07 -0.05,0.1557 -0.124,0.1561 l -0.562,0 c -0.07,0 -0.126,-0.085 -0.125,-0.1561 l 0,-3.998 c 0,-0.066 0.06,-0.1188 0.125,-0.1249 z m 8.308,2.6549 c 0.04,0.3318 0.06,0.6559 0.06,0.9995 0,4.3316 -3.538,7.8397 -7.871,7.8397 -1.016,0 -1.984,-0.2109 -2.8739984,-0.5622 1.7799984,-1.0883 3.6839984,-2.3629 5.4969984,-3.7793 1.87,-1.4586 3.661,-3.0084 5.185,-4.4977 z m -16.6789984,5.0911 c 0.538,1.1546 1.295,2.2037 2.217,3.061 -0.887,0.4253 -1.706,0.7666 -2.311,0.9058 -0.727,0.1674 -1.101,0.049 -1.124,0.031 -0.619,-0.4869 -0.691,-0.7892 -0.656,-1.2181 0.03,-0.4289 0.328,-1.006 0.75,-1.5617 0.344,-0.455 0.752,-0.8791 1.124,-1.2182 z"
       id="planet-trash"
       style="font-size:medium;font-style:normal;font-variant:normal;font-weight:normal;font-stretch:normal;text-indent:0;text-align:start;text-decoration:none;line-height:normal;letter-spacing:normal;word-spacing:normal;text-transform:none;direction:ltr;block-progression:tb;writing-mode:lr-tb;text-anchor:start;baseline-shift:baseline;color:#000000;fill:#000000;fill-opacity:1;fill-rule:nonzero;stroke:none;stroke-width:1.25713694;marker:none;visibility:visible;display:inline;overflow:visible;enable-background:accumulate;font-family:Sans;-inkscape-font-specification:Sans" />
  </g>
</svg>
