<?xml version="1.0" encoding="UTF-8" standalone="no"?>
<!-- Created with Inkscape (http://www.inkscape.org/) -->
<!-- icons-mk created by Matthias Kuhnel (2019), reuseIT, https://reuseproject.org -->

<svg
   xmlns:dc="http://purl.org/dc/elements/1.1/"
   xmlns:cc="http://creativecommons.org/ns#"
   xmlns:rdf="http://www.w3.org/1999/02/22-rdf-syntax-ns#"
   xmlns:svg="http://www.w3.org/2000/svg"
   xmlns="http://www.w3.org/2000/svg"
   version="1.1"
   width="25"
   height="25"
   id="svg">
  <defs
     id="defs" />
  <metadata
     id="metadata">
    <rdf:RDF>
      <cc:Work
         rdf:about="">
        <dc:format>image/svg+xml</dc:format>
        <dc:type
           rdf:resource="http://purl.org/dc/dcmitype/StillImage" />
        <dc:title></dc:title>
      </cc:Work>
    </rdf:RDF>
  </metadata>
  <g
     transform="translate(0,-1027.3622)"
     id="icons-mk">
    <path
       d="m 3.2499999,1027.3622 0,25 3.5,0 0.25,0 14.7500001,0 0,-11.25 0,-4 -5,4 0,-4 -5,4 0,-4 -4.7500001,3.8125 0,-13.5625 -3.75,0 z m 5.0000001,15.875 3,0 0,3 -3,0 0,-3 z m 4.5,0 3,0 0,3 -3,0 0,-3 z m 4.5,0 3,0 0,3 -3,0 0,-3 z"
       id="plant"
       style="fill:#000000;fill-opacity:1;stroke:none" />
  </g>
</svg>
