<?xml version="1.0" encoding="UTF-8" standalone="no"?>
<!-- Created with Inkscape (http://www.inkscape.org/) -->
<!-- icons-mk created by Matthias Kuhnel (2019), reuseIT, https://reuseproject.org -->

<svg
   xmlns:dc="http://purl.org/dc/elements/1.1/"
   xmlns:cc="http://creativecommons.org/ns#"
   xmlns:rdf="http://www.w3.org/1999/02/22-rdf-syntax-ns#"
   xmlns:svg="http://www.w3.org/2000/svg"
   xmlns="http://www.w3.org/2000/svg"
   version="1.1"
   width="25"
   height="25"
   id="svg">
  <defs
     id="defs" />
  <metadata
     id="metadata">
    <rdf:RDF>
      <cc:Work
         rdf:about="">
        <dc:format>image/svg+xml</dc:format>
        <dc:type
           rdf:resource="http://purl.org/dc/dcmitype/StillImage" />
        <dc:title></dc:title>
      </cc:Work>
    </rdf:RDF>
  </metadata>
  <g
     transform="translate(0,-1027.3622)"
     id="icons-mk">
    <path
       d="m 21.802551,1029.6997 c -0.687,0.042 -1.335,0.2712 -1.93,0.5212 -0.911,0.3817 -1.619,0.8535 -2.146,1.2262 -1.469,-0.8757 -3.163,-1.3795 -4.997,-1.3795 -5.4179998,0 -9.8099998,4.3918 -9.8099998,9.8095 0,0.7208 0.07,1.4079 0.215,2.0845 -0.515,0.4 -1.251,1.0438 -1.992,2.0231 -0.55000005,0.7248 -1.05400005,1.5918 -1.13400005,2.6057 -0.08,1.0139 0.394,2.1432 1.40900005,2.9429 0.794,0.6251 1.769,0.5651 2.76,0.3371 0.988,-0.2279 2.078,-0.7006 3.279,-1.3181 0.12,-0.061 0.246,-0.1501 0.368,-0.2145 1.444,0.8358 3.1159998,1.3488 4.9049998,1.3488 5.418,0 9.809,-4.3918 9.809,-9.8095 0,-0.9365 -0.153,-1.8399 -0.398,-2.6976 0.05,-0.051 0.108,-0.1025 0.153,-0.1533 0.898,-0.9957 1.603,-1.9037 2.084,-2.7589 0.483,-0.8552 0.846,-1.7035 0.461,-2.6363 -0.45,-1.0875 -1.388,-1.7737 -2.33,-1.9006 -0.236,-0.032 -0.476,-0.045 -0.706,-0.031 z m 0.123,1.9926 c 0.119,-0.01 0.213,-0.013 0.307,0 0.375,0.05 0.561,0.1034 0.797,0.6744 -0.04,-0.1036 0,0.2749 -0.368,0.9196 -0.283,0.502 -0.768,1.1707 -1.349,1.87 -0.508,-0.9265 -1.162,-1.7387 -1.93,-2.4524 0.384,-0.2341 0.8,-0.4835 1.256,-0.6744 0.464,-0.1945 0.931,-0.3103 1.287,-0.3372 z m -9.196,0.3372 c 3.202,0 5.952,1.9109 7.173,4.6595 -1.599,1.6322 -3.636,3.4355 -5.794,5.1193 -2.085,1.6278 -4.2579998,3.1073 -6.1919998,4.2303 -1.841,-1.4361 -3.035,-3.6456 -3.035,-6.1615 0,-4.3342 3.515,-7.8476 7.8479998,-7.8476 z m 7.786,6.836 c 0.04,0.332 0.06,0.6679 0.06,1.0116 0,4.3339 -3.512,7.8476 -7.847,7.8476 -1.016,0 -1.991,-0.2005 -2.8809998,-0.5519 1.7809998,-1.089 3.6709998,-2.384 5.4859998,-3.8012 1.87,-1.4593 3.657,-3.016 5.181,-4.5061 z m -16.6759998,5.1192 c 0.538,1.155 1.286,2.2078 2.208,3.0655 -0.887,0.4255 -1.695,0.7497 -2.3,0.889 -0.727,0.1675 -1.111,0.049 -1.134,0.031 -0.619,-0.4873 -0.678,-0.7971 -0.643,-1.2262 0.03,-0.4292 0.313,-1.0074 0.735,-1.5634 0.345,-0.4551 0.762,-0.8564 1.134,-1.1956 z"
       id="planet"
       style="fill:#000000;fill-opacity:1;stroke:none" />
  </g>
</svg>
