<?xml version="1.0" encoding="UTF-8" standalone="no"?>
<!-- Created with Inkscape (http://www.inkscape.org/) -->
<!-- icons-mk created by Matthias Kuhnel (2019), reuseIT, https://reuseproject.org -->

<svg
   xmlns:dc="http://purl.org/dc/elements/1.1/"
   xmlns:cc="http://creativecommons.org/ns#"
   xmlns:rdf="http://www.w3.org/1999/02/22-rdf-syntax-ns#"
   xmlns:svg="http://www.w3.org/2000/svg"
   xmlns="http://www.w3.org/2000/svg"
   version="1.1"
   width="25"
   height="25"
   id="svg">
  <defs
     id="defs" />
  <metadata
     id="metadata">
    <rdf:RDF>
      <cc:Work
         rdf:about="">
        <dc:format>image/svg+xml</dc:format>
        <dc:type
           rdf:resource="http://purl.org/dc/dcmitype/StillImage" />
        <dc:title></dc:title>
      </cc:Work>
    </rdf:RDF>
  </metadata>
  <g
     transform="translate(0,-1027.3622)"
     id="icons-mk">
    <path
       d="m 10.99985,1027.3622 3,0 0,10.6006 -3,0 z m -3.0967,2.3407 c -4.2305,1.7913 -7.1899,5.9976 -7.1899,10.8729 0,6.5003 5.277,11.7864 11.7868,11.7864 6.5095,0 11.7867,-5.2861 11.7867,-11.7864 0,-4.8753 -2.9595,-9.0816 -7.1899,-10.8729 l 0,3.3296 c 2.5422,1.554 4.2432,4.351 4.2432,7.5433 0,4.875 -3.9576,8.8398 -8.84,8.8398 -4.8825,0 -8.8401,-3.9647 -8.8401,-8.8398 0,-3.1923 1.7011,-5.9893 4.2432,-7.5433 l 0,-3.3296 z"
       id="power"
       style="fill:#000000;fill-opacity:1;stroke:none" />
  </g>
</svg>
