<?xml version="1.0" encoding="UTF-8" standalone="no"?>
<!-- Created with Inkscape (http://www.inkscape.org/) -->
<!-- icons-mk created by Matthias Kuhnel (2020), reuseIT, https://reuseproject.org -->

<svg
   xmlns:dc="http://purl.org/dc/elements/1.1/"
   xmlns:cc="http://creativecommons.org/ns#"
   xmlns:rdf="http://www.w3.org/1999/02/22-rdf-syntax-ns#"
   xmlns:svg="http://www.w3.org/2000/svg"
   xmlns="http://www.w3.org/2000/svg"
   version="1.1"
   width="25"
   height="25"
   id="svg">
  <defs
     id="defs" />
  <metadata
     id="metadata">
    <rdf:RDF>
      <cc:Work
         rdf:about="">
        <dc:format>image/svg+xml</dc:format>
        <dc:type
           rdf:resource="http://purl.org/dc/dcmitype/StillImage" />
        <dc:title></dc:title>
      </cc:Work>
    </rdf:RDF>
  </metadata>
  <g
     transform="translate(0,-1027.3622)"
     id="icons-mk">
    <path
       d="m 15.468,1027.3622 -4.594,4.5937 -1.375,-1.375 -1.688,6.1875 6.188,-1.7187 -1.375,-1.375 4.563,-4.5625 -1.719,-1.75 z m -5.657,11.6562 c -0.138,0.044 -0.254,0.1978 -0.25,0.3438 l 0,0.75 -2.437,0 -0.03,0 c -0.163,0.017 -0.313,0.1484 -0.313,0.3125 l 0,0.9687 c 0,0.1747 0.17,0.3115 0.344,0.3125 l 0.625,0 0,10.3438 c 0,0.175 0.169,0.3135 0.344,0.3125 l 8.812,0 c 0.175,0 0.343,-0.1375 0.344,-0.3125 l 0,-10.3438 0.625,0 c 0.175,0 0.343,-0.1378 0.344,-0.3125 l 0,-0.9687 c 0,-0.1747 -0.169,-0.3115 -0.344,-0.3125 l -2.469,0 0,-0.75 c 0,-0.1747 -0.137,-0.3428 -0.312,-0.3438 l -5.188,0 c -0.03,0 -0.06,0 -0.09,0 z m -0.09,4.125 0.969,0 c 0.12,0 0.217,0.098 0.218,0.2188 l 0,6.875 c 0,0.1217 -0.1,0.2198 -0.218,0.2187 l -0.969,0 c -0.121,0 -0.22,-0.098 -0.219,-0.2187 l 0,-6.875 c 0,-0.112 0.104,-0.2068 0.219,-0.2188 z m 2.281,0 c 0,-8e-4 0.03,-8e-4 0.03,0 l 0.938,0 c 0.119,0 0.218,0.099 0.219,0.2188 l 0,6.875 c 0,0.1206 -0.1,0.218 -0.219,0.2187 l -0.938,0 c -0.121,0 -0.251,-0.098 -0.25,-0.2187 l 0,-6.875 c 0,-0.112 0.104,-0.2068 0.219,-0.2188 z m 2.281,0 c 0,-8e-4 0.03,-8e-4 0.03,0 l 0.938,0 c 0.119,0 0.218,0.099 0.219,0.2188 l 0,6.875 c 0,0.1206 -0.1,0.218 -0.219,0.2187 l -0.938,0 c -0.12,0 -0.252,-0.097 -0.25,-0.2187 l 0,-6.875 c 0,-0.113 0.111,-0.2083 0.219,-0.2188 z"
       id="precycling"
       style="fill:#000000;fill-opacity:1;fill-rule:nonzero;stroke:none" />
  </g>
</svg>
