<?xml version="1.0" encoding="UTF-8" standalone="no"?>
<!-- Created with Inkscape (http://www.inkscape.org/) -->
<!-- icons-mk created by Matthias Kuhnel (2019), reuseIT, https://reuseproject.org -->

<svg
   xmlns:dc="http://purl.org/dc/elements/1.1/"
   xmlns:cc="http://creativecommons.org/ns#"
   xmlns:rdf="http://www.w3.org/1999/02/22-rdf-syntax-ns#"
   xmlns:svg="http://www.w3.org/2000/svg"
   xmlns="http://www.w3.org/2000/svg"
   version="1.1"
   width="25"
   height="25"
   id="svg">
  <defs
     id="defs" />
  <metadata
     id="metadata">
    <rdf:RDF>
      <cc:Work
         rdf:about="">
        <dc:format>image/svg+xml</dc:format>
        <dc:type
           rdf:resource="http://purl.org/dc/dcmitype/StillImage" />
        <dc:title></dc:title>
      </cc:Work>
    </rdf:RDF>
  </metadata>
  <g
     transform="translate(0,-1027.3622)"
     id="icons-mk">
    <path
       d="m 21.2864,1036.0073 c 0,1.1046 -0.8954,2 -2,2 -1.1045,0 -2,-0.8954 -2,-2 0,-1.1046 0.8955,-2 2,-2 1.1046,0 2,0.8954 2,2 z m -14.9739001,-6.754 c -0.012,0.01 -0.022,0.019 -0.031,0.031 -0.029,0.024 -0.051,0.058 -0.062,0.094 -0.014,0.019 -0.024,0.04 -0.031,0.062 l 0,2.3438 c 0.01,0.022 0.017,0.043 0.031,0.062 0.01,0.022 0.017,0.043 0.031,0.062 0.01,0.011 0.019,0.022 0.031,0.031 0.028,0.018 0.061,0.029 0.094,0.031 0.01,8e-4 0.021,8e-4 0.031,0 l 12.4376001,0 c 0.01,8e-4 0.021,8e-4 0.031,0 0.047,0 0.093,-0.027 0.125,-0.062 0.018,-0.028 0.029,-0.061 0.031,-0.094 8e-4,-0.01 8e-4,-0.021 0,-0.031 l 0,-2.3438 c 8e-4,-0.01 8e-4,-0.021 0,-0.031 0,-0.02 0,-0.041 0,-0.062 -0.01,-0.011 -0.02,-0.022 -0.031,-0.031 -0.01,-0.011 -0.02,-0.022 -0.031,-0.031 -0.019,-0.014 -0.04,-0.025 -0.063,-0.031 -0.01,-8e-4 -0.021,-8e-4 -0.031,0 -0.01,-8e-4 -0.021,-8e-4 -0.031,0 l -12.4376001,0 c -0.021,0 -0.042,0 -0.062,0 -0.01,-8e-4 -0.021,-8e-4 -0.031,0 z m -1.75,12.4059 -0.062,0.25 -2.0312,8.1562 -0.125,0.4063 0.4374,0 20.0000001,0 0.4688,0 -0.1562,-0.4375 -2.5938,-8.125 -0.094,-0.25 -0.25,0 -15.3124001,0 -0.2813,0 z m -0.4687,-2.3747 a 0.50005,0.50005 0 0 0 -0.4688,0.5 l 0,3.1875 a 0.50005,0.50005 0 0 0 0.5,0.5 l 16.8125001,0 a 0.50005,0.50005 0 0 0 0.5,-0.5 l 0,-3.1875 a 0.50005,0.50005 0 0 0 -0.5,-0.5 l -16.8125001,0 a 0.50005,0.50005 0 0 0 -0.031,0 z m 0.5312,1 15.8125001,0 0,2.1875 -15.8125001,0 0,-2.1875 z m -4.00000005,-8.8438 A 0.69060877,0.69060877 0 0 0 -1.4523303e-7,1032.1283 l 0,13.8124 A 0.69060877,0.69060877 0 0 0 0.68749985,1046.6283 l 23.62500015,0 A 0.69060877,0.69060877 0 0 0 25,1045.9407 l 0,-13.8124 a 0.69060877,0.69060877 0 0 0 -0.6875,-0.6876 l -23.62500015,0 a 0.69060877,0.69060877 0 0 0 -0.062,0 z m 0.75000005,1.375 22.2500001,0 0,12.4376 -22.2500001,0 0,-12.4376 z"
       id="printer"
       style="fill:#000000;fill-opacity:1;stroke:none" />
  </g>
</svg>
