<?xml version="1.0" encoding="UTF-8" standalone="no"?>
<!-- Created with Inkscape (http://www.inkscape.org/) -->
<!-- icons-mk created by Matthias Kuhnel (2020), reuseIT, https://reuseproject.org -->

<svg
   xmlns:dc="http://purl.org/dc/elements/1.1/"
   xmlns:cc="http://creativecommons.org/ns#"
   xmlns:rdf="http://www.w3.org/1999/02/22-rdf-syntax-ns#"
   xmlns:svg="http://www.w3.org/2000/svg"
   xmlns="http://www.w3.org/2000/svg"
   version="1.1"
   width="25"
   height="25"
   id="svg">
  <defs
     id="defs" />
  <metadata
     id="metadata">
    <rdf:RDF>
      <cc:Work
         rdf:about="">
        <dc:format>image/svg+xml</dc:format>
        <dc:type
           rdf:resource="http://purl.org/dc/dcmitype/StillImage" />
        <dc:title></dc:title>
      </cc:Work>
    </rdf:RDF>
  </metadata>
  <g
     transform="translate(0,-1027.3622)"
     id="icons-mk">
    <path
       d="m 10.056461,1031.2223 -4.6239996,0.4062 -5.43699998,6.4682 2.49999998,2.1249 2.531,2.1248 5.4359996,-6.4682 -0.09,-1.2499 c 0.246,0.073 0.45,0.1507 0.626,0.2812 0.264,0.1976 0.455,0.4511 0.531,0.9062 0.293,1.5584 -0.557,3.5149 -0.719,5.312 -0.08,0.8987 0.06,1.8343 0.719,2.5623 0.455,0.5054 1.117,0.8772 2.062,1.1562 -0.413,0.3869 -0.656,0.9206 -0.656,1.5311 0,1.1711 0.923,2.1248 2.094,2.1248 1.172,0 2.125,-0.9537 2.125,-2.1248 0,-0.4545 -0.132,-0.8735 -0.375,-1.2186 l 3.999,0 c -0.244,0.3454 -0.407,0.7634 -0.407,1.2186 0,1.1711 0.955,2.1248 2.126,2.1248 1.171,0 2.124,-0.9537 2.124,-2.1248 0,-1.1711 -0.953,-2.1248 -2.124,-2.1248 -0.02,0 -0.04,-6e-4 -0.06,0 l -7.343,0 c -0.02,0 -0.04,0 -0.06,0 -1.532,-0.2588 -2.408,-0.7046 -2.844,-1.1874 -0.262,-0.2911 -0.407,-0.6302 -0.469,-0.9999 0.509,0.074 1.127,0.115 1.969,0.1562 1.124,0.055 2.494,0.093 3.844,0.094 1.35,0 2.71,-0.04 3.811,-0.094 1.1,-0.054 1.887,-0.095 2.375,-0.25 0.57,-0.1809 0.886,-0.7091 1.063,-1.2811 0.178,-0.5721 0.233,-1.268 0.219,-1.9374 -0.02,-0.6693 -0.1,-1.3214 -0.282,-1.8748 -0.183,-0.5535 -0.452,-1.0454 -1,-1.2187 -0.249,-0.078 -0.529,-0.1304 -0.937,-0.1562 -0.408,-0.026 -0.926,-0.022 -1.5,-0.031 -1.148,-0.017 -2.561,0.01 -3.937,0.031 -2.514,0.042 -4.508,0.1122 -4.906,0.125 -0.115,-0.6432 -0.452,-1.1218 -0.875,-1.4374 -0.394,-0.2931 -0.836,-0.4341 -1.281,-0.5312 l -0.219,-2.4373 z m -2.2189996,1.3436 c 0.3,-0.026 0.627,0.072 0.875,0.2813 0.206,0.1723 0.321,0.4134 0.375,0.6562 -0.103,-0.01 -0.22,-0.022 -0.312,-0.031 -0.39,-0.04 -0.7,-0.1256 -0.75,-0.1563 l -0.469,0.7812 c 0.347,0.2136 0.713,0.2383 1.125,0.2812 0.07,0.01 0.146,0.024 0.219,0.031 -0.02,0.032 -0.04,0.063 -0.06,0.094 -0.417,0.4976 -1.158,0.5738 -1.656,0.1563 -0.497,-0.4175 -0.543,-1.1587 -0.125,-1.6561 0.209,-0.2488 0.482,-0.4113 0.781,-0.4375 z m 11.6559996,3.8122 c 0.561,0 1.167,-0.01 1.656,0 l 0,1.2812 -1.656,0 0,-1.2812 z m 2.374,0 c 0.29,0.01 0.624,0.017 0.844,0.031 0.384,0.024 0.677,0.081 0.719,0.094 0.03,0.01 0.231,0.222 0.375,0.6562 0.05,0.1448 0.09,0.3273 0.125,0.5 l -2.063,0 0,-1.2812 z m -4.78,0.031 c 0.143,0 0.137,0 0.281,0 0.498,-0.01 0.915,0.01 1.406,0 l 0,1.2499 -1.687,0 0,-1.2499 z m -0.719,0.031 0,1.2187 -1.656,0 0,-1.1874 c 0.617,-0.017 0.85,-0.014 1.656,-0.031 z m -2.374,0.062 0,1.1562 -1.563,0 c 0.05,-0.3722 0.1,-0.7469 0.09,-1.1249 0.127,0 1.034,-0.019 1.469,-0.031 z m -1.688,1.8749 1.688,0 0,0.9999 -1.938,0 c 0.08,-0.3288 0.178,-0.6548 0.25,-0.9999 z m 2.406,0 1.656,0 0,0.9999 -1.656,0 0,-0.9999 z m 2.375,0 1.687,0 0,0.9999 -1.687,0 0,-0.9999 z m 2.406,0 1.656,0 0,0.9999 -1.656,0 0,-0.9999 z m 2.374,0 2.188,0 c 0.01,0.1344 0.03,0.269 0.03,0.4062 0,0.2008 -0.02,0.3972 -0.03,0.5937 l -2.188,0 0,-0.9999 z m -9.967,1.7186 2.094,0 0,1.2186 c -0.08,0 -0.178,0 -0.25,0 -0.921,-0.045 -1.63,-0.1205 -2.032,-0.1875 0.03,-0.3206 0.105,-0.6744 0.188,-1.0311 z m 2.812,0 1.656,0 0,1.2811 c -0.578,-0.01 -1.124,-0.013 -1.656,-0.031 l 0,-1.2499 z m 2.375,0 1.687,0 0,1.2811 c -0.436,0.01 -0.803,0.032 -1.249,0.031 -0.155,0 -0.283,9e-4 -0.438,0 l 0,-1.3124 z m 2.406,0 1.656,0 0,1.2186 c -0.484,0.023 -1.098,0.017 -1.656,0.031 l 0,-1.2499 z m 2.374,0 2.063,0 c -0.02,0.1034 -0.03,0.2221 -0.06,0.3125 -0.134,0.4345 -0.311,0.6474 -0.437,0.6874 -0.165,0.052 -0.796,0.1324 -1.563,0.1875 l 0,-1.1874 z"
       id="product-labels"
       style="fill:#000000;fill-opacity:1;fill-rule:nonzero;stroke:none" />
  </g>
</svg>
