<?xml version="1.0" encoding="UTF-8" standalone="no"?>
<!-- Created with Inkscape (http://www.inkscape.org/) -->
<!-- icons-mk created by Matthias Kuhnel (2019), reuseIT, https://reuseproject.org -->

<svg
   xmlns:dc="http://purl.org/dc/elements/1.1/"
   xmlns:cc="http://creativecommons.org/ns#"
   xmlns:rdf="http://www.w3.org/1999/02/22-rdf-syntax-ns#"
   xmlns:svg="http://www.w3.org/2000/svg"
   xmlns="http://www.w3.org/2000/svg"
   version="1.1"
   width="25"
   height="25"
   id="svg">
  <defs
     id="defs" />
  <metadata
     id="metadata">
    <rdf:RDF>
      <cc:Work
         rdf:about="">
        <dc:format>image/svg+xml</dc:format>
        <dc:type
           rdf:resource="http://purl.org/dc/dcmitype/StillImage" />
        <dc:title></dc:title>
      </cc:Work>
    </rdf:RDF>
  </metadata>
  <g
     transform="translate(0,-1027.3622)"
     id="icons-mk">
    <path
       d="m -1.5e-7,1027.3622 c 0,0 3.18300005,25 12.50000015,25 9.317,0 12.5,-25 12.5,-25 0,0 -3.92,3.125 -6.25,3.125 -2.33,0 -3.92,-3.125 -6.25,-3.125 -2.33,0 -3.9200001,3.125 -6.2500001,3.125 -2.33,0 -6.25000005,-3.125 -6.25000005,-3.125 z M 12.5,1033.8622 c 0.894,0 1.644,0.192 2.219,0.5938 0.575,0.4017 0.931,0.9787 1.156,1.625 0.315,0.8997 0.396,1.9388 0.406,3.0624 l 0.657,0 c 0.246,0.01 0.468,0.2218 0.468,0.4688 l 0,5.75 c 0,0.247 -0.222,0.49 -0.468,0.5 l -8.8760001,0 c -0.252,0 -0.468,-0.248 -0.468,-0.5 l 0,-5.75 c 0,-0.2375 0.2,-0.4488 0.437,-0.4688 l 0.03,0 0.6259999,0 c 0.01,-1.1119 0.07,-2.1635 0.3740004,-3.0624 0.22,-0.6486 0.605,-1.2538 1.1879998,-1.6563 0.582,-0.4024 1.333,-0.5625 2.25,-0.5625 z m 0,1.25 c -0.741,0 -1.209,0.1525 -1.531,0.375 -0.322,0.2226 -0.53,0.531 -0.688,1 -0.22,0.6472 -0.2919998,1.5868 -0.3119998,2.6562 l 5.0309998,0 c -0.03,-1.0681 -0.09,-2.0059 -0.312,-2.6562 -0.165,-0.4713 -0.4,-0.7768 -0.719,-1 -0.32,-0.2231 -0.756,-0.375 -1.469,-0.375 z"
       id="protection"
       style="fill:#000000;fill-opacity:1;stroke:none" />
  </g>
</svg>
