<?xml version="1.0" encoding="UTF-8" standalone="no"?>
<!-- Created with Inkscape (http://www.inkscape.org/) -->
<!-- icons-mk created by Matthias Kuhnel (2019), reuseIT, https://reuseproject.org -->

<svg
   xmlns:dc="http://purl.org/dc/elements/1.1/"
   xmlns:cc="http://creativecommons.org/ns#"
   xmlns:rdf="http://www.w3.org/1999/02/22-rdf-syntax-ns#"
   xmlns:svg="http://www.w3.org/2000/svg"
   xmlns="http://www.w3.org/2000/svg"
   version="1.1"
   width="25"
   height="25"
   id="svg">
  <defs
     id="defs" />
  <metadata
     id="metadata">
    <rdf:RDF>
      <cc:Work
         rdf:about="">
        <dc:format>image/svg+xml</dc:format>
        <dc:type
           rdf:resource="http://purl.org/dc/dcmitype/StillImage" />
        <dc:title></dc:title>
      </cc:Work>
    </rdf:RDF>
  </metadata>
  <g
     transform="translate(0,-1027.3622)"
     id="icons-mk">
    <path
       d="m 6.0545001,1031.3617 -0.453,1.6839 -1.717,6.4767 -3.88599995,0 0,0.939 4.24199995,0 0.357,0 0.1,-0.3562 1.36,-5.1165 3.141,11.6903 0.453,1.6839 0.4539999,-1.6839 2.202,-8.1929 0.874,1.4896 0.389,0.7124 0.421,-0.7124 1.813,-3.1412 1.166,1.9754 0.129,0.2591 0.259,0 7.643,0 0,-0.9392 -7.351,0 -1.425,-2.4934 -0.421,-0.7125 -0.421,0.7125 -1.813,3.1735 -1.037,-1.781 -0.55,-1.0039 -0.292,1.101 -2.0399999,7.61 -3.141,-11.6903 -0.453,-1.6839 z"
       id="pulse"
       style="font-size:medium;font-style:normal;font-variant:normal;font-weight:normal;font-stretch:normal;text-indent:0;text-align:start;text-decoration:none;line-height:normal;letter-spacing:normal;word-spacing:normal;text-transform:none;direction:ltr;block-progression:tb;writing-mode:lr-tb;text-anchor:start;baseline-shift:baseline;color:#000000;fill:#000000;fill-opacity:1;stroke:none;stroke-width:0.90429062;marker:none;visibility:visible;display:inline;overflow:visible;enable-background:accumulate;font-family:Sans;-inkscape-font-specification:Sans" />
  </g>
</svg>
