<?xml version="1.0" encoding="UTF-8" standalone="no"?>
<!-- Created with Inkscape (http://www.inkscape.org/) -->
<!-- icons-mk created by Matthias Kuhnel (2019), reuseIT, https://reuseproject.org -->

<svg
   xmlns:dc="http://purl.org/dc/elements/1.1/"
   xmlns:cc="http://creativecommons.org/ns#"
   xmlns:rdf="http://www.w3.org/1999/02/22-rdf-syntax-ns#"
   xmlns:svg="http://www.w3.org/2000/svg"
   xmlns="http://www.w3.org/2000/svg"
   version="1.1"
   width="25"
   height="25"
   id="svg">
  <defs
     id="defs" />
  <metadata
     id="metadata">
    <rdf:RDF>
      <cc:Work
         rdf:about="">
        <dc:format>image/svg+xml</dc:format>
        <dc:type
           rdf:resource="http://purl.org/dc/dcmitype/StillImage" />
        <dc:title></dc:title>
      </cc:Work>
    </rdf:RDF>
  </metadata>
  <g
     transform="translate(0,-1027.3622)"
     id="icons-mk">
    <path
       d="m 9.0359999,1047.4316 5.0000001,0 0,4.9306 -5.0000001,0 z m 5.0050001,-3.3589 -5.0100001,0 0,-0.8059 c 0,-0.8991 0.152,-1.6968 0.457,-2.3931 0.306,-0.6963 0.9490001,-1.5817 1.9290001,-2.6563 l 0.889,-0.9539 c 0.528,-0.5702 0.914,-1.1075 1.159,-1.6119 0.245,-0.5043 0.368,-1.0087 0.368,-1.5131 0,-0.7675 -0.222,-1.3679 -0.666,-1.801 -0.445,-0.4331 -1.065,-0.6496 -1.86,-0.6497 -0.75,10e-5 -1.5600001,0.1837 -2.4299999,0.551 -0.869,0.3674 -1.776,0.9129 -2.72,1.6365 l 0,-5.1644 c 1.12,-0.4605 2.142,-0.8004 3.0679998,-1.0198 0.9250001,-0.2192 1.8180001,-0.3289 2.6790001,-0.3289 2.258,0 3.979,0.5455 5.163,1.6365 1.184,1.091 1.776,2.6837 1.776,4.7779 0,1.0746 -0.18,2.0368 -0.541,2.8866 -0.361,0.8498 -0.976,1.7626 -1.846,2.7384 l -0.888,0.9375 c -0.629,0.6799 -1.041,1.2254 -1.235,1.6366 -0.195,0.4111 -0.292,0.8635 -0.292,1.3569 z"
       id="questionmark"
       style="font-size:40px;font-style:normal;font-variant:normal;font-weight:bold;font-stretch:normal;line-height:125%;letter-spacing:0px;word-spacing:0px;fill:#000000;fill-opacity:1;stroke:none;font-family:DejaVu Sans;-inkscape-font-specification:DejaVu Sans Bold" />
  </g>
</svg>
