<?xml version="1.0" encoding="UTF-8" standalone="no"?>
<!-- Created with Inkscape (http://www.inkscape.org/) -->
<!-- icons-mk created by Matthias Kuhnel (2019), reuseIT, https://reuseproject.org -->

<svg
   xmlns:dc="http://purl.org/dc/elements/1.1/"
   xmlns:cc="http://creativecommons.org/ns#"
   xmlns:rdf="http://www.w3.org/1999/02/22-rdf-syntax-ns#"
   xmlns:svg="http://www.w3.org/2000/svg"
   xmlns="http://www.w3.org/2000/svg"
   version="1.1"
   width="25"
   height="25"
   id="svg">
  <defs
     id="defs" />
  <metadata
     id="metadata">
    <rdf:RDF>
      <cc:Work
         rdf:about="">
        <dc:format>image/svg+xml</dc:format>
        <dc:type
           rdf:resource="http://purl.org/dc/dcmitype/StillImage" />
        <dc:title></dc:title>
      </cc:Work>
    </rdf:RDF>
  </metadata>
  <g
     transform="translate(0,-1027.3622)"
     id="icons-mk">
    <path
       d="m 16.6013,1048.4592 c 0.1655,0.6919 0.7989,1.3333 1.6667,1.3333 0.8678,0 1.5012,-0.6414 1.6667,-1.3333 0.3122,-1.3059 -1.6667,-3.6667 -1.6667,-3.6667 0,0 -1.9789,2.3608 -1.6667,3.6667 z m -5.7683,0 c 0.1655,0.6919 0.799,1.3333 1.6668,1.3333 0.8677,0 1.5012,-0.6414 1.6666,-1.3333 0.3122,-1.3059 -1.6666,-3.6667 -1.6666,-3.6667 0,0 -1.979,2.3608 -1.6668,3.6667 z m -5.7676998,0 c 0.1655,0.6919 0.799,1.3333 1.6668,1.3333 0.8676999,0 1.5012,-0.6414 1.6666,-1.3333 0.3122,-1.3059 -1.6666,-3.6667 -1.6666,-3.6667 0,0 -1.979,2.3608 -1.6668,3.6667 z m 4.1329,-18.5272 c -3.3045,0 -5.9689,2.1431 -5.9689,4.7867 0,0.048 0,0.096 0,0.1441 -1.8642,0.474 -3.22950005,1.8408 -3.22950005,3.4891 0,2.0384 2.06560005,3.6909 4.61360005,3.6909 l 16.6089998,0 c 0.03,5e-4 0.056,0 0.087,0 2.0304,0 3.6908,-1.3168 3.6908,-2.9412 0,-1.278 -1.0276,-2.3336 -2.451,-2.7393 0.01,-0.085 0.029,-0.1729 0.029,-0.2596 0,-1.6243 -1.6605,-2.9411 -3.6909,-2.9411 -0.071,0 -0.1317,0.026 -0.2019,0.029 -0.5736,-1.0269 -1.8769,-1.759 -3.3737,-1.759 -0.5216,0 -0.9923,0.1318 -1.4418,0.2884 -1.097,-1.0803 -2.7959,-1.7879 -4.6711999,-1.7879 z"
       id="rainy"
       style="fill:#000000;fill-opacity:1;stroke:none" />
  </g>
</svg>
