<?xml version="1.0" encoding="UTF-8" standalone="no"?>
<!-- Created with Inkscape (http://www.inkscape.org/) -->
<!-- icons-mk created by Matthias Kuhnel (2020), reuseIT, https://reuseproject.org -->

<svg
   xmlns:dc="http://purl.org/dc/elements/1.1/"
   xmlns:cc="http://creativecommons.org/ns#"
   xmlns:rdf="http://www.w3.org/1999/02/22-rdf-syntax-ns#"
   xmlns:svg="http://www.w3.org/2000/svg"
   xmlns="http://www.w3.org/2000/svg"
   version="1.1"
   width="25"
   height="25"
   id="svg">
  <defs
     id="defs" />
  <metadata
     id="metadata">
    <rdf:RDF>
      <cc:Work
         rdf:about="">
        <dc:format>image/svg+xml</dc:format>
        <dc:type
           rdf:resource="http://purl.org/dc/dcmitype/StillImage" />
        <dc:title></dc:title>
      </cc:Work>
    </rdf:RDF>
  </metadata>
  <g
     transform="translate(0,-1027.3622)"
     id="icons-mk">
    <path
       d="m 8.561,1027.3622 0.156,1.8125 c -4.159,1.1063 -7.218,4.9116 -7.218,9.4062 l 0,0.25 2.031,0 0,-0.25 c 0,-3.4498 2.237,-6.3528 5.343,-7.3437 l 0.157,1.6875 3.469,-3.125 -3.938,-2.4375 z m 4.875,1.4375 0.03,2.0312 c 0.09,0 0.174,-0.031 0.25,-0.031 3.449,0 6.353,2.2651 7.344,5.375 l -1.688,0.1562 3.126,3.4688 2.437,-3.9688 -1.813,0.1563 c -1.115,-4.1442 -4.922,-7.1875 -9.406,-7.1875 -0.106,0 -0.191,0 -0.281,0 z m -3.625,4.375 c -0.139,0.044 -0.256,0.1977 -0.25,0.3437 l 0,0.75 -2.438,0 -0.03,0 c -0.164,0.017 -0.312,0.1484 -0.312,0.3125 l 0,0.9688 c 0,0.1746 0.169,0.3114 0.343,0.3125 l 0.626,0 0,10.3437 c 0,0.175 0.167,0.3135 0.343,0.3125 l 8.813,0 c 0.175,0 0.342,-0.1375 0.344,-0.3125 l 0,-10.3437 0.624,0 c 0.175,0 0.343,-0.1379 0.344,-0.3125 l 0,-0.9688 c 0,-0.1747 -0.168,-0.3115 -0.344,-0.3125 l -2.437,0 0,-0.75 c 0,-0.1747 -0.169,-0.3428 -0.344,-0.3437 l -5.187,0 c -0.03,0 -0.06,0 -0.09,0 z m -0.09,4.125 c 0,-9e-4 0.02,-9e-4 0.03,0 l 0.937,0 c 0.121,0 0.218,0.098 0.219,0.2187 l 0,6.875 c 0,0.1217 -0.1,0.22 -0.219,0.2188 l -0.937,0 c -0.121,0 -0.253,-0.098 -0.25,-0.2188 l 0,-6.875 c 0,-0.112 0.103,-0.2067 0.218,-0.2187 z m 2.282,0 c 0,-9e-4 0.03,-9e-4 0.03,0 l 0.937,0 c 0.119,0 0.249,0.099 0.25,0.2187 l 0,6.875 c 0,0.1206 -0.13,0.2181 -0.25,0.2188 l -0.937,0 c -0.121,0 -0.251,-0.098 -0.25,-0.2188 l 0,-6.875 c 0,-0.112 0.104,-0.2067 0.219,-0.2187 z m 2.281,0 c 0,-9e-4 0.02,-9e-4 0.03,0 l 0.938,0 c 0.119,0 0.248,0.099 0.25,0.2187 l 0,6.875 c 0,0.1206 -0.131,0.2181 -0.25,0.2188 l -0.938,0 c -0.121,0 -0.251,-0.097 -0.25,-0.2188 l 0,-6.875 c 0,-0.113 0.11,-0.2083 0.219,-0.2187 z m -11.75,2.5937 -2.469,3.9688 1.812,-0.1563 c 1.118,4.1443 4.923,7.1875 9.407,7.1875 l 0.281,0 0,-2 -0.281,0 c -3.45,0 -6.353,-2.2651 -7.344,-5.375 l 1.687,-0.1562 -3.093,-3.4688 z m 18.937,0.9688 0,0.25 c 0,3.4497 -2.237,6.381 -5.344,7.375 l -0.156,-1.7188 -3.468,3.125 3.937,2.4688 -0.156,-1.8438 c 4.16,-1.1064 7.219,-4.9116 7.219,-9.4062 l 0,-0.25 -2.032,0 z"
       id="recycling"
       style="fill:#000000;fill-opacity:1;stroke:none" />
  </g>
</svg>
