<?xml version="1.0" encoding="UTF-8" standalone="no"?>
<!-- Created with Inkscape (http://www.inkscape.org/) -->
<!-- icons-mk created by Matthias Kuhnel (2020), reuseIT, https://reuseproject.org -->

<svg
   xmlns:dc="http://purl.org/dc/elements/1.1/"
   xmlns:cc="http://creativecommons.org/ns#"
   xmlns:rdf="http://www.w3.org/1999/02/22-rdf-syntax-ns#"
   xmlns:svg="http://www.w3.org/2000/svg"
   xmlns="http://www.w3.org/2000/svg"
   version="1.1"
   width="25"
   height="25"
   id="svg">
  <defs
     id="defs" />
  <metadata
     id="metadata">
    <rdf:RDF>
      <cc:Work
         rdf:about="">
        <dc:format>image/svg+xml</dc:format>
        <dc:type
           rdf:resource="http://purl.org/dc/dcmitype/StillImage" />
        <dc:title></dc:title>
      </cc:Work>
    </rdf:RDF>
  </metadata>
  <g
     transform="translate(0,-1027.3622)"
     id="icons-mk">
    <path
       d="m 17.029,1027.3622 c -3.237,0 -5.843,2.6384 -5.843,5.875 0,3.2366 2.606,5.8437 5.843,5.8437 3.237,0 5.876,-2.6071 5.876,-5.8437 0,-3.2366 -2.639,-5.875 -5.876,-5.875 z m -1.468,2.2188 0.06,0 2.844,0 c 0.1,0 0.188,0.092 0.188,0.1875 l 0,0.4062 1.343,0 c 0.1,0 0.188,0.091 0.188,0.1875 l 0,0.5 c 0,0.096 -0.1,0.1875 -0.188,0.1875 l -0.343,0 0,5.6562 c 0,0.096 -0.09,0.1875 -0.188,0.1875 l -4.844,0 c -0.1,0 -0.187,-0.091 -0.187,-0.1875 l 0,-5.6562 -0.344,0 c -0.1,0 -0.187,-0.091 -0.187,-0.1875 l 0,-0.5 c 0,-0.09 0.07,-0.1781 0.156,-0.1875 l 0.03,0 1.344,0 0,-0.4062 c 0,-0.08 0.05,-0.1632 0.125,-0.1875 z m -0.06,2.2499 c -0.06,0.01 -0.09,0.064 -0.09,0.125 l 0,3.75 c 0,0.066 0.06,0.125 0.124,0.125 l 0.5,0 c 0.07,0 0.126,-0.058 0.126,-0.125 l 0,-3.75 c 0,-0.066 -0.06,-0.125 -0.126,-0.125 l -0.5,0 -0.03,0 z m 1.25,0 c -0.06,0.01 -0.09,0.064 -0.09,0.125 l 0,3.75 c 0,0.066 0.06,0.125 0.124,0.125 l 0.532,0 c 0.07,0 0.125,-0.059 0.125,-0.125 l 0,-3.75 c 0,-0.066 -0.06,-0.125 -0.125,-0.125 l -0.532,0 -0.03,0 z m 1.281,0 c -0.06,0.01 -0.124,0.063 -0.124,0.125 l 0,3.75 c 0,0.067 0.06,0.125 0.124,0.125 l 0.532,0 c 0.07,0 0.125,-0.059 0.125,-0.125 l 0,-3.75 c 0,-0.066 -0.06,-0.125 -0.125,-0.125 l -0.532,0 z m -15.937,7.0625 0,13.4688 9.563,0 0,-13.4688 -9.563,0 z m 1.344,0.9063 1.469,0 0,1.5 -1.469,0 0,-1.5 z m 2.687,0 1.5,0 0,1.5 -1.5,0 0,-1.5 z m 2.688,0 1.5,0 0,1.5 -1.5,0 0,-1.5 z m -5.375,1.9375 1.469,0 0,1.4687 -1.469,0 0,-1.4687 z m 2.687,0 1.5,0 0,1.4687 -1.5,0 0,-1.4687 z m 2.688,0 1.5,0 0,1.4687 -1.5,0 0,-1.4687 z m -5.375,1.9062 1.469,0 0,1.5 -1.469,0 0,-1.5 z m 2.687,0 1.5,0 0,1.5 -1.5,0 0,-1.5 z m 2.688,0 1.5,0 0,1.5 -1.5,0 0,-1.5 z m -5.375,1.9375 1.469,0 0,1.5 -1.469,0 0,-1.5 z m 2.687,0 1.5,0 0,1.5 -1.5,0 0,-1.5 z m 2.688,0 1.5,0 0,1.5 -1.5,0 0,-1.5 z m -5.375,1.9375 1.469,0 0,1.5 -1.469,0 0,-1.5 z m 2.687,0 1.5,0 0,1.5 -1.5,0 0,-1.5 z m 2.688,0 1.5,0 0,1.5 -1.5,0 0,-1.5 z m -3.125,2.375 1.062,0 0,2.0938 -1.062,0 0,-2.0938 z m 1.312,0 1.063,0 0,2.0938 -1.063,0 0,-2.0938 z"
       id="recycling-organization"
       style="fill:#000000;fill-opacity:1;fill-rule:nonzero;stroke:none" />
  </g>
</svg>
