<?xml version="1.0" encoding="UTF-8" standalone="no"?>
<!-- Created with Inkscape (http://www.inkscape.org/) -->
<!-- icons-mk created by Matthias Kuhnel (2020), reuseIT, https://reuseproject.org -->

<svg
   xmlns:dc="http://purl.org/dc/elements/1.1/"
   xmlns:cc="http://creativecommons.org/ns#"
   xmlns:rdf="http://www.w3.org/1999/02/22-rdf-syntax-ns#"
   xmlns:svg="http://www.w3.org/2000/svg"
   xmlns="http://www.w3.org/2000/svg"
   version="1.1"
   width="25"
   height="25"
   id="svg">
  <defs
     id="defs" />
  <metadata
     id="metadata">
    <rdf:RDF>
      <cc:Work
         rdf:about="">
        <dc:format>image/svg+xml</dc:format>
        <dc:type
           rdf:resource="http://purl.org/dc/dcmitype/StillImage" />
        <dc:title></dc:title>
      </cc:Work>
    </rdf:RDF>
  </metadata>
  <g
     transform="translate(0,-1027.3622)"
     id="icons-mk">
    <path
       d="m 8.547,1027.3622 0.156,1.8125 c -4.16,1.1064 -7.218,4.9117 -7.218,9.4063 l 0,0.25 2.032,0 0,-0.25 c 0,-3.4603 2.254,-6.3615 5.375,-7.3438 l 0.155,1.6875 3.47,-3.125 -3.97,-2.4375 z m 4.875,1.4375 0.03,2.0313 c 0.09,0 0.175,-0.031 0.25,-0.031 3.449,0 6.385,2.265 7.375,5.375 l -1.718,0.1563 3.126,3.4687 2.468,-3.9687 -1.844,0.1562 c -1.115,-4.1442 -4.922,-7.1875 -9.406,-7.1875 -0.106,0 -0.192,0 -0.282,0 z m 0.656,4.375 c -1.077,0.035 -2.108,0.5908 -2.686,1.5938 -0.662,1.1469 -0.549,2.5283 0.186,3.5312 l -4,6.9375 2.25,1.2813 4,-6.9375 c 1.236,0.1359 2.496,-0.4157 3.157,-1.5625 0.663,-1.1467 0.516,-2.528 -0.218,-3.5313 l -1.782,3.0938 -2.25,-1.2813 1.812,-3.125 c -0.155,-0.017 -0.315,0 -0.469,0 z m -11.561,6.7188 -2.47,3.9687 1.845,-0.1562 c 1.118,4.1414 4.893,7.1875 9.375,7.1875 l 0.28,0 0,-2 -0.28,0 c -3.451,0 -6.353,-2.2652 -7.345,-5.375 l 1.688,-0.1563 -3.093,-3.4687 z m 18.936,0.9687 0,0.25 c 0,3.4497 -2.236,6.381 -5.343,7.375 l -0.157,-1.7187 -3.468,3.125 3.968,2.4687 -0.156,-1.8437 c 4.149,-1.1131 7.188,-4.9187 7.188,-9.4063 l 0,-0.25 -2.032,0 z"
       id="recyclate"
       style="fill:#000000;fill-opacity:1" />
  </g>
</svg>
