<?xml version="1.0" encoding="UTF-8" standalone="no"?>
<!-- Created with Inkscape (http://www.inkscape.org/) -->
<!-- icons-mk created by Matthias Kuhnel (2020), reuseIT, https://reuseproject.org -->

<svg
   xmlns:dc="http://purl.org/dc/elements/1.1/"
   xmlns:cc="http://creativecommons.org/ns#"
   xmlns:rdf="http://www.w3.org/1999/02/22-rdf-syntax-ns#"
   xmlns:svg="http://www.w3.org/2000/svg"
   xmlns="http://www.w3.org/2000/svg"
   version="1.1"
   width="25"
   height="25"
   id="svg">
  <defs
     id="defs" />
  <metadata
     id="metadata">
    <rdf:RDF>
      <cc:Work
         rdf:about="">
        <dc:format>image/svg+xml</dc:format>
        <dc:type
           rdf:resource="http://purl.org/dc/dcmitype/StillImage" />
        <dc:title></dc:title>
      </cc:Work>
    </rdf:RDF>
  </metadata>
  <g
     transform="translate(0,-1027.3622)"
     id="icons-mk">
    <path
       d="m 12.5,1027.3622 c -6.904,0 -12.5,5.606 -12.5,12.5 0,6.8939 5.596,12.5 12.5,12.5 6.903,0 12.5,-5.6061 12.5,-12.5 0,-6.894 -5.597,-12.5 -12.5,-12.5 z m 0,3.125 c 1.989,0 3.825,0.6301 5.343,1.6875 l -3.562,3.5625 c -0.336,0 -0.632,-0.01 -0.969,0 -1.931,0.032 -3.455,0.084 -3.75,0.094 -0.09,-0.4887 -0.364,-0.8533 -0.687,-1.0937 -0.329,-0.2456 -0.69,-0.3652 -1.063,-0.4375 -0.372,-0.072 -0.764,-0.094 -1.062,-0.125 -0.298,-0.031 -0.525,-0.1015 -0.563,-0.125 l -0.344,0.5937 c 0.265,0.1635 0.529,0.186 0.844,0.2188 0.316,0.033 0.683,0.063 1,0.125 0.317,0.062 0.578,0.1613 0.782,0.3125 0.203,0.1512 0.349,0.3393 0.406,0.6875 0.225,1.1925 -0.438,2.656 -0.563,4.0312 -0.04,0.4934 0,1.0163 0.219,1.4688 l -3.719,3.7187 c -1.064,-1.5211 -1.687,-3.3496 -1.687,-5.3437 0,-5.1706 4.197,-9.375 9.375,-9.375 z m 7.562,3.875 c 1.126,1.547 1.813,3.4436 1.813,5.5 0,5.1702 -4.197,9.375 -9.375,9.375 -2.055,0 -3.955,-0.6905 -5.5,-1.8125 l 2.969,-2.9688 c 0.174,0.7079 0.832,1.2188 1.593,1.2188 0.896,0 1.625,-0.7289 1.625,-1.625 0,-0.3532 -0.121,-0.6711 -0.312,-0.9375 l 3.062,0 c -0.19,0.2659 -0.312,0.5854 -0.312,0.9375 0,0.8961 0.729,1.625 1.625,1.625 0.896,0 1.625,-0.7289 1.625,-1.625 0,-0.8962 -0.729,-1.625 -1.625,-1.625 -0.01,0 -0.02,-2e-4 -0.03,0 l -5.219,0 1.469,-1.4688 c 1.033,0 2.064,-0.053 2.906,-0.094 0.842,-0.042 1.44,-0.069 1.812,-0.1875 0.437,-0.1385 0.678,-0.5309 0.813,-0.9688 0.136,-0.4377 0.168,-0.9565 0.156,-1.4687 -0.01,-0.5122 -0.08,-1.014 -0.219,-1.4375 -0.105,-0.3176 -0.229,-0.6273 -0.468,-0.8125 l 1.593,-1.625 z m -6.937,2.0625 c 0.111,0 0.106,0 0.218,0 0.09,0 0.162,0 0.25,0 l -0.468,0.4687 0,-0.4687 z m -1.813,0.031 c 0.466,-0.013 0.644,0.013 1.25,0 l 0,0.9375 -1.25,0 0,-0.9375 z m -0.562,0.031 0,0.9062 -1.188,0 c 0.04,-0.2893 0.07,-0.5809 0.06,-0.875 0.09,0 0.794,-0.021 1.125,-0.031 z m 7.156,0.031 c 0.01,0 0.09,0 0.09,0 0.02,0.01 0.171,0.1677 0.281,0.5 0.04,0.1115 0.06,0.2421 0.09,0.375 l -1.344,0 0.875,-0.875 z m -8.437,1.4375 1.281,0 0,0.75 -1.469,0 c 0.06,-0.2493 0.132,-0.4883 0.188,-0.75 z m 1.843,0 0.75,0 -0.75,0.75 0,-0.75 z m 5.469,0 1.656,0 c 0,0.096 0.03,0.1839 0.03,0.2813 0,0.1548 -0.02,0.3174 -0.03,0.4687 l -1.656,0 0,-0.75 z m -0.531,0.2188 0,0.5312 -0.531,0 0.531,-0.5312 z m -7.094,1.0937 1.594,0 -0.875,0.875 c -0.389,-0.029 -0.686,-0.061 -0.875,-0.094 0.02,-0.2394 0.09,-0.5152 0.156,-0.7813 z m 6,0 1.094,0 0,0.9063 c -0.374,0.018 -0.85,0.02 -1.281,0.031 l 0,-0.75 0.187,-0.1875 z m 1.625,0 1.594,0 c -0.02,0.075 -0.04,0.1533 -0.06,0.2188 -0.103,0.3326 -0.216,0.5007 -0.312,0.5312 -0.127,0.04 -0.627,0.083 -1.219,0.125 l 0,-0.875 z m -2.375,0.75 0,0.1875 c -0.06,0 -0.122,-8e-4 -0.187,0 l 0.187,-0.1875 z m -5.375,0.7188 c 0.07,0.01 0.136,0.022 0.219,0.031 l -0.188,0.1875 c -0.02,-0.071 -0.02,-0.1429 -0.03,-0.2187 z"
       id="refuse-buying"
       style="fill:#000000;fill-opacity:1;fill-rule:nonzero;stroke:none" />
  </g>
</svg>
