<?xml version="1.0" encoding="UTF-8" standalone="no"?>
<!-- Created with Inkscape (http://www.inkscape.org/) -->
<!-- icons-mk created by Matthias Kuhnel (2019), reuseIT, https://reuseproject.org -->

<svg
   xmlns:dc="http://purl.org/dc/elements/1.1/"
   xmlns:cc="http://creativecommons.org/ns#"
   xmlns:rdf="http://www.w3.org/1999/02/22-rdf-syntax-ns#"
   xmlns:svg="http://www.w3.org/2000/svg"
   xmlns="http://www.w3.org/2000/svg"
   version="1.1"
   width="25"
   height="25"
   id="svg">
  <defs
     id="defs" />
  <metadata
     id="metadata">
    <rdf:RDF>
      <cc:Work
         rdf:about="">
        <dc:format>image/svg+xml</dc:format>
        <dc:type
           rdf:resource="http://purl.org/dc/dcmitype/StillImage" />
        <dc:title></dc:title>
      </cc:Work>
    </rdf:RDF>
  </metadata>
  <g
     transform="translate(0,-1027.3622)"
     id="icons-mk">
    <path
       d="m 12.5,1027.3622 c -6.9040002,0 -12.5000002,5.5964 -12.5000002,12.5 0,6.9035 5.596,12.5 12.5000002,12.5 6.904,0 12.5,-5.5965 12.5,-12.5 0,-6.9036 -5.596,-12.5 -12.5,-12.5 z m -7.9060002,5.1875 8.3120002,0 c 1.693,0 3.017,0.3509 3.938,1.0312 0.921,0.6804 1.375,1.6563 1.375,2.9063 0,1.0156 -0.315,1.8171 -0.969,2.4062 -0.654,0.5892 -1.647,0.9558 -2.969,1.125 0.58,0.085 1.072,0.2631 1.469,0.5625 0.397,0.2995 0.738,0.7461 1.031,1.3125 l 2.125,4.0625 1.5,0 0,1.1875 -4.812,0 -2.313,-4.4062 c -0.449,-0.9115 -0.84,-1.4994 -1.156,-1.75 -0.316,-0.2507 -0.753,-0.375 -1.313,-0.375 l -0.593,0 0,5.3437 1.875,0 0,1.1875 -7.5000002,0 0,-1.1875 1.875,0 0,-12.2187 -1.875,0 0,-1.1875 z m 5.6250002,1.1875 0,5.7187 1.281,0 c 0.911,0 1.602,-0.2552 2.094,-0.75 0.491,-0.4947 0.75,-1.207 0.75,-2.125 0,-0.9179 -0.259,-1.6054 -0.75,-2.0937 -0.492,-0.4883 -1.183,-0.75 -2.094,-0.75 l -1.281,0 z"
       id="registered-trademark"
       style="fill:#000000;fill-opacity:1;stroke:none" />
  </g>
</svg>
