<?xml version="1.0" encoding="UTF-8" standalone="no"?>
<!-- Created with Inkscape (http://www.inkscape.org/) -->
<!-- icons-mk created by Matthias Kuhnel (2019), reuseIT, https://reuseproject.org -->

<svg
   xmlns:dc="http://purl.org/dc/elements/1.1/"
   xmlns:cc="http://creativecommons.org/ns#"
   xmlns:rdf="http://www.w3.org/1999/02/22-rdf-syntax-ns#"
   xmlns:svg="http://www.w3.org/2000/svg"
   xmlns="http://www.w3.org/2000/svg"
   version="1.1"
   width="25"
   height="25"
   id="svg">
  <defs
     id="defs" />
  <metadata
     id="metadata">
    <rdf:RDF>
      <cc:Work
         rdf:about="">
        <dc:format>image/svg+xml</dc:format>
        <dc:type
           rdf:resource="http://purl.org/dc/dcmitype/StillImage" />
        <dc:title></dc:title>
      </cc:Work>
    </rdf:RDF>
  </metadata>
  <g
     transform="translate(0,-1027.3622)"
     id="icons-mk">
    <path
       d="m 11.81335,1027.3622 0,2.7154 c -5.8117999,0.3818 -10.3931999,5.2017 -10.3931999,11.111 0,6.1174 4.9155,11.1065 11.0173999,11.1734 0.041,0 0.084,5e-4 0.1249,0 6.1015,-0.067 11.0174,-5.056 11.0174,-11.1734 l -4.4632,0 c 0,3.6538 -2.9166,6.6433 -6.5542,6.7102 -0.041,8e-4 -0.083,0 -0.1249,0 -3.6374999,-0.067 -6.5541999,-3.0567 -6.5541999,-6.7102 0,-3.4431 2.5876,-6.2779 5.9299999,-6.648 l 0,2.8714 8.8326,-5.0249 -8.8326,-5.0249 z"
       id="reload"
       style="fill:#000000;fill-opacity:1;stroke:none" />
  </g>
</svg>
