<?xml version="1.0" encoding="UTF-8" standalone="no"?>
<!-- Created with Inkscape (http://www.inkscape.org/) -->
<!-- icons-mk created by Matthias Kuhnel (2019), reuseIT, https://reuseproject.org -->

<svg
   xmlns:dc="http://purl.org/dc/elements/1.1/"
   xmlns:cc="http://creativecommons.org/ns#"
   xmlns:rdf="http://www.w3.org/1999/02/22-rdf-syntax-ns#"
   xmlns:svg="http://www.w3.org/2000/svg"
   xmlns="http://www.w3.org/2000/svg"
   version="1.1"
   width="25"
   height="25"
   id="svg">
  <defs
     id="defs" />
  <metadata
     id="metadata">
    <rdf:RDF>
      <cc:Work
         rdf:about="">
        <dc:format>image/svg+xml</dc:format>
        <dc:type
           rdf:resource="http://purl.org/dc/dcmitype/StillImage" />
        <dc:title></dc:title>
      </cc:Work>
    </rdf:RDF>
  </metadata>
  <g
     transform="translate(0,-1027.3622)"
     id="icons-mk">
    <path
       d="m 13.999487,1038.3497 c 0,0.8284 -0.6722,1.5 -1.5001,1.5 -0.8286,0 -1.5,-0.6716 -1.5,-1.5 0,-0.8285 0.6714,-1.5 1.5,-1.5 0.8279,0 1.5001,0.6715 1.5001,1.5 z m -4.1422997,-6.9026 0.9504997,0.3556 c 0,0 0.284,-0.8852 1.6964,-0.8905 1.41,0 1.6897,0.8905 1.6897,0.8905 l 0.9505,-0.3556 c 0,0 -0.8331,-1.4911 -2.6469,-1.4853 -1.8114,0 -2.6401997,1.4853 -2.6401997,1.4853 z m -1.1331,-1.9639 0.9502,0.5086 c 0,0 0.8133997,-1.5479 2.8311997,-1.5547 2.0143,-0.01 2.8217,1.5547 2.8217,1.5547 l 0.9501,-0.5086 c 0,0 -1.1901,-2.1301 -3.7814,-2.1212 -2.5875997,0.01 -3.7717997,2.1212 -3.7717997,2.1212 z m -2.8797996,3.8793 c -0.207,0.068 -0.355,0.2829 -0.344,0.5 l 0,18 c 0,0.2617 0.238,0.5 0.5,0.5 l 12.9999993,0 c 0.262,0 0.5,-0.2383 0.5,-0.5 l 0,-18 c 0,-0.2617 -0.238,-0.5 -0.5,-0.5 l -12.9999993,0 c -0.05,-0.01 -0.104,-0.01 -0.156,0 z m 6.6559993,2 c 1.657,0 3,1.3431 3,3 0,1.6568 -1.343,3 -3,3 -1.657,0 -2.9999997,-1.3432 -2.9999997,-3 0,-1.6569 1.3429997,-3 2.9999997,-3 z m -2.7499997,7.5 c 0.8279997,0 1.4999997,0.6716 1.4999997,1.5 0,0.8284 -0.672,1.5 -1.4999997,1.5 -0.828,0 -1.5,-0.6716 -1.5,-1.5 0,-0.8284 0.672,-1.5 1.5,-1.5 z m 5.4999997,0 c 0.828,0 1.5,0.6716 1.5,1.5 0,0.8284 -0.672,1.5 -1.5,1.5 -0.828,0 -1.5,-0.6716 -1.5,-1.5 0,-0.8284 0.672,-1.5 1.5,-1.5 z m -5.4999997,4.5 c 0.8279997,0 1.4999997,0.6716 1.4999997,1.5 0,0.8284 -0.672,1.5 -1.4999997,1.5 -0.828,0 -1.5,-0.6716 -1.5,-1.5 0,-0.8284 0.672,-1.5 1.5,-1.5 z m 5.4999997,0 c 0.828,0 1.5,0.6716 1.5,1.5 0,0.8284 -0.672,1.5 -1.5,1.5 -0.828,0 -1.5,-0.6716 -1.5,-1.5 0,-0.8284 0.672,-1.5 1.5,-1.5 z"
       id="remote"
       style="fill:#000000;fill-opacity:1;stroke:none" />
  </g>
</svg>
