<?xml version="1.0" encoding="UTF-8" standalone="no"?>
<!-- Created with Inkscape (http://www.inkscape.org/) -->
<!-- icons-mk created by Matthias Kuhnel (2019), reuseIT, https://reuseproject.org -->

<svg
   xmlns:dc="http://purl.org/dc/elements/1.1/"
   xmlns:cc="http://creativecommons.org/ns#"
   xmlns:rdf="http://www.w3.org/1999/02/22-rdf-syntax-ns#"
   xmlns:svg="http://www.w3.org/2000/svg"
   xmlns="http://www.w3.org/2000/svg"
   version="1.1"
   width="25"
   height="25"
   id="svg">
  <defs
     id="defs" />
  <metadata
     id="metadata">
    <rdf:RDF>
      <cc:Work
         rdf:about="">
        <dc:format>image/svg+xml</dc:format>
        <dc:type
           rdf:resource="http://purl.org/dc/dcmitype/StillImage" />
        <dc:title></dc:title>
      </cc:Work>
    </rdf:RDF>
  </metadata>
  <g
     transform="translate(0,-1027.3622)"
     id="icons-mk">
    <path
       d="m 1.7518146,1027.3666 a 0.99992386,0.99992386 0 0 0 -0.81240003,0.9998 l 0,22.996 a 0.99992386,0.99992386 0 0 0 0.99990003,0.9998 l 21.1212994,0 a 0.99992386,0.99992386 0 0 0 0.9998,-0.9998 l 0,-17.497 a 0.99992386,0.99992386 0 0 0 -0.25,-0.6873 l -4.9991,-5.499 a 0.99992386,0.99992386 0 0 0 -0.7499,-0.3125 l -16.1220994,0 a 0.99992386,0.99992386 0 0 0 -0.1875,0 z m 1.1873,1.9997 14.6848994,0 4.4367,4.8741 0,16.1221 -19.1215994,0 0,-20.9962 z m 2.6562,8.571 c -0.402,0.091 -0.7321,0.4474 -0.7187,0.8123 l 0,8.8419 c 0,0.425 0.4541,0.8124 0.9373,0.8124 l 13.3726994,0 c 0.4833,0 0.9373,-0.3874 0.9373,-0.8124 l 0,-8.8419 c 0,-0.425 -0.454,-0.8123 -0.9373,-0.8123 l -13.3726994,0 c -0.076,-0.01 -0.1431,-0.01 -0.2186,0 z m 0.9949,-8.9486 c -0.2317,0.06 -0.4064,0.2925 -0.3988,0.5316 l 0,4.486 c 0,0.2785 0.2533,0.5317 0.5316,0.5317 l 7.7093994,0 c 0.2785,0 0.5317,-0.2532 0.5317,-0.5317 l 0,-4.486 c 0,-0.2783 -0.2532,-0.5316 -0.5317,-0.5316 l -7.7093994,0 c -0.044,-0.01 -0.089,-0.01 -0.1328,0 z"
       id="save"
       style="font-size:medium;font-style:normal;font-variant:normal;font-weight:normal;font-stretch:normal;text-indent:0;text-align:start;text-decoration:none;line-height:normal;letter-spacing:normal;word-spacing:normal;text-transform:none;direction:ltr;block-progression:tb;writing-mode:lr-tb;text-anchor:start;baseline-shift:baseline;color:#000000;fill:#000000;fill-opacity:1;stroke:none;stroke-width:2;marker:none;visibility:visible;display:inline;overflow:visible;enable-background:accumulate;font-family:Sans;-inkscape-font-specification:Sans" />
  </g>
</svg>
