<?xml version="1.0" encoding="UTF-8" standalone="no"?>
<!-- Created with Inkscape (http://www.inkscape.org/) -->
<!-- icons-mk created by Matthias Kuhnel (2019), reuseIT, https://reuseproject.org -->

<svg
   xmlns:dc="http://purl.org/dc/elements/1.1/"
   xmlns:cc="http://creativecommons.org/ns#"
   xmlns:rdf="http://www.w3.org/1999/02/22-rdf-syntax-ns#"
   xmlns:svg="http://www.w3.org/2000/svg"
   xmlns="http://www.w3.org/2000/svg"
   version="1.1"
   width="25"
   height="25"
   id="svg">
  <defs
     id="defs" />
  <metadata
     id="metadata">
    <rdf:RDF>
      <cc:Work
         rdf:about="">
        <dc:format>image/svg+xml</dc:format>
        <dc:type
           rdf:resource="http://purl.org/dc/dcmitype/StillImage" />
        <dc:title></dc:title>
      </cc:Work>
    </rdf:RDF>
  </metadata>
  <g
     transform="translate(0,-1027.3622)"
     id="icons-mk">
    <path
       d="m 12.591252,1027.3645 c -0.2739,-0.026 -0.5667,0.1696 -0.625,0.6875 0,0.8178 0.025,1.7264 0,2.6873 -0.025,0.96 1.1975,1.2068 1.1874,-0.062 -0.01,-1.2692 0.038,-1.8192 0,-2.6248 -0.019,-0.4029 -0.2887,-0.6615 -0.5624,-0.6875 z m -8.0622999,3.406 c -0.477,0 -0.6855,0.5813 -0.2812,1.0313 0.5391,0.6005 0.9271,0.9972 1.8125,1.9062 0.886,0.9096 1.5985,-0.1465 0.9063,-0.8126 -0.6924,-0.6659 -1.3002,-1.3231 -1.875,-1.9061 -0.2027,-0.1638 -0.4035,-0.2176 -0.5626,-0.2188 z m 16.1555989,0.031 c -0.1591,0 -0.3598,0.055 -0.5624,0.2187 -0.575099,0.5824 -1.183399,1.2403 -1.874899,1.9062 -0.6918,0.666 0.021,1.722 0.9061,0.8125 0.886099,-0.909 1.273199,-1.3063 1.812499,-1.9062 0.4038,-0.4499 0.1959,-1.0347 -0.2813,-1.0312 z m -8.062099,2.6249 c -3.5089998,0 -6.3435999,2.7466 -6.3435999,6.1247 0,1.861 0.8597,3.5406 2.2187,4.6561 0.7642001,1.0916 1.9657999,2.9353 1.6874999,3.9061 -1.0363998,0.11 -0.8367998,1.1442 -0.031,1.1874 0.8051,0.043 3.3554,0.014 4.6248,0.031 1.1977,0.016 1.0457,-1.0791 0.2188,-1.1874 -0.01,-0.013 -0.024,-0.018 -0.031,-0.031 -0.2613,-0.9111 0.7393,-2.5733 1.4999,-3.6873 1.5395,-1.1101 2.5311,-2.8811 2.5311,-4.8749 0,-3.3781 -2.8656,-6.1247 -6.3747,-6.1247 z m -0.375,2.1874 0.4688,0 0,3.6561 c 0.3594,-0.3778 0.8921,-0.9088 1.5624,-1.4687 0.5128,-0.428 1.0602,-0.8173 1.5311,-1 0.1177,-0.046 0.2296,-0.081 0.3438,-0.094 0.1142,-0.012 0.2307,-8e-4 0.3437,0.031 0.2261,0.065 0.3997,0.2726 0.4688,0.5313 0.1386,0.5222 -0.1261,1.0136 -0.5313,1.4375 -0.4052,0.4236 -0.9622,0.796 -1.5312,1.1249 -1.02,0.5896 -1.9758,0.9524 -2.1873,1.0312 l 0,0.8124 0,0.3437 0,1.2813 -0.3751,0 -0.094,0 0,-1.4687 c -0.2126,-0.081 -1.1405,-0.4439 -2.1561,-1.0312 -0.5690998,-0.329 -1.1570998,-0.7012 -1.5625999,-1.125 -0.4048,-0.4236 -0.6698,-0.9464 -0.5311,-1.4687 0.069,-0.2587 0.2426,-0.466 0.4687,-0.5312 0.2259,-0.065 0.4834001,-2e-4 0.7188001,0.094 0.4707,0.1825 0.9870998,0.5406 1.4998998,0.9687 0.6795,0.5674 1.2057,1.115 1.5624,1.4999 l 0,-0.375 0,-0.094 0,-4.1561 z m 3.6248,2.1562 -3.031,2.2811 0.031,0.062 3.0623,-2.2499 -0.062,-0.094 z m -6.7807998,0.9687 -0.063,0.062 3.0623998,2.2811 0.062,-0.062 -3.0621998,-2.2811 z m -7.8436,0.062 c -1.03639995,0.11 -0.83669995,1.1442 -0.031,1.1874 0.8056999,0.043 1.3556999,0.014 2.6249999,0.031 1.2692,0.017 1.0231,-1.2062 0.062,-1.1873 -0.9609,0.018 -1.8375,-0.029 -2.6561999,-0.031 z m 19.7179988,0 c -1.0365,0.11 -0.8055,1.1442 0,1.1874 0.8056,0.043 1.3557,0.014 2.6249,0.031 1.2699,0.017 1.0233,-1.2062 0.062,-1.1873 -0.9609,0.018 -1.8696,-0.029 -2.6873,-0.031 z m -2.562499,5.9372 c -0.477,0 -0.6855,0.6125 -0.2811,1.0624 0.5391,0.6007 0.9584,0.9654 1.843699,1.8749 0.8853,0.9098 1.5672,-0.1464 0.8749,-0.8124 -0.6922,-0.6653 -1.300199,-1.3231 -1.874899,-1.9061 -0.2027,-0.1638 -0.4035,-0.2176 -0.5626,-0.2188 z m -11.7181999,0.031 c -0.1591,0 -0.3286,0.055 -0.5313,0.2187 -0.5747,0.5823 -1.2138,1.2401 -1.9061,1.9062 -0.6923,0.6659 0.02,1.6909 0.9062,0.7811 0.8853,-0.9088 1.3045,-1.2742 1.8438,-1.8749 0.4042,-0.4499 0.1647,-1.0346 -0.3126,-1.0311 z m 3.4998999,4.8748 c -1.0363998,0.11 -0.8367998,1.1129 -0.031,1.1561 0.8051,0.043 3.3554,0.045 4.6248,0.062 1.2693,0.017 1.0232,-1.2376 0.063,-1.2186 -0.9611,0.019 -3.8376,0 -4.6561,0 z m 0,1.4998 c -1.0363998,0.11 -0.8367998,1.1443 -0.031,1.1875 0.8051,0.043 3.3554,0.014 4.6248,0.031 1.2693,0.017 1.0232,-1.2064 0.063,-1.1875 -0.9603,0.018 -3.8376,-0.029 -4.6561,-0.031 z"
       id="save-ressources"
       style="fill:#000000;fill-opacity:1" />
  </g>
</svg>
