<?xml version="1.0" encoding="UTF-8" standalone="no"?>
<!-- Created with Inkscape (http://www.inkscape.org/) -->
<!-- icons-mk created by Matthias Kuhnel (2019), reuseIT, https://reuseproject.org -->

<svg
   xmlns:dc="http://purl.org/dc/elements/1.1/"
   xmlns:cc="http://creativecommons.org/ns#"
   xmlns:rdf="http://www.w3.org/1999/02/22-rdf-syntax-ns#"
   xmlns:svg="http://www.w3.org/2000/svg"
   xmlns="http://www.w3.org/2000/svg"
   version="1.1"
   width="25"
   height="25"
   id="svg">
  <defs
     id="defs" />
  <metadata
     id="metadata">
    <rdf:RDF>
      <cc:Work
         rdf:about="">
        <dc:format>image/svg+xml</dc:format>
        <dc:type
           rdf:resource="http://purl.org/dc/dcmitype/StillImage" />
        <dc:title></dc:title>
      </cc:Work>
    </rdf:RDF>
  </metadata>
  <g
     transform="translate(0,-1027.3622)"
     id="icons-mk">
    <path
       d="m 22.809,1052.3624 -2.452,-0.7449 2.053,-6.7581 2.452,0.7449 z m -15.9490002,-25.0004 0.612,2.5833 -6.72199995,1.9099 -0.612,-2.5833 z m 8.3840002,23.3894 4.04,0.5967 2.019,-6.7944 c 0,0 -1.216,-0.1149 -1.859,-0.9874 -0.643,-0.8722 -1.447,-4.8434 -1.974,-5.3708 -0.528,-0.5285 -3.627,-1.9283 -3.627,-1.9283 0,0 -5.4860001,-1.5841 -5.6920001,0.1375 -0.2070001,1.7217 5.2330001,2.1116 5.6920001,3.0297 0.46,0.9191 1.401,11.317 1.401,11.317 z m -10.6110001,-3.9143 1.747,-0.7661 c 0,0 0.2669999,2.1604 -0.688,2.1692 -0.955,0.01 -1.059,-1.4031 -1.059,-1.4031 z m -3.6320001,-13.909 0.861,3.6154 c 0,0 2.375,-0.2416 2.031,1.8927 2.169,1.2051 1.171,1.412 1.515,2.1352 2.1520001,1.1532 1.136,2.1 1.171,2.5475 0.03,0.4476 1.738,0.9463 0.413,2.548 0.413,3.7868 1.2740001,3.6842 1.2740001,3.6842 0,0 1.6009999,0.2237 0.619,-3.7879 -0.6080001,-4.0048 0.08,-3.3397 0.08,-3.3397 0,0 0.27,-0.097 0.574,3.3057 0.2319999,4.9834 1.3770001,4.9581 1.3770001,4.9581 0,0 1.641,0.5618 0.55,-4.683 -0.689,-4.3041 -0.138,-3.8565 -0.138,-3.8565 0,0 0.293,-0.74 0.655,3.8221 0.499,5.7151 1.618,5.6121 1.618,5.6121 0,0 1.572,0.3101 0.413,-5.7152 -0.74,-4.906 -0.408,-4.7629 -0.654,-5.543 -0.345,-0.5739 -5.6980001,-1.7381 -5.7840001,-3.58 -0.104,-2.2045 2.031,-1.2743 3.4420001,-1.3089 1.378,0.2758 3.581,0.6195 0.173,-1.0671 -1.8710001,-0.6774 -2.3420001,-1.2398 -2.3420001,-1.2398 l -1.067,-1.8926 -6.78200005,1.8927 z M 13.47,1047.0741 m -11.1980002,-8.0288 c -0.37,0.197 -0.843,0.035 -1.058,-0.3664 l 0,0 c -0.21399995,-0.3997 -0.09,-0.8843 0.281,-1.0826 l 0.947,-0.5089 c 0.371,-0.1974 0.844,-0.035 1.057,0.3653 l 0,0 c 0.216,0.4005 0.09,0.8852 -0.279,1.0838 l -0.948,0.5088 z m 0.816,2.2943 c -0.465,0.249 -1.016,0.1277 -1.231,-0.2732 l 0,0 c -0.214,-0.3997 -0.01,-0.9266 0.454,-1.1757 l 1.192,-0.6413 c 0.466,-0.2491 1.017,-0.1278 1.231,0.2734 l 0,0 c 0.216,0.4005 0.01,0.9275 -0.452,1.1768 l -1.194,0.64 z m 1.575,4.8728 c -0.6,0.3211 -1.259,0.2587 -1.474,-0.1421 l 0,0 c -0.215,-0.3998 0.1,-0.9856 0.697,-1.3069 l 1.537,-0.8263 c 0.6,-0.3213 1.261,-0.2579 1.475,0.1421 l 0,0 c 0.216,0.4005 -0.1,0.9852 -0.696,1.3077 l -1.539,0.8255 z m -0.733,-2.4783 c -0.6,0.3211 -1.261,0.2576 -1.476,-0.1432 l 0,0 c -0.214,-0.3998 0.1,-0.9845 0.697,-1.3068 l 1.539,-0.8253 c 0.599,-0.3224 1.259,-0.2589 1.474,0.1421 l 0,0 c 0.215,0.3994 -0.1,0.9852 -0.697,1.3066 l -1.537,0.8266 z"
       id="savior"
       style="fill:#000000;fill-opacity:1" />
  </g>
</svg>
