<?xml version="1.0" encoding="UTF-8" standalone="no"?>
<!-- Created with Inkscape (http://www.inkscape.org/) -->
<!-- icons-mk created by Matthias Kuhnel (2020), reuseIT, https://reuseproject.org -->

<svg
   xmlns:dc="http://purl.org/dc/elements/1.1/"
   xmlns:cc="http://creativecommons.org/ns#"
   xmlns:rdf="http://www.w3.org/1999/02/22-rdf-syntax-ns#"
   xmlns:svg="http://www.w3.org/2000/svg"
   xmlns="http://www.w3.org/2000/svg"
   version="1.1"
   width="25"
   height="25"
   id="svg">
  <defs
     id="defs" />
  <metadata
     id="metadata">
    <rdf:RDF>
      <cc:Work
         rdf:about="">
        <dc:format>image/svg+xml</dc:format>
        <dc:type
           rdf:resource="http://purl.org/dc/dcmitype/StillImage" />
        <dc:title></dc:title>
      </cc:Work>
    </rdf:RDF>
  </metadata>
  <g
     transform="translate(0,-1027.3622)"
     id="icons-mk">
    <path
       d="m 3.9404648,1028.7245 c -0.302,-10e-5 -0.593,0.2904 -0.593,0.5936 l 0,1.4683 c 0,0.3032 0.291,0.5937 0.593,0.5936 l 7.2490002,0 0,3.7178 -4.5620002,0 c -1.462,0 -2.585,1.0809 -3.405,2.4056 -0.821,1.3247 -1.437,2.9874 -1.907,4.655 -0.94000005,3.3352 -1.31100005,6.6544 -1.31100005,6.6544 -0.05,0.4115 0.336,0.8126 0.75,0.8123 l 1.15500005,0 0,1.1248 c 0,0.1213 0.1,0.2371 0.219,0.2499 l 0.03,0 2.156,0 c 0.131,9e-4 0.25,-0.1198 0.25,-0.2499 l 0,-1.1248 15.8720002,0 0,1.1248 c 0,0.1213 0.1,0.2371 0.218,0.2499 l 0.03,0 2.155,0 c 0.129,0 0.25,-0.1214 0.25,-0.2499 l 0,-1.1248 1.186,0 c 0.418,0 0.773,-0.4295 0.719,-0.8435 0,0 -0.437,-3.2922 -1.405,-6.6232 -0.484,-1.6655 -1.099,-3.3344 -1.906,-4.655 -0.806,-1.3206 -1.886,-2.4056 -3.312,-2.4056 l -4.561,0 0,-3.7178 7.28,0 c 0.302,0 0.561,-0.2919 0.561,-0.5936 l 0,-1.4683 c 0,-0.3017 -0.259,-0.5914 -0.561,-0.5936 l -17.1530002,0 z m 8.5610002,7.8104 c 2.911,0 5.279,2.3823 5.279,5.311 l -0.469,0 -1.249,0 0,-0.4998 1.156,0 c -0.06,-0.5844 -0.216,-1.1231 -0.469,-1.6245 l -0.999,0.531 -0.25,-0.4061 1,-0.5624 c -0.361,-0.5586 -0.847,-1.0422 -1.406,-1.4059 l -0.563,0.9686 -0.437,-0.2188 0.562,-0.9997 c -0.57,-0.2901 -1.199,-0.4614 -1.874,-0.4999 l 0,1.4059 -0.562,0 0,-1.4059 c -0.666,0.038 -1.282,0.1864 -1.844,0.4687 l 0.563,0.9685 -0.407,0.25 -0.5620002,-0.9686 c -0.566,0.3587 -1.069,0.8172 -1.437,1.3747 l 0.999,0.5936 -0.25,0.4373 -0.999,-0.5935 c -0.269,0.5158 -0.439,1.0811 -0.5,1.687 l 1.156,0 0,0.4998 -1.187,0 -0.06,0 -0.469,0 c 0,-2.9287 2.367,-5.311 5.2800002,-5.311 z m 2.437,2.7805 c 0.03,-9e-4 0.04,0.017 0.06,0.031 0.247,0.2462 -1.634,2.5678 -1.655,2.5931 -0.05,0.4178 -0.412,0.7497 -0.844,0.7497 -0.469,0 -0.845,-0.3752 -0.845,-0.8435 0,-0.4681 0.376,-0.8435 0.845,-0.8435 0.176,-0.1453 1.997,-1.6789 2.437,-1.687 z m -2.437,2.0932 c -0.234,0 -0.438,0.2032 -0.438,0.4373 0,0.2342 0.204,0.4062 0.438,0.4062 0.233,0 0.438,-0.172 0.438,-0.4062 0,-0.2341 -0.205,-0.4373 -0.438,-0.4373 z m -5.2800002,2.4993 10.5590002,0 0,3.749 -10.5590002,0 0,-3.749 z m 1.219,1.2185 c -0.174,0 -0.308,0.074 -0.407,0.1874 -0.1,0.1141 -0.156,0.2681 -0.156,0.4686 0,0.1999 0.06,0.3538 0.156,0.4686 0.1,0.1148 0.234,0.1875 0.407,0.1875 0.09,0 0.16,-0.032 0.218,-0.062 0.06,-0.031 0.09,-0.092 0.125,-0.1562 l 0,0.1562 c 0,0.1524 -0.01,0.2523 -0.06,0.3125 -0.05,0.06 -0.155,0.094 -0.281,0.094 -0.101,0 -0.166,-0.024 -0.219,-0.062 -0.05,-0.039 -0.07,-0.1073 -0.09,-0.1875 l -0.125,0 0,0.3125 c 0.09,0.025 0.167,0.05 0.25,0.062 0.08,0.013 0.169,0 0.25,0 0.223,0 0.378,-0.031 0.499,-0.1249 0.122,-0.094 0.188,-0.2347 0.188,-0.4062 l 0,-1.0622 0.187,0 0,-0.1562 -0.593,0 0,0.1562 c -0.03,-0.064 -0.07,-0.094 -0.125,-0.1249 -0.06,-0.031 -0.132,-0.062 -0.218,-0.062 z m 2.0610002,0 c -0.09,0 -0.185,0.021 -0.25,0.062 -0.07,0.041 -0.116,0.1024 -0.156,0.1874 l 0,-0.2187 -0.5940002,0 0,0.1562 0.188,0 0,0.9372 -0.188,0 0,0.125 0.8120002,0 0,-0.125 -0.218,0 0,-0.4999 c 0,-0.1385 0.01,-0.2343 0.06,-0.3123 0.05,-0.078 0.131,-0.125 0.219,-0.125 0.06,0 0.09,0.03 0.125,0.062 0.03,0.032 0.06,0.091 0.06,0.1562 l 0.126,0 0,-0.3749 c -0.05,-0.01 -0.09,-0.028 -0.126,-0.031 l -0.06,0 z m 0.844,0 c -0.09,0 -0.172,0.018 -0.25,0.031 -0.08,0.013 -0.177,0.036 -0.25,0.062 l 0,0.2499 0.156,0 c 0.02,-0.076 0.04,-0.1229 0.09,-0.1562 0.04,-0.033 0.105,-0.062 0.187,-0.062 0.1,0 0.171,0.047 0.218,0.094 0.05,0.047 0.06,0.12 0.06,0.2186 l 0,0.062 -0.217,0 c -0.194,0 -0.342,0.026 -0.438,0.094 -0.1,0.068 -0.125,0.1754 -0.125,0.3125 0,0.1247 0.02,0.2141 0.09,0.2811 0.07,0.067 0.156,0.125 0.281,0.125 0.08,0 0.153,-0.032 0.219,-0.062 0.07,-0.031 0.134,-0.061 0.186,-0.125 l 0,0.125 0.595,0 0,-0.125 -0.187,0 0,-0.6248 c 0,-0.1738 -0.05,-0.2937 -0.158,-0.3749 -0.101,-0.081 -0.249,-0.1249 -0.467,-0.1249 z m 1.906,0 c -0.08,0 -0.158,0.029 -0.219,0.062 -0.06,0.033 -0.139,0.085 -0.187,0.1562 l 0,-0.1875 -0.563,0 0,0.1562 0.157,0 0,0.9372 -0.157,0 0,0.125 0.719,0 0,-0.125 -0.156,0 0,-0.5936 c 0,-0.1026 0.02,-0.1944 0.06,-0.2499 0.04,-0.055 0.118,-0.094 0.188,-0.094 0.06,0 0.101,0.022 0.125,0.062 0.02,0.04 0.03,0.16 0.03,0.3124 l 0,0.5623 -0.156,0 0,0.125 0.718,0 0,-0.125 -0.156,0 0,-0.5936 c 0,-0.1026 0.02,-0.1944 0.06,-0.2499 0.04,-0.055 0.08,-0.094 0.156,-0.094 0.06,0 0.102,0.022 0.124,0.062 0.02,0.04 0.06,0.16 0.06,0.3124 l 0,0.5623 -0.155,0 0,0.125 0.718,0 0,-0.125 -0.156,0 0,-0.6248 c 0,-0.16 -0.06,-0.2956 -0.125,-0.3749 -0.07,-0.079 -0.173,-0.1249 -0.313,-0.1249 -0.09,0 -0.151,0.025 -0.218,0.062 -0.07,0.037 -0.13,0.1062 -0.187,0.1874 -0.03,-0.08 -0.06,-0.1495 -0.125,-0.1874 -0.06,-0.038 -0.151,-0.062 -0.25,-0.062 z m 2.468,0 c -0.09,0 -0.158,0.029 -0.219,0.062 -0.06,0.033 -0.108,0.085 -0.156,0.1562 l 0,-0.1875 -0.594,0 0,0.1562 0.188,0 0,0.9372 -0.188,0 0,0.125 0.75,0 0,-0.125 -0.156,0 0,-0.5936 c 0,-0.1026 0.02,-0.1944 0.06,-0.2499 0.04,-0.055 0.09,-0.094 0.156,-0.094 0.06,0 0.101,0.022 0.126,0.062 0.02,0.04 0.06,0.16 0.06,0.3124 l 0,0.5623 -0.156,0 0,0.125 0.687,0 0,-0.125 -0.125,0 0,-0.5936 c 0,-0.1026 0.02,-0.1944 0.06,-0.2499 0.04,-0.055 0.08,-0.094 0.156,-0.094 0.06,0 0.102,0.022 0.125,0.062 0.02,0.04 0.03,0.16 0.03,0.3124 l 0,0.5623 -0.124,0 0,0.125 0.718,0 0,-0.125 -0.156,0 0,-0.6248 c 0,-0.16 -0.06,-0.2956 -0.125,-0.3749 -0.07,-0.079 -0.173,-0.1249 -0.313,-0.1249 -0.09,0 -0.151,0.025 -0.218,0.062 -0.07,0.037 -0.131,0.1062 -0.187,0.1874 -0.03,-0.08 -0.09,-0.1495 -0.156,-0.1874 -0.06,-0.038 -0.151,-0.062 -0.25,-0.062 z m -7.1550002,0.1874 c 0.08,0 0.151,0.031 0.188,0.094 0.04,0.064 0.03,0.17 0.03,0.3124 l 0,0.125 c 0,0.1424 0,0.2489 -0.03,0.3124 -0.04,0.063 -0.103,0.094 -0.188,0.094 -0.08,0 -0.153,-0.027 -0.187,-0.094 -0.03,-0.067 -0.06,-0.1995 -0.06,-0.3749 0,-0.1753 0.03,-0.3079 0.06,-0.3749 0.03,-0.067 0.109,-0.094 0.187,-0.094 z m 2.7810002,0.4373 0.06,0 0.155,0 0,0.25 c 0,0.068 -0.02,0.115 -0.06,0.1562 -0.04,0.041 -0.09,0.062 -0.155,0.062 -0.06,0 -0.1,0.01 -0.125,-0.031 -0.03,-0.038 -0.03,-0.1099 -0.03,-0.1875 0,-0.077 0,-0.1461 0.03,-0.1875 0.03,-0.031 0.08,-0.054 0.125,-0.062 z"
       id="scale-right"
       style="fill:#000000;fill-opacity:1;stroke:none" />
  </g>
</svg>
