<?xml version="1.0" encoding="UTF-8" standalone="no"?>
<!-- Created with Inkscape (http://www.inkscape.org/) -->
<!-- icons-mk created by Matthias Kuhnel (2020), reuseIT, https://reuseproject.org -->

<svg
   xmlns:dc="http://purl.org/dc/elements/1.1/"
   xmlns:cc="http://creativecommons.org/ns#"
   xmlns:rdf="http://www.w3.org/1999/02/22-rdf-syntax-ns#"
   xmlns:svg="http://www.w3.org/2000/svg"
   xmlns="http://www.w3.org/2000/svg"
   version="1.1"
   width="25"
   height="25"
   id="svg">
  <defs
     id="defs" />
  <metadata
     id="metadata">
    <rdf:RDF>
      <cc:Work
         rdf:about="">
        <dc:format>image/svg+xml</dc:format>
        <dc:type
           rdf:resource="http://purl.org/dc/dcmitype/StillImage" />
        <dc:title></dc:title>
      </cc:Work>
    </rdf:RDF>
  </metadata>
  <g
     transform="translate(0,-1027.3622)"
     id="icons-mk">
    <path
       d="m 3.9407395,1028.7247 c -0.304,0 -0.593,0.2905 -0.593,0.5936 l 0,1.4683 c 0,0.3032 0.289,0.5937 0.593,0.5936 l 7.2489985,0 0,3.7178 -4.5619985,0 c -1.462,0 -2.585,1.0812 -3.405,2.4056 -0.82,1.3243 -1.437,2.9874 -1.907,4.6548 -0.94000003,3.3346 -1.31100003,6.6545 -1.31100003,6.6545 -0.05,0.4113 0.305,0.8125 0.719,0.8122 l 1.18600003,0 0,1.1248 c 0,0.1213 0.1,0.2372 0.219,0.2499 l 0.03,0 2.156,0 c 0.13,0 0.251,-0.1199 0.25,-0.2499 l 0,-1.1248 15.8709985,0 0,1.1248 c 0,0.1213 0.101,0.2372 0.219,0.2499 l 0.03,0 2.155,0 c 0.128,0 0.251,-0.1214 0.25,-0.2499 l 0,-1.1248 1.155,0 c 0.418,0 0.805,-0.4295 0.75,-0.8435 0,0 -0.436,-3.2927 -1.405,-6.6232 -0.484,-1.6652 -1.099,-3.3346 -1.906,-4.6548 -0.806,-1.3203 -1.887,-2.4056 -3.312,-2.4056 l -4.561,0 0,-3.7178 7.28,0 c 0.301,0 0.561,-0.2919 0.561,-0.5936 l 0,-1.4683 c 0,-0.3016 -0.561,-0.5936 -0.561,-0.5936 l -17.1529985,0 z m 8.5609985,7.8103 c 2.911,0 5.279,2.3827 5.279,5.3111 l -0.469,0 -1.249,0 0,-0.4999 1.156,0 c -0.06,-0.5843 -0.216,-1.1232 -0.469,-1.6246 l -0.999,0.5312 -0.25,-0.4062 0.999,-0.5623 c -0.36,-0.5585 -0.847,-1.0424 -1.405,-1.4059 l -0.594,0.9685 -0.406,-0.2187 0.562,-0.9997 c -0.569,-0.2902 -1.198,-0.4614 -1.874,-0.4999 l 0,1.4371 -0.563,0 0,-1.4371 c -0.664,0.038 -1.281,0.1864 -1.843,0.4687 l 0.563,0.9684 -0.407,0.2499 -0.5619985,-0.9684 c -0.566,0.3584 -1.07,0.8173 -1.437,1.3746 l 0.999,0.5935 -0.25,0.4375 -0.999,-0.5937 c -0.268,0.5158 -0.438,1.0813 -0.5,1.6871 l 1.156,0 0,0.4999 -1.187,0 -0.06,0 -0.469,0 c 0,-2.9284 2.368,-5.3111 5.2799985,-5.3111 z m -2.5,2.7805 0.06,0 c 0.44,0.01 2.262,1.5418 2.438,1.6871 0.469,0 0.844,0.3755 0.844,0.8435 0,0.4682 -0.375,0.8435 -0.844,0.8435 -0.433,0 -0.792,-0.3322 -0.845,-0.7498 -0.02,-0.025 -1.9329985,-2.3469 -1.6859985,-2.593 0,-0.01 0.02,-0.03 0.03,-0.031 z m 2.5,2.0931 c -0.234,0 -0.439,0.2036 -0.439,0.4375 0,0.2341 0.205,0.4061 0.439,0.4061 0.234,0 0.406,-0.172 0.406,-0.4061 0,-0.2339 -0.172,-0.4375 -0.406,-0.4375 z m -5.2799985,2.4994 10.5589985,0 0,3.749 -10.5589985,0 0,-3.749 z m 1.219,1.2184 c -0.173,0 -0.308,0.074 -0.407,0.1874 -0.1,0.1142 -0.156,0.2681 -0.156,0.4687 0,0.1998 0.05,0.3538 0.156,0.4686 0.1,0.1148 0.234,0.1874 0.407,0.1874 0.09,0 0.159,-0.033 0.218,-0.062 0.06,-0.031 0.09,-0.061 0.125,-0.1249 l 0,0.1249 c 0,0.1525 -0.01,0.2524 -0.06,0.3125 -0.05,0.061 -0.155,0.094 -0.281,0.094 -0.101,0 -0.165,-0.022 -0.219,-0.062 -0.05,-0.039 -0.08,-0.1072 -0.09,-0.1874 l -0.125,0 0,0.3124 c 0.09,0.025 0.166,0.051 0.25,0.062 0.08,0.012 0.169,0 0.25,0 0.223,0 0.408,-0.031 0.53,-0.125 0.122,-0.094 0.157,-0.2345 0.157,-0.4062 l 0,-1.0622 0.187,0 0,-0.1561 -0.593,0 0,0.1561 c -0.04,-0.063 -0.06,-0.094 -0.125,-0.1249 -0.06,-0.031 -0.133,-0.062 -0.218,-0.062 z m 1.9669985,0 c -0.06,0.01 -0.107,0.03 -0.156,0.062 -0.06,0.041 -0.116,0.1025 -0.156,0.1874 l 0,-0.2186 -0.5939985,0 0,0.1561 0.188,0 0,0.9373 -0.188,0 0,0.1249 0.8119985,0 0,-0.1249 -0.218,0 0,-0.4686 c 0,-0.1386 0.01,-0.2655 0.06,-0.3437 0.05,-0.078 0.13,-0.125 0.219,-0.125 0.06,0 0.09,0.03 0.125,0.062 0.03,0.032 0.05,0.09 0.06,0.1562 l 0.126,0 0,-0.3748 c -0.05,-0.01 -0.09,-0.028 -0.126,-0.031 l -0.06,0 -0.06,0 -0.03,0 z m 0.937,0 c -0.09,0 -0.172,0.019 -0.249,0.031 -0.08,0.013 -0.178,0.036 -0.25,0.062 l 0,0.2499 0.125,0 c 0.02,-0.076 0.05,-0.123 0.09,-0.1562 0.05,-0.033 0.107,-0.062 0.188,-0.062 0.1,0 0.171,0.047 0.218,0.094 0.04,0.047 0.09,0.1199 0.09,0.2186 l 0,0.062 -0.218,0 c -0.192,10e-5 -0.341,0.026 -0.437,0.094 -0.1,0.068 -0.156,0.1754 -0.156,0.3124 0,0.1249 0.02,0.2142 0.09,0.2811 0.07,0.067 0.187,0.125 0.312,0.125 0.08,0 0.152,-0.033 0.218,-0.062 0.06,-0.03 0.133,-0.061 0.187,-0.1249 l 0,0.1249 0.563,0 0,-0.1249 -0.156,0 0,-0.6249 c 0,-0.1737 -0.05,-0.2938 -0.157,-0.3748 -0.102,-0.081 -0.25,-0.125 -0.468,-0.125 z m 1.876,0 c -0.08,0 -0.158,0.029 -0.219,0.062 -0.06,0.033 -0.108,0.085 -0.156,0.1562 l 0,-0.1874 -0.564,0 0,0.1561 0.158,0 0,0.9373 -0.158,0 0,0.1249 0.72,0 0,-0.1249 -0.156,0 0,-0.5936 c 0,-0.1026 0.03,-0.1945 0.06,-0.2499 0.04,-0.055 0.08,-0.094 0.156,-0.094 0.06,0 0.101,0.021 0.126,0.062 0.03,0.04 0.06,0.1601 0.06,0.3125 l 0,0.5623 -0.156,0 0,0.1249 0.687,0 0,-0.1249 -0.125,0 0,-0.5936 c 0,-0.1026 0.02,-0.1945 0.06,-0.2499 0.03,-0.055 0.08,-0.094 0.155,-0.094 0.06,0 0.102,0.021 0.125,0.062 0.03,0.04 0.03,0.1601 0.03,0.3125 l 0,0.5623 -0.125,0 0,0.1249 0.719,0 0,-0.1249 -0.187,0 0,-0.6249 c 0,-0.16 -0.03,-0.2955 -0.09,-0.3748 -0.07,-0.079 -0.172,-0.125 -0.313,-0.125 -0.09,0 -0.152,0.026 -0.218,0.062 -0.06,0.037 -0.131,0.1063 -0.187,0.1874 -0.04,-0.079 -0.09,-0.1495 -0.156,-0.1874 -0.06,-0.038 -0.151,-0.062 -0.25,-0.062 z m 2.499,0 c -0.08,0 -0.158,0.029 -0.219,0.062 -0.06,0.033 -0.109,0.085 -0.156,0.1562 l 0,-0.1874 -0.594,0 0,0.1561 0.188,0 0,0.9373 -0.188,0 0,0.1249 0.719,0 0,-0.1249 -0.125,0 0,-0.5936 c 0,-0.1026 0.02,-0.1945 0.06,-0.2499 0.05,-0.055 0.08,-0.094 0.156,-0.094 0.06,0 0.101,0.021 0.126,0.062 0.03,0.04 0.06,0.1601 0.06,0.3125 l 0,0.5623 -0.156,0 0,0.1249 0.687,0 0,-0.1249 -0.125,0 0,-0.5936 c 0,-0.1026 0,-0.1945 0.03,-0.2499 0.05,-0.055 0.119,-0.094 0.186,-0.094 0.06,0 0.101,0.021 0.125,0.062 0.03,0.04 0.03,0.1601 0.03,0.3125 l 0,0.5623 -0.125,0 0,0.1249 0.719,0 0,-0.1249 -0.187,0 0,-0.6249 c 0,-0.16 -0.02,-0.2955 -0.09,-0.3748 -0.07,-0.079 -0.174,-0.125 -0.313,-0.125 -0.09,0 -0.152,0.026 -0.218,0.062 -0.06,0.037 -0.13,0.1063 -0.187,0.1874 -0.04,-0.079 -0.09,-0.1495 -0.156,-0.1874 -0.06,-0.038 -0.151,-0.062 -0.25,-0.062 z m -7.1549985,0.1874 c 0.08,0 0.121,0.03 0.157,0.094 0.04,0.063 0.06,0.17 0.06,0.3124 l 0,0.125 c 0,0.1424 -0.03,0.2489 -0.06,0.3124 -0.03,0.063 -0.07,0.094 -0.157,0.094 -0.08,0 -0.154,-0.027 -0.187,-0.094 -0.04,-0.068 -0.03,-0.1996 -0.03,-0.3749 0,-0.1753 0,-0.308 0.03,-0.3749 0.03,-0.067 0.1,-0.094 0.187,-0.094 z m 2.7799985,0.4375 0.06,0 0.125,0 0,0.2499 c 0,0.068 0,0.146 -0.03,0.1874 -0.04,0.041 -0.1,0.031 -0.156,0.031 -0.06,0 -0.09,0.01 -0.124,-0.031 -0.03,-0.038 -0.03,-0.1098 -0.03,-0.1874 0,-0.077 0,-0.1462 0.03,-0.1875 0.03,-0.031 0.07,-0.024 0.124,-0.031 l 0,-0.031 z"
       id="scale-left"
       style="fill:#000000;fill-opacity:1;stroke:none" />
  </g>
</svg>
