<?xml version="1.0" encoding="UTF-8" standalone="no"?>
<!-- Created with Inkscape (http://www.inkscape.org/) -->
<!-- icons-mk created by Matthias Kuhnel (2019), reuseIT, https://reuseproject.org -->

<svg
   xmlns:dc="http://purl.org/dc/elements/1.1/"
   xmlns:cc="http://creativecommons.org/ns#"
   xmlns:rdf="http://www.w3.org/1999/02/22-rdf-syntax-ns#"
   xmlns:svg="http://www.w3.org/2000/svg"
   xmlns="http://www.w3.org/2000/svg"
   version="1.1"
   width="25"
   height="25"
   id="svg">
  <defs
     id="defs" />
  <metadata
     id="metadata">
    <rdf:RDF>
      <cc:Work
         rdf:about="">
        <dc:format>image/svg+xml</dc:format>
        <dc:type
           rdf:resource="http://purl.org/dc/dcmitype/StillImage" />
        <dc:title></dc:title>
      </cc:Work>
    </rdf:RDF>
  </metadata>
  <g
     transform="translate(0,-1027.3622)"
     id="icons-mk">
    <path
       d="m 25,1033.6262 c 0,0 -1.136,-1.266 -4.783,-0.325 -1.824,0.472 -5.666,2.698 -9.062,4.801 l -4.44,-2.563 c 0.136,-0.371 0.216,-0.773 0.216,-1.191 0,-1.916 -1.551,-3.466 -3.465,-3.466 -1.914,0 -3.466,1.55 -3.466,3.466 0,1.914 1.552,3.465 3.466,3.465 0.478,0 0.939,-0.1 1.354,-0.27 0.132,0.09 1.59,1.058 3.537,2.311 -1.947,1.252 -3.405,2.238 -3.537,2.328 -0.415,-0.176 -0.876,-0.271 -1.354,-0.271 -1.914,0 -3.466,1.552 -3.466,3.466 0,1.915 1.552,3.465 3.466,3.465 1.914,0 3.466,-1.55 3.465,-3.465 0,-0.418 -0.08,-0.82 -0.216,-1.191 l 4.44,-2.564 c 3.396,2.104 7.238,4.33 9.062,4.802 3.647,0.942 4.783,-0.325 4.783,-0.325 l -10.794,-6.228 10.794,-6.245 z m -19.224,0.722 c 0,1.276 -1.034,2.31 -2.31,2.31 -1.276,0 -2.311,-1.034 -2.311,-2.31 0,-1.276 1.035,-2.311 2.311,-2.311 1.276,0 2.31,1.035 2.31,2.311 z m 0,11.029 c 0,1.276 -1.034,2.31 -2.31,2.31 -1.276,0 -2.31,-1.034 -2.311,-2.31 0,-1.276 1.035,-2.311 2.311,-2.311 1.276,0 2.31,1.035 2.31,2.311 z"
       id="scissor"
       style="fill:#000000;fill-opacity:1;stroke:none" />
  </g>
</svg>
