<?xml version="1.0" encoding="UTF-8" standalone="no"?>
<!-- Created with Inkscape (http://www.inkscape.org/) -->
<!-- icons-mk created by Matthias Kuhnel (2019), reuseIT, https://reuseproject.org -->

<svg
   xmlns:dc="http://purl.org/dc/elements/1.1/"
   xmlns:cc="http://creativecommons.org/ns#"
   xmlns:rdf="http://www.w3.org/1999/02/22-rdf-syntax-ns#"
   xmlns:svg="http://www.w3.org/2000/svg"
   xmlns="http://www.w3.org/2000/svg"
   version="1.1"
   width="25"
   height="25"
   id="svg">
  <defs
     id="defs" />
  <metadata
     id="metadata">
    <rdf:RDF>
      <cc:Work
         rdf:about="">
        <dc:format>image/svg+xml</dc:format>
        <dc:type
           rdf:resource="http://purl.org/dc/dcmitype/StillImage" />
        <dc:title></dc:title>
      </cc:Work>
    </rdf:RDF>
  </metadata>
  <g
     transform="translate(0,-1027.3622)"
     id="icons-mk">
    <path
       d="m 12.498,1027.3622 c -6.9039998,0 -12.4979998,5.594 -12.4979998,12.4974 0,6.9033 5.594,12.5026 12.4979998,12.5026 6.903,0 12.502,-5.5993 12.502,-12.5026 0,-6.9034 -5.599,-12.4974 -12.502,-12.4974 z m 0,1.7831 c 5.917,0 10.714,4.7971 10.714,10.7143 0,5.9172 -4.797,10.7143 -10.714,10.7143 -5.9169998,0 -10.7089998,-4.7971 -10.7089998,-10.7143 0,-5.9172 4.792,-10.7143 10.7089998,-10.7143 z m -8.6529998,10.055 3.7399996,3.7392 7.8930002,-6.2312 -6.2310002,7.8921 3.7380002,3.7384 5.816,-14.9532 -14.9559998,5.8147 z"
       id="send"
       style="fill:#000000;fill-opacity:1;fill-rule:evenodd;stroke:none" />
  </g>
</svg>
