<?xml version="1.0" encoding="UTF-8" standalone="no"?>
<!-- Created with Inkscape (http://www.inkscape.org/) -->
<!-- icons-mk created by Matthias Kuhnel (2019), reuseIT, https://reuseproject.org -->

<svg
   xmlns:dc="http://purl.org/dc/elements/1.1/"
   xmlns:cc="http://creativecommons.org/ns#"
   xmlns:rdf="http://www.w3.org/1999/02/22-rdf-syntax-ns#"
   xmlns:svg="http://www.w3.org/2000/svg"
   xmlns="http://www.w3.org/2000/svg"
   version="1.1"
   width="25"
   height="25"
   id="svg">
  <defs
     id="defs" />
  <metadata
     id="metadata">
    <rdf:RDF>
      <cc:Work
         rdf:about="">
        <dc:format>image/svg+xml</dc:format>
        <dc:type
           rdf:resource="http://purl.org/dc/dcmitype/StillImage" />
        <dc:title></dc:title>
      </cc:Work>
    </rdf:RDF>
  </metadata>
  <g
     transform="translate(0,-1027.3622)"
     id="icons-mk">
    <path
       d="m 20.697,1027.3622 c 2.375,0 4.301,1.9257 4.301,4.3011 0,2.3755 -1.926,4.3011 -4.301,4.3011 -1.424,0 -2.679,-0.7157 -3.461,-1.7809 l -8.7030001,5.0402 c 0.02,0.1618 0.07,0.3038 0.07,0.4705 0,0.228 -0.03,0.4536 -0.07,0.6721 l 8.7710001,5.0402 c 0.787,-1.0095 2.013,-1.6465 3.394,-1.6465 2.375,0 4.3,1.9256 4.3,4.3011 0,2.3755 -1.925,4.3011 -4.3,4.3011 -2.375,0 -4.301,-1.9256 -4.301,-4.3011 0,-0.2167 0.04,-0.4303 0.07,-0.6385 l -8.8040002,-5.0738 c -0.787,1 -1.9879999,1.6465 -3.3609996,1.6465 -2.375,0 -4.30000005,-1.9256 -4.30000005,-4.3011 0,-2.3755 1.92500005,-4.301 4.30000005,-4.301 1.4069997,0 2.6429997,0.7038 3.4279997,1.7473 L 16.467,1032.1337 c -0.02,-0.1618 -0.07,-0.3037 -0.07,-0.4704 0,-2.3754 1.926,-4.3011 4.301,-4.3011 z"
       id="share"
       style="fill:#000000;fill-opacity:1;fill-rule:evenodd;stroke:none" />
  </g>
</svg>
