<?xml version="1.0" encoding="UTF-8" standalone="no"?>
<!-- Created with Inkscape (http://www.inkscape.org/) -->
<!-- icons-mk created by Matthias Kuhnel (2020), reuseIT, https://reuseproject.org -->

<svg
   xmlns:dc="http://purl.org/dc/elements/1.1/"
   xmlns:cc="http://creativecommons.org/ns#"
   xmlns:rdf="http://www.w3.org/1999/02/22-rdf-syntax-ns#"
   xmlns:svg="http://www.w3.org/2000/svg"
   xmlns="http://www.w3.org/2000/svg"
   version="1.1"
   width="25"
   height="25"
   id="svg">
  <defs
     id="defs" />
  <metadata
     id="metadata">
    <rdf:RDF>
      <cc:Work
         rdf:about="">
        <dc:format>image/svg+xml</dc:format>
        <dc:type
           rdf:resource="http://purl.org/dc/dcmitype/StillImage" />
        <dc:title></dc:title>
      </cc:Work>
    </rdf:RDF>
  </metadata>
  <g
     transform="translate(0,-1027.3622)"
     id="icons-mk">
    <path
       d="m 0,1027.3622 c 0,0 3.183,25 12.5,25 9.317,0 12.5,-25 12.5,-25 0,0 -3.92,3.125 -6.25,3.125 -2.33,0 -3.92,-3.125 -6.25,-3.125 -2.33,0 -3.92,3.125 -6.25,3.125 -2.33,0 -6.25,-3.125 -6.25,-3.125 z m 13.906,8.75 c 0.08,0 0.146,0.029 0.219,0.062 0.632,0.2106 0.226,1.6117 0.594,1.875 0.369,0.3159 0.509,0.1036 0.719,0.1563 0.21,0.1052 0.127,0.416 0.812,0.4687 0.684,0.053 2.044,-2.0891 2.781,-1.5625 0.684,0.5266 -0.593,1.7513 -0.593,2.5938 0.05,0.8425 1.32,1.8698 0.531,2.3437 -0.791,0.4213 -1.722,-1.9785 -2.407,-2.0312 -0.683,-0.1053 -0.729,0.1956 -0.781,0.4062 -0.106,0.2107 0.199,-0.1104 0.09,0.4688 -0.158,0.5265 -1.316,1.694 -2,2.0625 -0.685,0.316 -0.903,-0.2188 -1.219,-0.2188 -0.316,0 -0.634,-0.2012 -0.687,0.062 0,0.3159 0.908,0.2136 0.75,0.6875 -0.211,0.4212 -0.679,-0.3831 -1.469,-0.5937 -0.843,-0.2106 -2.061,-0.1495 -3.219,-0.7813 -1.159,-0.6319 -2.281,-1.1708 -2.281,-1.75 0,-0.5792 0.551,0.107 0.656,-0.1562 0.158,-0.2633 -0.553,-0.1412 -0.5,-0.5625 0.105,-0.4739 1.171,-0.7252 1.75,-1.0938 0.527,-0.316 0.951,-0.8617 1.688,-1.125 0.737,-0.2633 1.73,-0.3008 2.625,-0.4062 0.783,-0.092 1.406,-0.8897 1.937,-0.9063 z"
       id="shield-animal-protection"
       style="fill:#000000;fill-opacity:1;stroke:none" />
  </g>
</svg>
