<?xml version="1.0" encoding="UTF-8" standalone="no"?>
<!-- Created with Inkscape (http://www.inkscape.org/) -->
<!-- icons-mk created by Matthias Kuhnel (2020), reuseIT, https://reuseproject.org -->

<svg
   xmlns:dc="http://purl.org/dc/elements/1.1/"
   xmlns:cc="http://creativecommons.org/ns#"
   xmlns:rdf="http://www.w3.org/1999/02/22-rdf-syntax-ns#"
   xmlns:svg="http://www.w3.org/2000/svg"
   xmlns="http://www.w3.org/2000/svg"
   version="1.1"
   width="25"
   height="25"
   id="svg">
  <defs
     id="defs" />
  <metadata
     id="metadata">
    <rdf:RDF>
      <cc:Work
         rdf:about="">
        <dc:format>image/svg+xml</dc:format>
        <dc:type
           rdf:resource="http://purl.org/dc/dcmitype/StillImage" />
        <dc:title></dc:title>
      </cc:Work>
    </rdf:RDF>
  </metadata>
  <g
     transform="translate(0,-1027.3622)"
     id="icons-mk">
    <path
       d="m 0,1027.3622 c 0,0 3.183,25 12.5,25 9.317,0 12.5,-25 12.5,-25 0,0 -3.92,3.125 -6.25,3.125 -2.33,0 -3.92,-3.125 -6.25,-3.125 -2.33,0 -3.92,3.125 -6.25,3.125 -2.33,0 -6.25,-3.125 -6.25,-3.125 z m 12.188,7.0938 0.624,0 0,5.1562 c 0.505,-0.5308 1.277,-1.3069 2.219,-2.0937 0.721,-0.6014 1.494,-1.1183 2.157,-1.375 0.165,-0.065 0.308,-0.1381 0.468,-0.1563 0.16,-0.017 0.341,0.018 0.5,0.062 0.317,0.091 0.559,0.3865 0.656,0.75 0.195,0.7337 -0.18,1.4044 -0.75,2 -0.568,0.5952 -1.356,1.1317 -2.156,1.5938 -1.433,0.8285 -2.797,1.3267 -3.094,1.4375 l 0,1.1562 0,0.4688 0,1.8125 -0.5,0 -0.124,0 0,-2.0625 c -0.299,-0.1138 -1.604,-0.6435 -3.032,-1.4688 -0.799,-0.4623 -1.65,-0.967 -2.218,-1.5625 -0.569,-0.5952 -0.946,-1.3286 -0.75,-2.0625 0.1,-0.3635 0.339,-0.6584 0.656,-0.75 0.318,-0.091 0.701,-0.01 1.031,0.125 0.662,0.2564 1.373,0.7734 2.094,1.375 0.955,0.7973 1.719,1.553 2.219,2.0938 l 0,-0.5313 0,-0.125 0,-5.8437 z m 5.062,3.0312 -4.25,3.2188 0.03,0.062 4.313,-3.1563 -0.06,-0.125 -0.03,0 z m -9.531,1.375 -0.06,0.062 4.313,3.2188 0.06,-0.094 -4.281,-3.1875 -0.03,0 z"
       id="shield-environment"
       style="fill:#000000;fill-opacity:1;stroke:none" />
  </g>
</svg>
