<?xml version="1.0" encoding="UTF-8" standalone="no"?>
<!-- Created with Inkscape (http://www.inkscape.org/) -->
<!-- icons-mk created by Matthias Kuhnel (2020), reuseIT, https://reuseproject.org -->

<svg
   xmlns:dc="http://purl.org/dc/elements/1.1/"
   xmlns:cc="http://creativecommons.org/ns#"
   xmlns:rdf="http://www.w3.org/1999/02/22-rdf-syntax-ns#"
   xmlns:svg="http://www.w3.org/2000/svg"
   xmlns="http://www.w3.org/2000/svg"
   version="1.1"
   width="25"
   height="25"
   id="svg">
  <defs
     id="defs" />
  <metadata
     id="metadata">
    <rdf:RDF>
      <cc:Work
         rdf:about="">
        <dc:format>image/svg+xml</dc:format>
        <dc:type
           rdf:resource="http://purl.org/dc/dcmitype/StillImage" />
        <dc:title></dc:title>
      </cc:Work>
    </rdf:RDF>
  </metadata>
  <g
     transform="translate(0,-1027.3622)"
     id="icons-mk">
    <path
       d="m 0,1027.3622 c 0,0 3.183,25 12.5,25 9.317,0 12.5,-25 12.5,-25 0,0 -3.92,3.125 -6.25,3.125 -2.33,0 -3.92,-3.125 -6.25,-3.125 -2.33,0 -3.92,3.125 -6.25,3.125 -2.33,0 -6.25,-3.125 -6.25,-3.125 z m 12.5,3.1563 c 0.409,0 0.75,0.3103 0.75,0.7187 0,0.1862 -0.08,0.37 -0.188,0.5 0.04,0.016 0.09,0.043 0.126,0.062 0.01,-0.1741 0.08,-0.367 0.218,-0.5 0.288,-0.2888 0.742,-0.2888 1.032,0 0.288,0.2889 0.288,0.7737 0,1.0625 -0.133,0.133 -0.295,0.2085 -0.469,0.2188 0.02,0.043 0.04,0.08 0.06,0.125 0.131,-0.1163 0.279,-0.1875 0.469,-0.1875 0.408,0 0.75,0.3103 0.75,0.7187 0,0.4084 -0.342,0.75 -0.75,0.75 -0.19,0 -0.338,-0.071 -0.469,-0.1875 -0.02,0.044 -0.04,0.083 -0.06,0.125 0.174,0.011 0.335,0.086 0.469,0.2188 0.288,0.2888 0.288,0.7424 0,1.0312 -0.291,0.2888 -0.744,0.2888 -1.032,0 -0.133,-0.133 -0.206,-0.2946 -0.218,-0.4687 -0.04,0.019 -0.09,0.047 -0.126,0.062 0.118,0.1307 0.188,0.28 0.188,0.4687 0,0.3656 -0.276,0.6584 -0.625,0.7188 l 0,1.5937 c 0.187,-0.1972 0.454,-0.4816 0.813,-0.7812 0.266,-0.2238 0.565,-0.4045 0.812,-0.5 0.123,-0.048 0.226,-0.066 0.344,-0.031 0.118,0.034 0.215,0.146 0.25,0.2812 0.07,0.273 -0.06,0.5285 -0.282,0.75 -0.21,0.2215 -0.514,0.4219 -0.812,0.5938 -0.537,0.3103 -1.022,0.4923 -1.125,0.5312 l 0,0.4063 0,0.1875 0,1.0937 -0.25,0 0,-1.1875 c -0.103,-0.04 -0.588,-0.221 -1.125,-0.5312 -0.297,-0.172 -0.601,-0.3723 -0.812,-0.5938 -0.211,-0.2215 -0.355,-0.477 -0.282,-0.75 0.03,-0.1352 0.132,-0.2472 0.25,-0.2812 0.118,-0.034 0.222,-0.016 0.344,0.031 0.247,0.095 0.544,0.2762 0.812,0.5 0.36,0.2995 0.627,0.6153 0.813,0.8125 l 0,-0.2188 0,-0.031 0,-1.875 c -0.352,-0.056 -0.594,-0.3498 -0.594,-0.7187 0,-0.1862 0.08,-0.3388 0.188,-0.4688 -0.04,-0.016 -0.117,-0.042 -0.157,-0.062 -0.01,0.1741 -0.08,0.3358 -0.218,0.4688 -0.289,0.2888 -0.743,0.2888 -1.032,0 -0.289,-0.2888 -0.289,-0.7425 0,-1.0313 0.133,-0.133 0.328,-0.208 0.5,-0.2187 -0.02,-0.042 -0.04,-0.081 -0.06,-0.125 -0.13,0.1136 -0.314,0.1875 -0.5,0.1875 -0.409,0 -0.719,-0.3416 -0.719,-0.75 0,-0.4084 0.31,-0.7188 0.719,-0.7188 0.189,0 0.369,0.071 0.5,0.1875 0.02,-0.044 0.04,-0.1134 0.06,-0.1562 -0.173,-0.011 -0.367,-0.054 -0.5,-0.1875 -0.289,-0.2888 -0.289,-0.7736 0,-1.0625 0.29,-0.2888 0.774,-0.2888 1.063,0 0.134,0.133 0.207,0.3259 0.219,0.5 0.04,-0.02 0.08,-0.045 0.125,-0.062 -0.114,-0.13 -0.188,-0.3138 -0.188,-0.5 0,-0.4084 0.31,-0.7188 0.719,-0.7188 z m 0,2 c -0.408,0 -0.719,0.3103 -0.719,0.7187 0,0.4084 0.311,0.75 0.719,0.75 0.409,0 0.75,-0.3416 0.75,-0.75 0,-0.4084 -0.341,-0.7187 -0.75,-0.7187 z m 1,9.0312 c 0.05,0 0.105,0.012 0.156,0.031 0.449,0.1495 0.144,1.1568 0.406,1.3438 0.263,0.2243 0.383,0.088 0.532,0.125 0.15,0.075 0.07,0.3063 0.562,0.3437 0.486,0.038 1.446,-1.4989 1.969,-1.125 0.486,0.374 -0.406,1.2455 -0.406,1.8438 0.04,0.5982 0.936,1.3197 0.375,1.6562 -0.561,0.2991 -1.233,-1.4001 -1.719,-1.4375 -0.486,-0.075 -0.525,0.1318 -0.563,0.2813 -0.08,0.1496 0.164,-0.068 0.09,0.3437 -0.112,0.3739 -0.951,1.2071 -1.437,1.4688 -0.486,0.2243 -0.62,-0.1563 -0.844,-0.1563 -0.225,0 -0.463,-0.1556 -0.5,0.031 0,0.2243 0.643,0.1635 0.531,0.5 -0.15,0.2991 -0.501,-0.2566 -1.062,-0.4062 -0.598,-0.1495 -1.459,-0.1138 -2.282,-0.5625 -0.823,-0.4486 -1.593,-0.8388 -1.593,-1.25 0,-0.4113 0.362,0.093 0.437,-0.094 0.112,-0.187 -0.349,-0.1383 -0.312,-0.4375 0.07,-0.3365 0.807,-0.5196 1.218,-0.7813 0.374,-0.2244 0.664,-0.5942 1.188,-0.7812 0.523,-0.1869 1.239,-0.2065 1.875,-0.2813 0.556,-0.065 0.997,-0.6444 1.375,-0.6562 z"
       id="shield-protection-flora-fauna"
       style="fill:#000000;fill-opacity:1;stroke:none" />
  </g>
</svg>
