<?xml version="1.0" encoding="UTF-8" standalone="no"?>
<!-- Created with Inkscape (http://www.inkscape.org/) -->
<!-- icons-mk created by Matthias Kuhnel (2019), reuseIT, https://reuseproject.org -->

<svg
   xmlns:dc="http://purl.org/dc/elements/1.1/"
   xmlns:cc="http://creativecommons.org/ns#"
   xmlns:rdf="http://www.w3.org/1999/02/22-rdf-syntax-ns#"
   xmlns:svg="http://www.w3.org/2000/svg"
   xmlns="http://www.w3.org/2000/svg"
   version="1.1"
   width="25"
   height="25"
   id="svg">
  <defs
     id="defs" />
  <metadata
     id="metadata">
    <rdf:RDF>
      <cc:Work
         rdf:about="">
        <dc:format>image/svg+xml</dc:format>
        <dc:type
           rdf:resource="http://purl.org/dc/dcmitype/StillImage" />
        <dc:title></dc:title>
      </cc:Work>
    </rdf:RDF>
  </metadata>
  <g
     transform="translate(0,-1027.3622)"
     id="icons-mk">
    <path
       d="m 12.82315,1039.9834 c -1.0881,0 -1.9042,0.3528 -2.4482,1.0585 -0.5441002,0.7057 -0.8162002,1.7642 -0.8161002,3.1755 -1e-4,1.4113 0.272,2.4698 0.8161002,3.1755 0.544,0.7057 1.3601,1.0585 2.4482,1.0585 1.0989,0 1.9204,-0.3528 2.4645,-1.0585 0.544,-0.7057 0.8161,-1.7642 0.8161,-3.1755 0,-1.4113 -0.2721,-2.4698 -0.8161,-3.1755 -0.5441,-0.7057 -1.3656,-1.0585 -2.4645,-1.0585 z m 7.6924,-11.5869 0,4.4602 c -1.0235,-0.4848 -1.9878,-0.843 -2.8928,-1.0747 -0.9049,-0.2316 -1.7884,-0.3474 -2.6502,-0.3474 -1.8531,0 -3.2967,0.5144 -4.331,1.5433 -1.0343002,1.0289 -1.6376002,2.556 -1.8100002,4.5814 0.7111,-0.5279 1.4814002,-0.9238 2.3110002,-1.1878 0.8295,-0.2639 1.7345,-0.3959 2.7149,-0.3959 2.4671,0 4.4576,0.7219 5.9713,2.1655 1.5136,1.4437 2.2705,3.3344 2.2705,5.6723 0,2.5856 -0.8458,4.6568 -2.5372,6.2136 -1.6914,1.5568 -3.9593,2.3352 -6.8035,2.3352 -3.1351002,0 -5.5617998,-1.0585 -7.2801998,-3.1755 -1.7184,-2.117 -2.5776,-5.1201 -2.5776,-9.0094 0,-3.9862 1.0046,-7.1186 3.0139,-9.3972 2.0093,-2.2786 4.7645998,-3.4179 8.2659998,-3.4179 1.1097,0 2.187,0.086 3.2321,0.2586 1.045,0.1724 2.0793,0.4309 3.1028,0.7757 z"
       id="six"
       style="font-size:72px;font-style:normal;font-variant:normal;font-weight:bold;font-stretch:normal;line-height:125%;letter-spacing:0px;word-spacing:0px;fill:#000000;fill-opacity:1;stroke:none;font-family:DejaVu Sans;-inkscape-font-specification:DejaVu Sans Bold" />
  </g>
</svg>
