<?xml version="1.0" encoding="UTF-8" standalone="no"?>
<!-- Created with Inkscape (http://www.inkscape.org/) -->
<!-- icons-mk created by Matthias Kuhnel (2019), reuseIT, https://reuseproject.org -->

<svg
   xmlns:dc="http://purl.org/dc/elements/1.1/"
   xmlns:cc="http://creativecommons.org/ns#"
   xmlns:rdf="http://www.w3.org/1999/02/22-rdf-syntax-ns#"
   xmlns:svg="http://www.w3.org/2000/svg"
   xmlns="http://www.w3.org/2000/svg"
   version="1.1"
   width="25"
   height="25"
   id="svg">
  <defs
     id="defs" />
  <metadata
     id="metadata">
    <rdf:RDF>
      <cc:Work
         rdf:about="">
        <dc:format>image/svg+xml</dc:format>
        <dc:type
           rdf:resource="http://purl.org/dc/dcmitype/StillImage" />
        <dc:title></dc:title>
      </cc:Work>
    </rdf:RDF>
  </metadata>
  <g
     transform="translate(0,-1027.3622)"
     id="icons-mk">
    <path
       d="m 5.296628,1027.369 c -0.448,0.1 -0.792,0.5417 -0.781,0.9998 l 0,22.9944 c 0,0.5233 0.476,0.9998 1,0.9998 l 13.969001,0 c 0.524,0 1,-0.4765 1,-0.9998 l 0,-22.9944 c 0,-0.5233 -0.476,-0.9998 -1,-0.9998 l -13.969001,0 c -0.07,-0.01 -0.146,-0.01 -0.219,0 z m 11.907001,0.7811 c 0.345,0 0.625,0.2798 0.625,0.6248 0,0.345 -0.28,0.6249 -0.625,0.6249 -0.345,0 -0.625,-0.2799 -0.625,-0.6249 0,-0.345 0.28,-0.6248 0.625,-0.6248 z m -6.719001,0.406 4.031001,0 c 0.111,0 0.188,0.077 0.188,0.1875 l 0,0.062 c 0,0.1107 -0.08,0.1874 -0.188,0.1874 l -4.031001,0 c -0.111,0 -0.188,-0.077 -0.188,-0.1874 l 0,-0.062 c 0,-0.1107 0.08,-0.1875 0.188,-0.1875 z m -3.969,1.6872 11.969001,0 0,18.933 -11.969001,0 0,-18.933 z m 4.688,19.7765 2.562,0 c 0.324,0 0.563,0.2229 0.563,0.4998 l 0,0.4061 c 0,0.2771 -0.239,0.5 -0.563,0.5 l -2.562,0 c -0.324,0 -0.563,-0.2229 -0.563,-0.5 l 0,-0.4061 c 0,-0.2769 0.239,-0.4998 0.563,-0.4998 z"
       id="smartphone"
       style="fill:#000000;fill-opacity:1;fill-rule:nonzero;stroke:none" />
  </g>
</svg>
