<?xml version="1.0" encoding="UTF-8" standalone="no"?>
<!-- Created with Inkscape (http://www.inkscape.org/) -->
<!-- icons-mk created by Matthias Kuhnel (2019), reuseIT, https://reuseproject.org -->

<svg
   xmlns:dc="http://purl.org/dc/elements/1.1/"
   xmlns:cc="http://creativecommons.org/ns#"
   xmlns:rdf="http://www.w3.org/1999/02/22-rdf-syntax-ns#"
   xmlns:svg="http://www.w3.org/2000/svg"
   xmlns="http://www.w3.org/2000/svg"
   version="1.1"
   width="25"
   height="25"
   id="svg">
  <defs
     id="defs" />
  <metadata
     id="metadata">
    <rdf:RDF>
      <cc:Work
         rdf:about="">
        <dc:format>image/svg+xml</dc:format>
        <dc:type
           rdf:resource="http://purl.org/dc/dcmitype/StillImage" />
        <dc:title></dc:title>
      </cc:Work>
    </rdf:RDF>
  </metadata>
  <g
     transform="translate(0,-1027.3622)"
     id="icons-mk">
    <path
       d="m 8.1265002,1045.5997 a 0.21639467,0.21639467 0 0 0 -0.181,0.1311 l -0.3931,0.8923 a 0.21639467,0.21639467 0 1 0 0.3931,0.1747 l 0.3994,-0.8923 a 0.21639467,0.21639467 0 0 0 -0.2184,-0.3058 z m -0.3744,0.8924 a 0.21875883,0.21875883 0 1 0 -0.025,0.4368 l 0.9672,0.1 a 0.21672465,0.21672465 0 1 0 0.05,-0.4305 l -0.9734,-0.1 a 0.21639467,0.21639467 0 0 0 -0.019,-0.01 z m -3.0327,1.067 a 0.21639467,0.21639467 0 0 0 0.019,0.4306 l 0.9734,0.1 a 0.21639467,0.21639467 0 1 0 0.044,-0.4305 l -0.9672,-0.1 a 0.21639467,0.21639467 0 0 0 -0.069,0 z m 0.9735,0.1 a 0.21639467,0.21639467 0 0 0 -0.156,0.131 l -0.3994,0.8923 a 0.21798819,0.21798819 0 1 0 0.3994,0.1748 l 0.3931,-0.8924 a 0.21639467,0.21639467 0 0 0 -0.2371,-0.3057 z m 2.989,-1.7223 a 0.21639467,0.21639467 0 0 0 -0.075,0.031 l -3.95,2.2776 a 0.21672213,0.21672213 0 1 0 0.2184,0.3744 l 3.95,-2.2776 a 0.21639467,0.21639467 0 0 0 -0.1435,-0.4056 z m 0.012,1.6224 -0.9672,0.1 a 0.21639467,0.21639467 0 1 0 0.044,0.4305 l 0.9734,-0.1 a 0.2167466,0.2167466 0 1 0 -0.05,-0.4306 z m -0.9734,0.1 a 0.21639467,0.21639467 0 0 0 -0.1685,0.3057 l 0.3931,0.8924 a 0.21798819,0.21798819 0 1 0 0.3994,-0.1748 l -0.3994,-0.8923 a 0.21639467,0.21639467 0 0 0 -0.2246,-0.131 z m -2.4149,-2.0593 a 0.21639467,0.21639467 0 0 0 -0.1685,0.3058 l 0.3994,0.8923 a 0.21639467,0.21639467 0 1 0 0.3931,-0.1747 l -0.3931,-0.8923 a 0.21639467,0.21639467 0 0 0 -0.2309,-0.1311 z m 0.4056,0.8986 -0.9735,0.1 a 0.21672465,0.21672465 0 1 0 0.05,0.4305 l 0.9672,-0.1 a 0.21642109,0.21642109 0 1 0 -0.044,-0.4306 z m -0.9797,-0.5616 a 0.21639467,0.21639467 0 0 0 -0.075,0.4056 l 3.95,2.2776 a 0.21672213,0.21672213 0 1 0 0.2184,-0.3744 l -3.95,-2.2776 a 0.21639467,0.21639467 0 0 0 -0.1435,-0.031 z m 1.9968,2.3026 a 0.21639467,0.21639467 0 0 0 -0.1622,0.3494 l 0.5741,0.7863 a 0.2165449,0.2165449 0 1 0 0.3494,-0.2559 l -0.5741,-0.7862 a 0.21639467,0.21639467 0 0 0 -0.1872,-0.094 z m -0.01,0 a 0.21639467,0.21639467 0 0 0 -0.156,0.094 l -0.5741,0.7862 a 0.2165449,0.2165449 0 0 0 0.3494,0.2559 l 0.5741,-0.7863 a 0.21639467,0.21639467 0 0 0 -0.1934,-0.3494 z m 0.5553,-3.1138 a 0.21639467,0.21639467 0 0 0 -0.1372,0.087 l -0.5741,0.7862 a 0.2165449,0.2165449 0 0 0 0.3494,0.2558 l 0.5741,-0.7862 a 0.21639467,0.21639467 0 0 0 -0.2122,-0.3432 z m -1.1419,0 a 0.21639467,0.21639467 0 0 0 -0.1435,0.3432 l 0.5741,0.7862 a 0.2165449,0.2165449 0 1 0 0.3494,-0.2558 l -0.5741,-0.7862 a 0.21639467,0.21639467 0 0 0 -0.2059,-0.087 z m 0.5803,-0.3307 a 0.21639467,0.21639467 0 0 0 -0.1934,0.2184 l 0,4.5615 a 0.21841252,0.21841252 0 0 0 0.4368,0 l 0,-4.5615 a 0.21639467,0.21639467 0 0 0 -0.2434,-0.2184 z m 12.9462998,0.8049 a 0.21639467,0.21639467 0 0 0 -0.181,0.1311 l -0.3931,0.8923 a 0.21639467,0.21639467 0 1 0 0.3931,0.1747 l 0.3994,-0.8923 a 0.21639467,0.21639467 0 0 0 -0.2184,-0.3058 z m -0.3744,0.8924 a 0.21875883,0.21875883 0 1 0 -0.025,0.4368 l 0.9672,0.1 a 0.21672465,0.21672465 0 1 0 0.05,-0.4305 l -0.9734,-0.1 a 0.21639467,0.21639467 0 0 0 -0.019,-0.01 z m -3.0327,1.067 a 0.21639467,0.21639467 0 0 0 0.019,0.4306 l 0.9734,0.1 a 0.21639467,0.21639467 0 1 0 0.044,-0.4305 l -0.9672,-0.1 a 0.21639467,0.21639467 0 0 0 -0.069,0 z m 0.9735,0.1 a 0.21639467,0.21639467 0 0 0 -0.156,0.131 l -0.3994,0.8923 a 0.21798819,0.21798819 0 1 0 0.3994,0.1748 l 0.3931,-0.8924 a 0.21639467,0.21639467 0 0 0 -0.2371,-0.3057 z m 2.989,-1.7223 a 0.21639467,0.21639467 0 0 0 -0.075,0.031 l -3.95,2.2776 a 0.21672213,0.21672213 0 1 0 0.2184,0.3744 l 3.95,-2.2776 a 0.21639467,0.21639467 0 0 0 -0.1435,-0.4056 z m 0.012,1.6224 -0.9672,0.1 a 0.21639467,0.21639467 0 1 0 0.044,0.4305 l 0.9734,-0.1 a 0.2167466,0.2167466 0 1 0 -0.05,-0.4306 z m -0.9734,0.1 a 0.21639467,0.21639467 0 0 0 -0.1685,0.3057 l 0.3931,0.8924 a 0.21798819,0.21798819 0 1 0 0.3994,-0.1748 l -0.3994,-0.8923 a 0.21639467,0.21639467 0 0 0 -0.2246,-0.131 z m -2.4149,-2.0593 a 0.21639467,0.21639467 0 0 0 -0.1685,0.3058 l 0.3994,0.8923 a 0.21639467,0.21639467 0 1 0 0.3931,-0.1747 l -0.3931,-0.8923 a 0.21639467,0.21639467 0 0 0 -0.2309,-0.1311 z m 0.4056,0.8986 -0.9735,0.1 a 0.21672465,0.21672465 0 1 0 0.05,0.4305 l 0.9672,-0.1 a 0.21642109,0.21642109 0 1 0 -0.044,-0.4306 z m -0.9797,-0.5616 a 0.21639467,0.21639467 0 0 0 -0.075,0.4056 l 3.95,2.2776 a 0.21672213,0.21672213 0 1 0 0.2184,-0.3744 l -3.95,-2.2776 a 0.21639467,0.21639467 0 0 0 -0.1435,-0.031 z m 1.9968,2.3026 a 0.21639467,0.21639467 0 0 0 -0.1622,0.3494 l 0.5741,0.7863 a 0.2165449,0.2165449 0 1 0 0.3494,-0.2559 l -0.5741,-0.7862 a 0.21639467,0.21639467 0 0 0 -0.1872,-0.094 z m -0.01,0 a 0.21639467,0.21639467 0 0 0 -0.156,0.094 l -0.5741,0.7862 a 0.2165449,0.2165449 0 0 0 0.3494,0.2559 l 0.5741,-0.7863 a 0.21639467,0.21639467 0 0 0 -0.1934,-0.3494 z m 0.5553,-3.1138 a 0.21639467,0.21639467 0 0 0 -0.1372,0.087 l -0.5741,0.7862 a 0.2165449,0.2165449 0 0 0 0.3494,0.2558 l 0.5741,-0.7862 a 0.21639467,0.21639467 0 0 0 -0.2122,-0.3432 z m -1.1419,0 a 0.21639467,0.21639467 0 0 0 -0.1435,0.3432 l 0.5741,0.7862 a 0.2165449,0.2165449 0 1 0 0.3494,-0.2558 l -0.5741,-0.7862 a 0.21639467,0.21639467 0 0 0 -0.2059,-0.087 z m 0.5803,-0.3307 a 0.21639467,0.21639467 0 0 0 -0.1934,0.2184 l 0,4.5615 a 0.21841252,0.21841252 0 0 0 0.4368,0 l 0,-4.5615 a 0.21639467,0.21639467 0 0 0 -0.2434,-0.2184 z M 9.1982002,1029.933 c -3.3045,0 -5.9689,2.143 -5.9689,4.7866 0,0.048 0,0.096 0,0.1442 -1.8642,0.4739 -3.22949995,1.8408 -3.22949995,3.489 0,2.0384 2.06559995,3.6909 4.61359995,3.6909 l 16.6089998,0 c 0.03,6e-4 0.056,0 0.087,0 2.0304,0 3.6908,-1.3168 3.6908,-2.9412 0,-1.278 -1.0276,-2.3336 -2.451,-2.7393 0.01,-0.085 0.029,-0.1729 0.029,-0.2595 0,-1.6244 -1.6605,-2.9412 -3.6909,-2.9412 -0.071,0 -0.1317,0.026 -0.2019,0.029 -0.5736,-1.0268 -1.8769,-1.7589 -3.3737,-1.7589 -0.5216,0 -0.9923,0.1317 -1.4418,0.2884 -1.097,-1.0802 -2.7959,-1.7878 -4.6711998,-1.7878 z m 4.6882998,15.6671 a 0.21639467,0.21639467 0 0 0 -0.181,0.1311 l -0.3931,0.8923 a 0.21639467,0.21639467 0 1 0 0.3931,0.1747 l 0.3994,-0.8923 a 0.21639467,0.21639467 0 0 0 -0.2184,-0.3058 z m -0.3744,0.8924 a 0.21875883,0.21875883 0 1 0 -0.025,0.4368 l 0.9672,0.1 a 0.21672465,0.21672465 0 1 0 0.05,-0.4305 l -0.9734,-0.1 a 0.21639467,0.21639467 0 0 0 -0.019,-0.01 z m -3.0327,1.067 a 0.21639467,0.21639467 0 0 0 0.019,0.4306 l 0.9734,0.1 a 0.21639467,0.21639467 0 1 0 0.044,-0.4305 l -0.9672,-0.1 a 0.21639467,0.21639467 0 0 0 -0.069,0 z m 0.9735,0.1 a 0.21639467,0.21639467 0 0 0 -0.156,0.131 l -0.3994,0.8923 a 0.21798819,0.21798819 0 1 0 0.3994,0.1748 l 0.3931,-0.8924 a 0.21639467,0.21639467 0 0 0 -0.2371,-0.3057 z m 2.989,-1.7223 a 0.21639467,0.21639467 0 0 0 -0.075,0.031 l -3.95,2.2776 a 0.21672213,0.21672213 0 1 0 0.2184,0.3744 l 3.95,-2.2776 a 0.21639467,0.21639467 0 0 0 -0.1435,-0.4056 z m 0.012,1.6224 -0.9672,0.1 a 0.21639467,0.21639467 0 1 0 0.044,0.4305 l 0.9734,-0.1 a 0.2167466,0.2167466 0 0 0 -0.05,-0.4306 z m -0.9734,0.1 a 0.21639467,0.21639467 0 0 0 -0.1685,0.3057 l 0.3931,0.8924 a 0.21798819,0.21798819 0 1 0 0.3994,-0.1748 l -0.3994,-0.8923 a 0.21639467,0.21639467 0 0 0 -0.2246,-0.131 z m -2.4149,-2.0593 a 0.21639467,0.21639467 0 0 0 -0.1685,0.3058 l 0.3994,0.8923 a 0.21639467,0.21639467 0 1 0 0.3931,-0.1747 l -0.3931,-0.8923 a 0.21639467,0.21639467 0 0 0 -0.2309,-0.1311 z m 0.4056,0.8986 -0.9735,0.1 a 0.21672465,0.21672465 0 1 0 0.05,0.4305 l 0.9672,-0.1 a 0.21642109,0.21642109 0 0 0 -0.044,-0.4306 z m -0.9797,-0.5616 a 0.21639467,0.21639467 0 0 0 -0.075,0.4056 l 3.95,2.2776 a 0.21672213,0.21672213 0 1 0 0.2184,-0.3744 l -3.95,-2.2776 a 0.21639467,0.21639467 0 0 0 -0.1435,-0.031 z m 1.9968,2.3026 a 0.21639467,0.21639467 0 0 0 -0.1622,0.3494 l 0.5741,0.7863 a 0.2165449,0.2165449 0 1 0 0.3494,-0.2559 l -0.5741,-0.7862 a 0.21639467,0.21639467 0 0 0 -0.1872,-0.094 z m -0.01,0 a 0.21639467,0.21639467 0 0 0 -0.156,0.094 l -0.5741,0.7862 a 0.2165449,0.2165449 0 0 0 0.3494,0.2559 l 0.5741,-0.7863 a 0.21639467,0.21639467 0 0 0 -0.1934,-0.3494 z m 0.5553,-3.1138 a 0.21639467,0.21639467 0 0 0 -0.1372,0.087 l -0.5741,0.7862 a 0.2165449,0.2165449 0 0 0 0.3494,0.2558 l 0.5741,-0.7862 a 0.21639467,0.21639467 0 0 0 -0.2122,-0.3432 z m -1.1419,0 a 0.21639467,0.21639467 0 0 0 -0.1435,0.3432 l 0.5741,0.7862 a 0.2165449,0.2165449 0 1 0 0.3494,-0.2558 l -0.5741,-0.7862 a 0.21639467,0.21639467 0 0 0 -0.2059,-0.087 z m 0.5803,-0.3307 a 0.21639467,0.21639467 0 0 0 -0.1934,0.2184 l 0,4.5615 a 0.21841252,0.21841252 0 0 0 0.4368,0 l 0,-4.5615 a 0.21639467,0.21639467 0 0 0 -0.2434,-0.2184 z"
       id="snowy"
       style="font-size:medium;font-style:normal;font-variant:normal;font-weight:normal;font-stretch:normal;text-indent:0;text-align:start;text-decoration:none;line-height:normal;letter-spacing:normal;word-spacing:normal;text-transform:none;direction:ltr;block-progression:tb;writing-mode:lr-tb;text-anchor:start;baseline-shift:baseline;color:#000000;fill:#000000;fill-opacity:1;stroke:none;stroke-width:2.16717267;marker:none;visibility:visible;display:inline;overflow:visible;enable-background:accumulate;font-family:Sans;-inkscape-font-specification:Sans" />
  </g>
</svg>
