<?xml version="1.0" encoding="UTF-8" standalone="no"?>
<!-- Created with Inkscape (http://www.inkscape.org/) -->
<!-- icons-mk created by Matthias Kuhnel (2019), reuseIT, https://reuseproject.org -->

<svg
   xmlns:dc="http://purl.org/dc/elements/1.1/"
   xmlns:cc="http://creativecommons.org/ns#"
   xmlns:rdf="http://www.w3.org/1999/02/22-rdf-syntax-ns#"
   xmlns:svg="http://www.w3.org/2000/svg"
   xmlns="http://www.w3.org/2000/svg"
   version="1.1"
   width="25"
   height="25"
   id="svg">
  <defs
     id="defs" />
  <metadata
     id="metadata">
    <rdf:RDF>
      <cc:Work
         rdf:about="">
        <dc:format>image/svg+xml</dc:format>
        <dc:type
           rdf:resource="http://purl.org/dc/dcmitype/StillImage" />
        <dc:title></dc:title>
      </cc:Work>
    </rdf:RDF>
  </metadata>
  <g
     transform="translate(0,-1027.3622)"
     id="icons-mk">
    <path
       d="m 17.232973,1034.836 -0.676,1.8071 c 0,0 1.683,0.5399 1.693,3.2255 0,2.6808 -1.693,3.2126 -1.693,3.2126 l 0.676,1.8073 c 0,0 2.835,-1.5841 2.824,-5.0327 0,-3.4439 -2.824,-5.0198 -2.824,-5.0198 z m 3.734,-2.1543 -0.967,1.8065 c 0,0 2.943,1.5466 2.956,5.3831 0.01,3.8297 -2.956,5.3649 -2.956,5.3649 l 0.967,1.8064 c 0,0 4.05,-2.2628 4.033,-7.1895 -0.02,-4.9201 -4.033,-7.1714 -4.033,-7.1714 z m -20.966999484573,2.9381 4.485999984573,0 9.0140005,-4.9495 0,18.3839 -9.0140005,-4.9495 -4.485999984573,0 z"
       id="speaker"
       style="font-size:medium;font-style:normal;font-variant:normal;font-weight:normal;font-stretch:normal;text-indent:0;text-align:start;text-decoration:none;line-height:normal;letter-spacing:normal;word-spacing:normal;text-transform:none;direction:ltr;block-progression:tb;writing-mode:lr-tb;text-anchor:start;baseline-shift:baseline;color:#000000;fill:#000000;fill-opacity:1;stroke:none;stroke-width:3.5;marker:none;visibility:visible;display:inline;overflow:visible;enable-background:accumulate;font-family:Sans;-inkscape-font-specification:Sans" />
  </g>
</svg>
