<?xml version="1.0" encoding="UTF-8" standalone="no"?>
<!-- Created with Inkscape (http://www.inkscape.org/) -->
<!-- icons-mk created by Matthias Kuhnel (2019), reuseIT, https://reuseproject.org -->

<svg
   xmlns:dc="http://purl.org/dc/elements/1.1/"
   xmlns:cc="http://creativecommons.org/ns#"
   xmlns:rdf="http://www.w3.org/1999/02/22-rdf-syntax-ns#"
   xmlns:svg="http://www.w3.org/2000/svg"
   xmlns="http://www.w3.org/2000/svg"
   version="1.1"
   width="25"
   height="25"
   id="svg">
  <defs
     id="defs" />
  <metadata
     id="metadata">
    <rdf:RDF>
      <cc:Work
         rdf:about="">
        <dc:format>image/svg+xml</dc:format>
        <dc:type
           rdf:resource="http://purl.org/dc/dcmitype/StillImage" />
        <dc:title></dc:title>
      </cc:Work>
    </rdf:RDF>
  </metadata>
  <g
     transform="translate(0,-1027.3622)"
     id="icons-mk">
    <path
       d="M 12.5,1032.5966 C 5.6130002,1032.5966 2e-7,1038.2007 2e-7,1045.1278 l 1.2812,0 c 0,-1.8552 0.4488,-3.6151 1.25,-5.1563 l 2.375,1.375 0.5626,-1 -2.3438,-1.375 c 0.872,-1.3184 2.0366,-2.4329 3.375,-3.2812 l 1.3125,2.3125 1,-0.5938 -1.3437,-2.2812 c 1.3303,-0.6677 2.8032998,-1.0662 4.3749998,-1.1563 l 0,3.375 1.3124,0 0,-3.375 c 1.5968,0.091 3.0911,0.5011 4.4376,1.1875 l -1.3126,2.3438 1,0.5625 1.3438,-2.3125 c 1.3205,0.8599 2.4579,1.9915 3.3125,3.3125 l -2.3125,1.3437 0.5625,1 2.3437,-1.3125 c 0.7622,1.5113 1.1876,3.2248 1.1876,5.0313 l 1.2812,0 c 0,-6.9272 -5.614,-12.5313 -12.5,-12.5313 z m 5.7812,6.5938 c -1.0379,0.019 -5.3632,3.5937 -5.7812,3.9375 -1.108,0 -2,0.8927 -2,2 0,1.1074 0.892,2 2,2 1.023,0 1.8448,-0.7618 1.9688,-1.75 l 0,-0.031 c 0.05,-0.06 4.5507,-5.5428 3.9687,-6.125 -0.04,-0.036 -0.079,-0.033 -0.1563,-0.031 z m -5.7812,4.9375 c 0.553,0 1,0.4463 1,1 0,0.5537 -0.447,1 -1,1 -0.553,0 -1,-0.4463 -1,-1 0,-0.5537 0.447,-1 1,-1 z"
       id="speedometer"
       style="font-size:medium;font-style:normal;font-variant:normal;font-weight:normal;font-stretch:normal;text-indent:0;text-align:start;text-decoration:none;line-height:normal;letter-spacing:normal;word-spacing:normal;text-transform:none;direction:ltr;block-progression:tb;writing-mode:lr-tb;text-anchor:start;baseline-shift:baseline;color:#000000;fill:#000000;fill-opacity:1;fill-rule:nonzero;stroke:none;stroke-width:12.15131855;marker:none;visibility:visible;display:inline;overflow:visible;enable-background:accumulate;font-family:Sans;-inkscape-font-specification:Sans" />
  </g>
</svg>
