<?xml version="1.0" encoding="UTF-8" standalone="no"?>
<!-- Created with Inkscape (http://www.inkscape.org/) -->
<!-- icons-mk created by Matthias Kuhnel (2020), reuseIT, https://reuseproject.org -->

<svg
   xmlns:dc="http://purl.org/dc/elements/1.1/"
   xmlns:cc="http://creativecommons.org/ns#"
   xmlns:rdf="http://www.w3.org/1999/02/22-rdf-syntax-ns#"
   xmlns:svg="http://www.w3.org/2000/svg"
   xmlns="http://www.w3.org/2000/svg"
   version="1.1"
   width="25"
   height="25"
   id="svg">
  <defs
     id="defs" />
  <metadata
     id="metadata">
    <rdf:RDF>
      <cc:Work
         rdf:about="">
        <dc:format>image/svg+xml</dc:format>
        <dc:type
           rdf:resource="http://purl.org/dc/dcmitype/StillImage" />
        <dc:title></dc:title>
      </cc:Work>
    </rdf:RDF>
  </metadata>
  <g
     transform="translate(0,-1027.3622)"
     id="icons-mk">
    <path
       d="m 0,1027.5028 0,12.4063 12.406,0 0,-12.4063 -12.406,0 z m 20.844,10 0,4.125 4.156,0 0,-4.125 -4.156,0 z m -7.281,2.5625 -0.938,0.9375 2.531,2.5313 -0.781,0.75 3.407,0.9375 -0.938,-3.4063 -0.75,0.75 -2.531,-2.5 z m 7.281,2.7188 0,4.1562 4.156,0 0,-4.1562 -4.156,0 z m -10.562,5.3125 0,4.125 4.124,0 0,-4.125 -4.124,0 z m 5.281,0 0,4.125 4.125,0 0,-4.125 -4.125,0 z m 5.281,0 0,4.125 4.156,0 0,-4.125 -4.156,0 z"
       id="splitted"
       style="fill:#000000;fill-opacity:1;stroke:none" />
  </g>
</svg>
