<?xml version="1.0" encoding="UTF-8" standalone="no"?>
<!-- Created with Inkscape (http://www.inkscape.org/) -->
<!-- icons-mk created by Matthias Kuhnel (2019), reuseIT, https://reuseproject.org -->

<svg
   xmlns:dc="http://purl.org/dc/elements/1.1/"
   xmlns:cc="http://creativecommons.org/ns#"
   xmlns:rdf="http://www.w3.org/1999/02/22-rdf-syntax-ns#"
   xmlns:svg="http://www.w3.org/2000/svg"
   xmlns="http://www.w3.org/2000/svg"
   version="1.1"
   width="25"
   height="25"
   id="svg">
  <defs
     id="defs" />
  <metadata
     id="metadata">
    <rdf:RDF>
      <cc:Work
         rdf:about="">
        <dc:format>image/svg+xml</dc:format>
        <dc:type
           rdf:resource="http://purl.org/dc/dcmitype/StillImage" />
        <dc:title></dc:title>
      </cc:Work>
    </rdf:RDF>
  </metadata>
  <g
     transform="translate(0,-1027.3622)"
     id="icons-mk">
    <path
       d="m 24.7598,1042.3012 -8.7875,2.7576 -5.9109,7.0632 -2.7580998,-8.7875 -7.06320005,-5.9109 8.78760005,-2.7581 5.9108998,-7.0631 2.7581,8.7875 z m -5.3155,7.9546 -8.1636,-4.2637 -9.1740998,0.8147 4.2635,-8.1639 -0.8148,-9.1741 8.1639998,4.2635 9.174,-0.8147 -4.2634,8.1639 z m 3.4489,-3.4486 -9.1739,-0.8151 -8.1638998,4.2635 0.8147,-9.1741 -4.2635,-8.1639 9.1740998,0.8147 8.1639,-4.2634 -0.8147,9.174 z m -7.9549,5.315 -5.9105998,-7.0633 -8.78750005,-2.7581 7.06310005,-5.9109 2.7580998,-8.7875 5.9109,7.0631 8.7875,2.7581 -7.0631,5.9109 z m 9.1101,-7.476 -9.1567,0.9903 -7.1751999,5.7742 -0.9908,-9.1567 -5.77429995,-7.1753 9.15679985,-0.9908 7.1753,-5.7742 0.9907,9.1567 z m -6.7652,6.7647 -7.175,-5.7744 -9.15669985,-0.9907 5.77420005,-7.1755 0.9906999,-9.1567 7.1752999,5.7743 9.1568,0.9908 -5.7743,7.1753 z m 4.0554,-2.7095 -8.8386,-2.5892 -8.8387999,2.5889 2.5888,-8.8389 -2.5889,-8.8388 8.8388999,2.5888 8.8388,-2.5888 -2.5888,8.8389 z m -8.839,3.6609 -4.4189999,-8.0806 L 1.5e-7,1039.8622 8.0806001,1035.4428 12.5,1027.3622 l 4.4194,8.0806 8.0806,4.4194 -8.0806,4.4195 z"
       id="star-24"
       style="fill:#000000;fill-opacity:1;stroke:none" />
  </g>
</svg>
