<?xml version="1.0" encoding="UTF-8" standalone="no"?>
<!-- Created with Inkscape (http://www.inkscape.org/) -->
<!-- icons-mk created by Matthias Kuhnel (2019), reuseIT, https://reuseproject.org -->

<svg
   xmlns:dc="http://purl.org/dc/elements/1.1/"
   xmlns:cc="http://creativecommons.org/ns#"
   xmlns:rdf="http://www.w3.org/1999/02/22-rdf-syntax-ns#"
   xmlns:svg="http://www.w3.org/2000/svg"
   xmlns="http://www.w3.org/2000/svg"
   version="1.1"
   width="25"
   height="25"
   id="svg">
  <defs
     id="defs" />
  <metadata
     id="metadata">
    <rdf:RDF>
      <cc:Work
         rdf:about="">
        <dc:format>image/svg+xml</dc:format>
        <dc:type
           rdf:resource="http://purl.org/dc/dcmitype/StillImage" />
        <dc:title></dc:title>
      </cc:Work>
    </rdf:RDF>
  </metadata>
  <g
     transform="translate(0,-1027.3622)"
     id="icons-mk">
    <path
       d="m 24.0484,1044.6462 -9.1567,0.9903 -7.1752002,5.7742 -0.9908,-9.1567 -5.7743,-7.1753 9.1568002,-0.9908 7.1753,-5.7742 0.9907,9.1567 z m -6.7652,6.7647 -7.175,-5.7744 -9.1567002,-0.9907 5.7742,-7.1755 0.9907,-9.1567 7.1753002,5.7743 9.1568,0.9908 -5.7743,7.1753 z m 4.0554,-2.7095 -8.8386,-2.5892 -8.8388002,2.5889 2.5888,-8.8389 -2.5889,-8.8388 8.8389002,2.5888 8.8388,-2.5888 -2.5888,8.8389 z m -8.839,3.6609 -4.4190002,-8.0806 -8.0806,-4.4195 8.0806,-4.4194 4.4194002,-8.0806 4.4194,8.0806 8.0806,4.4194 -8.0806,4.4195 z"
       id="star-16"
       style="fill:#000000;fill-opacity:1;stroke:none" />
  </g>
</svg>
