<?xml version="1.0" encoding="UTF-8" standalone="no"?>
<!-- Created with Inkscape (http://www.inkscape.org/) -->
<!-- icons-mk created by Matthias Kuhnel (2020), reuseIT, https://reuseproject.org -->

<svg
   xmlns:dc="http://purl.org/dc/elements/1.1/"
   xmlns:cc="http://creativecommons.org/ns#"
   xmlns:rdf="http://www.w3.org/1999/02/22-rdf-syntax-ns#"
   xmlns:svg="http://www.w3.org/2000/svg"
   xmlns="http://www.w3.org/2000/svg"
   version="1.1"
   width="25"
   height="25"
   id="svg">
  <defs
     id="defs" />
  <metadata
     id="metadata">
    <rdf:RDF>
      <cc:Work
         rdf:about="">
        <dc:format>image/svg+xml</dc:format>
        <dc:type
           rdf:resource="http://purl.org/dc/dcmitype/StillImage" />
        <dc:title></dc:title>
      </cc:Work>
    </rdf:RDF>
  </metadata>
  <g
     transform="translate(0,-1027.3622)"
     id="icons-mk">
    <path
       d="m 6.5306582,1027.3791 c -0.226,0.025 -0.461,0.072 -0.719,0.1563 -4.127,1.3496 -0.688,11.3451 -0.688,11.3451 l 5.2199998,-0.9376 c -0.5119998,-4.9164 -0.4249998,-10.9413 -3.8129998,-10.5638 z m 11.2829998,8.001 c -2.747,0.4139 -2.68,5.9751 -3.157,10.5637 l 5.219,0.9064 c 0,0 3.44,-9.9642 -0.687,-11.3138 -0.516,-0.1688 -0.983,-0.2154 -1.375,-0.1563 z m -7.282,3.6567 -5.2199998,0.9063 c 0,0 0.362,4.9548 3.47,4.4068 3.1069998,-0.5479 1.7499998,-5.3131 1.7499998,-5.3131 z m 3.906,7.9697 c 0,0 -1.326,4.7652 1.782,5.3131 3.108,0.548 3.469,-4.3755 3.469,-4.3755 l -5.251,-0.9376 z"
       id="steps"
       style="fill:#000000;fill-opacity:1;stroke:none" />
  </g>
</svg>
