<?xml version="1.0" encoding="UTF-8" standalone="no"?>
<!-- Created with Inkscape (http://www.inkscape.org/) -->
<!-- icons-mk created by Matthias Kuhnel (2019), reuseIT, https://reuseproject.org -->

<svg
   xmlns:dc="http://purl.org/dc/elements/1.1/"
   xmlns:cc="http://creativecommons.org/ns#"
   xmlns:rdf="http://www.w3.org/1999/02/22-rdf-syntax-ns#"
   xmlns:svg="http://www.w3.org/2000/svg"
   xmlns="http://www.w3.org/2000/svg"
   version="1.1"
   width="25"
   height="25"
   id="svg">
  <defs
     id="defs" />
  <metadata
     id="metadata">
    <rdf:RDF>
      <cc:Work
         rdf:about="">
        <dc:format>image/svg+xml</dc:format>
        <dc:type
           rdf:resource="http://purl.org/dc/dcmitype/StillImage" />
        <dc:title></dc:title>
      </cc:Work>
    </rdf:RDF>
  </metadata>
  <g
     transform="translate(0,-1027.3622)"
     id="icons-mk">
    <path
       d="m 12.5005,1027.3635 c -0.7419,-0.015 -1.5004,0.1122 -2.0624,0.375 -0.5630001,0.2627 -0.9374001,0.6758 -0.9374001,1.2499 l 0,1.3437 0,0.031 0.062,0 1.6562001,0 0,1.5937 c -5.0242,0.6363 -8.9372,4.9322 -8.9372,10.1558 0,5.6629 4.5895999,10.2495 10.2183,10.2495 5.6297,0 10.2183,-4.5866 10.2183,-10.2495 0,-5.2236 -3.9124,-9.5195 -8.9371,-10.1558 l 0,-1.5937 1.6562,0 0.062,0 0,-0.031 0,-1.3437 c 0,-0.5189 -0.4078,-0.9179 -0.9688,-1.1874 -0.5609,-0.2696 -1.2891,-0.4229 -2.0311,-0.4375 z m -0.9374,5.6559 c 0.1337,-0.014 0.2707,0.01 0.4062,0 l 0,2.7499 1.0624,0 0,-2.7499 c 1.3135,0.075 2.5505,0.4013 3.6561,0.9688 l -1.0936,1.9061 0.8123,0.4687 1.0938,-1.9061 c 1.0882,0.7076 1.9863,1.6595 2.6873,2.7498 l -1.8749,1.0625 0.4687,0.8125 1.9062,-1.0937 c 0.5535,1.0913 0.8635,2.3056 0.9375,3.5935 l -2.9687,0 0,1.0625 2.9687,0 c -0.076,1.3197 -0.4221,2.5754 -1,3.6873 l -1.9061,-1.0937 -0.4688,0.8125 1.9062,1.0937 c -0.7051,1.0718 -1.6365,1.962 -2.7186,2.6561 l -1.0625,-1.8437 -0.8124,0.4688 1.0624,1.8436 c -1.091,0.5501 -2.3028,0.8949 -3.5936,0.9687 l 0,-2.7811 -1.0624,0 0,2.7811 c -1.2763,-0.073 -2.4808001,-0.3982 -3.5624,-0.9374 l 1.1249999,-1.9687 -0.8123999,-0.4687 -1.125,1.9687 c -1.0978,-0.6969 -2.037,-1.6035 -2.7498,-2.6874 l 1.9999,-1.1562 -0.4688,-0.8125 -1.9999,1.1562 c -0.5778,-1.1119 -0.9242,-2.3676 -1,-3.6873 l 2.7811,0 0,-1.0625 -2.7811,0 c 0.076,-1.3178 0.4237,-2.5453 1,-3.656 l 1.9061,1.0937 0.4688,-0.8125 -1.9061,-1.0937 c 0.7071,-1.0752 1.6321,-1.9925 2.7185,-2.6874 l 1.125,1.8749 0.8124999,-0.4687 -1.0937999,-1.8749 c 0.9686999,-0.4841 2.0266,-0.8232 3.1562,-0.9375 z m -1.8437001,6.0623 c -0.768,0 -1.3651999,0.2877 -1.7811999,0.8124 -0.4169,0.5248 -0.6249001,1.25 -0.6249001,2.2187 0,0.9661 0.2080001,1.7251 0.6249001,2.2499 0.416,0.5246 1.0131999,0.7812 1.7811999,0.7812 0.7660001,0 1.3642001,-0.2566 1.7812001,-0.7812 0.4159,-0.5248 0.6249,-1.2838 0.6249,-2.2499 0,-0.9687 -0.209,-1.6939 -0.6249,-2.2187 -0.417,-0.5247 -1.0153,-0.8124 -1.7812001,-0.8124 z m 5.5622001,0 c -0.769,0 -1.3642,0.2877 -1.7811,0.8124 -0.416,0.5248 -0.625,1.25 -0.625,2.2187 0,0.9661 0.209,1.7251 0.625,2.2499 0.4169,0.5246 1.0121,0.7812 1.7811,0.7812 0.765,0 1.3642,-0.2566 1.7812,-0.7812 0.417,-0.5248 0.625,-1.2838 0.625,-2.2499 0,-0.9687 -0.208,-1.6939 -0.625,-2.2187 -0.417,-0.5247 -1.0162,-0.8124 -1.7812,-0.8124 z m -5.5622001,1.0312 c 0.3229001,10e-5 0.5505001,0.1705 0.6874001,0.4687 0.1351,0.2982 0.2188,0.8021 0.2188,1.5312 0,0.7369 -0.081,1.2603 -0.2188,1.5624 -0.1379,0.3021 -0.3675,0.4375 -0.6874001,0.4375 -0.3229,0 -0.5495,-0.1354 -0.6875,-0.4375 -0.137,-0.3021 -0.2187,-0.8255 -0.2187,-1.5624 0,-0.7291 0.081,-1.233 0.2187,-1.5312 0.138,-0.2982 0.3645,-0.4686 0.6875,-0.4687 z m 5.5622001,0 c 0.3231,10e-5 0.5506,0.1705 0.6876,0.4687 0.1349,0.2982 0.2186,0.8021 0.2186,1.5312 0,0.7369 -0.081,1.2603 -0.2186,1.5624 -0.138,0.3021 -0.3676,0.4375 -0.6876,0.4375 -0.323,0 -0.5495,-0.1354 -0.6874,-0.4375 -0.1371,-0.3021 -0.2188,-0.8255 -0.2188,-1.5624 0,-0.7291 0.081,-1.233 0.2188,-1.5312 0.1379,-0.2982 0.3644,-0.4686 0.6874,-0.4687 z"
       id="stopwatch"
       style="font-size:medium;font-style:normal;font-variant:normal;font-weight:normal;font-stretch:normal;text-indent:0;text-align:start;text-decoration:none;line-height:normal;letter-spacing:normal;word-spacing:normal;text-transform:none;direction:ltr;block-progression:tb;writing-mode:lr-tb;text-anchor:start;baseline-shift:baseline;color:#000000;fill:#000000;fill-opacity:1;fill-rule:nonzero;stroke:none;stroke-width:12.15131855;marker:none;visibility:visible;display:inline;overflow:visible;enable-background:accumulate;font-family:Sans;-inkscape-font-specification:Sans" />
  </g>
</svg>
