<?xml version="1.0" encoding="UTF-8" standalone="no"?>
<!-- Created with Inkscape (http://www.inkscape.org/) -->
<!-- icons-mk created by Matthias Kuhnel (2019), reuseIT, https://reuseproject.org -->

<svg
   xmlns:dc="http://purl.org/dc/elements/1.1/"
   xmlns:cc="http://creativecommons.org/ns#"
   xmlns:rdf="http://www.w3.org/1999/02/22-rdf-syntax-ns#"
   xmlns:svg="http://www.w3.org/2000/svg"
   xmlns="http://www.w3.org/2000/svg"
   version="1.1"
   width="25"
   height="25"
   id="svg">
  <defs
     id="defs" />
  <metadata
     id="metadata">
    <rdf:RDF>
      <cc:Work
         rdf:about="">
        <dc:format>image/svg+xml</dc:format>
        <dc:type
           rdf:resource="http://purl.org/dc/dcmitype/StillImage" />
        <dc:title></dc:title>
      </cc:Work>
    </rdf:RDF>
  </metadata>
  <g
     transform="translate(0,-1027.3622)"
     id="icons-mk">
    <path
       d="m 6.5275662,1027.3622 0,1.6563 3.6562998,0 0,5.8437 -1.6562998,0 -0.9062,3.0312 c -3.7587,1.0494 -6.4375,3.7789 -6.4375,7 0,4.1285 4.3778,7.4688 9.8124998,7.4688 5.0377,0 9.1708,-2.8863 9.75,-6.5938 0.2557,0.088 0.5019,0.1767 0.75,0.2188 -0.5245,0.9423 -1.136,2.2741 -0.9375,3.1562 0.1633,0.7262 0.584,1.5625 1.5937,1.5625 1.0085,0 1.4617,-0.8368 1.625,-1.5625 0.2072,-0.9211 -0.4628,-2.3359 -1,-3.2812 0.3281,-0.2022 0.5626,-0.5552 0.5626,-0.9688 0,-0.4069 -0.2432,-0.796 -0.5626,-1 0.5352,-0.9453 1.2059,-2.3363 1,-3.25 -0.1633,-0.7257 -0.6165,-1.5625 -1.625,-1.5625 -1.0097,0 -1.4304,0.8363 -1.5937,1.5625 -0.1985,0.8821 0.413,2.2139 0.9375,3.1563 -0.2479,0.039 -0.4943,0.1059 -0.75,0.1875 -0.4565,-2.8229 -2.9658,-5.1512 -6.375,-6.0938 l -0.875,-3.0312 -1.6562,0 0,-6.6562 c 0,-0.4346 -0.4096,-0.8437 -0.8438,-0.8438 l -4.4687998,0 z m -0.5624,15.875 c 0.9167,0 1.6562,0.7395 1.6562,1.6562 0,0.9168 -0.7395,1.6563 -1.6562,1.6563 -0.9162,0 -1.6563,-0.7395 -1.6563,-1.6563 0,-0.9167 0.74,-1.6562 1.6563,-1.6562 z m 5.0311998,0 c 0.9169,0 1.6562,0.7395 1.6562,1.6562 0,0.9168 -0.7393,1.6563 -1.6562,1.6563 -0.9168,0 -1.6561998,-0.7395 -1.6561998,-1.6563 0,-0.9167 0.7393998,-1.6562 1.6561998,-1.6562 z m 5.0625,0 c 0.9162,0 1.6563,0.7395 1.6563,1.6562 0,0.9167 -0.7401,1.6563 -1.6563,1.6563 -0.9168,0 -1.6875,-0.7396 -1.6875,-1.6563 0,-0.9167 0.7707,-1.6562 1.6875,-1.6562 z"
       id="submarine"
       style="fill:#000000;fill-opacity:1;stroke:none" />
  </g>
</svg>
