<?xml version="1.0" encoding="UTF-8" standalone="no"?>
<!-- Created with Inkscape (http://www.inkscape.org/) -->
<!-- icons-mk created by Matthias Kuhnel (2019), reuseIT, https://reuseproject.org -->

<svg
   xmlns:dc="http://purl.org/dc/elements/1.1/"
   xmlns:cc="http://creativecommons.org/ns#"
   xmlns:rdf="http://www.w3.org/1999/02/22-rdf-syntax-ns#"
   xmlns:svg="http://www.w3.org/2000/svg"
   xmlns="http://www.w3.org/2000/svg"
   version="1.1"
   width="25"
   height="25"
   id="svg">
  <defs
     id="defs" />
  <metadata
     id="metadata">
    <rdf:RDF>
      <cc:Work
         rdf:about="">
        <dc:format>image/svg+xml</dc:format>
        <dc:type
           rdf:resource="http://purl.org/dc/dcmitype/StillImage" />
        <dc:title></dc:title>
      </cc:Work>
    </rdf:RDF>
  </metadata>
  <g
     transform="translate(0,-1027.3622)"
     id="icons-mk">
    <path
       d="m 11.955836,1048.779 c 0.1198,-1.0639 1.1651,-0.8387 1.2039,-0.011 0.039,0.8276 0.015,1.396 0.025,2.6998 0.01,1.3037 -1.2607,1.0549 -1.2351,0.069 0.026,-0.987 0.01,-1.9172 0.01,-2.7573 z m 9.2567,-9.6638 c -1.0646,0.113 -0.847,1.1596 -0.02,1.204 0.8276,0.044 1.3959,0.025 2.6997,0.042 1.3045,0.017 1.064,-1.2539 0.077,-1.2344 -0.987,0.019 -1.9172,-0.01 -2.7572,-0.012 z m -20.28240012,0 c -1.0646,0.113 -0.847,1.1596 -0.02,1.204 0.82760002,0.044 1.39600002,0.025 2.69980002,0.042 1.3038,0.017 1.0639,-1.2539 0.077,-1.2344 -0.987,0.019 -1.9165,-0.01 -2.75730002,-0.012 z m 18.21340012,6.3345 c -0.8324,-0.673 -1.4188,0.2211 -0.8651,0.8373 0.5539,0.6169 0.9698,1.0044 1.8791,1.9387 0.9095,0.9343 1.6386,-0.1345 0.9274,-0.8186 -0.7111,-0.6834 -1.3509,-1.3585 -1.9414,-1.9574 z M 4.8775359,1031.0874 c -0.8324,-0.673 -1.4188,0.2211 -0.865,0.8373 0.5538,0.6169 0.9697,1.005 1.879,1.9387 0.9102,0.9343 1.6386,-0.1345 0.9274,-0.8186 -0.7111,-0.6841 -1.3509,-1.3585 -1.9414,-1.9574 z m 1.0979,14.379 c 0.8324,-0.6731 1.4189,0.2211 0.8651,0.8373 -0.5538,0.6168 -0.9697,1.005 -1.8791,1.9386 -0.9101,0.9344 -1.6386,-0.1344 -0.9274,-0.8185 0.7111,-0.6842 1.3509,-1.3593 1.9414,-1.9574 z M 20.337836,1031.12 c 0.8324,-0.673 1.4188,0.2211 0.8657,0.8373 -0.5539,0.6162 -0.9697,1.005 -1.8798,1.9387 -0.9094,0.9343 -1.6378,-0.1345 -0.9274,-0.8186 0.7104,-0.6841 1.3509,-1.3592 1.9415,-1.9574 z m -8.382,-3.0408 c 0.1198,-1.0639 1.1651,-0.8387 1.2039,-0.011 0.039,0.8276 0.015,1.396 0.025,2.6998 0.01,1.3037 -1.2607,1.0549 -1.2351,0.069 0.026,-0.987 0.01,-1.9172 0.01,-2.7573 z m 7.2258,11.7825 c 0,3.4701 -2.922,6.2832 -6.5265,6.2832 -3.6045001,0 -6.5265001,-2.8131 -6.5265001,-6.2832 0,-3.4701 2.922,-6.2832 6.5265001,-6.2832 3.6045,0 6.5265,2.8131 6.5265,6.2832 z"
       id="sun"
       style="fill:#000000;fill-opacity:1" />
  </g>
</svg>
