<?xml version="1.0" encoding="UTF-8" standalone="no"?>
<!-- Created with Inkscape (http://www.inkscape.org/) -->
<!-- icons-mk created by Matthias Kuhnel (2020), reuseIT, https://reuseproject.org -->

<svg
   xmlns:dc="http://purl.org/dc/elements/1.1/"
   xmlns:cc="http://creativecommons.org/ns#"
   xmlns:rdf="http://www.w3.org/1999/02/22-rdf-syntax-ns#"
   xmlns:svg="http://www.w3.org/2000/svg"
   xmlns="http://www.w3.org/2000/svg"
   version="1.1"
   width="25"
   height="25"
   id="svg">
  <defs
     id="defs" />
  <metadata
     id="metadata">
    <rdf:RDF>
      <cc:Work
         rdf:about="">
        <dc:format>image/svg+xml</dc:format>
        <dc:type
           rdf:resource="http://purl.org/dc/dcmitype/StillImage" />
        <dc:title></dc:title>
      </cc:Work>
    </rdf:RDF>
  </metadata>
  <g
     transform="translate(0,-1027.3622)"
     id="icons-mk">
    <path
       d="m 0,1030.2528 0,0.4063 0,18.4062 0,0.4063 0.406,0 24.156,0 0.438,0 0,-0.4063 0,-18.4062 0,-0.4063 -0.438,0 -24.156,0 -0.406,0 z m 0.812,3.9063 7.188,0 0,2.2187 -7.188,0 0,-2.2187 z m 8.031,0 7.282,0 0,2.2187 -7.282,0 0,-2.2187 z m 8.126,0 7.187,0 0,2.2187 -7.187,0 0,-2.2187 z m -16.157,3.0625 7.188,0 0,2.2187 -7.188,0 0,-2.2187 z m 8.031,0 7.282,0 0,2.2187 -7.282,0 0,-2.2187 z m 8.126,0 7.187,0 0,2.2187 -7.187,0 0,-2.2187 z m -16.157,3.0625 7.188,0 0,2.2187 -7.188,0 0,-2.2187 z m 8.031,0 7.282,0 0,2.2187 -7.282,0 0,-2.2187 z m 8.126,0 7.187,0 0,2.2187 -7.187,0 0,-2.2187 z m -16.157,3.0625 7.188,0 0,2.2187 -7.188,0 0,-2.2187 z m 8.031,0 7.282,0 0,2.2187 -7.282,0 0,-2.2187 z m 8.126,0 7.187,0 0,2.2187 -7.187,0 0,-2.2187 z m -16.157,3.0625 7.188,0 0,2.2187 -7.188,0 0,-2.2187 z m 8.031,0 7.282,0 0,2.2187 -7.282,0 0,-2.2187 z m 8.126,0 7.187,0 0,2.2187 -7.187,0 0,-2.2187 z"
       id="table"
       style="font-size:medium;font-style:normal;font-variant:normal;font-weight:normal;font-stretch:normal;text-indent:0;text-align:start;text-decoration:none;line-height:normal;letter-spacing:normal;word-spacing:normal;text-transform:none;direction:ltr;block-progression:tb;writing-mode:lr-tb;text-anchor:start;baseline-shift:baseline;color:#000000;fill:#000000;fill-opacity:1;fill-rule:nonzero;stroke:none;stroke-width:0.83333331;marker:none;visibility:visible;display:inline;overflow:visible;enable-background:accumulate;font-family:Sans;-inkscape-font-specification:Sans" />
  </g>
</svg>
