<?xml version="1.0" encoding="UTF-8" standalone="no"?>
<!-- Created with Inkscape (http://www.inkscape.org/) -->
<!-- icons-mk created by Matthias Kuhnel (2019), reuseIT, https://reuseproject.org -->

<svg
   xmlns:dc="http://purl.org/dc/elements/1.1/"
   xmlns:cc="http://creativecommons.org/ns#"
   xmlns:rdf="http://www.w3.org/1999/02/22-rdf-syntax-ns#"
   xmlns:svg="http://www.w3.org/2000/svg"
   xmlns="http://www.w3.org/2000/svg"
   version="1.1"
   width="25"
   height="25"
   id="svg">
  <defs
     id="defs" />
  <metadata
     id="metadata">
    <rdf:RDF>
      <cc:Work
         rdf:about="">
        <dc:format>image/svg+xml</dc:format>
        <dc:type
           rdf:resource="http://purl.org/dc/dcmitype/StillImage" />
        <dc:title></dc:title>
      </cc:Work>
    </rdf:RDF>
  </metadata>
  <g
     transform="translate(0,-1027.3622)"
     id="icons-mk">
    <path
       d="m 3.5006145,1027.3682 c -0.46,0.085 -0.824,0.5327 -0.813,0.9998 l 0,22.9958 c 0,0.5244 0.475,1.0032 1,0.9999 l 17.6249995,0 c 0.525,0 1.003,-0.4755 1,-0.9999 l 0,-22.9958 c 0,-0.5243 -0.475,-1.0031 -1,-0.9998 l -17.6249995,0 c -0.06,-0.01 -0.126,-0.01 -0.187,0 z m 9.0000005,0.6874 c 0.343,0 0.624,0.2798 0.624,0.6249 0,0.345 -0.281,0.6249 -0.624,0.6249 -0.346,0 -0.626,-0.2799 -0.626,-0.6249 0,-0.3451 0.28,-0.6249 0.626,-0.6249 z m -7.8130005,1.9059 15.6249995,0 0,18.7778 -15.6249995,0 0,-18.7778 z m 6.5310005,19.9339 2.563,0 c 0.324,0 0.562,0.2229 0.562,0.4999 l 0,0.4061 c 0,0.277 -0.238,0.5 -0.562,0.5 l -2.563,0 c -0.324,0 -0.562,-0.223 -0.562,-0.5 l 0,-0.4061 c 0,-0.277 0.238,-0.4999 0.562,-0.4999 z"
       id="tablet"
       style="fill:#000000;fill-opacity:1;fill-rule:nonzero;stroke:none" />
  </g>
</svg>
