<?xml version="1.0" encoding="UTF-8" standalone="no"?>
<!-- Created with Inkscape (http://www.inkscape.org/) -->
<!-- icons-mk created by Matthias Kuhnel (2019), reuseIT, https://reuseproject.org -->

<svg
   xmlns:dc="http://purl.org/dc/elements/1.1/"
   xmlns:cc="http://creativecommons.org/ns#"
   xmlns:rdf="http://www.w3.org/1999/02/22-rdf-syntax-ns#"
   xmlns:svg="http://www.w3.org/2000/svg"
   xmlns="http://www.w3.org/2000/svg"
   version="1.1"
   width="25"
   height="25"
   id="svg">
  <defs
     id="defs" />
  <metadata
     id="metadata">
    <rdf:RDF>
      <cc:Work
         rdf:about="">
        <dc:format>image/svg+xml</dc:format>
        <dc:type
           rdf:resource="http://purl.org/dc/dcmitype/StillImage" />
        <dc:title></dc:title>
      </cc:Work>
    </rdf:RDF>
  </metadata>
  <g
     transform="translate(0,-1027.3622)"
     id="icons-mk">
    <path
       d="m 11.188,1027.3622 0,2.0625 c -4.9260001,0.6193 -8.7950001,4.6615 -9.1570001,9.6563 l -2.030999949999999,0 0,2.5937 2.187999949999999,0 c 0.793,4.4933 4.43,8.0192 9.0000001,8.5937 l 0,2.0938 2.624,0 0,-2.0938 c 4.57,-0.5745 8.207,-4.1004 9,-8.5937 l 2.188,0 0,-2.5937 -2.031,0 c -0.362,-4.9948 -4.231,-9.037 -9.157,-9.6563 l 0,-2.0625 -2.624,0 z m 0,4.75 0,2.8438 2.624,0 0,-2.8438 c 3.476,0.5832 6.185,3.4223 6.532,6.9688 l -2.938,0 0,2.5937 2.75,0 c -0.729,3.0425 -3.224,5.3828 -6.344,5.9063 l 0,-2.8438 -2.624,0 0,2.8438 c -3.1210001,-0.5235 -5.6150001,-2.8638 -6.3440001,-5.9063 l 2.75,0 0,-2.5937 -2.938,0 c 0.347,-3.5465 3.055,-6.3856 6.5320001,-6.9688 z m 1.312,5.75 c -1.105,0 -2,0.8954 -2,2 0,1.1046 0.895,2 2,2 1.105,0 2,-0.8954 2,-2 0,-1.1046 -0.895,-2 -2,-2 z"
       id="target"
       style="fill:#000000;fill-opacity:1" />
  </g>
</svg>
