<?xml version="1.0" encoding="UTF-8" standalone="no"?>
<!-- Created with Inkscape (http://www.inkscape.org/) -->
<!-- icons-mk created by Matthias Kuhnel (2019), reuseIT, https://reuseproject.org -->

<svg
   xmlns:dc="http://purl.org/dc/elements/1.1/"
   xmlns:cc="http://creativecommons.org/ns#"
   xmlns:rdf="http://www.w3.org/1999/02/22-rdf-syntax-ns#"
   xmlns:svg="http://www.w3.org/2000/svg"
   xmlns="http://www.w3.org/2000/svg"
   version="1.1"
   width="25"
   height="25"
   id="svg">
  <defs
     id="defs" />
  <metadata
     id="metadata">
    <rdf:RDF>
      <cc:Work
         rdf:about="">
        <dc:format>image/svg+xml</dc:format>
        <dc:type
           rdf:resource="http://purl.org/dc/dcmitype/StillImage" />
        <dc:title></dc:title>
      </cc:Work>
    </rdf:RDF>
  </metadata>
  <g
     transform="translate(0,-1027.3622)"
     id="icons-mk">
    <path
       d="m 7.4099998,1035.2912 -2.707,0 0,-2.1273 2.707,0 0,-5.8017 6.2240002,0 0,5.8017 5.186,0 0,2.1273 -5.186,0 0,11.4451 c 0,1.6292 0.129,2.643 0.387,3.0415 0.258,0.3985 0.726,0.5977 1.406,0.5977 0.75,0 1.307,-0.2519 1.67,-0.7559 0.364,-0.504 0.557,-1.2834 0.581,-2.3383 l 2.619,0 c -0.105,1.8753 -0.618,3.1909 -1.538,3.9469 -0.92,0.756 -2.506,1.134 -4.756,1.134 -2.567,0 -4.3070002,-0.4014 -5.2210002,-1.2043 -0.914,-0.8029 -1.372,-2.2767 -1.372,-4.4216 z"
       id="text-lowercase"
       style="font-size:40px;font-style:normal;font-variant:normal;font-weight:bold;font-stretch:normal;line-height:125%;letter-spacing:0px;word-spacing:0px;fill:#000000;fill-opacity:1;stroke:none;font-family:DejaVu Serif;-inkscape-font-specification:DejaVu Serif Bold" />
  </g>
</svg>
