<?xml version="1.0" encoding="UTF-8" standalone="no"?>
<!-- Created with Inkscape (http://www.inkscape.org/) -->
<!-- icons-mk created by Matthias Kuhnel (2019), reuseIT, https://reuseproject.org -->

<svg
   xmlns:dc="http://purl.org/dc/elements/1.1/"
   xmlns:cc="http://creativecommons.org/ns#"
   xmlns:rdf="http://www.w3.org/1999/02/22-rdf-syntax-ns#"
   xmlns:svg="http://www.w3.org/2000/svg"
   xmlns="http://www.w3.org/2000/svg"
   version="1.1"
   width="25"
   height="25"
   id="svg">
  <defs
     id="defs" />
  <metadata
     id="metadata">
    <rdf:RDF>
      <cc:Work
         rdf:about="">
        <dc:format>image/svg+xml</dc:format>
        <dc:type
           rdf:resource="http://purl.org/dc/dcmitype/StillImage" />
        <dc:title></dc:title>
      </cc:Work>
    </rdf:RDF>
  </metadata>
  <g
     transform="translate(0,-1027.3622)"
     id="icons-mk">
    <path
       d="m 11.8904,1034.7556 1.2188,0 0,10.8438 -1.2188,0 z M 15,1047.5929 c 0,1.3807 -1.1193,2.5 -2.5,2.5 -1.3807,0 -2.5,-1.1193 -2.5,-2.5 0,-1.3807 1.1193,-2.5 2.5,-2.5 1.3807,0 2.5,1.1193 2.5,2.5 z m -4.495,-4.7693 c -1.7544,0.7746 -2.9925001,2.5179 -2.9925001,4.5511 0,2.744 2.2435001,4.9875 4.9875001,4.9875 2.7439,0 4.9875,-2.2435 4.9875,-4.9875 0,-2.0332 -1.2381,-3.7765 -2.9925,-4.5511 l 0,1.1845 c 1.1684,0.6978 1.995,1.9136 1.995,3.3666 0,2.1952 -1.7949,3.99 -3.99,3.99 -2.1952,0 -3.9900001,-1.7948 -3.9900001,-3.99 0,-1.453 0.8266001,-2.6688 1.9950001,-3.3666 l 0,-1.1845 z m 1.9639,-15.4613 c -1.5776,0.016 -2.9942,1.4777 -2.9614,3.0549 l 0,13.1233 c -0.012,0.8359 0.3888,0.5137 0.9975,0.031 l 0,-9.975 0,-0.4676 0,-2.7119 a 1.9947775,1.9947775 0 0 1 1.7767,-2.0262 1.9947775,1.9947775 0 0 1 0.1872,0 1.9947775,1.9947775 0 0 1 2.0261,2.0262 l 0,2.7119 0,0.4676 0,9.975 c 0.6088,0.4825 1.0093,0.8047 0.9975,-0.031 l 0,-13.1233 c 0.033,-1.5979 -1.4255,-3.0717 -3.0236,-3.0549 z"
       id="thermometer"
       style="fill:#000000;fill-opacity:1;stroke:none" />
  </g>
</svg>
