<?xml version="1.0" encoding="UTF-8" standalone="no"?>
<!-- Created with Inkscape (http://www.inkscape.org/) -->
<!-- icons-mk created by Matthias Kuhnel (2019), reuseIT, https://reuseproject.org -->

<svg
   xmlns:dc="http://purl.org/dc/elements/1.1/"
   xmlns:cc="http://creativecommons.org/ns#"
   xmlns:rdf="http://www.w3.org/1999/02/22-rdf-syntax-ns#"
   xmlns:svg="http://www.w3.org/2000/svg"
   xmlns="http://www.w3.org/2000/svg"
   version="1.1"
   width="25"
   height="25"
   id="svg">
  <defs
     id="defs" />
  <metadata
     id="metadata">
    <rdf:RDF>
      <cc:Work
         rdf:about="">
        <dc:format>image/svg+xml</dc:format>
        <dc:type
           rdf:resource="http://purl.org/dc/dcmitype/StillImage" />
        <dc:title></dc:title>
      </cc:Work>
    </rdf:RDF>
  </metadata>
  <g
     transform="translate(0,-1027.3622)"
     id="icons-mk">
    <path
       d="m 16.6075,1038.9019 c 1.6246,0.4197 2.8593,1.1486 3.704,2.1869 0.8446,1.0384 1.2669,2.3591 1.2669,3.9623 0,2.3886 -0.9146,4.2043 -2.7437,5.447 -1.8291,1.2428 -4.4975,1.8641 -8.0052,1.8641 -1.2373,0 -2.4774,-0.1 -3.7201001,-0.2985 -1.2427999,-0.1991 -2.472,-0.4977 -3.6877999,-0.8958 l 0,-4.7934 c 1.1619999,0.581 2.3159999,1.0195 3.4619,1.3154 1.1459,0.2959 2.2729,0.4438 3.3812,0.4438 1.6462,0 2.9078,-0.2851 3.7846,-0.8554 0.877,-0.5702 1.3154,-1.388 1.3154,-2.4532 0,-1.0975 -0.4492,-1.9286 -1.3476,-2.4935 -0.8985,-0.5649 -2.2246,-0.8473 -3.9784,-0.8473 l -2.4854,0 0,-4.0026 2.6145,0 c 1.5602,0 2.7222,-0.2448 3.4861,-0.7344 0.764,-0.4895 1.1459,-1.2346 1.1459,-2.2353 0,-0.9253 -0.3712,-1.6408 -1.1136,-2.1465 -0.7424,-0.5057 -1.7915,-0.7586 -3.1472,-0.7586 -1.0006,0 -2.012,0.113 -3.0342,0.3389 -1.0222,0.226 -2.0389,0.5596 -3.0503,1.0007 l 0,-4.5514 c 1.2265,-0.3443 2.4424,-0.6025 3.6475,-0.7747 1.2051,-0.1721 2.3886,-0.2582 3.5506,-0.2582 3.1311,0 5.474,0.5138 7.0288,1.5413 1.5547,1.0276 2.3321,2.5743 2.3321,4.6401 0,1.4096 -0.3712,2.5635 -1.1136,3.462 -0.7424,0.8984 -1.8399,1.5305 -3.2924,1.8963 z"
       id="three"
       style="font-size:72px;font-style:normal;font-variant:normal;font-weight:bold;font-stretch:normal;line-height:125%;letter-spacing:0px;word-spacing:0px;fill:#000000;fill-opacity:1;stroke:none;font-family:DejaVu Sans;-inkscape-font-specification:DejaVu Sans Bold" />
  </g>
</svg>
