<?xml version="1.0" encoding="UTF-8" standalone="no"?>
<!-- Created with Inkscape (http://www.inkscape.org/) -->
<!-- icons-mk created by Matthias Kuhnel (2019), reuseIT, https://reuseproject.org -->

<svg
   xmlns:dc="http://purl.org/dc/elements/1.1/"
   xmlns:cc="http://creativecommons.org/ns#"
   xmlns:rdf="http://www.w3.org/1999/02/22-rdf-syntax-ns#"
   xmlns:svg="http://www.w3.org/2000/svg"
   xmlns="http://www.w3.org/2000/svg"
   version="1.1"
   width="25"
   height="25"
   id="svg">
  <defs
     id="defs" />
  <metadata
     id="metadata">
    <rdf:RDF>
      <cc:Work
         rdf:about="">
        <dc:format>image/svg+xml</dc:format>
        <dc:type
           rdf:resource="http://purl.org/dc/dcmitype/StillImage" />
        <dc:title></dc:title>
      </cc:Work>
    </rdf:RDF>
  </metadata>
  <g
     transform="translate(0,-1027.3622)"
     id="icons-mk">
    <path
       d="m 9.1873499,1028.581 c -3.3045,0 -5.9687,2.1377 -5.9687,4.7812 l 0,0.1563 c -1.8642,0.474 -3.218800025,1.8518 -3.218800025,3.5 0,2.0385 2.077000025,3.6875 4.625000025,3.6875 l 6.0625001,0 -1.1250001,5.125 2.6563001,0 -1.0626,5.3125 4.2813,-7.7188 -2.6563,0 0.5938,-2.7187 7.8438,0 c 0.03,6e-4 0.063,0 0.094,0 2.0304,0 3.6875,-1.3132 3.6875,-2.9375 0,-1.278 -1.0141,-2.3442 -2.4375,-2.75 0.01,-0.085 0.031,-0.1634 0.031,-0.25 0,-1.6244 -1.6884,-2.9375 -3.7188,-2.9375 -0.071,0 -0.1173,0 -0.1875,0 -0.5736,-1.0268 -1.8782,-1.75 -3.375,-1.75 -0.5216,0 -0.988,0.1245 -1.4375,0.2812 -1.097,-1.0803 -2.8122,-1.7812 -4.6875001,-1.7812 z"
       id="thunderstorm"
       style="fill:#000000;fill-opacity:1;stroke:none" />
  </g>
</svg>
