<?xml version="1.0" encoding="UTF-8" standalone="no"?>
<!-- Created with Inkscape (http://www.inkscape.org/) -->
<!-- icons-mk created by Matthias Kuhnel (2019), reuseIT, https://reuseproject.org -->

<svg
   xmlns:dc="http://purl.org/dc/elements/1.1/"
   xmlns:cc="http://creativecommons.org/ns#"
   xmlns:rdf="http://www.w3.org/1999/02/22-rdf-syntax-ns#"
   xmlns:svg="http://www.w3.org/2000/svg"
   xmlns="http://www.w3.org/2000/svg"
   version="1.1"
   width="25"
   height="25"
   id="svg">
  <defs
     id="defs" />
  <metadata
     id="metadata">
    <rdf:RDF>
      <cc:Work
         rdf:about="">
        <dc:format>image/svg+xml</dc:format>
        <dc:type
           rdf:resource="http://purl.org/dc/dcmitype/StillImage" />
        <dc:title></dc:title>
      </cc:Work>
    </rdf:RDF>
  </metadata>
  <g
     transform="translate(0,-1027.3622)"
     id="icons-mk">
    <path
       d="m 10.804,1044.9446 0,-0.8238 1.294,0 0,-8.5172 -1.294,0 0,-0.8238 4.194,0 2.901,6.5224 2.913,-6.5224 4.188,0 0,0.8238 -1.301,0 0,8.5172 1.301,0 0,0.8238 -5.229,0 0,-0.8238 1.293,0 0,-7.7547 -3.152,7.0875 -1.722,0 -3.139,-7.0875 0,7.7547 1.294,0 0,0.8238 z m -8.4349999,0 0,-0.8238 1.348,0 0,-8.4083 -2.785,0 0,1.6068 -0.932,0 0,-2.5395 10.0759999,0 0,2.5395 -0.9189999,0 0,-1.6068 -2.805,0 0,8.4083 1.355,0 0,0.8238 z"
       id="trademark"
       style="font-size:40px;font-style:normal;font-variant:normal;font-weight:bold;font-stretch:normal;line-height:125%;letter-spacing:0px;word-spacing:0px;fill:#000000;fill-opacity:1;stroke:none;font-family:DejaVu Serif;-inkscape-font-specification:DejaVu Serif Bold" />
  </g>
</svg>
