<?xml version="1.0" encoding="UTF-8" standalone="no"?>
<!-- Created with Inkscape (http://www.inkscape.org/) -->
<!-- icons-mk created by Matthias Kuhnel (2019), reuseIT, https://reuseproject.org -->

<svg
   xmlns:dc="http://purl.org/dc/elements/1.1/"
   xmlns:cc="http://creativecommons.org/ns#"
   xmlns:rdf="http://www.w3.org/1999/02/22-rdf-syntax-ns#"
   xmlns:svg="http://www.w3.org/2000/svg"
   xmlns="http://www.w3.org/2000/svg"
   version="1.1"
   width="25"
   height="25"
   id="svg">
  <defs
     id="defs" />
  <metadata
     id="metadata">
    <rdf:RDF>
      <cc:Work
         rdf:about="">
        <dc:format>image/svg+xml</dc:format>
        <dc:type
           rdf:resource="http://purl.org/dc/dcmitype/StillImage" />
        <dc:title></dc:title>
      </cc:Work>
    </rdf:RDF>
  </metadata>
  <g
     transform="translate(0,-1027.3622)"
     id="icons-mk">
    <path
       d="m 14.625,1039.8622 c 0,1.1736 -0.9519,2.125 -2.1244,2.125 -1.1737,0 -2.1255,-0.9514 -2.1255,-2.125 0,-1.1736 0.9518,-2.125 2.1255,-2.125 1.1725,0 2.1244,0.9514 2.1244,2.125 z m -5.9369998,-12.5 c -0.444,0 -0.8130001,0.3381 -0.8130001,0.7813 l 0,23.4062 c 0,0.4432 0.3690001,0.8125 0.8130001,0.8125 l 7.6239998,0 c 0.444,0 0.813,-0.3693 0.813,-0.8125 l 0,-23.4062 c 0,-0.4432 -0.369,-0.7813 -0.813,-0.7813 l -7.6239998,0 z m 3.8119998,1.5 c 1.726,0 3.125,1.3991 3.125,3.125 0,1.7259 -1.399,3.125 -3.125,3.125 -1.726,0 -3.1249998,-1.3991 -3.1249998,-3.125 0,-1.7259 1.3989998,-3.125 3.1249998,-3.125 z m 0,7.875 c 1.726,0 3.125,1.3991 3.125,3.125 0,1.7259 -1.399,3.125 -3.125,3.125 -1.726,0 -3.1249998,-1.3991 -3.1249998,-3.125 0,-1.7259 1.3989998,-3.125 3.1249998,-3.125 z m 0,7.875 c 1.726,0 3.125,1.3991 3.125,3.125 0,1.7259 -1.399,3.125 -3.125,3.125 -1.726,0 -3.1249998,-1.3991 -3.1249998,-3.125 0,-1.7259 1.3989998,-3.125 3.1249998,-3.125 z"
       id="traffic-light-middle"
       style="fill:#000000;fill-opacity:1;stroke:none" />
  </g>
</svg>
