<?xml version="1.0" encoding="UTF-8" standalone="no"?>
<!-- Created with Inkscape (http://www.inkscape.org/) -->
<!-- icons-mk created by Matthias Kuhnel (2020), reuseIT, https://reuseproject.org -->

<svg
   xmlns:dc="http://purl.org/dc/elements/1.1/"
   xmlns:cc="http://creativecommons.org/ns#"
   xmlns:rdf="http://www.w3.org/1999/02/22-rdf-syntax-ns#"
   xmlns:svg="http://www.w3.org/2000/svg"
   xmlns="http://www.w3.org/2000/svg"
   version="1.1"
   width="25"
   height="25"
   id="svg">
  <defs
     id="defs" />
  <metadata
     id="metadata">
    <rdf:RDF>
      <cc:Work
         rdf:about="">
        <dc:format>image/svg+xml</dc:format>
        <dc:type
           rdf:resource="http://purl.org/dc/dcmitype/StillImage" />
        <dc:title></dc:title>
      </cc:Work>
    </rdf:RDF>
  </metadata>
  <g
     transform="translate(0,-1027.3622)"
     id="icons-mk">
    <path
       d="m 9.902,1027.3622 c -2.532,0 -5.068,0.9432 -7,2.875 -3.864,3.8635 -3.864,10.1365 0,14 3.329,3.3292 8.428,3.7831 12.25,1.375 l 6.718,6.75 3.126,-3.125 -6.719,-6.75 c 2.398,-3.8207 1.919,-8.9248 -1.407,-12.25 -1.932,-1.9318 -4.436,-2.875 -6.968,-2.875 z m 0,3.6875 c 1.583,0 3.168,0.6051 4.375,1.8125 2.414,2.4147 2.414,6.3352 0,8.75 -2.415,2.4147 -6.335,2.4147 -8.75,0 -2.415,-2.4147 -2.415,-6.3353 0,-8.75 1.208,-1.2074 2.793,-1.8125 4.375,-1.8125 z m -3.813,2.6562 -0.219,0.3438 c 0.148,0.091 0.326,0.1068 0.5,0.125 0.175,0.018 0.356,0.028 0.532,0.062 0.176,0.034 0.324,0.072 0.437,0.1562 0.113,0.084 0.187,0.1819 0.219,0.375 0.124,0.6616 -0.212,1.4871 -0.281,2.25 -0.03,0.3815 0,0.7848 0.281,1.0938 0.193,0.2143 0.474,0.3816 0.875,0.5 -0.163,0.1629 -0.281,0.4077 -0.281,0.6562 0,0.4972 0.409,0.875 0.906,0.875 0.497,0 0.906,-0.3778 0.906,-0.875 0,-0.194 -0.08,-0.3842 -0.187,-0.5312 l 1.719,0 c -0.102,0.1458 -0.188,0.34 -0.188,0.5312 0,0.4972 0.409,0.875 0.906,0.875 0.497,0 0.906,-0.3778 0.906,-0.875 0,-0.4971 -0.409,-0.9062 -0.906,-0.9062 -0.01,0 -0.02,-4e-4 -0.03,0 l -3.094,0 c -0.01,0 -0.02,0 -0.03,0 -0.648,-0.11 -1.003,-0.2954 -1.188,-0.5 -0.109,-0.1208 -0.16,-0.2849 -0.187,-0.4375 0.213,0.029 0.471,0.046 0.813,0.062 0.476,0.023 1.051,0.031 1.624,0.031 0.574,0 1.158,-0.01 1.626,-0.031 0.467,-0.023 0.793,-0.028 1,-0.094 0.241,-0.077 0.361,-0.3196 0.437,-0.5625 0.08,-0.2428 0.104,-0.5283 0.09,-0.8125 0,-0.2841 -0.04,-0.5462 -0.125,-0.7812 -0.08,-0.2349 -0.173,-0.4577 -0.406,-0.5313 -0.105,-0.033 -0.234,-0.052 -0.407,-0.062 -0.173,-0.011 -0.381,0 -0.625,0 -0.488,-0.01 -1.103,-0.01 -1.687,0 -1.057,0.018 -1.88,0.057 -2.063,0.062 -0.05,-0.2799 -0.192,-0.4887 -0.375,-0.625 -0.183,-0.1362 -0.387,-0.2098 -0.593,-0.25 -0.207,-0.04 -0.428,-0.045 -0.594,-0.062 -0.165,-0.017 -0.292,-0.049 -0.313,-0.062 z m 3.531,1.3125 0,0.5313 -0.687,0 0,-0.5 c 0.256,-0.01 0.355,-0.024 0.687,-0.031 z m 0.313,0 c 0.06,0 0.06,0 0.125,0 0.209,0 0.388,0 0.594,0 l 0,0.5313 -0.719,0 0,-0.5313 z m 1.031,0 c 0.232,0 0.485,0 0.688,0 l 0,0.5313 -0.688,0 0,-0.5313 z m 1,0 c 0.124,0 0.25,-0.01 0.344,0 0.163,0.01 0.294,0.057 0.312,0.062 0.01,0 0.1,0.097 0.157,0.2813 0.02,0.056 0.05,0.1218 0.06,0.1875 l -0.875,0 0,-0.5313 z m -3.344,0.031 0,0.5 -0.656,0 c 0.02,-0.154 0.03,-0.3123 0.03,-0.4688 0.06,0 0.44,-0.026 0.624,-0.031 z m -0.718,0.8125 0.718,0 0,0.4375 -0.812,0 c 0.03,-0.1406 0.06,-0.2899 0.09,-0.4375 z m 1.031,0 0.687,0 0,0.4375 -0.687,0 0,-0.4375 z m 1,0 0.719,0 0,0.4375 -0.719,0 0,-0.4375 z m 1.031,0 0.688,0 0,0.4375 -0.688,0 0,-0.4375 z m 1,0 0.938,0 c 0,0.056 0,0.1 0,0.1562 0,0.098 -0.02,0.1861 -0.03,0.2813 l -0.906,0 0,-0.4375 z m -4.218,0.7187 0.874,0 0,0.5313 c -0.03,0 -0.07,0 -0.09,0 -0.411,-0.02 -0.713,-0.064 -0.875,-0.094 0.01,-0.1446 0.06,-0.2755 0.09,-0.4375 z m 1.187,0 0.687,0 0,0.5625 c -0.242,0 -0.465,-0.023 -0.687,-0.031 l 0,-0.5313 z m 1,0 0.719,0 0,0.5625 c -0.185,0 -0.342,2e-4 -0.532,0 -0.07,0 -0.12,4e-4 -0.187,0 l 0,-0.5625 z m 1.031,0 0.688,0 0,0.5313 c -0.201,0.01 -0.457,-0.01 -0.688,0 l 0,-0.5313 z m 1,0 0.875,0 c 0,0.047 -0.02,0.1159 -0.03,0.1563 -0.06,0.1845 -0.134,0.2643 -0.188,0.2812 -0.07,0.02 -0.37,0.04 -0.656,0.062 l 0,-0.5 z"
       id="transparency-products"
       style="fill:#000000;fill-opacity:1;stroke:none" />
  </g>
</svg>
