<?xml version="1.0" encoding="UTF-8" standalone="no"?>
<!-- Created with Inkscape (http://www.inkscape.org/) -->
<!-- icons-mk created by Matthias Kuhnel (2019), reuseIT, https://reuseproject.org -->

<svg
   xmlns:dc="http://purl.org/dc/elements/1.1/"
   xmlns:cc="http://creativecommons.org/ns#"
   xmlns:rdf="http://www.w3.org/1999/02/22-rdf-syntax-ns#"
   xmlns:svg="http://www.w3.org/2000/svg"
   xmlns="http://www.w3.org/2000/svg"
   version="1.1"
   width="25"
   height="25"
   id="svg">
  <defs
     id="defs" />
  <metadata
     id="metadata">
    <rdf:RDF>
      <cc:Work
         rdf:about="">
        <dc:format>image/svg+xml</dc:format>
        <dc:type
           rdf:resource="http://purl.org/dc/dcmitype/StillImage" />
        <dc:title></dc:title>
      </cc:Work>
    </rdf:RDF>
  </metadata>
  <g
     transform="translate(0,-1027.3622)"
     id="icons-mk">
    <path
       d="m 12.5,1027.3622 c -1.2784,0 -2.3148,1.0363 -2.3148,2.3148 0,1.2785 1.0364,2.3149 2.3148,2.3149 1.2785,0 2.3148,-1.0364 2.3148,-2.3149 0,-1.2784 -1.0363,-2.3148 -2.3148,-2.3148 z m -2.3148,5.0925 c -1.2783999,0 -2.3147999,1.0364 -2.3147999,2.315 0,1.2783 1.0364,2.3148 2.3147999,2.3148 1.2785,0 2.3148,-1.0364 2.3148,-2.3148 0,-1.2785 -1.0363,-2.315 -2.3148,-2.315 z m 5.0926,0 c -1.2784,0 -2.3148,1.0364 -2.3148,2.315 0,1.2783 1.0364,2.3148 2.3148,2.3148 1.2785,0 2.3148,-1.0364 2.3148,-2.3148 0,-1.2785 -1.0363,-2.315 -2.3148,-2.315 z m -10.1851999,10.1852 c -1.2784,0 -2.3148,1.0364 -2.3148,2.3149 0,1.2784 1.0364,2.3149 2.3148,2.3149 1.2785,0 2.3148,-1.0364 2.3148,-2.3149 0,-1.2784 -1.0363,-2.3149 -2.3148,-2.3149 z m 5.0925999,0 c -1.2783999,0 -2.3147999,1.0364 -2.3147999,2.3149 0,1.2784 1.0364,2.3149 2.3147999,2.3149 1.2785,0 2.3148,-1.0364 2.3148,-2.3149 0,-1.2784 -1.0363,-2.3149 -2.3148,-2.3149 z m 5.0926,0 c -1.2784,0 -2.3148,1.0364 -2.3148,2.3149 0,1.2784 1.0364,2.3149 2.3148,2.3149 1.2785,0 2.3148,-1.0364 2.3148,-2.3149 0,-1.2784 -1.0363,-2.3149 -2.3148,-2.3149 z m 5.0926,0 c -1.2784,0 -2.3148,1.0364 -2.3148,2.3149 0,1.2784 1.0364,2.3149 2.3148,2.3149 1.2785,0 2.3148,-1.0364 2.3148,-2.3149 0,-1.2784 -1.0363,-2.3149 -2.3148,-2.3149 z m -12.9629999,-5.0926 c -1.2784,0 -2.3148,1.0364 -2.3148,2.315 0,1.2783 1.0364,2.3148 2.3148,2.3148 1.2785,0 2.3148,-1.0364 2.3148,-2.3148 0,-1.2785 -1.0363,-2.315 -2.3148,-2.315 z m 5.0925999,0 c -1.2784,0 -2.3148,1.0364 -2.3148,2.315 0,1.2783 1.0364,2.3148 2.3148,2.3148 1.2785,0 2.3148,-1.0364 2.3148,-2.3148 0,-1.2785 -1.0363,-2.315 -2.3148,-2.315 z m 5.0926,0 c -1.2784,0 -2.3148,1.0364 -2.3148,2.315 0,1.2783 1.0364,2.3148 2.3148,2.3148 1.2785,0 2.3148,-1.0364 2.3148,-2.3148 0,-1.2785 -1.0363,-2.315 -2.3148,-2.315 z m -15.2777998,10.1852 c -1.2784001,0 -2.31480005,1.0364 -2.31480005,2.3149 0,1.2784 1.03639995,2.3149 2.31479995,2.3149 1.2785,0 2.3148,-1.0364 2.3148,-2.3149 0,-1.2784 -1.0363,-2.3149 -2.3148,-2.3149 z m 5.0926,0 c -1.2784,0 -2.3148,1.0364 -2.3148,2.3149 0,1.2784 1.0364,2.3149 2.3148,2.3149 1.2785,0 2.3148,-1.0364 2.3148,-2.3149 0,-1.2784 -1.0363,-2.3149 -2.3148,-2.3149 z m 5.0925998,0 c -1.2784,0 -2.3148,1.0364 -2.3148,2.3149 0,1.2784 1.0364,2.3149 2.3148,2.3149 1.2785,0 2.3148,-1.0364 2.3148,-2.3149 0,-1.2784 -1.0363,-2.3149 -2.3148,-2.3149 z m 5.0926,0 c -1.2784,0 -2.3148,1.0364 -2.3148,2.3149 0,1.2784 1.0364,2.3149 2.3148,2.3149 1.2785,0 2.3148,-1.0364 2.3148,-2.3149 0,-1.2784 -1.0363,-2.3149 -2.3148,-2.3149 z m 5.0926,0 c -1.2784,0 -2.3148,1.0364 -2.3148,2.3149 0,1.2784 1.0364,2.3149 2.3148,2.3149 1.2785,0 2.3148,-1.0364 2.3148,-2.3149 0,-1.2784 -1.0363,-2.3149 -2.3148,-2.3149 z"
       id="triangle-balls-up"
       style="fill:#000000;fill-opacity:1;fill-rule:evenodd;stroke:none" />
  </g>
</svg>
