<?xml version="1.0" encoding="UTF-8" standalone="no"?>
<!-- Created with Inkscape (http://www.inkscape.org/) -->
<!-- icons-mk created by Matthias Kuhnel (2019), reuseIT, https://reuseproject.org -->

<svg
   xmlns:dc="http://purl.org/dc/elements/1.1/"
   xmlns:cc="http://creativecommons.org/ns#"
   xmlns:rdf="http://www.w3.org/1999/02/22-rdf-syntax-ns#"
   xmlns:svg="http://www.w3.org/2000/svg"
   xmlns="http://www.w3.org/2000/svg"
   version="1.1"
   width="25"
   height="25"
   id="svg">
  <defs
     id="defs" />
  <metadata
     id="metadata">
    <rdf:RDF>
      <cc:Work
         rdf:about="">
        <dc:format>image/svg+xml</dc:format>
        <dc:type
           rdf:resource="http://purl.org/dc/dcmitype/StillImage" />
        <dc:title></dc:title>
      </cc:Work>
    </rdf:RDF>
  </metadata>
  <g
     transform="translate(0,-1027.3622)"
     id="icons-mk">
    <path
       d="m 25.00005,1039.8622 c 0,1.2784 -1.0364,2.3148 -2.3149,2.3148 -1.2784,0 -2.3148,-1.0364 -2.3148,-2.3148 0,-1.2785 1.0364,-2.3148 2.3148,-2.3148 1.2785,0 2.3149,1.0363 2.3149,2.3148 z m -5.0926,2.3148 c 0,1.2784 -1.0364,2.3148 -2.3149,2.3148 -1.2784,0 -2.3148,-1.0364 -2.3148,-2.3148 0,-1.2785 1.0364,-2.3148 2.3148,-2.3148 1.2785,0 2.3149,1.0363 2.3149,2.3148 z m 0,-5.0926 c 0,1.2784 -1.0364,2.3148 -2.3149,2.3148 -1.2784,0 -2.3148,-1.0364 -2.3148,-2.3148 0,-1.2784 1.0364,-2.3148 2.3148,-2.3148 1.2785,0 2.3149,1.0364 2.3149,2.3148 z m -10.1852001,10.1852 c 0,1.2784 -1.0364,2.3148 -2.3148997,2.3148 -1.2784,0 -2.3148,-1.0364 -2.3148,-2.3148 0,-1.2785 1.0364,-2.3148 2.3148,-2.3148 1.2784997,0 2.3148997,1.0363 2.3148997,2.3148 z m 0,-5.0926 c 0,1.2784 -1.0364,2.3148 -2.3148997,2.3148 -1.2784,0 -2.3148,-1.0364 -2.3148,-2.3148 0,-1.2785 1.0364,-2.3148 2.3148,-2.3148 1.2784997,0 2.3148997,1.0363 2.3148997,2.3148 z m 0,-5.0926 c 0,1.2784 -1.0364,2.3148 -2.3148997,2.3148 -1.2784,0 -2.3148,-1.0364 -2.3148,-2.3148 0,-1.2784 1.0364,-2.3148 2.3148,-2.3148 1.2784997,0 2.3148997,1.0364 2.3148997,2.3148 z m 0,-5.0926 c 0,1.2784 -1.0364,2.3148 -2.3148997,2.3148 -1.2784,0 -2.3148,-1.0364 -2.3148,-2.3148 0,-1.2784 1.0364,-2.3148 2.3148,-2.3148 1.2784997,0 2.3148997,1.0364 2.3148997,2.3148 z m 5.0926001,12.963 c 0,1.2784 -1.0364,2.3148 -2.3149,2.3148 -1.2784,0 -2.3148,-1.0364 -2.3148,-2.3148 0,-1.2785 1.0364,-2.3148 2.3148,-2.3148 1.2785,0 2.3149,1.0363 2.3149,2.3148 z m 0,-5.0926 c 0,1.2784 -1.0364,2.3148 -2.3149,2.3148 -1.2784,0 -2.3148,-1.0364 -2.3148,-2.3148 0,-1.2785 1.0364,-2.3148 2.3148,-2.3148 1.2785,0 2.3149,1.0363 2.3149,2.3148 z m 0,-5.0926 c 0,1.2784 -1.0364,2.3148 -2.3149,2.3148 -1.2784,0 -2.3148,-1.0364 -2.3148,-2.3148 0,-1.2785 1.0364,-2.3148 2.3148,-2.3148 1.2785,0 2.3149,1.0363 2.3149,2.3148 z m -10.1851999,15.2778 c 0,1.2784 -1.0364,2.3148 -2.3148999,2.3148 -1.2784,0 -2.31480005,-1.0364 -2.31480005,-2.3148 0,-1.2785 1.03640005,-2.3148 2.31480005,-2.3148 1.2784999,0 2.3148999,1.0363 2.3148999,2.3148 z m 0,-5.0926 c 0,1.2784 -1.0364,2.3148 -2.3148999,2.3148 -1.2784,0 -2.31480005,-1.0364 -2.31480005,-2.3148 0,-1.2785 1.03640005,-2.3148 2.31480005,-2.3148 1.2784999,0 2.3148999,1.0363 2.3148999,2.3148 z m 0,-5.0926 c 0,1.2784 -1.0364,2.3148 -2.3148999,2.3148 -1.2784,0 -2.31480005,-1.0364 -2.31480005,-2.3148 0,-1.2785 1.03640005,-2.3148 2.31480005,-2.3148 1.2784999,0 2.3148999,1.0363 2.3148999,2.3148 z m 0,-5.0926 c 0,1.2784 -1.0364,2.3148 -2.3148999,2.3148 -1.2784,0 -2.31480005,-1.0364 -2.31480005,-2.3148 0,-1.2785 1.03640005,-2.3148 2.31480005,-2.3148 1.2784999,0 2.3148999,1.0363 2.3148999,2.3148 z m 0,-5.0926 c 0,1.2784 -1.0364,2.3148 -2.3148999,2.3148 -1.2784,0 -2.31480005,-1.0364 -2.31480005,-2.3148 0,-1.2784 1.03640005,-2.3148 2.31480005,-2.3148 1.2784999,0 2.3148999,1.0364 2.3148999,2.3148 z"
       id="triangle-balls-right"
       style="fill:#000000;fill-opacity:1;fill-rule:evenodd;stroke:none" />
  </g>
</svg>
