<?xml version="1.0" encoding="UTF-8" standalone="no"?>
<!-- Created with Inkscape (http://www.inkscape.org/) -->
<!-- icons-mk created by Matthias Kuhnel (2020), reuseIT, https://reuseproject.org -->

<svg
   xmlns:dc="http://purl.org/dc/elements/1.1/"
   xmlns:cc="http://creativecommons.org/ns#"
   xmlns:rdf="http://www.w3.org/1999/02/22-rdf-syntax-ns#"
   xmlns:svg="http://www.w3.org/2000/svg"
   xmlns="http://www.w3.org/2000/svg"
   version="1.1"
   width="25"
   height="25"
   id="svg">
  <defs
     id="defs" />
  <metadata
     id="metadata">
    <rdf:RDF>
      <cc:Work
         rdf:about="">
        <dc:format>image/svg+xml</dc:format>
        <dc:type
           rdf:resource="http://purl.org/dc/dcmitype/StillImage" />
        <dc:title></dc:title>
      </cc:Work>
    </rdf:RDF>
  </metadata>
  <g
     transform="translate(0,-1027.3622)"
     id="icons-mk">
    <path
       d="m 18.134595,1027.3622 -0.406,0.062 -13.5579998,1.6556 -0.374,0.062 0,0.3749 0.53,7.4034 0.03,0.406 0.406,-0.031 5.186,-0.531 2.0609998,2.9363 0.469,0.7185 0.219,-0.8434 0.812,-3.155 4.904,-0.7185 0.344,-0.062 -0.03,-0.3748 -0.563,-7.4972 -0.03,-0.406 z m -0.75,0.9059 0.531,6.6849 -4.779,0.7185 -0.25,0.062 -0.09,0.2499 -0.656,2.5615 -1.655,-2.4053 -0.157,-0.1874 -0.218,0 -5.0299998,0.4998 -0.468,-6.6224 12.7759998,-1.5619 z m -1.749,1.5306 -9.5589998,1.1246 0.09,0.781 9.5589998,-1.1246 -0.09,-0.781 z m 0.156,1.5619 -9.5579998,1.1246 0.09,0.8122 9.5589998,-1.1558 -0.09,-0.781 z m 0.09,1.6244 -9.5899998,1.1558 0.09,0.7809 9.5589998,-1.1245 -0.06,-0.8122 z m -8.6839998,7.9031 c -0.07,0.014 -0.235,0.062 -0.5,0.1875 -1.063,0.5032 -1.206,1.0425 -1.343,1.4369 -0.12,0.3437 0.07,1.1955 0.125,1.4369 -0.07,-0.012 -0.148,0.01 -0.188,0.031 -0.07,0.042 0,0.5071 0.188,0.5935 0.13,1.2058 0.916,2.1554 1.842,2.1554 0.93,0 1.684,-0.9502 1.812,-2.1554 0.203,-0.086 0.289,-0.5513 0.219,-0.5935 -0.05,-0.029 -0.147,-0.046 -0.219,-0.031 0.07,-0.2986 0.227,-1.1834 -0.03,-1.6868 -0.309,-0.5947 -1.532,-0.9684 -1.532,-0.9684 0,0 0.02,-0.2267 -0.124,-0.3123 -0.07,-0.04 -0.207,-5e-4 -0.313,0.062 0.09,-0.072 0.154,-0.1532 0.09,-0.1562 0,-8e-4 -0.02,0 -0.03,0 z m 10.3389998,0 c -0.07,0.014 -0.204,0.062 -0.469,0.1875 -1.062,0.5032 -1.236,1.0425 -1.373,1.4369 -0.12,0.3437 0.08,1.1955 0.124,1.4369 -0.07,-0.012 -0.147,0.01 -0.187,0.031 -0.07,0.042 0.02,0.5071 0.219,0.5935 0.13,1.2058 0.883,2.1554 1.811,2.1554 0.929,0 1.683,-0.9496 1.812,-2.1554 0.203,-0.086 0.288,-0.5513 0.219,-0.5935 -0.05,-0.029 -0.147,-0.046 -0.219,-0.031 0.07,-0.3013 0.256,-1.1846 0,-1.6868 -0.308,-0.5947 -1.53,-0.9684 -1.53,-0.9684 0,0 -0.01,-0.2267 -0.157,-0.3123 -0.08,-0.043 -0.202,-0.011 -0.312,0.062 0.09,-0.076 0.152,-0.1543 0.09,-0.1562 l -0.03,0 z m -8.9649998,5.5916 c -0.114,0.9378 -0.833,1.4471 -1.281,1.4369 -0.375,-0.01 -1.093,-0.4658 -1.436,-1.312 -1.136,0.061 -2.124,1.0309 -2.124,1.0309 0,0 -1.295,1.458 -0.875,3.9359 0.507,1.0289 8.1599998,1.0471 8.8079998,0.094 0.648,-0.9532 -0.274,-3.4093 -0.655,-3.9048 -0.382,-0.4957 -0.95,-1.029 -2.4369998,-1.2807 z m 10.3399998,0 c -0.114,0.9378 -0.864,1.4471 -1.312,1.4369 -0.375,-0.01 -1.062,-0.4658 -1.405,-1.312 -1.136,0.061 -2.093,1.0309 -2.093,1.0309 0,0 -1.294,1.458 -0.875,3.9359 0.508,1.0289 8.129,1.0471 8.777,0.094 0.648,-0.9532 -0.274,-3.4093 -0.655,-3.9048 -0.382,-0.4957 -0.951,-1.029 -2.437,-1.2807 z"
       id="two-persons-talking"
       style="font-size:medium;font-style:normal;font-variant:normal;font-weight:normal;font-stretch:normal;text-indent:0;text-align:start;text-decoration:none;line-height:normal;letter-spacing:normal;word-spacing:normal;text-transform:none;direction:ltr;block-progression:tb;writing-mode:lr-tb;text-anchor:start;baseline-shift:baseline;color:#000000;fill:#000000;fill-opacity:1;stroke:none;stroke-width:1.33849728px;marker:none;visibility:visible;display:inline;overflow:visible;enable-background:accumulate;font-family:Sans;-inkscape-font-specification:Sans" />
  </g>
</svg>
