<?xml version="1.0" encoding="UTF-8" standalone="no"?>
<!-- Created with Inkscape (http://www.inkscape.org/) -->
<!-- icons-mk created by Matthias Kuhnel (2019), reuseIT, https://reuseproject.org -->

<svg
   xmlns:dc="http://purl.org/dc/elements/1.1/"
   xmlns:cc="http://creativecommons.org/ns#"
   xmlns:rdf="http://www.w3.org/1999/02/22-rdf-syntax-ns#"
   xmlns:svg="http://www.w3.org/2000/svg"
   xmlns="http://www.w3.org/2000/svg"
   version="1.1"
   width="25"
   height="25"
   id="svg">
  <defs
     id="defs" />
  <metadata
     id="metadata">
    <rdf:RDF>
      <cc:Work
         rdf:about="">
        <dc:format>image/svg+xml</dc:format>
        <dc:type
           rdf:resource="http://purl.org/dc/dcmitype/StillImage" />
        <dc:title></dc:title>
      </cc:Work>
    </rdf:RDF>
  </metadata>
  <g
     transform="translate(0,-1027.3622)"
     id="icons-mk">
    <path
       d="m 10.6168,1047.7076 10.8059,0 0,4.6546 -17.8454002,0 0,-4.6546 8.9638002,-7.9112 c 0.8004,-0.7237 1.3926,-1.4309 1.7763,-2.1217 0.3838,-0.6908 0.5757,-1.409 0.5757,-2.1546 0,-1.1513 -0.3865,-2.0779 -1.1596,-2.7796 -0.773,-0.7018 -1.801,-1.0527 -3.0839,-1.0527 -0.9868002,0 -2.0668002,0.2111 -3.2401002,0.6332 -1.1732,0.4222 -2.4287,1.05 -3.7664,1.8833 l 0,-5.3947 c 1.4254,-0.4715 2.8344,-0.8306 4.2269,-1.0773 1.3926,-0.2467 2.7577002,-0.3701 4.0954002,-0.3701 2.9387,0 5.2221,0.647 6.8504,1.9408 1.6283,1.2938 2.4424,3.0976 2.4424,5.4111 0,1.3378 -0.3454,2.585 -1.0362,3.7418 -0.6908,1.1568 -2.1436,2.7056 -4.3585,4.6464 z"
       id="two"
       style="font-size:72px;font-style:normal;font-variant:normal;font-weight:bold;font-stretch:normal;line-height:125%;letter-spacing:0px;word-spacing:0px;fill:#000000;fill-opacity:1;stroke:none;font-family:DejaVu Sans;-inkscape-font-specification:DejaVu Sans Bold" />
  </g>
</svg>
