<?xml version="1.0" encoding="UTF-8" standalone="no"?>
<!-- Created with Inkscape (http://www.inkscape.org/) -->
<!-- icons-mk created by Matthias Kuhnel (2019), reuseIT, https://reuseproject.org -->

<svg
   xmlns:dc="http://purl.org/dc/elements/1.1/"
   xmlns:cc="http://creativecommons.org/ns#"
   xmlns:rdf="http://www.w3.org/1999/02/22-rdf-syntax-ns#"
   xmlns:svg="http://www.w3.org/2000/svg"
   xmlns="http://www.w3.org/2000/svg"
   version="1.1"
   width="25"
   height="25"
   id="svg">
  <defs
     id="defs" />
  <metadata
     id="metadata">
    <rdf:RDF>
      <cc:Work
         rdf:about="">
        <dc:format>image/svg+xml</dc:format>
        <dc:type
           rdf:resource="http://purl.org/dc/dcmitype/StillImage" />
        <dc:title></dc:title>
      </cc:Work>
    </rdf:RDF>
  </metadata>
  <g
     transform="translate(0,-1027.3622)"
     id="icons-mk">
    <path
       d="m 12.250054,1027.3621 c -1.9102,0 -3.4747996,0.3808 -4.6874999,1.2188 -1.2127,0.838 -1.9826,2.0871 -2.4375,3.4374 -0.6334,1.8804 -0.7607,4.0473 -0.7812,6.375 l -1.0626,0 c -0.073,-0.01 -0.1461,-0.01 -0.2187,0 -0.4385,0.095 -0.7816,0.5202 -0.7813,0.9688 l 0,12 c -0.01,0.525 0.475,1.0053 1,1 l 18.4375999,0 c 0.525,0.01 1.0053,-0.475 1,-1 l 0,-12 c -0.011,-0.5146 -0.4854,-0.9741 -1,-0.9688 l -14.7187999,0 c 0.033,-2.2411 0.1688,-4.1769 0.625,-5.5312 0.3290003,-0.9766 0.7670003,-1.6304 1.4375003,-2.0938 0.6705,-0.4633 1.6434996,-0.7812 3.1874996,-0.7812 1.7478,0 2.7477,0.399 3.4375,1.0312 0.6898,0.6324 1.1514,1.6074 1.4375,3 a 1.3238176,1.3238176 0 0 0 2.5938,-0.5312 c -0.3505,-1.7056 -1.0031,-3.2633 -2.25,-4.4062 -1.2471,-1.143 -3.0247,-1.7188 -5.2188,-1.7188 z"
       id="unlocked"
       style="font-size:medium;font-style:normal;font-variant:normal;font-weight:normal;font-stretch:normal;text-indent:0;text-align:start;text-decoration:none;line-height:normal;letter-spacing:normal;word-spacing:normal;text-transform:none;direction:ltr;block-progression:tb;writing-mode:lr-tb;text-anchor:start;baseline-shift:baseline;color:#000000;fill:#000000;fill-opacity:1;stroke:none;stroke-width:2.63691688;marker:none;visibility:visible;display:inline;overflow:visible;enable-background:accumulate;font-family:Sans;-inkscape-font-specification:Sans" />
  </g>
</svg>
