<?xml version="1.0" encoding="UTF-8" standalone="no"?>
<!-- Created with Inkscape (http://www.inkscape.org/) -->
<!-- icons-mk created by Matthias Kuhnel (2020), reuseIT, https://reuseproject.org -->

<svg
   xmlns:dc="http://purl.org/dc/elements/1.1/"
   xmlns:cc="http://creativecommons.org/ns#"
   xmlns:rdf="http://www.w3.org/1999/02/22-rdf-syntax-ns#"
   xmlns:svg="http://www.w3.org/2000/svg"
   xmlns="http://www.w3.org/2000/svg"
   version="1.1"
   width="25"
   height="25"
   id="svg">
  <defs
     id="defs" />
  <metadata
     id="metadata">
    <rdf:RDF>
      <cc:Work
         rdf:about="">
        <dc:format>image/svg+xml</dc:format>
        <dc:type
           rdf:resource="http://purl.org/dc/dcmitype/StillImage" />
        <dc:title></dc:title>
      </cc:Work>
    </rdf:RDF>
  </metadata>
  <g
     transform="translate(0,-1027.3622)"
     id="icons-mk">
    <path
       d="m 15.031,1027.6746 c -0.151,0 -0.301,0.052 -0.406,0.1562 -0.105,0.1039 -0.156,0.2234 -0.156,0.375 0,0.1497 0.05,0.2721 0.156,0.375 0.105,0.1029 0.255,0.1563 0.406,0.1563 0.148,0 0.272,-0.053 0.376,-0.1563 0.103,-0.1039 0.156,-0.2272 0.156,-0.375 0,-0.1516 -0.05,-0.2711 -0.156,-0.375 -0.104,-0.1039 -0.228,-0.1562 -0.376,-0.1562 z m 1.313,0 0,0.3125 0.406,0 0,3.7187 -0.406,0 0,0.3125 1.844,0 0,-0.3125 -0.438,0 0,-4.0312 -1.406,0 z M 0,1027.8308 l 0,1.0625 0.375,0 0,-0.6562 1.156,0 0,3.4687 -0.562,0 0,0.3125 2.188,0 0,-0.3125 -0.563,0 0,-3.4687 1.156,0 0,0.6562 0.407,0 0,-1.0625 -4.157,0 z m 11.844,0.2813 0,0.9375 -0.406,0 0,0.3437 0.406,0 0,1.8125 c 0,0.3425 0.07,0.5906 0.219,0.7188 0.146,0.1281 0.434,0.1875 0.844,0.1875 0.359,0 0.603,-0.067 0.75,-0.1875 0.146,-0.1208 0.233,-0.3256 0.25,-0.625 l -0.407,0 c 0,0.1684 -0.04,0.2945 -0.09,0.375 -0.06,0.081 -0.162,0.125 -0.282,0.125 -0.108,0 -0.177,-0.03 -0.218,-0.094 -0.04,-0.063 -0.06,-0.2398 -0.06,-0.5 l 0,-1.8124 0.844,0 0,-0.3438 -0.844,0 0,-0.9375 -1,0 z m -5.813,0.8437 c -0.503,0 -0.873,0.1605 -1.156,0.4375 -0.282,0.277 -0.437,0.6622 -0.437,1.1563 0,0.5052 0.13,0.8839 0.406,1.1562 0.276,0.2723 0.671,0.4063 1.187,0.4063 0.431,0 0.761,-0.091 1,-0.25 0.24,-0.1591 0.42,-0.4113 0.5,-0.75 l -0.468,0 c -0.04,0.217 -0.117,0.3858 -0.25,0.5 -0.133,0.1141 -0.316,0.1875 -0.532,0.1875 -0.258,0 -0.446,-0.079 -0.562,-0.25 -0.116,-0.1713 -0.188,-0.4583 -0.188,-0.8438 l 0,-0.031 2.063,0 c -0.02,-0.5614 -0.142,-0.9903 -0.406,-1.2812 -0.264,-0.291 -0.662,-0.4375 -1.157,-0.4375 z m 14.126,0 c -0.504,0 -0.874,0.1605 -1.157,0.4375 -0.282,0.277 -0.437,0.6622 -0.437,1.1563 0,0.5052 0.13,0.8839 0.406,1.1562 0.276,0.2723 0.671,0.4063 1.188,0.4063 0.43,0 0.76,-0.091 1,-0.25 0.239,-0.1591 0.419,-0.4113 0.5,-0.75 l -0.469,0 c -0.04,0.217 -0.117,0.3858 -0.25,0.5 -0.133,0.1141 -0.316,0.1875 -0.531,0.1875 -0.259,0 -0.447,-0.079 -0.563,-0.25 -0.116,-0.1713 -0.188,-0.4583 -0.187,-0.8438 l 0,-0.031 2.062,0 c -0.02,-0.5614 -0.142,-0.9903 -0.406,-1.2812 -0.264,-0.291 -0.662,-0.4375 -1.156,-0.4375 z m 3.468,0 c -0.468,0 -0.838,0.092 -1.062,0.25 -0.225,0.1581 -0.344,0.395 -0.344,0.7188 0,0.2432 0.08,0.4505 0.219,0.5937 0.138,0.1432 0.378,0.2358 0.687,0.3125 l 0.406,0.094 c 0.197,0.049 0.307,0.122 0.376,0.1875 0.07,0.065 0.124,0.1615 0.124,0.2813 0,0.1309 -0.05,0.2423 -0.156,0.3125 -0.107,0.07 -0.266,0.094 -0.468,0.094 -0.242,0 -0.454,-0.071 -0.594,-0.1875 -0.141,-0.117 -0.224,-0.2773 -0.25,-0.5 l -0.313,0 0,0.8437 c 0.232,0.056 0.449,0.097 0.657,0.125 0.207,0.028 0.408,0.031 0.593,0.031 0.507,0 0.885,-0.09 1.125,-0.25 0.241,-0.16 0.375,-0.4131 0.375,-0.75 0,-0.2601 -0.1,-0.4478 -0.25,-0.5937 -0.149,-0.146 -0.421,-0.2759 -0.812,-0.375 l -0.407,-0.094 c -0.155,-0.039 -0.252,-0.098 -0.312,-0.1563 -0.06,-0.058 -0.09,-0.1177 -0.09,-0.2187 0,-0.1236 0.05,-0.2167 0.156,-0.2813 0.104,-0.065 0.267,-0.125 0.469,-0.125 0.24,0 0.435,0.053 0.563,0.1563 0.128,0.1029 0.202,0.2647 0.218,0.4687 l 0.313,0 0,-0.75 c -0.241,-0.062 -0.457,-0.096 -0.656,-0.125 -0.2,-0.029 -0.387,-0.062 -0.563,-0.062 z m -15.75,0.094 0,0.3438 0.344,0 0.875,1.1875 -0.813,1.125 -0.406,0 0,0.3125 1.219,0 0,-0.3125 -0.406,0 0.562,-0.8125 0.563,0.8125 -0.375,0 0,0.3125 1.906,0 0,-0.3125 -0.406,0 -0.907,-1.25 0.782,-1.0625 0.375,0 0,-0.3438 -1.157,0 0,0.3438 0.376,0 -0.532,0.75 -0.531,-0.75 0.375,0 0,-0.3438 -1.844,0 z m 6.282,0 0,0.3438 0.406,0 0,2.3125 -0.406,0 0,0.3125 1.843,0 0,-0.3125 -0.437,0 0,-2.6563 -1.406,0 z m -8.126,0.2188 c 0.176,0 0.303,0.092 0.376,0.25 0.07,0.1581 0.09,0.4507 0.09,0.8437 l -0.969,0 0,-0.062 c 0,-0.3649 0.05,-0.6259 0.126,-0.7812 0.07,-0.1554 0.204,-0.25 0.374,-0.25 z m 14.126,0 c 0.175,0 0.302,0.092 0.374,0.25 0.07,0.1581 0.09,0.4507 0.09,0.8437 l -0.968,0 0,-0.062 c 0,-0.3649 0.05,-0.6259 0.124,-0.7812 0.07,-0.1554 0.205,-0.25 0.376,-0.25 z m -15.626,5.4375 -4.531,7.9687 2.438,0 c 0.339,5.2481 4.666,9.375 10,9.375 5.333,0 9.692,-4.1269 10.031,-9.375 l 2.531,0 -4.531,-7.9687 -4.531,7.9687 2.531,0 c -0.336,3.0145 -2.927,5.375 -6.031,5.375 -3.105,0 -5.664,-2.3605 -6,-5.375 l 2.625,0 -4.532,-7.9687 z"
       id="upcycling-textiles"
       style="fill:#000000;fill-opacity:1;stroke:none" />
  </g>
</svg>
