<?xml version="1.0" encoding="UTF-8" standalone="no"?>
<!-- Created with Inkscape (http://www.inkscape.org/) -->
<!-- icons-mk created by Matthias Kuhnel (2020), reuseIT, https://reuseproject.org -->

<svg
   xmlns:dc="http://purl.org/dc/elements/1.1/"
   xmlns:cc="http://creativecommons.org/ns#"
   xmlns:rdf="http://www.w3.org/1999/02/22-rdf-syntax-ns#"
   xmlns:svg="http://www.w3.org/2000/svg"
   xmlns="http://www.w3.org/2000/svg"
   version="1.1"
   width="25"
   height="25"
   id="svg">
  <defs
     id="defs" />
  <metadata
     id="metadata">
    <rdf:RDF>
      <cc:Work
         rdf:about="">
        <dc:format>image/svg+xml</dc:format>
        <dc:type
           rdf:resource="http://purl.org/dc/dcmitype/StillImage" />
        <dc:title></dc:title>
      </cc:Work>
    </rdf:RDF>
  </metadata>
  <g
     transform="translate(0,-1027.3622)"
     id="icons-mk">
    <path
       d="m 0.219,1027.3622 0,0.5313 0.812,0 0,5.4062 -0.812,0 0,0.5313 3.531,0 0,-0.5313 -1.031,0 0,-2.1562 1.188,0 c 0.714,0 1.262,-0.1556 1.687,-0.5 0.425,-0.3445 0.656,-0.8298 0.656,-1.4063 0,-0.5736 -0.232,-1.0334 -0.656,-1.375 -0.424,-0.3416 -0.97,-0.5 -1.687,-0.5 l -3.688,0 z m 7.094,0 0,2.4063 1.031,0 0,-2.4063 -1.031,0 z m 9.156,0 0,2.4063 1,0 0,-2.4063 -1,0 z m 2.281,0 0,0.5313 0.813,0 0,5.4062 -0.813,0 0,0.5313 3.531,0 0,-0.5313 -1.062,0 0,-2.1562 1.188,0 c 0.714,0 1.293,-0.1556 1.718,-0.5 0.425,-0.3445 0.625,-0.8298 0.625,-1.4063 0,-0.5736 -0.201,-1.0334 -0.625,-1.375 -0.423,-0.3416 -1.001,-0.5 -1.718,-0.5 l -3.657,0 z m -16.031,0.5313 0.469,0 c 0.377,0 0.684,0.1285 0.906,0.375 0.222,0.2464 0.344,0.5536 0.344,0.9687 0,0.418 -0.121,0.7507 -0.344,1 -0.223,0.2493 -0.532,0.375 -0.906,0.375 l -0.469,0 0,-2.7187 z m 18.5,0 0.5,0 c 0.378,0 0.684,0.1285 0.906,0.375 0.222,0.2464 0.313,0.5536 0.313,0.9687 0,0.418 -0.09,0.7507 -0.313,1 -0.223,0.2493 -0.531,0.375 -0.906,0.375 l -0.5,0 0,-2.7187 z m -8.031,1.1875 c -0.361,0 -0.67,0.066 -0.907,0.1875 -0.236,0.121 -0.44,0.3199 -0.624,0.5937 l 0,-0.6562 -2.188,0 0,0.5312 0.656,0 0,3.5625 -0.656,0 0,0.5313 2.75,0 0,-0.5313 -0.562,0 0,-2.0625 c 0,-0.4929 0.07,-0.8675 0.218,-1.0937 0.144,-0.2263 0.379,-0.3438 0.688,-0.3438 0.245,0 0.4,0.099 0.5,0.25 0.1,0.1513 0.156,0.4234 0.156,0.8125 l 0,2.4375 -0.562,0 0,0.5313 2.75,0 0,-0.5313 -0.657,0 0,-2.4062 c 0,-0.591 -0.111,-1.0397 -0.375,-1.3438 -0.263,-0.3041 -0.671,-0.4687 -1.187,-0.4687 z m -8.531,6.25 -4.438,7.8125 2.406,0 c 0.343,5.1432 4.614,9.2187 9.844,9.2187 5.231,0 9.502,-4.0751 9.844,-9.2187 l 2.468,0 -4.468,-7.8125 -4.438,7.8125 2.469,0 c -0.331,2.9582 -2.829,5.2812 -5.875,5.2812 -3.046,0 -5.575,-2.323 -5.906,-5.2812 l 2.562,0 -4.468,-7.8125 z"
       id="upcycling-pnp"
       style="fill:#000000;fill-opacity:1;stroke:none" />
  </g>
</svg>
