<?xml version="1.0" encoding="UTF-8" standalone="no"?>
<!-- Created with Inkscape (http://www.inkscape.org/) -->
<!-- icons-mk created by Matthias Kuhnel (2020), reuseIT, https://reuseproject.org -->

<svg
   xmlns:dc="http://purl.org/dc/elements/1.1/"
   xmlns:cc="http://creativecommons.org/ns#"
   xmlns:rdf="http://www.w3.org/1999/02/22-rdf-syntax-ns#"
   xmlns:svg="http://www.w3.org/2000/svg"
   xmlns="http://www.w3.org/2000/svg"
   version="1.1"
   width="25"
   height="25"
   id="svg">
  <defs
     id="defs" />
  <metadata
     id="metadata">
    <rdf:RDF>
      <cc:Work
         rdf:about="">
        <dc:format>image/svg+xml</dc:format>
        <dc:type
           rdf:resource="http://purl.org/dc/dcmitype/StillImage" />
        <dc:title></dc:title>
      </cc:Work>
    </rdf:RDF>
  </metadata>
  <g
     transform="translate(0,-1027.3622)"
     id="icons-mk">
    <path
       d="m 4.0155012,1027.3622 c -1.127,0 -2.002,0.3161 -2.656,0.9375 -0.65500004,0.6214 -1.00100004,1.4642 -1.00000004,2.5313 0,1.064 0.345,1.9098 1.00000004,2.5312 0.654,0.6214 1.529,0.9375 2.656,0.9375 0.769,0 1.387,-0.1974 1.844,-0.5312 0.456,-0.3339 0.761,-0.8428 0.937,-1.5313 l -0.875,0 c -0.128,0.5007 -0.343,0.8776 -0.625,1.125 -0.282,0.2474 -0.65,0.375 -1.094,0.375 -0.655,0 -1.121,-0.2419 -1.437,-0.7187 -0.316,-0.4769 -0.469,-1.195 -0.469,-2.1875 0,-0.9925 0.153,-1.7404 0.469,-2.2188 0.316,-0.4784 0.787,-0.7187 1.437,-0.7187 0.504,0 0.912,0.1588 1.219,0.4375 0.307,0.2786 0.509,0.6896 0.625,1.25 l 0.563,0 0,-1.6563 c -0.48,-0.1937 -0.915,-0.3421 -1.344,-0.4375 -0.429,-0.095 -0.854,-0.125 -1.25,-0.125 z m 5.844,1.9063 c -0.337,0 -0.665,0.043 -0.969,0.094 -0.304,0.051 -0.592,0.1174 -0.875,0.2187 l 0,1.0313 0.5,0 c 0.07,-0.2951 0.203,-0.5266 0.375,-0.6563 0.171,-0.1296 0.403,-0.1875 0.719,-0.1875 0.381,0 0.6929998,0.098 0.8739998,0.2813 0.182,0.1833 0.25,0.4592 0.25,0.8437 l 0,0.2813 -0.8119998,0 c -0.754,0 -1.345,0.1409 -1.719,0.4062 -0.374,0.2653 -0.531,0.654 -0.531,1.1875 0,0.4858 0.114,0.8642 0.375,1.125 0.261,0.2608 0.639,0.4063 1.125,0.4063 0.328,0 0.619,-0.068 0.8749998,-0.1875 0.256,-0.1193 0.479,-0.3122 0.687,-0.5625 l 0,0.5937 2.282,0 0,-0.5312 -0.688,0 0,-2.375 c 0,-0.6766 -0.199,-1.1841 -0.594,-1.5 -0.394,-0.316 -1.025,-0.4688 -1.8739998,-0.4688 z m 7.4999998,0 c -0.373,0 -0.662,0.062 -0.907,0.1875 -0.244,0.1251 -0.465,0.3418 -0.656,0.625 l 0,-0.6875 -2.25,0 0,0.5625 0.656,0 0,3.6562 -0.656,0 0,0.5313 2.813,0 0,-0.5313 -0.563,0 0,-2.125 c 0,-0.5097 0.07,-0.891 0.219,-1.125 0.149,-0.234 0.368,-0.3437 0.687,-0.3437 0.254,0 0.429,0.062 0.531,0.2187 0.103,0.1565 0.157,0.4414 0.157,0.8438 l 0,2.5312 -0.563,0 0,0.5313 2.844,0 0,-0.5313 -0.688,0 0,-2.4687 c 0,-0.611 -0.133,-1.0919 -0.406,-1.4063 -0.272,-0.3144 -0.685,-0.4687 -1.218,-0.4687 z m 5.093,0 c -0.745,0 -1.298,0.1231 -1.656,0.375 -0.358,0.2518 -0.531,0.6406 -0.531,1.1562 0,0.3875 0.123,0.7095 0.344,0.9375 0.22,0.228 0.57,0.3778 1.062,0.5 l 0.656,0.1875 c 0.313,0.077 0.516,0.1457 0.625,0.25 0.109,0.1043 0.156,0.278 0.157,0.4688 0,0.2086 -0.08,0.3569 -0.25,0.4687 -0.172,0.1118 -0.429,0.1563 -0.75,0.1563 -0.385,0 -0.683,-0.095 -0.907,-0.2813 -0.223,-0.1863 -0.364,-0.4578 -0.406,-0.8125 l -0.5,0 0,1.3438 c 0.37,0.089 0.732,0.1427 1.063,0.1875 0.33,0.045 0.642,0.094 0.937,0.094 0.808,0 1.398,-0.1515 1.781,-0.4063 0.383,-0.2548 0.563,-0.651 0.563,-1.1875 0,-0.4143 -0.106,-0.7363 -0.344,-0.9687 -0.238,-0.2325 -0.658,-0.4046 -1.281,-0.5625 l -0.656,-0.1875 c -0.248,-0.063 -0.436,-0.1264 -0.532,-0.2188 -0.1,-0.092 -0.125,-0.214 -0.125,-0.375 0,-0.1967 0.08,-0.3659 0.25,-0.4687 0.166,-0.1029 0.397,-0.1563 0.719,-0.1563 0.382,0 0.671,0.086 0.875,0.25 0.204,0.1639 0.317,0.4251 0.344,0.75 l 0.5,0 0,-1.2187 c -0.385,-0.098 -0.714,-0.1726 -1.031,-0.2188 -0.318,-0.046 -0.627,-0.062 -0.907,-0.062 z m -12.312,2.4375 0.593,0 0,0.9687 c 0,0.2653 -0.07,0.4641 -0.218,0.625 -0.149,0.1609 -0.35,0.25 -0.5939998,0.25 -0.235,0 -0.417,-0.07 -0.531,-0.2187 -0.115,-0.1491 -0.157,-0.3865 -0.157,-0.6875 0,-0.3011 0.06,-0.5266 0.219,-0.6875 0.158,-0.161 0.393,-0.25 0.6879998,-0.25 z m -5.3749998,3.8125 -4.40600004,7.7187 2.37400004,0 c 0.339,5.0882 4.577,9.125 9.7499998,9.125 5.173,0 9.38,-4.0373 9.719,-9.125 l 2.438,0 -4.407,-7.7187 -4.374,7.7187 2.437,0 c -0.328,2.9264 -2.799,5.2188 -5.813,5.2188 -3.0129998,0 -5.5149998,-2.2924 -5.8429998,-5.2188 l 2.531,0 -4.406,-7.7187 z"
       id="upcycling-cans"
       style="fill:#000000;fill-opacity:1;stroke:none" />
  </g>
</svg>
