<?xml version="1.0" encoding="UTF-8" standalone="no"?>
<!-- Created with Inkscape (http://www.inkscape.org/) -->
<!-- icons-mk created by Matthias Kuhnel (2019), reuseIT, https://reuseproject.org -->

<svg
   xmlns:dc="http://purl.org/dc/elements/1.1/"
   xmlns:cc="http://creativecommons.org/ns#"
   xmlns:rdf="http://www.w3.org/1999/02/22-rdf-syntax-ns#"
   xmlns:svg="http://www.w3.org/2000/svg"
   xmlns="http://www.w3.org/2000/svg"
   version="1.1"
   width="25"
   height="25"
   id="svg">
  <defs
     id="defs" />
  <metadata
     id="metadata">
    <rdf:RDF>
      <cc:Work
         rdf:about="">
        <dc:format>image/svg+xml</dc:format>
        <dc:type
           rdf:resource="http://purl.org/dc/dcmitype/StillImage" />
        <dc:title></dc:title>
      </cc:Work>
    </rdf:RDF>
  </metadata>
  <g
     transform="translate(0,-1027.3622)"
     id="icons-mk">
    <path
       d="m 6.5625021,1030.3153 c -2.0594,0 -3.75,1.6907 -3.75,3.75 0,1.1704 0.5568,2.1855 1.4063,2.875 l -3.43760001,0 c -0.4094,0 -0.7827,0.3719 -0.7811999974405,0.7813 l 0,10.9063 c 0,0.4094 0.3716999974405,0.7827 0.7811999974405,0.7812 l 16.62499991,0 c 0.4095,0 0.7828,-0.3718 0.7813,-0.7812 l 0,-2.1563 0.25,0.125 5.4375,2.7187 c 0.4693,0.2337 1.1187,-0.1633 1.125,-0.6874 l 0,-5.4376 0,-5.4687 c 0,-0.4202 -0.3928,-0.7997 -0.8125,-0.7813 -0.1092,0.01 -0.2165,0.041 -0.3125,0.094 l -5.4375,2.7188 -0.25,0.125 0,-2.1563 c 0,-0.4095 -0.3718,-0.7826 -0.7813,-0.7813 l -2.8437,0 c 0.4973,-0.5123 0.8125,-1.2008 0.8125,-1.9687 0,-1.5667 -1.277,-2.875 -2.8438,-2.875 -0.9378,0 -1.7851,0.4435 -2.3124,1.1563 -0.3771999,-1.6703 -1.8778999,-2.9376 -3.6562999,-2.9376 z m 3.25,5.5626 c 0.1404,0.4003 0.3628999,0.7648 0.6562999,1.0624 l -1.5625999,0 c 0.3673,-0.298 0.6698,-0.6564 0.9063,-1.0624 z"
       id="video"
       style="font-size:medium;font-style:normal;font-variant:normal;font-weight:normal;font-stretch:normal;text-indent:0;text-align:start;text-decoration:none;line-height:normal;letter-spacing:normal;word-spacing:normal;text-transform:none;direction:ltr;block-progression:tb;writing-mode:lr-tb;text-anchor:start;baseline-shift:baseline;color:#000000;fill:#000000;fill-opacity:1;fill-rule:nonzero;stroke:none;stroke-width:1.55646908;marker:none;visibility:visible;display:inline;overflow:visible;enable-background:accumulate;font-family:Sans;-inkscape-font-specification:Sans" />
  </g>
</svg>
