<?xml version="1.0" encoding="UTF-8" standalone="no"?>
<!-- Created with Inkscape (http://www.inkscape.org/) -->
<!-- icons-mk created by Matthias Kuhnel (2019), reuseIT, https://reuseproject.org -->

<svg
   xmlns:dc="http://purl.org/dc/elements/1.1/"
   xmlns:cc="http://creativecommons.org/ns#"
   xmlns:rdf="http://www.w3.org/1999/02/22-rdf-syntax-ns#"
   xmlns:svg="http://www.w3.org/2000/svg"
   xmlns="http://www.w3.org/2000/svg"
   version="1.1"
   width="25"
   height="25"
   id="svg">
  <defs
     id="defs" />
  <metadata
     id="metadata">
    <rdf:RDF>
      <cc:Work
         rdf:about="">
        <dc:format>image/svg+xml</dc:format>
        <dc:type
           rdf:resource="http://purl.org/dc/dcmitype/StillImage" />
        <dc:title></dc:title>
      </cc:Work>
    </rdf:RDF>
  </metadata>
  <g
     transform="translate(0,-1027.3622)"
     id="icons-mk">
    <path
       d="m 3.4000002,1031.3622 -3.40000005,0 0,2.5 3.40000005,0 z m 7.2009998,0 -6.7999998,0 0,2.5 6.7999998,0 z m 7.2,0 -6.8,0 0,2.5 6.8,0 z m 7.199,0 -6.8,0 0,2.5 6.8,0 z m -3.4,2.9 3.4,0 0,2.5 -3.4,0 z m -7.2,0 6.8,0 0,2.5 -6.8,0 z m -7.1999998,0 6.7999998,0 0,2.5 -6.7999998,0 z m -7.20000005,0 6.80000005,0 0,2.5 -6.80000005,0 z m 3.40000005,2.9 -3.40000005,0 0,2.5 3.40000005,0 z m 7.2009998,0 -6.7999998,0 0,2.5 6.7999998,0 z m 7.2,0 -6.8,0 0,2.5 6.8,0 z m 7.199,0 -6.8,0 0,2.5 6.8,0 z m -3.4,2.9 3.4,0 0,2.5 -3.4,0 z m -7.2,0 6.8,0 0,2.5 -6.8,0 z m -7.1999998,0 6.7999998,0 0,2.5 -6.7999998,0 z m -7.20000005,0 6.80000005,0 0,2.5 -6.80000005,0 z m 3.40000005,2.9 -3.40000005,0 0,2.5 3.40000005,0 z m 7.2009998,0 -6.7999998,0 0,2.5 6.7999998,0 z m 7.2,0 -6.8,0 0,2.5 6.8,0 z m 7.199,0 -6.8,0 0,2.5 6.8,0 z m -3.4,2.9 3.4,0 0,2.5 -3.4,0 z m -7.2,0 6.8,0 0,2.5 -6.8,0 z m -7.1999998,0 6.7999998,0 0,2.5 -6.7999998,0 z m -7.20000005,0 6.80000005,0 0,2.5 -6.80000005,0 z"
       id="wall"
       style="fill:#000000;fill-opacity:1" />
  </g>
</svg>
