<?xml version="1.0" encoding="UTF-8" standalone="no"?>
<!-- Created with Inkscape (http://www.inkscape.org/) -->
<!-- icons-mk created by Matthias Kuhnel (2019), reuseIT, https://reuseproject.org -->

<svg
   xmlns:dc="http://purl.org/dc/elements/1.1/"
   xmlns:cc="http://creativecommons.org/ns#"
   xmlns:rdf="http://www.w3.org/1999/02/22-rdf-syntax-ns#"
   xmlns:svg="http://www.w3.org/2000/svg"
   xmlns="http://www.w3.org/2000/svg"
   version="1.1"
   width="25"
   height="25"
   id="svg">
  <defs
     id="defs" />
  <metadata
     id="metadata">
    <rdf:RDF>
      <cc:Work
         rdf:about="">
        <dc:format>image/svg+xml</dc:format>
        <dc:type
           rdf:resource="http://purl.org/dc/dcmitype/StillImage" />
        <dc:title></dc:title>
      </cc:Work>
    </rdf:RDF>
  </metadata>
  <g
     transform="translate(0,-1027.3622)"
     id="icons-mk">
    <path
       d="m 12.5,1027.3622 c -6.8699999,0 -12.4687999,5.59 -12.4687999,12.5 0,6.9101 5.5988,12.5 12.4687999,12.5 6.869,0 12.4688,-5.5899 12.4688,-12.5 0,-6.91 -5.5998,-12.5 -12.4688,-12.5 z m -1.1562,1.4063 c 0.061,-0.01 0.1262,0.01 0.1874,0 a 1.0001,1.0001 0 0 0 0,0.1562 l 0,9.3437 -2.9374001,-1.875 a 1.0001,1.0001 0 1 0 -1.0625998,1.6875 L 12,1040.9559 a 1.0001,1.0001 0 0 0 1.5312,-0.8437 l 0,-11.1875 a 1.0001,1.0001 0 0 0 0,-0.1562 c 1.47,0.1326 2.8459,0.545 4.0938,1.1875 l -1.3438,2.3124 0.9688,0.5625 1.3438,-2.3125 c 1.3358,0.8698 2.487,2.0017 3.3437,3.3438 l -2.3437,1.3125 0.5937,1 2.3125,-1.3125 c 0.6628,1.3179 1.0646,2.7921 1.1562,4.3437 l -3.6562,0 0,1.3125 3.6562,0 c -0.095,1.6157 -0.5381,3.1406 -1.25,4.5 l -2.3437,-1.3437 -0.5625,1 2.3438,1.3437 c -0.8577,1.297 -2.0015,2.3769 -3.3126,3.2188 l -1.3124,-2.2813 -1,0.5938 1.3437,2.2812 c -1.3331,0.6737 -2.8285,1.0659 -4.4063,1.1563 l 0,-3.375 -1.3124,0 0,3.375 c -1.5579,-0.089 -3.0236001,-0.4976 -4.3437999,-1.1563 l 1.3749998,-2.375 -0.9999998,-0.5625 -1.375,2.375 c -1.3344,-0.8494 -2.4762,-1.9627 -3.3438,-3.2812 l 2.4376,-1.4063 -0.5626,-1 -2.4374,1.4375 c -0.712,-1.3594 -1.1546,-2.8843 -1.25,-4.5 l 3.4062,0 0,-1.3125 -3.4062,0 c 0.095,-1.6009 0.5181,-3.1188 1.2187,-4.4687 l 2.375,1.3437 0.5625,-0.9687 -2.3438,-1.375 c 0.8676,-1.3185 2.0094,-2.4318 3.3438,-3.2813 l 1.3438,2.3125 0.9686998,-0.5625 -1.3124998,-2.3124 c 1.1802998,-0.5889 2.4681998,-0.9859 3.8437999,-1.125 z"
       id="watch"
       style="font-size:medium;font-style:normal;font-variant:normal;font-weight:normal;font-stretch:normal;text-indent:0;text-align:start;text-decoration:none;line-height:normal;letter-spacing:normal;word-spacing:normal;text-transform:none;direction:ltr;block-progression:tb;writing-mode:lr-tb;text-anchor:start;baseline-shift:baseline;color:#000000;fill:#000000;fill-opacity:1;fill-rule:nonzero;stroke:none;stroke-width:12.15131855;marker:none;visibility:visible;display:inline;overflow:visible;enable-background:accumulate;font-family:Sans;-inkscape-font-specification:Sans" />
  </g>
</svg>
