<?xml version="1.0" encoding="UTF-8" standalone="no"?>
<!-- Created with Inkscape (http://www.inkscape.org/) -->
<!-- icons-mk created by Matthias Kuhnel (2019), reuseIT, https://reuseproject.org -->

<svg
   xmlns:dc="http://purl.org/dc/elements/1.1/"
   xmlns:cc="http://creativecommons.org/ns#"
   xmlns:rdf="http://www.w3.org/1999/02/22-rdf-syntax-ns#"
   xmlns:svg="http://www.w3.org/2000/svg"
   xmlns="http://www.w3.org/2000/svg"
   version="1.1"
   width="25"
   height="25"
   id="svg">
  <defs
     id="defs" />
  <metadata
     id="metadata">
    <rdf:RDF>
      <cc:Work
         rdf:about="">
        <dc:format>image/svg+xml</dc:format>
        <dc:type
           rdf:resource="http://purl.org/dc/dcmitype/StillImage" />
        <dc:title></dc:title>
      </cc:Work>
    </rdf:RDF>
  </metadata>
  <g
     transform="translate(0,-1027.3622)"
     id="icons-mk">
    <path
       d="m 8.0714624,1027.3622 c -0.2856,0 -0.5654,0.1135 -0.7832,0.3314 -0.4358,0.4357 -0.4358,1.1609 0,1.5967 0.4356,0.4357 1.1308,0.4357 1.5665,0 0.4357,-0.4358 0.4357,-1.161 0,-1.5967 -0.2178,-0.2179 -0.4977,-0.3314 -0.7833,-0.3314 z m 8.8571006,0 c -0.2856,0 -0.5655,0.1135 -0.7834,0.3314 -0.4356,0.4357 -0.4356,1.1609 0,1.5967 0.4358,0.4357 1.1309,0.4357 1.5666,0 0.4357,-0.4358 0.4357,-1.161 0,-1.5967 -0.2178,-0.2179 -0.4976,-0.3314 -0.7832,-0.3314 z m -10.6044006,1.7473 c -0.2856,0 -0.5655,0.1135 -0.7833,0.3314 -0.4357,0.4357 -0.4357,1.1308 0,1.5666 0.4357,0.4356 1.161,0.4356 1.5967,0 0.4357,-0.4358 0.4357,-1.1309 0,-1.5666 -0.2179,-0.2179 -0.5278,-0.3314 -0.8134,-0.3314 z m 12.3516006,0 c -0.2855,0 -0.5654,0.1135 -0.7832,0.3314 -0.4357,0.4357 -0.4357,1.1308 0,1.5666 0.4357,0.4356 1.1309,0.4356 1.5666,0 0.4356,-0.4358 0.4356,-1.1309 0,-1.5666 -0.2179,-0.2179 -0.4977,-0.3314 -0.7834,-0.3314 z m -9.6704006,0.7833 c -0.2855,0 -0.5654,0.1135 -0.7833,0.3314 -0.4357,0.4357 -0.4357,1.1308 0,1.5665 0.4358,0.4357 1.161,0.4357 1.5968,0 0.4356006,-0.4357 0.4356006,-1.1308 0,-1.5665 -0.2179,-0.2179 -0.5279,-0.3314 -0.8135,-0.3314 z m 6.9892006,0 c -0.2855,0 -0.5956,0.1135 -0.8135,0.3314 -0.4356,0.4357 -0.4356,1.1308 0,1.5665 0.4358,0.4357 1.161,0.4357 1.5968,0 0.4358,-0.4357 0.4358,-1.1308 0,-1.5665 -0.2179,-0.2179 -0.4977,-0.3314 -0.7833,-0.3314 z m -11.3876006,0.964 c -0.2855,0 -0.5654,0.1136 -0.7833,0.3314 -0.4357,0.4357 -0.4357,1.1309 0,1.5665 0.4358,0.4358 1.1308,0.4358 1.5666,0 0.4357,-0.4356 0.4357,-1.1308 0,-1.5665 -0.2179,-0.2178 -0.4977,-0.3314 -0.7833,-0.3314 z m 15.7861006,0 c -0.2856,0 -0.5654,0.1136 -0.7833,0.3314 -0.4358,0.4357 -0.4358,1.1309 0,1.5665 0.4357,0.4358 1.161,0.4358 1.5966,0 0.4358,-0.4356 0.4358,-1.1308 0,-1.5665 -0.2178,-0.2178 -0.5278,-0.3314 -0.8133,-0.3314 z m -13.1048006,0.7833 c -0.2857,0 -0.5656,0.1136 -0.7834,0.3314 -0.4357,0.4357 -0.4357,1.1308 0,1.5666 0.4357,0.4356 1.1309,0.4356 1.5666,0 0.4357,-0.4358 0.4357,-1.1309 0,-1.5666 -0.2178,-0.2178 -0.4977,-0.3314 -0.7832,-0.3314 z m 10.4235006,0 c -0.2856,0 -0.5654,0.1136 -0.7832,0.3314 -0.4357,0.4357 -0.4357,1.1308 0,1.5666 0.4357,0.4356 1.1308,0.4356 1.5666,0 0.4356,-0.4358 0.4356,-1.1309 0,-1.5666 -0.2179,-0.2178 -0.4978,-0.3314 -0.7834,-0.3314 z m -14.8521006,0.934 c -0.2856,0 -0.5654,0.1134 -0.7833,0.3313 -0.4357,0.4357 -0.4357,1.161 0,1.5967 0.4358,0.4357 1.1308,0.4357 1.5666,0 0.4357,-0.4357 0.4357,-1.161 0,-1.5967 -0.2179,-0.2179 -0.4978,-0.3313 -0.7833,-0.3313 z m 6.9592,0 c -0.2857,0 -0.5956,0.1134 -0.8135,0.3313 -0.4357,0.4357 -0.4357,1.161 0,1.5967 0.4358,0.4357 1.1610006,0.4357 1.5966006,0 0.4358,-0.4357 0.4358,-1.161 0,-1.5967 -0.2177,-0.2179 -0.4976,-0.3313 -0.7831006,-0.3313 z m 5.3623006,0 c -0.2855,0 -0.5654,0.1134 -0.7832,0.3313 -0.4357,0.4357 -0.4357,1.161 0,1.5967 0.4357,0.4357 1.1609,0.4357 1.5967,0 0.4357,-0.4357 0.4357,-1.161 0,-1.5967 -0.2179,-0.2179 -0.5279,-0.3313 -0.8135,-0.3313 z m 6.9592,0 c -0.2856,0 -0.5654,0.1134 -0.7833,0.3313 -0.4357,0.4357 -0.4357,1.161 0,1.5967 0.4357,0.4357 1.1308,0.4357 1.5666,0 0.4357,-0.4357 0.4357,-1.161 0,-1.5967 -0.2179,-0.2179 -0.4978,-0.3313 -0.7833,-0.3313 z m -16.5995006,0.7831 c -0.2856,0 -0.5654,0.1136 -0.7832,0.3315 -0.4358,0.4357 -0.4358,1.161 0,1.5966 0.4356,0.4357 1.1308,0.4357 1.5665,0 0.4357,-0.4356 0.4357,-1.1609 0,-1.5966 -0.2178,-0.2179 -0.4977,-0.3315 -0.7833,-0.3315 z m 13.9183006,0 c -0.2856,0 -0.5655,0.1136 -0.7834,0.3315 -0.4356,0.4357 -0.4356,1.161 0,1.5966 0.4358,0.4357 1.1309,0.4357 1.5665,0 0.4358,-0.4356 0.4358,-1.1609 0,-1.5966 -0.2177,-0.2179 -0.4977,-0.3315 -0.7831,-0.3315 z m -18.3468006,0.9641 c -0.2856,0 -0.5654,0.1135 -0.7833,0.3314 -0.4357,0.4357 -0.4357,1.1308 0,1.5666 0.4358,0.4357 1.161,0.4357 1.5966,0 0.4358,-0.4357 0.4358,-1.1309 0,-1.5666 -0.2177,-0.2179 -0.5278,-0.3314 -0.8133,-0.3314 z m 6.9591,0 c -0.2856,0 -0.5654,0.1135 -0.7832,0.3314 -0.4358,0.4357 -0.4358,1.1308 0,1.5666 0.4356,0.4357 1.1308,0.4357 1.5665,0 0.4357,-0.4357 0.4357,-1.1309 0,-1.5666 -0.2178,-0.2179 -0.4977,-0.3314 -0.7833,-0.3314 z m 8.8570006,0 c -0.2855,0 -0.5655,0.1135 -0.7834,0.3314 -0.4356,0.4357 -0.4356,1.1309 0,1.5666 0.4358,0.4357 1.1309,0.4357 1.5667,0 0.4356,-0.4358 0.4356,-1.1309 0,-1.5666 -0.2179,-0.2179 -0.4977,-0.3314 -0.7833,-0.3314 z m 6.9591,0 c -0.2855,0 -0.5956,0.1135 -0.8133,0.3314 -0.4357,0.4357 -0.4357,1.1309 0,1.5666 0.4357,0.4357 1.1609,0.4357 1.5967,0 0.4357,-0.4358 0.4357,-1.1309 0,-1.5666 -0.2179,-0.2179 -0.4978,-0.3314 -0.7833,-0.3314 z m -20.0639006,0.7833 c -0.2856,0 -0.5956,0.1135 -0.8134,0.3314 -0.4357,0.4357 -0.4357,1.1308 0,1.5665 0.4357,0.4358 1.161,0.4358 1.5967,0 0.4357,-0.4356 0.4357,-1.1308 0,-1.5665 -0.2179,-0.2179 -0.4977,-0.3314 -0.7833,-0.3314 z m 6.9290006,0 c -0.2856,0 -0.5654,0.1135 -0.7833004,0.3314 -0.4357002,0.4357 -0.4357002,1.1308 0,1.5665 0.4358004,0.4358 1.1309004,0.4358 1.5666004,0 0.4357,-0.4356 0.4357,-1.1308 0,-1.5665 -0.2179,-0.2179 -0.4977,-0.3314 -0.7833,-0.3314 z m 3.4945,0 c -0.2854,0 -0.5654,0.1135 -0.7831,0.3314 -0.4358,0.4357 -0.4358,1.1309 0,1.5665 0.4356,0.4358 1.1308,0.4358 1.5665,0 0.4358,-0.4357 0.4358,-1.1308 0,-1.5665 -0.2178,-0.2179 -0.4977,-0.3314 -0.7833,-0.3314 z m 6.9591,0 c -0.2854,0 -0.5954,0.1135 -0.8132,0.3314 -0.4358,0.4357 -0.4358,1.1309 0,1.5665 0.4356,0.4358 1.1609,0.4358 1.5966,0 0.4357,-0.4357 0.4357,-1.1308 0,-1.5665 -0.2178,-0.2179 -0.4977,-0.3314 -0.7834,-0.3314 z m -14.8822006,0.9641 c -0.2855,0 -0.5655,0.083 -0.7832,0.3011 -0.4357,0.4358 -0.4357,1.161 0,1.5968 0.4357,0.4357 1.161,0.4357 1.5967,0 0.4357,-0.4357 0.4357,-1.161 0,-1.5968 -0.2179,-0.2177 -0.5278,-0.3011 -0.8134,-0.3011 z m 12.3517006,0 c -0.2856,0 -0.5654,0.083 -0.7833,0.3011 -0.4356,0.4358 -0.4356,1.1611 0,1.5968 0.4358,0.4357 1.1309,0.4357 1.5667,0 0.4356,-0.4358 0.4356,-1.161 0,-1.5968 -0.2179,-0.2177 -0.4977,-0.3011 -0.7834,-0.3011 z m -9.6705006,0.7832 c -0.2854,0 -0.5654,0.1135 -0.7833,0.3314 -0.4356,0.4357 -0.4356,1.1308 0,1.5665 0.4358,0.4358 1.161,0.4358 1.5968,0 0.4356006,-0.4356 0.4356006,-1.1308 0,-1.5665 -0.2179,-0.2179 -0.5278,-0.3314 -0.8135,-0.3314 z m 6.9893006,0 c -0.2855,0 -0.5956,0.1135 -0.8135,0.3314 -0.4356,0.4357 -0.4356,1.1309 0,1.5665 0.4357,0.4358 1.161,0.4358 1.5967,0 0.4358,-0.4357 0.4358,-1.1308 0,-1.5665 -0.2178,-0.2179 -0.4977,-0.3314 -0.7832,-0.3314 z m -4.4586,0.9339 c -0.2856,0 -0.5654,0.1136 -0.7833,0.3315 -0.4358,0.4356 -0.4358,1.1308 0,1.5665 0.082,0.082 0.174,0.1297 0.2712,0.1807 -0.097,0.051 -0.1895,0.099 -0.2712,0.1808 -0.4358,0.4357 -0.4358,1.1308 0,1.5666 0.4358,0.4356 1.1308,0.4356 1.5665,0 0.082,-0.082 0.1296,-0.174 0.1808,-0.2712 0.051,0.097 0.099,0.1894 0.1808,0.2712 0.4357,0.4356 1.1308,0.4356 1.5665,0 0.4358,-0.4358 0.4358,-1.1309 0,-1.5666 -0.082,-0.082 -0.174,-0.1297 -0.2711,-0.1808 0.097,-0.051 0.1895,-0.099 0.2711,-0.1807 0.4358,-0.4357 0.4358,-1.1309 0,-1.5665 -0.4357,-0.4358 -1.1308,-0.4358 -1.5665,0 -0.082,0.082 -0.1297,0.1739 -0.1808,0.271 -0.051,-0.097 -0.099,-0.1894 -0.1808,-0.271 -0.2179,-0.2179 -0.4977,-0.3315 -0.7832,-0.3315 z m 0.964,1.6268 c 0.051,0.097 0.099,0.1895 0.1807,0.2712 0.082,0.082 0.1741,0.1297 0.2712,0.1807 -0.097,0.051 -0.1895,0.099 -0.2712,0.1808 -0.082,0.082 -0.1296,0.1739 -0.1807,0.2711 -0.051,-0.097 -0.099,-0.1894 -0.1808,-0.2711 -0.082,-0.082 -0.174,-0.1297 -0.2711,-0.1808 0.097,-0.051 0.1895,-0.099 0.2711,-0.1807 0.082,-0.082 0.1296,-0.174 0.1808,-0.2712 z m -3.6453006,1.0846 c -0.2856,0 -0.5655,0.1135 -0.7833,0.3313 -0.4356,0.4357 -0.4356,1.1309 0,1.5666 0.4358,0.4357 1.1309,0.4357 1.5665,0 0.4358006,-0.4357 0.4358006,-1.1309 0,-1.5666 -0.2177,-0.2178 -0.4975,-0.3313 -0.7831,-0.3313 z m 7.2904006,0 c -0.2855,0 -0.5654,0.1135 -0.7831,0.3313 -0.4358,0.4357 -0.4358,1.1309 0,1.5666 0.4356,0.4357 1.1308,0.4357 1.5665,0 0.4357,-0.4357 0.4357,-1.1309 0,-1.5666 -0.2178,-0.2178 -0.4977,-0.3313 -0.7834,-0.3313 z m -9.8210006,0.9338 c -0.2855,0 -0.5655,0.1136 -0.7832,0.3315 -0.4358,0.4357 -0.4358,1.1609 0,1.5966 0.4356,0.4357 1.161,0.4357 1.5966,0 0.4358,-0.4357 0.4358,-1.1609 0,-1.5966 -0.2179,-0.2179 -0.5278,-0.3315 -0.8134,-0.3315 z m 12.3516006,0 c -0.2855,0 -0.5654,0.1136 -0.7832,0.3315 -0.4357,0.4357 -0.4357,1.1609 0,1.5966 0.4357,0.4357 1.1309,0.4357 1.5666,0 0.4356,-0.4357 0.4356,-1.1609 0,-1.5966 -0.2179,-0.2179 -0.4977,-0.3315 -0.7834,-0.3315 z m -15.0328006,0.8135 c -0.2856,0 -0.5654,0.083 -0.7833,0.3012 -0.4357,0.4358 -0.4357,1.161 0,1.5968 0.4357,0.4356 1.1309,0.4356 1.5666,0 0.4357,-0.4358 0.4357,-1.161 0,-1.5968 -0.2179,-0.2178 -0.4978,-0.3012 -0.7832,-0.3012 z m 6.9590006,0 c -0.2855,0 -0.5654,0.083 -0.7831006,0.3012 -0.4358,0.4358 -0.4358,1.161 0,1.5968 0.4356006,0.4356 1.1308006,0.4356 1.5665006,0 0.4357,-0.4358 0.4357,-1.161 0,-1.5968 -0.2179,-0.2178 -0.4977,-0.3012 -0.7834,-0.3012 z m 3.796,0 c -0.2856,0 -0.5655,0.083 -0.7833,0.3012 -0.4356,0.4358 -0.4356,1.161 0,1.5968 0.4358,0.4356 1.1309,0.4356 1.5665,0 0.4358,-0.4358 0.4358,-1.161 0,-1.5968 -0.2177,-0.2178 -0.4975,-0.3012 -0.7831,-0.3012 z m 6.9591,0 c -0.2856,0 -0.5654,0.083 -0.7833,0.3012 -0.4356,0.4358 -0.4356,1.161 0,1.5968 0.4358,0.4356 1.1309,0.4356 1.5667,0 0.4356,-0.4358 0.4356,-1.161 0,-1.5968 -0.2179,-0.2178 -0.4979,-0.3012 -0.7833,-0.3012 z m -20.2447006,0.9339 c -0.2856,0 -0.5654,0.1135 -0.7833,0.3314 -0.4356,0.4357 -0.4356,1.1308 0,1.5665 0.4358,0.4358 1.161,0.4358 1.5967,0 0.4357,-0.4357 0.4357,-1.1308 0,-1.5665 -0.2177,-0.2179 -0.5278,-0.3314 -0.8133,-0.3314 z m 6.9591,0 c -0.2856,0 -0.5654,0.1135 -0.7831,0.3314 -0.4358,0.4357 -0.4358,1.1308 0,1.5665 0.4356,0.4358 1.1307,0.4358 1.5665,0 0.4356,-0.4357 0.4356,-1.1308 0,-1.5665 -0.2179,-0.2179 -0.4977,-0.3314 -0.7833,-0.3314 z m 8.8571006,0 c -0.2855,0 -0.5655,0.1135 -0.7834,0.3314 -0.4356,0.4357 -0.4356,1.1308 0,1.5665 0.4358,0.4358 1.1309,0.4358 1.5666,0 0.4357,-0.4357 0.4357,-1.1308 0,-1.5665 -0.2178,-0.2179 -0.4976,-0.3314 -0.7832,-0.3314 z m 6.9591,0 c -0.2855,0 -0.5956,0.1135 -0.8133,0.3314 -0.4358,0.4357 -0.4358,1.1308 0,1.5665 0.4356,0.4358 1.1608,0.4358 1.5966,0 0.4358,-0.4357 0.4358,-1.1308 0,-1.5665 -0.2179,-0.2179 -0.4977,-0.3314 -0.7833,-0.3314 z m -18.4974006,0.7832 c -0.2855,0 -0.5653,0.1136 -0.7832,0.3314 -0.4358,0.4358 -0.4358,1.1309 0,1.5666 0.4357,0.4357 1.1307,0.4357 1.5665,0 0.4358,-0.4357 0.4358,-1.1308 0,-1.5666 -0.2179,-0.2178 -0.4977,-0.3314 -0.7833,-0.3314 z m 14.2195006,0 c -0.2856,0 -0.5654,0.1136 -0.7833,0.3314 -0.4357,0.4358 -0.4357,1.1309 0,1.5666 0.4357,0.4357 1.1308,0.4357 1.5666,0 0.4357,-0.4357 0.4357,-1.1308 0,-1.5666 -0.2179,-0.2178 -0.4977,-0.3314 -0.7833,-0.3314 z m -16.7501006,0.964 c -0.2856,0 -0.5654,0.1136 -0.7833,0.3315 -0.4356,0.4357 -0.4356,1.1308 0,1.5665 0.4358,0.4358 1.1309,0.4358 1.5667,0 0.4356,-0.4357 0.4356,-1.1308 0,-1.5665 -0.2179,-0.2179 -0.4979,-0.3315 -0.7833,-0.3315 z m 6.9592,0 c -0.2857,0 -0.5956,0.1136 -0.8135,0.3315 -0.4357,0.4357 -0.4357,1.1308 0,1.5665 0.4358,0.4358 1.1610006,0.4358 1.5966006,0 0.4358,-0.4357 0.4358,-1.1308 0,-1.5665 -0.2177,-0.2179 -0.4976,-0.3315 -0.7831006,-0.3315 z m 5.3623006,0 c -0.2855,0 -0.5654,0.1136 -0.7832,0.3315 -0.4357,0.4357 -0.4357,1.1308 0,1.5665 0.4357,0.4358 1.161,0.4358 1.5967,0 0.4357,-0.4357 0.4357,-1.1308 0,-1.5665 -0.2178,-0.2179 -0.5279,-0.3315 -0.8135,-0.3315 z m 6.9592,0 c -0.2856,0 -0.5654,0.1136 -0.7833,0.3315 -0.4357,0.4357 -0.4357,1.1308 0,1.5665 0.4357,0.4358 1.1309,0.4358 1.5666,0 0.4357,-0.4357 0.4357,-1.1308 0,-1.5665 -0.2178,-0.2179 -0.4978,-0.3315 -0.7832,-0.3315 z m -15.0028006,0.7834 c -0.2856,0 -0.5956,0.1135 -0.8134,0.3314 -0.4357,0.4357 -0.4357,1.1308 0,1.5665 0.4357,0.4358 1.1609,0.4358 1.5967,0 0.4357,-0.4357 0.4357,-1.1308 0,-1.5665 -0.2179,-0.2179 -0.4977,-0.3314 -0.7833,-0.3314 z m 10.7550006,0 c -0.2856,0 -0.5955,0.1135 -0.8134,0.3314 -0.4357,0.4357 -0.4357,1.1308 0,1.5665 0.4357,0.4358 1.161,0.4358 1.5966,0 0.4358,-0.4357 0.4358,-1.1308 0,-1.5665 -0.2176,-0.2179 -0.4976,-0.3314 -0.7832,-0.3314 z m -13.2856006,0.9339 c -0.2855,0 -0.5654,0.1135 -0.7833,0.3313 -0.4357,0.4358 -0.4357,1.161 0,1.5967 0.4358,0.4358 1.1309,0.4358 1.5666,0 0.4357,-0.4357 0.4357,-1.1609 0,-1.5967 -0.2179,-0.2178 -0.4977,-0.3313 -0.7832,-0.3313 z m 15.7861006,0 c -0.2856,0 -0.5654,0.1135 -0.7833,0.3313 -0.4358,0.4358 -0.4358,1.161 0,1.5967 0.4357,0.4358 1.161,0.4358 1.5966,0 0.4358,-0.4357 0.4358,-1.1609 0,-1.5967 -0.2178,-0.2178 -0.5278,-0.3313 -0.8133,-0.3313 z m -11.5383006,0.7833 c -0.2856,0 -0.5655,0.1135 -0.7833,0.3314 -0.4357,0.4356 -0.4357,1.1609 0,1.5966 0.4357,0.4358 1.1309,0.4358 1.5665,0 0.4358006,-0.4357 0.4358006,-1.161 0,-1.5966 -0.2178,-0.2179 -0.4976,-0.3314 -0.7832,-0.3314 z m 7.2904006,0 c -0.2855,0 -0.5654,0.1135 -0.7831,0.3314 -0.4358,0.4356 -0.4358,1.1609 0,1.5966 0.4356,0.4358 1.1308,0.4358 1.5665,0 0.4357,-0.4357 0.4357,-1.161 0,-1.5966 -0.2179,-0.2179 -0.4977,-0.3314 -0.7834,-0.3314 z m -9.8210006,0.964 c -0.2856,0 -0.5655,0.1136 -0.7833,0.3314 -0.4357,0.4357 -0.4357,1.1308 0,1.5666 0.4357,0.4356 1.161,0.4356 1.5967,0 0.4357,-0.4358 0.4357,-1.1309 0,-1.5666 -0.2179,-0.2178 -0.5278,-0.3314 -0.8134,-0.3314 z m 12.3516006,0 c -0.2855,0 -0.5654,0.1136 -0.7832,0.3314 -0.4357,0.4357 -0.4357,1.1308 0,1.5666 0.4357,0.4356 1.1309,0.4356 1.5666,0 0.4356,-0.4358 0.4356,-1.1309 0,-1.5666 -0.2179,-0.2178 -0.4977,-0.3314 -0.7834,-0.3314 z m -10.6043006,1.7473 c -0.2856,0 -0.5654,0.083 -0.7832,0.3013 -0.4358,0.4357 -0.4358,1.1609 0,1.5966 0.4356,0.4357 1.1308,0.4357 1.5665,0 0.4357,-0.4357 0.4357,-1.1609 0,-1.5966 -0.2178,-0.2179 -0.4977,-0.3013 -0.7833,-0.3013 z m 8.8571006,0 c -0.2856,0 -0.5655,0.083 -0.7834,0.3013 -0.4356,0.4357 -0.4356,1.1609 0,1.5966 0.4358,0.4357 1.1309,0.4357 1.5666,0 0.4357,-0.4357 0.4357,-1.1609 0,-1.5966 -0.2178,-0.2179 -0.4976,-0.3013 -0.7832,-0.3013 z"
       id="windmill-balls"
       style="fill:#000000;fill-opacity:1;fill-rule:evenodd;stroke:none" />
  </g>
</svg>
