<?xml version="1.0" encoding="UTF-8" standalone="no"?>
<!-- Created with Inkscape (http://www.inkscape.org/) -->
<!-- icons-mk created by Matthias Kuhnel (2019), reuseIT, https://reuseproject.org -->

<svg
   xmlns:dc="http://purl.org/dc/elements/1.1/"
   xmlns:cc="http://creativecommons.org/ns#"
   xmlns:rdf="http://www.w3.org/1999/02/22-rdf-syntax-ns#"
   xmlns:svg="http://www.w3.org/2000/svg"
   xmlns="http://www.w3.org/2000/svg"
   version="1.1"
   width="25"
   height="25"
   id="svg">
  <defs
     id="defs" />
  <metadata
     id="metadata">
    <rdf:RDF>
      <cc:Work
         rdf:about="">
        <dc:format>image/svg+xml</dc:format>
        <dc:type
           rdf:resource="http://purl.org/dc/dcmitype/StillImage" />
        <dc:title></dc:title>
      </cc:Work>
    </rdf:RDF>
  </metadata>
  <g
     transform="translate(0,-1027.3622)"
     id="icons-mk">
    <path
       d="m 16.204,1039.8223 c 0,-3.0127 -0.2825,-5.135 -0.8474,-6.367 -0.5648,-1.232 -1.5144,-1.848 -2.8485,-1.848 -1.3342,0 -2.2865,0.616 -2.8567002,1.848 -0.5703,1.232 -0.8554,3.3543 -0.8554,6.367 0,3.045 0.2851,5.1915 0.8554,6.4396 0.5702002,1.2482 1.5225002,1.8722 2.8567002,1.8722 1.3234,0 2.2702,-0.624 2.8405,-1.8722 0.5702,-1.2481 0.8554,-3.3946 0.8554,-6.4396 z m 6.2137,0.048 c -10e-5,3.9918 -0.8608,7.0718 -2.5823,9.2398 -1.7216,2.1681 -4.1641,3.2521 -7.3273,3.2521 -3.1741002,0 -5.6220002,-1.084 -7.3435002,-3.2521 -1.7215,-2.168 -2.5823,-5.248 -2.5823,-9.2398 0,-4.0026 0.8608,-7.0879 2.5823,-9.256 1.7215,-2.168 4.1694,-3.2521 7.3435002,-3.2521 3.1632,0 5.6057,1.0841 7.3273,3.2521 1.7215,2.1681 2.5822,5.2534 2.5823,9.256 z"
       id="zero"
       style="font-size:72px;font-style:normal;font-variant:normal;font-weight:bold;font-stretch:normal;line-height:125%;letter-spacing:0px;word-spacing:0px;fill:#000000;fill-opacity:1;stroke:none;font-family:DejaVu Sans;-inkscape-font-specification:DejaVu Sans Bold" />
  </g>
</svg>
