<?xml version="1.0" encoding="UTF-8" standalone="no"?>
<!-- Created with Inkscape (http://www.inkscape.org/) -->
<!-- icons-mk created by Matthias Kuhnel (2020), reuseIT, https://reuseproject.org -->

<svg
   xmlns:dc="http://purl.org/dc/elements/1.1/"
   xmlns:cc="http://creativecommons.org/ns#"
   xmlns:rdf="http://www.w3.org/1999/02/22-rdf-syntax-ns#"
   xmlns:svg="http://www.w3.org/2000/svg"
   xmlns="http://www.w3.org/2000/svg"
   version="1.1"
   width="25"
   height="25"
   id="svg">
  <defs
     id="defs" />
  <metadata
     id="metadata">
    <rdf:RDF>
      <cc:Work
         rdf:about="">
        <dc:format>image/svg+xml</dc:format>
        <dc:type
           rdf:resource="http://purl.org/dc/dcmitype/StillImage" />
        <dc:title></dc:title>
      </cc:Work>
    </rdf:RDF>
  </metadata>
  <g
     transform="translate(0,-1027.3622)"
     id="icons-mk">
    <path
       d="m 21.779775,1029.707 c -0.687,0.042 -1.31,0.2812 -1.905,0.531 -0.912,0.3815 -1.629,0.8456 -2.156,1.2181 -1.468,-0.8752 -3.164,-1.3743 -4.997,-1.3743 -5.4159982,0 -9.8069982,4.3926 -9.8069982,9.8076 0,0.7204 0.07,1.3852 0.218,2.0615 -0.514,0.3998 -1.259,1.0514 -1.999,2.0302 -0.54900007,0.7243 -1.04500007,1.579 -1.12500007,2.5924 -0.08,1.0134 0.392,2.168 1.40600007,2.9673 0.794,0.6248 1.758,0.5402 2.749,0.3123 0.987,-0.2278 2.079,-0.6946 3.279,-1.3118 0.12,-0.061 0.253,-0.1543 0.375,-0.2187 1.443,0.8354 3.1149982,1.3431 4.9039982,1.3431 5.415,0 9.808,-4.3614 9.808,-9.7763 0,-0.936 -0.162,-1.8601 -0.406,-2.7174 0.05,-0.051 0.111,-0.1054 0.156,-0.1561 0.897,-0.9952 1.611,-1.8939 2.093,-2.7487 0.482,-0.8546 0.852,-1.6913 0.467,-2.6236 -0.449,-1.087 -1.401,-1.7785 -2.342,-1.9053 -0.236,-0.032 -0.488,-0.045 -0.718,-0.031 z m 0.125,1.999 c 0.119,-0.01 0.218,-0.013 0.312,0 0.375,0.05 0.576,0.085 0.812,0.656 -0.04,-0.1036 0,0.2926 -0.374,0.937 -0.283,0.5016 -0.763,1.1439 -1.344,1.8428 -0.508,-0.926 -1.168,-1.7229 -1.936,-2.4363 0.384,-0.2339 0.793,-0.4963 1.25,-0.6871 0.462,-0.1944 0.924,-0.2855 1.28,-0.3124 z m -9.183,0.3124 c 3.2,0 5.964,1.9379 7.184,4.6851 -1.598,1.6314 -3.653,3.4082 -5.81,5.0912 -2.084,1.627 -4.2509982,3.1254 -6.1839982,4.2478 -1.84,-1.4353 -3.029,-3.6385 -3.029,-6.1531 0,-4.332 3.508,-7.871 7.8389982,-7.871 z m -0.875,1.6866 c -0.956,0 -1.698,0.3469 -2.2169982,0.9995 -0.519,0.6527 -0.781,1.575 -0.781,2.7799 0,1.2017 0.262,2.1271 0.781,2.7798 0.5189982,0.6527 1.2609982,0.9683 2.2169982,0.9683 0.953,0 1.668,-0.3156 2.187,-0.9683 0.518,-0.6527 0.781,-1.5781 0.781,-2.7798 0,-1.2049 -0.263,-2.1272 -0.781,-2.7799 -0.519,-0.6526 -1.234,-0.9995 -2.187,-0.9995 z m 0,1.2806 c 0.402,0 0.674,0.1913 0.844,0.5622 0.165,0.3709 0.249,0.9984 0.249,1.9053 0,0.9167 -0.08,1.5921 -0.249,1.9678 -0.171,0.3757 -0.445,0.5622 -0.844,0.5622 -0.402,0 -0.704,-0.1865 -0.875,-0.5622 -0.167,-0.3757 -0.249,-1.0511 -0.249,-1.9678 0,-0.9069 0.08,-1.5344 0.249,-1.9053 0.171,-0.3709 0.473,-0.5622 0.875,-0.5622 z m 8.652,3.8731 c 0.04,0.3318 0.06,0.6872 0.06,1.0307 0,4.3317 -3.508,7.8398 -7.84,7.8398 -1.016,0 -1.984,-0.211 -2.8739982,-0.5622 1.7799982,-1.0885 3.6519982,-2.3942 5.4659982,-3.8106 1.869,-1.4586 3.661,-3.0084 5.185,-4.4977 z m -16.6479982,5.1224 c 0.538,1.1543 1.265,2.2037 2.187,3.0609 -0.887,0.4253 -1.676,0.7666 -2.281,0.9058 -0.727,0.1674 -1.132,0.049 -1.155,0.031 -0.619,-0.4871 -0.66,-0.8205 -0.625,-1.2494 0.03,-0.429 0.297,-1.006 0.719,-1.5617 0.344,-0.4549 0.783,-0.848 1.155,-1.1869 z"
       id="zero-waste"
       style="fill:#000000;fill-opacity:1;stroke:none" />
  </g>
</svg>
