<?xml version="1.0" encoding="UTF-8" standalone="no"?>
<!-- Created with Inkscape (http://www.inkscape.org/) -->
<!-- icons-mk created by Matthias Kuhnel (2019), reuseIT, https://reuseproject.org -->

<svg
   xmlns:dc="http://purl.org/dc/elements/1.1/"
   xmlns:cc="http://creativecommons.org/ns#"
   xmlns:rdf="http://www.w3.org/1999/02/22-rdf-syntax-ns#"
   xmlns:svg="http://www.w3.org/2000/svg"
   xmlns="http://www.w3.org/2000/svg"
   version="1.1"
   width="483.60999"
   height="120"
   id="svg">
  <defs
     id="defs" />
  <metadata
     id="metadata">
    <rdf:RDF>
      <cc:Work
         rdf:about="">
        <dc:format>image/svg+xml</dc:format>
        <dc:type
           rdf:resource="http://purl.org/dc/dcmitype/StillImage" />
        <dc:title></dc:title>
      </cc:Work>
    </rdf:RDF>
  </metadata>
  <g
     transform="translate(0,-932.36218)"
     id="icons-mk-logo">
    <path
       d="m 303.61248,932.36218 0,120.00002 120,0 c 33.13707,0 60,-26.8629 60,-60.00002 0,-33.13707 -26.86293,-60 -60,-60 l -120,0 z m 108.9375,27.65625 14.90625,0 0,35.25 17.15625,-17.15625 17.25,0 -22.78125,21.375 24.5625,25.21872 -18,0 -18.1875,-19.4062 0,19.4062 -14.90625,0 0,-64.68747 z m -59.90625,16.96875 c 3.21861,6e-5 6.06174,0.78996 8.53125,2.34375 2.46942,1.55388 4.34859,3.76011 5.625,6.5625 1.88673,-2.88564 4.1556,-5.14401 6.75,-6.65625 2.59428,-1.51215 5.42352,-2.24994 8.53125,-2.25 5.35509,6e-5 9.47874,1.66692 12.28125,4.96875 2.80236,3.30192 4.21866,8.13897 4.21875,14.4375 l 0,28.31247 -15,0 0,-24.2812 c 0.027,-0.3607 -0.015,-0.73655 0,-1.12502 0.015,-0.38844 0.0936,-0.96606 0.0936,-1.6875 -6e-5,-3.30186 -0.52893,-5.64051 -1.5,-7.125 -0.97122,-1.48443 -2.5233,-2.24997 -4.6875,-2.25 -2.83026,3e-5 -5.0226,1.13805 -6.5625,3.46875 -1.54002,2.33076 -2.28831,5.71326 -2.34375,10.12497 l 0,22.875 -15,0 0,-24.2812 c -3e-5,-5.16092 -0.51837,-8.45303 -1.40625,-9.93752 -0.88794,-1.48443 -2.41227,-2.24997 -4.6875,-2.25 -2.85795,3e-5 -5.10246,1.21791 -6.65625,3.5625 -1.55385,2.34465 -2.34378,5.67501 -2.34375,10.03122 l 0,22.875 -14.90625,0 0,-46.59372 14.90625,0 0,6.84375 c 1.83126,-2.63592 4.0026,-4.66809 6.375,-6 2.37234,-1.33182 4.92327,-1.96869 7.78125,-1.96875 z"
       id="mk"
       style="fill:#000000;fill-opacity:1;stroke:none" />
    <path
       d="m 266.82768,994.15192 26.13763,0 0,12.11148 -26.13763,0 z"
       id="hyphen"
       style="font-size:32px;font-style:normal;font-variant:normal;font-weight:bold;font-stretch:normal;line-height:125%;letter-spacing:0px;word-spacing:0px;fill:#000000;fill-opacity:1;stroke:none;font-family:DejaVu Sans;-inkscape-font-specification:DejaVu Sans Bold" />
    <path
       d="m 253.05904,979.58477 0,11.32075 c -3.19094,-1.33182 -6.27085,-2.33071 -9.23973,-2.99667 -2.96895,-0.6659 -5.77138,-0.99886 -8.40733,-0.99889 -2.83019,3e-5 -4.93204,0.3538 -6.30547,1.06133 -1.37349,0.70756 -2.06025,1.79664 -2.06022,3.2672 -3e-5,1.19315 0.52025,2.1088 1.56077,2.74694 1.04047,0.6382 2.90648,1.10992 5.59794,1.4151 l 2.62207,0.37457 c 7.63041,0.97119 12.76358,2.56661 15.39956,4.7864 2.63592,2.2197 3.9539,5.702 3.95395,10.4467 -5e-5,4.9667 -1.83135,8.6987 -5.49389,11.1959 -3.66263,2.4972 -9.12879,3.7458 -16.39845,3.7458 -3.07994,0 -6.26389,-0.2426 -9.55189,-0.7283 -3.28803,-0.4856 -6.66619,-1.214 -10.13458,-2.1851 l 0,-11.3208 c 2.96894,1.4429 6.01414,2.525 9.13569,3.2464 3.12152,0.7214 6.29159,1.0822 9.51026,1.0822 2.9134,0 5.10542,-0.4024 6.57602,-1.207 1.47058,-0.8047 2.20587,-1.9978 2.2059,-3.5794 -3e-5,-1.3318 -0.50642,-2.3238 -1.51914,-2.9758 -1.01279,-0.6521 -3.03138,-1.1585 -6.05578,-1.5192 l -2.6221,-0.333 c -6.63151,-0.8324 -11.27912,-2.3723 -13.94282,-4.6198 -2.66371,-2.2475 -3.99556,-5.66038 -3.99556,-10.23865 0,-4.93891 1.69254,-8.60151 5.07769,-10.98779 3.38512,-2.3862 8.57378,-3.57931 15.56603,-3.57936 2.74693,5e-5 5.6326,0.20804 8.65705,0.62429 3.02438,0.41626 6.3124,1.06831 9.86403,1.95618 z m -50.31908,16.77301 0,28.38512 -14.98335,0 0,-4.6198 0,-17.106 c -3e-5,-4.02331 -0.0903,-6.79801 -0.27053,-8.32413 -0.18033,-1.52604 -0.49254,-2.6498 -0.93648,-3.37124 -0.58271,-0.97111 -1.37348,-1.72723 -2.37235,-2.26831 -0.99891,-0.54105 -2.13656,-0.81158 -3.41287,-0.8116 -3.10769,2e-5 -5.54941,1.20008 -7.32519,3.60016 -1.77585,2.40013 -2.66374,5.72284 -2.66371,9.96812 l 0,22.9328 -14.90011,0 0,-46.61486 14.90011,0 0,6.82575 c 2.24747,-2.71914 4.6337,-4.72387 7.15871,-6.01415 2.52493,-1.29019 5.31351,-1.93529 8.36569,-1.93534 5.38287,5e-5 9.4686,1.65099 12.25724,4.95282 2.7885,3.30193 4.18279,8.10214 4.18284,14.40066 z m -83.28248,-8.69865 c -3.3019,3e-5 -5.81993,1.1862 -7.55408,3.55855 -1.73421,2.37238 -2.6013,5.79221 -2.6013,10.25942 0,4.4673 0.86709,7.8871 2.6013,10.2594 1.73415,2.3724 4.25218,3.5586 7.55408,3.5586 3.24637,0 5.72972,-1.1862 7.45007,-3.5586 1.72028,-2.3723 2.58044,-5.7921 2.58047,-10.2594 -3e-5,-4.46721 -0.86019,-7.88704 -2.58047,-10.25942 -1.72035,-2.37235 -4.2037,-3.55852 -7.45007,-3.55855 z m 0,-10.65483 c 8.01885,5e-5 14.28272,2.16432 18.79163,6.49279 4.50883,4.32855 6.76326,10.32189 6.76331,17.98001 -5e-5,7.6582 -2.25448,13.6515 -6.76331,17.98 -4.50891,4.3286 -10.77278,6.4928 -18.79163,6.4928 -8.04663,0 -14.33822,-2.1642 -18.87484,-6.4928 -4.53664,-4.3285 -6.80494,-10.3218 -6.80494,-17.98 0,-7.65812 2.2683,-13.65146 6.80494,-17.98001 4.53662,-4.32847 10.82821,-6.49274 18.87484,-6.49279 z m -35.12763,2.58047 0,12.15316 c -2.02556,-1.38731 -4.05803,-2.41396 -6.09739,-3.07991 -2.03944,-0.6659 -4.15514,-0.99886 -6.3471,-0.99889 -4.16207,3e-5 -7.40154,1.21396 -9.71838,3.64179 -2.31689,2.42789 -3.47531,5.81994 -3.47531,10.17618 0,4.3563 1.15842,7.7484 3.47531,10.1762 2.31684,2.4279 5.55631,3.6418 9.71838,3.6418 2.33071,0 4.54353,-0.3468 6.63846,-1.0405 2.09485,-0.6937 4.03019,-1.7203 5.80603,-3.0799 l 0,12.1948 c -2.33077,0.8601 -4.6962,1.5052 -7.09628,1.9353 -2.40013,0.4301 -4.80719,0.6451 -7.22115,0.6451 -8.40732,0 -14.98335,-2.1573 -19.72808,-6.472 -4.74472,-4.3146 -7.11708,-10.3149 -7.11708,-18.0008 0,-7.68588 2.37236,-13.68614 7.11708,-18.00082 4.74473,-4.31462 11.32076,-6.47193 19.72808,-6.47198 2.44172,5e-5 4.84875,0.21523 7.22115,0.64512 2.37233,0.43011 4.73775,1.07524 7.09628,1.93535 z M 17.40099,960.42121 a 7.6495464,7.6495464 0 0 0 -7.46017,7.74454 l 0,14.7238 a 7.6495464,7.6495464 0 1 0 15.29884,0 l 0,-14.7238 a 7.6495464,7.6495464 0 0 0 -7.83867,-7.74454 z M 0,986.39448 c 0,6.67275 5.24942,11.97488 12.20838,13.81482 l 0,19.8382 -12.20838,0 0,4.6585 35.17945,0 0,-4.6585 -12.20836,0 0,-19.8382 c 6.95891,-1.83994 12.20836,-7.14207 12.20836,-13.81482 l -4.57825,0 c 0,5.20853 -5.55676,9.9596 -13.01146,9.9596 -7.45476,0 -13.01147,-4.75131 -13.01147,-9.9596 l -4.57827,0 z"
       id="icons"
       style="font-size:32px;font-style:normal;font-variant:normal;font-weight:bold;font-stretch:normal;line-height:125%;letter-spacing:0px;word-spacing:0px;fill:#000000;fill-opacity:1;stroke:none;font-family:DejaVu Sans;-inkscape-font-specification:DejaVu Sans Bold" />
  </g>
</svg>
